<svg xmlns="http://www.w3.org/2000/svg" xmlns:xlink="http://www.w3.org/1999/xlink" viewBox="0 0 1920 1080"><defs><style>.cls-1{fill:none;}.cls-2{fill:#efd800;}.cls-3{isolation:isolate;}.cls-4{fill:#3d3058;}.cls-5{fill:#3b2e56;}.cls-6{fill:#3f315c;}.cls-7{fill:#6b539a;}.cls-8{clip-path:url(#clip-path);}.cls-9{fill:#392c52;}.cls-10{fill:#3b2e55;}.cls-11{fill:#372b4f;}</style><clipPath id="clip-path"><path class="cls-1" d="M893.14,533.75,867,575.35c-5.79,9.2-17.22,16.8-34.62,22l26.16-41.59C875.92,550.56,887.35,543,893.14,533.75Z"/></clipPath></defs><title>3d1</title><g id="FONDO"><rect class="cls-2" x="-40" y="-55" width="2072" height="1275"/></g><g id="Capa_1" data-name="Capa 1"><g class="cls-3"><path class="cls-4" d="M1230,553.7c-.69-1.56-1.42-3.1-2.17-4.63l-.45-.92q-1.11-2.22-2.29-4.38l-.44-.79q-1.14-2.06-2.35-4.07l-.28-.47c-.86-1.42-1.76-2.82-2.68-4.21l-.59-.89c-.87-1.28-1.74-2.56-2.65-3.81l-.2-.26c-.14-.19-.29-.38-.43-.58q-1.34-1.8-2.73-3.57l-.67-.84q-1.56-1.93-3.19-3.82l-.66-.74c-1-1.11-2-2.22-3-3.3l-.61-.65q-1.74-1.82-3.55-3.58l-.83-.79c-1.14-1.09-2.29-2.16-3.48-3.21l-.39-.37c-.06,0-.1-.09-.15-.13q-1.9-1.67-3.87-3.28c-.37-.31-.76-.61-1.13-.91-1.05-.84-2.1-1.66-3.17-2.47l-1.28-1q-2-1.47-4-2.89l-.36-.26c-1.49-1-3-2-4.55-3l-1.33-.83c-1.17-.73-2.35-1.44-3.55-2.15l-1.41-.81c-1.61-.93-3.24-1.84-4.9-2.71h0l-.15-.07c-1.78-.94-3.58-1.85-5.42-2.73-.63-.31-1.29-.59-1.93-.89-1.27-.59-2.53-1.19-3.83-1.76-.77-.34-1.58-.66-2.37-1-1.18-.5-2.36-1-3.57-1.48-.86-.34-1.74-.66-2.62-1-1.16-.44-2.32-.89-3.51-1.31-.92-.33-1.86-.64-2.79-.95-1.17-.4-2.34-.81-3.53-1.19-1-.31-1.95-.6-2.93-.9-1.18-.36-2.36-.72-3.57-1.06-1-.29-2-.56-3-.83-1.21-.33-2.41-.66-3.63-1-1.05-.27-2.11-.51-3.17-.76-1.23-.29-2.45-.58-3.7-.85-1.08-.24-2.18-.46-3.27-.68-1.26-.26-2.51-.51-3.78-.75-1.11-.21-2.24-.4-3.37-.6-1.28-.22-2.56-.44-3.85-.64l-3.48-.52c-1.3-.18-2.61-.37-3.93-.54s-2.38-.29-3.57-.42-2.67-.31-4-.44-2.44-.24-3.66-.34-2.73-.24-4.1-.34l-3.76-.25-4.19-.23c-1.27-.06-2.55-.11-3.83-.15-1.43,0-2.85-.1-4.29-.13s-2.6,0-3.92-.06l-2.1,0h-4.39c-14,.12-25.52.77-34.82,1.69-5.58.55-10.35,1.2-14.33,1.9L978,508.74c10.61-1.85,26.84-3.4,49.15-3.58,2.19,0,4.34,0,6.49,0,1.32,0,2.62,0,3.93.06l4.27.13c1.29,0,2.57.09,3.85.16s2.79.14,4.18.23,2.51.15,3.76.24l4.1.34,3.66.34c1.35.13,2.68.28,4,.44s2.4.27,3.58.42,2.62.36,3.93.55c1.16.16,2.33.33,3.48.51s2.57.42,3.84.64,2.27.39,3.39.6,2.51.5,3.76.75,2.2.44,3.28.68c1.25.27,2.47.56,3.7.85l3.17.76c1.22.31,2.42.63,3.63,1,1,.27,2,.54,3,.83,1.21.34,2.39.71,3.57,1.07,1,.29,2,.58,2.93.89,1.19.38,2.36.79,3.53,1.19.93.31,1.87.62,2.79.95,1.19.42,2.34.87,3.51,1.31.87.34,1.76.66,2.62,1,1.21.48,2.39,1,3.58,1.48.78.34,1.59.65,2.36,1,1.31.57,2.58,1.16,3.85,1.76l1.91.88c1.84.88,3.64,1.79,5.42,2.73l.15.08c1.67.87,3.3,1.78,4.91,2.71l1.41.82c1.2.7,2.38,1.41,3.55,2.14l1.33.83c1.54,1,3.06,2,4.55,3l.37.27q2,1.41,4,2.88l1.28,1c1.07.81,2.13,1.64,3.17,2.47.37.31.76.61,1.13.91,1.36,1.12,2.71,2.26,4,3.42l.4.36c1.18,1.05,2.33,2.13,3.47,3.21l.83.79q1.82,1.77,3.55,3.58l.61.65c1,1.09,2,2.19,3,3.3l.66.75q1.63,1.88,3.19,3.81l.67.84q1.4,1.77,2.73,3.57l.43.59q1.47,2,2.85,4.07c.2.29.4.59.59.89.92,1.38,1.82,2.78,2.68,4.2l.28.47c.81,1.35,1.59,2.7,2.35,4.07.15.26.3.52.44.79q1.18,2.16,2.29,4.38l.45.92c.75,1.53,1.48,3.07,2.17,4.64,12.5,27.64,13.31,50.23,2.73,67l26.17-41.59C1243.27,603.94,1242.46,581.35,1230,553.7Z"/><polygon class="cls-5" points="1056.07 677.82 1029.9 719.41 924.66 486.64 950.83 445.05 1056.07 677.82"/><path class="cls-6" d="M1268.1,644.67c-.66.69-1.34,1.37-2,2a1.59,1.59,0,0,0-.13.13c-.6.56-1.21,1.12-1.84,1.67l-.54.47c-.62.53-1.26,1.06-1.91,1.58l-.2.17c-.72.56-1.46,1.12-2.21,1.67l-.6.43c-.64.46-1.3.92-2,1.37l-.43.29c-.8.53-1.62,1-2.45,1.56-.2.13-.41.25-.62.37-.69.42-1.4.83-2.11,1.24l-.61.35c-.88.49-1.77,1-2.69,1.45l-.57.29c-.77.4-1.55.78-2.35,1.17l-.74.35c-1,.46-1.93.91-2.93,1.35l-.41.18-2.71,1.14-.83.34-1.58.61c-1,.39-2,.78-3.06,1.15l-1.42.51c-1.2.42-2.41.83-3.65,1.23l-.86.29q-2.3.72-4.67,1.41l-1.29.36c-1.2.34-2.41.67-3.64,1l-1.64.42c-1.23.3-2.47.6-3.73.89l-1.43.34q-2.58.59-5.25,1.12l-.85.17q-2.28.45-4.62.87l-1.78.31-4,.66-1.81.28c-1.69.26-3.4.5-5.13.73l-.71.1q-3,.39-6,.73l-1.77.19c-1.48.16-3,.31-4.5.45l-2.06.19c-1.59.15-3.2.28-4.83.4l-1.61.13c-2.15.15-4.32.3-6.52.42l-1.43.07c-1.76.1-3.53.18-5.32.26l-2.22.08-4.94.16-2.11.05q-3.49.09-7.06.12l-7.21,0h-10.78l-3.48,0-1.79,0-3.23,0-1.74,0-3.44-.06-1.37,0-4.71-.1-.78,0-3.84-.1-1.56,0-3-.1-1.63-.05-3-.11-1.5,0-3.47-.15-.9,0-4.26-.2-1.21-.06-3-.15-1.53-.08-2.65-.15-1.53-.09-2.72-.17-1.33-.08-3.81-.25h-.12l-26.17,41.59,3.94.26,1.27.08,2.79.17,1.48.09,2.71.15,1.49.08,3.07.16,1.14.05,4.27.2.9,0,3.47.14,1.5,0,3,.11,1.63,0,3.06.1,1.55,0,3.84.1.79,0,4.7.1,1.37,0,3.44.06,1.74,0,3.23,0,1.79,0,3.48,0h10.78l7.21,0q3.57,0,7.06-.11l2.11-.06c1.66,0,3.31-.1,4.94-.16l2.22-.08,5.32-.25,1.43-.08q3.3-.18,6.52-.42l1.61-.13c1.63-.12,3.24-.25,4.83-.4l2.06-.19c1.51-.14,3-.29,4.51-.45l1.76-.19c2-.23,4-.47,6-.73l.71-.1c1.73-.23,3.44-.47,5.13-.73l1.81-.28q2-.32,4-.66l1.78-.31q2.34-.42,4.62-.87l.85-.17q2.67-.54,5.25-1.12l1.43-.33,3.73-.9,1.64-.42c1.23-.32,2.44-.65,3.64-1l1.29-.36q2.37-.68,4.67-1.41l.86-.29c1.24-.4,2.46-.81,3.65-1.23l1.42-.5c1-.38,2.06-.77,3.06-1.16l.86-.32.71-.29.84-.34c.92-.37,1.82-.75,2.71-1.14l.41-.18c1-.44,2-.89,2.93-1.35l.75-.35q1.18-.57,2.34-1.17l.57-.29c.92-.47,1.81-1,2.69-1.45l.61-.35c.72-.41,1.42-.82,2.11-1.24.21-.12.42-.24.62-.37.83-.51,1.65-1,2.45-1.56l.43-.29c.67-.45,1.33-.91,2-1.37l.6-.43c.75-.55,1.49-1.11,2.21-1.67l.2-.17c.65-.52,1.29-1,1.91-1.58l.54-.47c.63-.55,1.24-1.11,1.84-1.67l.14-.13c.5-.48,1-1,1.47-1.46l.57-.58a65,65,0,0,0,8.42-10.67L1276.52,634A65,65,0,0,1,1268.1,644.67Z"/><path class="cls-7" d="M1189.08,467.7c38.49,19.07,68.23,46.31,85.53,84.58,17.46,38.61,14.89,70.35-6.51,92.39-21.25,22.37-67.43,34.75-132.4,35.3-30.75.26-57-.58-79.63-2.15L950.83,445.05a801.76,801.76,0,0,1,89.53-5.7C1102.35,438.83,1151.1,448.64,1189.08,467.7ZM1133,655.32c92.25-.78,125.83-37.71,96.94-101.62-24.74-55.82-85.41-90.9-176.67-90.14-22.31.19-38.54,1.73-49.15,3.59l84.45,186.78c11.54,1.31,27.57,1.53,44.43,1.39"/></g><g class="cls-3"><g class="cls-3"><g class="cls-8"><g class="cls-3"><path class="cls-9" d="M893.14,533.75,867,575.35a35,35,0,0,1-4.6,5.79l26.17-41.59a35,35,0,0,0,4.6-5.8"/><path class="cls-10" d="M888.54,539.55l-26.17,41.59c-5,5.11-12.06,9.57-21.29,13.22l26.17-41.59c9.23-3.65,16.29-8.11,21.29-13.22"/><path class="cls-4" d="M867.25,552.77l-26.17,41.59q-4.08,1.62-8.73,3l26.16-41.59q4.66-1.39,8.74-3"/></g></g></g><polygon class="cls-5" points="783.55 569.45 757.38 611.04 746.91 587.87 773.08 546.28 783.55 569.45"/><path class="cls-6" d="M698.69,528.42l.35-.21,1.49-.84.32-.17c.42-.23.85-.46,1.29-.68l.48-.25c.49-.25,1-.5,1.49-.74l.22-.11,1.77-.82.5-.23,1.45-.63.51-.22,2-.8.33-.13,1.62-.62.63-.23,1.47-.52.61-.22,2.1-.7.06,0,2.1-.65.67-.2,1.62-.46.71-.19,2-.52.36-.09,2.35-.56.67-.15,1.79-.38.79-.17,1.92-.37.59-.1c.83-.15,1.68-.3,2.53-.43l.6-.09,2-.29.85-.11,2-.24.73-.08,2.69-.26.44,0,2.31-.17.88,0,2-.09.85,0c.94,0,1.89-.05,2.84-.06s1.89,0,2.82,0l1.75,0c.62,0,1.24,0,1.85.06l1.71.07,1.8.1,1.66.11,1.76.15,1.61.16c.58,0,1.14.12,1.71.19l1.57.19,1.66.23L775,516l1.62.28,1.47.27,1.57.31,1.42.31,1.54.35,1.37.34c.5.12,1,.26,1.48.39l1.33.37,1.44.43,1.28.4,1.39.47,1.23.42,1.36.51,1.18.45,1.31.55,1.13.47,1.27.58,1.08.5,1.24.62,1,.51.42.23c.92.49,1.8,1,2.67,1.51l.63.37c.94.57,1.85,1.15,2.73,1.75l.49.35c.77.53,1.52,1.08,2.25,1.64l.47.36c.81.63,1.58,1.28,2.34,1.93l.56.51c.47.42.92.84,1.36,1.26l.58.57c.5.5,1,1,1.46,1.52l.28.29c.55.61,1.08,1.23,1.6,1.85l.41.52c.37.47.73.93,1.08,1.4l.49.67c.24.35.48.69.71,1l.48.72c.23.36.45.72.67,1.08s.28.46.41.7q.35.6.66,1.2c.11.2.22.39.32.59.31.6.6,1.2.87,1.81a24.8,24.8,0,0,1,2.49,11.14,18.14,18.14,0,0,1-2.84,9.18h0l26.17-41.59c3.45-5.48,4-12.22.35-20.32-.27-.61-.56-1.21-.87-1.81-.1-.2-.21-.39-.32-.59-.21-.4-.43-.81-.66-1.21-.13-.23-.28-.46-.41-.69s-.44-.72-.67-1.08l-.48-.72c-.23-.35-.47-.7-.71-1-.09-.11-.16-.23-.24-.35l-.25-.32c-.35-.47-.71-.93-1.08-1.4l-.41-.52c-.52-.63-1.05-1.24-1.6-1.85l-.28-.29c-.47-.51-1-1-1.46-1.52l-.58-.57c-.44-.42-.89-.84-1.36-1.26l-.37-.35-.19-.16c-.76-.65-1.53-1.3-2.34-1.93l-.47-.36q-1.1-.84-2.25-1.65l-.49-.34c-.88-.6-1.79-1.18-2.73-1.75l-.63-.37c-.87-.52-1.75-1-2.67-1.51l-.29-.16-.13-.07-1-.52-1.24-.61-1.08-.5-1.27-.58-1.13-.48-1.31-.54-1.18-.45-1.36-.51-1.23-.42-1.39-.47-1.28-.4-1.44-.43-1.33-.37c-.49-.13-1-.27-1.48-.39l-1.37-.34-1.54-.36-1.41-.3-1.58-.31c-.49-.1-1-.18-1.47-.27l-1.62-.28-1.52-.23L798,474l-1.57-.19-1.71-.2-1.61-.15-1.76-.15-1.66-.11-1.8-.1-1.71-.08L784.3,473l-1.75,0-.94,0h-1.88c-1,0-1.9,0-2.84.06l-.85,0-2,.09-.88,0-2.32.17-.43,0c-.9.08-1.8.16-2.69.26l-.73.08c-.66.08-1.32.15-2,.24l-.84.11-2,.29-.6.09c-.85.13-1.7.28-2.53.42l-.57.11-1.94.37-.79.16-1.79.39-.67.15-2.35.56-.34.09-2,.51-.71.2-1.62.46-.67.2-2.1.65-.06,0-2.1.7-.61.21-1.47.53-.63.23L737,481l-.27.11-.06,0c-.66.26-1.31.53-1.95.8l-.51.22-1.45.63-.5.23c-.61.27-1.2.54-1.77.82l-.22.11c-.51.24-1,.49-1.49.74l-.48.24-1.29.68-.32.18-1.49.84-.35.2-1.1.66-.38.24-1.3.83-21.56-22.37-26.17,41.59,21.56,22.37,1.3-.83.38-.24Z"/><path class="cls-6" d="M892.78,591.8l-.48-.36c-.82-.6-1.67-1.19-2.53-1.76l-.62-.41c-.71-.46-1.43-.92-2.17-1.37l-.64-.4c-.9-.54-1.81-1.07-2.74-1.58l-.54-.3-1.44-.78-.61-.3c-.77-.4-1.55-.79-2.33-1.17l-1.29-.63c-.95-.44-1.92-.87-2.89-1.29l-.84-.37c-1.25-.54-2.53-1.05-3.82-1.55l-1-.38c-1-.36-1.92-.71-2.9-1l-1.46-.49q-1.28-.43-2.58-.84c-.53-.17-1.05-.33-1.58-.48l-2.58-.75-1.58-.44-2.79-.71-1.41-.35c-1.24-.3-2.5-.58-3.75-.84l-.49-.11c-1.42-.3-2.85-.58-4.28-.84l-1.33-.23-3-.5-1.63-.25-2.77-.38-1.7-.22-2.78-.32-1.64-.17-3-.27-1.35-.12c-1.46-.11-2.93-.2-4.39-.28l-.45,0c-1.31-.07-2.62-.12-3.93-.16l-1.47,0-2.92,0h-3.13l-24.3.2L757.38,611l24.3-.2h3.13l2.92,0,1.47,0c1.31,0,2.62.1,3.94.16l.44,0c1.46.08,2.93.17,4.39.28l1.35.12,3,.27,1.64.17,2.78.32,1.7.22c.93.12,1.85.25,2.77.39l1.63.24,3,.5,1.33.23c1.43.27,2.86.54,4.28.84l.49.11c1.25.27,2.51.55,3.75.84l1.41.35,2.79.72,1.58.43,2.58.75,1.58.48q1.3.4,2.58.84l1.46.49c1,.34,1.94.69,2.9,1l1,.38c1.29.5,2.57,1,3.82,1.55l.84.37c1,.42,1.94.85,2.89,1.3l1.29.62c.78.38,1.56.77,2.33,1.17s1.38.72,2.06,1.09l.53.29c.93.51,1.84,1,2.74,1.58l.64.4c.74.45,1.46.91,2.17,1.37l.62.41c.86.58,1.71,1.16,2.53,1.76l.48.36c.69.51,1.37,1,2,1.55l.62.5c.78.63,1.55,1.28,2.3,1.94.45.4.88.82,1.32,1.22s.79.72,1.17,1.09.83.85,1.24,1.28.74.75,1.1,1.14.78.9,1.18,1.35.68.77,1,1.16.75,1,1.12,1.46.62.78.91,1.17a1.27,1.27,0,0,0,.13.19c.53.75,1,1.5,1.53,2.27.17.26.32.51.48.77.38.61.75,1.24,1.11,1.87l.43.78c.48.87.93,1.75,1.35,2.65,4.09,8.54,5.13,18.39-.09,26.69l26.17-41.59c5.22-8.3,4.18-18.15.09-26.69-.42-.9-.88-1.78-1.35-2.65-.14-.27-.29-.52-.43-.78-.36-.63-.73-1.26-1.11-1.87-.16-.26-.31-.52-.48-.77-.49-.77-1-1.52-1.53-2.27l-.14-.19,0,0c-.28-.38-.58-.75-.86-1.12s-.75-1-1.14-1.48-.66-.76-1-1.14-.78-.93-1.2-1.38-.72-.75-1.08-1.12-.82-.87-1.25-1.29-.78-.72-1.17-1.09-.87-.82-1.32-1.22l-.06-.06c-.73-.64-1.48-1.26-2.24-1.88l-.63-.5C894.15,592.82,893.47,592.31,892.78,591.8Z"/><path class="cls-6" d="M926.67,700.53c.28-.31.54-.64.81-1s.36-.43.53-.65.55-.73.82-1.09l.41-.55c.39-.56.77-1.12,1.13-1.69L956.54,654c-.36.57-.74,1.13-1.13,1.69l-.41.54c-.27.37-.54.74-.82,1.1s-.35.43-.53.65-.53.64-.81,1-.4.45-.61.67-.55.61-.83.91l-.51.51c-.47.47-.95.93-1.45,1.39l-.56.51c-.66.59-1.33,1.17-2,1.74l-.06,0c-.69.56-1.42,1.1-2.16,1.63-.22.16-.44.32-.67.47-.6.42-1.22.84-1.85,1.25l-.62.4c-.83.51-1.68,1-2.55,1.52l-.51.28c-.74.4-1.49.8-2.26,1.19q-.4.22-.84.42-1.17.58-2.4,1.14l-.55.25c-1,.45-2,.88-3.08,1.29l-1.15.45c-.49.19-1,.38-1.49.56l-1.27.45-1.53.52-1.34.43-1.58.49-1.39.41-1.64.46-1.44.38-1.69.42-1.51.36c-.58.13-1.16.27-1.75.39s-1,.23-1.55.33l-1.82.37-1.6.3-1.88.33-1.65.27-2,.3-1.69.24-2,.27-1.72.21-2.12.23c-.58.06-1.16.13-1.75.18l-2.21.2-1.78.15-2.33.16c-.59,0-1.17.09-1.76.12l-2.52.13-1.69.09c-1,0-1.92.06-2.88.09l-1.45,0c-1.47,0-3,.06-4.45.07h-3.26L866,684l-1.9,0-1.51,0-1.81,0-1.54-.06-1.78-.06-1.54-.08-1.76-.09-1.53-.09-1.75-.11-1.54-.11-1.72-.13-1.54-.13-1.69-.14-1.55-.15-1.66-.16-1.54-.16L838,682.2l-1.53-.18-1.63-.2-1.5-.19-1.62-.21-1.48-.2-1.59-.23-1.47-.22c-.53-.07-1.06-.15-1.58-.24l-1.44-.22-1.55-.26-1.43-.24-1.52-.26-1.41-.25-1.49-.28-1.39-.26-1.48-.29-1.34-.26-1.46-.3-1.32-.28-1.42-.3L807,677l-1.39-.31-1.27-.29-1.36-.33-1.23-.29-1.34-.34-1.18-.29-1.31-.34-1.16-.31-1.27-.34-1.12-.31-1.25-.35-1.06-.3-1.24-.37-1-.3-1.21-.37-1-.29-1.2-.39-.87-.29-1.22-.4-.78-.27-1.26-.44-.65-.23c-.63-.22-1.23-.45-1.82-.67L753.7,710.81c.59.22,1.19.45,1.82.67l.65.23c.42.15.83.3,1.26.44l.78.27,1.22.41.87.28,1.21.39,1,.29,1.21.38,1,.29,1.24.37,1.05.3,1.27.36,1.1.3,1.28.35,1.16.3,1.31.34,1.18.3,1.35.33,1.21.29,1.38.33,1.26.29,1.4.31,1.29.29,1.42.3,1.32.28,1.46.3,1.33.26,1.5.29,1.36.26,1.52.28,1.39.25,1.54.27,1.41.23,1.57.26,1.42.22,1.6.25,1.45.21,1.61.23,1.47.2,1.62.21,1.5.19,1.64.2,1.51.18,1.66.18,1.52.16,1.69.16,1.52.15,1.72.15,1.51.12,1.75.13,1.52.11,1.76.11,1.51.09q.9.06,1.8.09l1.51.08,1.82.07,1.49.05,1.86,0,1.47,0,2,0h1.52c1,0,2.09,0,3.13,0,1.51,0,3,0,4.45-.08l1.45-.05c1,0,1.93,0,2.88-.09l1.69-.09,2.52-.13,1.76-.11,2.33-.17c.6,0,1.19-.1,1.78-.15s1.48-.12,2.21-.2,1.17-.12,1.75-.18l2.12-.23,1.72-.21c.68-.09,1.36-.17,2-.27l1.69-.24,2-.3,1.65-.27,1.88-.33,1.6-.3,1.82-.37c.52-.1,1-.21,1.55-.33s1.17-.25,1.75-.39,1-.23,1.51-.36,1.13-.28,1.69-.42l1.45-.38,1.63-.46,1.39-.41,1.58-.49,1.34-.43,1.53-.52,1.28-.45,1.48-.56c.3-.11.61-.22.9-.34l.25-.11c1-.41,2.08-.84,3.08-1.28l.55-.26c.82-.37,1.62-.75,2.4-1.13l.84-.42c.77-.4,1.52-.79,2.26-1.2l.51-.28c.87-.5,1.72-1,2.55-1.52l.62-.4c.63-.41,1.25-.82,1.85-1.25.23-.15.45-.31.67-.47q1.13-.79,2.16-1.62l.06,0c.72-.57,1.39-1.15,2.05-1.74l.56-.51c.5-.46,1-.92,1.45-1.39.1-.11.22-.21.33-.32s.11-.13.18-.19l.83-.9Z"/><path class="cls-7" d="M776.89,447.92c63.48-.54,104.31,25.9,116.85,53.64,10.64,23.52-.15,43.71-35.23,54.22l.32.7c42.22,5.29,84,26.08,98.42,58C973.76,651,948,683.31,870.67,684c-36.21.31-71.6-7.5-90.8-14.74l1.11-24c14.93,5.51,47.67,14,77.92,13.79,56-.47,62-25.9,52.91-44.85-14.95-32-61.8-45.3-104-44.94l-24.3.2-10.47-23.17,24.29-.2c31.74-.27,66.68-12.2,54.45-39.23-8.25-18.26-31.92-34.27-72.09-33.93-25.79.21-46.93,8.5-57.65,15.63l-21.56-22.37C713.41,457.27,742.17,448.21,776.89,447.92Z"/><polygon class="cls-11" points="779.87 669.22 753.7 710.81 754.81 686.84 780.98 645.25 779.87 669.22"/></g></g></svg>