<svg xmlns="http://www.w3.org/2000/svg" xmlns:xlink="http://www.w3.org/1999/xlink" viewBox="0 0 4204 2190"><defs><style>.cls-1,.cls-5{fill:none;}.cls-2{fill:#a986bf;}.cls-3{isolation:isolate;}.cls-4{clip-path:url(#clip-path);}.cls-5{stroke:#000;stroke-miterlimit:10;stroke-width:0.25px;}.cls-6{clip-path:url(#clip-path-2);}.cls-7{clip-path:url(#clip-path-3);}.cls-8{clip-path:url(#clip-path-4);}.cls-9{clip-path:url(#clip-path-5);}.cls-10{clip-path:url(#clip-path-6);}.cls-11{clip-path:url(#clip-path-7);}.cls-12{clip-path:url(#clip-path-8);}.cls-13{clip-path:url(#clip-path-9);}.cls-14{clip-path:url(#clip-path-10);}.cls-15{clip-path:url(#clip-path-11);}.cls-16{clip-path:url(#clip-path-12);}.cls-17{clip-path:url(#clip-path-13);}.cls-18{clip-path:url(#clip-path-14);}.cls-19{clip-path:url(#clip-path-15);}.cls-20{clip-path:url(#clip-path-16);}.cls-21{clip-path:url(#clip-path-17);}.cls-22{clip-path:url(#clip-path-18);}.cls-23{clip-path:url(#clip-path-19);}.cls-24{clip-path:url(#clip-path-20);}.cls-25{clip-path:url(#clip-path-21);}.cls-26{clip-path:url(#clip-path-22);}.cls-27{clip-path:url(#clip-path-23);}.cls-28{clip-path:url(#clip-path-24);}.cls-29{clip-path:url(#clip-path-25);}.cls-30{clip-path:url(#clip-path-26);}.cls-31{clip-path:url(#clip-path-27);}.cls-32{clip-path:url(#clip-path-28);}.cls-33{clip-path:url(#clip-path-29);}.cls-34{clip-path:url(#clip-path-30);}.cls-35{clip-path:url(#clip-path-31);}.cls-36{clip-path:url(#clip-path-32);}.cls-37{clip-path:url(#clip-path-33);}.cls-38{clip-path:url(#clip-path-34);}.cls-39{clip-path:url(#clip-path-35);}.cls-40{clip-path:url(#clip-path-36);}.cls-41{clip-path:url(#clip-path-37);}.cls-42{clip-path:url(#clip-path-38);}.cls-43{clip-path:url(#clip-path-39);}.cls-44{clip-path:url(#clip-path-40);}.cls-45{clip-path:url(#clip-path-41);}.cls-46{clip-path:url(#clip-path-42);}.cls-47{clip-path:url(#clip-path-43);}.cls-48{clip-path:url(#clip-path-44);}.cls-49{clip-path:url(#clip-path-45);}.cls-50{clip-path:url(#clip-path-46);}.cls-51{clip-path:url(#clip-path-47);}.cls-52{clip-path:url(#clip-path-48);}.cls-53{clip-path:url(#clip-path-49);}.cls-54{clip-path:url(#clip-path-50);}.cls-55{clip-path:url(#clip-path-51);}.cls-56{clip-path:url(#clip-path-52);}.cls-57{clip-path:url(#clip-path-53);}.cls-58{clip-path:url(#clip-path-54);}.cls-59{clip-path:url(#clip-path-55);}.cls-60{clip-path:url(#clip-path-56);}.cls-61{clip-path:url(#clip-path-57);}.cls-62{clip-path:url(#clip-path-58);}.cls-63{clip-path:url(#clip-path-59);}.cls-64{clip-path:url(#clip-path-60);}.cls-65{clip-path:url(#clip-path-61);}.cls-66{clip-path:url(#clip-path-62);}.cls-67{clip-path:url(#clip-path-63);}.cls-68{clip-path:url(#clip-path-64);}.cls-69{clip-path:url(#clip-path-65);}.cls-70{clip-path:url(#clip-path-66);}.cls-71{clip-path:url(#clip-path-67);}.cls-72{clip-path:url(#clip-path-68);}.cls-73{clip-path:url(#clip-path-69);}.cls-74{clip-path:url(#clip-path-70);}.cls-75{clip-path:url(#clip-path-71);}.cls-76{clip-path:url(#clip-path-72);}.cls-77{clip-path:url(#clip-path-73);}.cls-78{clip-path:url(#clip-path-74);}.cls-79{clip-path:url(#clip-path-75);}.cls-80{clip-path:url(#clip-path-76);}.cls-81{clip-path:url(#clip-path-77);}.cls-82{clip-path:url(#clip-path-78);}.cls-83{clip-path:url(#clip-path-79);}.cls-84{clip-path:url(#clip-path-80);}.cls-85{clip-path:url(#clip-path-81);}.cls-86{clip-path:url(#clip-path-82);}.cls-87{clip-path:url(#clip-path-83);}.cls-88{clip-path:url(#clip-path-84);}.cls-89{clip-path:url(#clip-path-85);}.cls-90{clip-path:url(#clip-path-86);}.cls-91{clip-path:url(#clip-path-87);}.cls-92{clip-path:url(#clip-path-88);}.cls-93{clip-path:url(#clip-path-89);}.cls-94{clip-path:url(#clip-path-90);}.cls-95{clip-path:url(#clip-path-91);}.cls-96{clip-path:url(#clip-path-92);}.cls-97{clip-path:url(#clip-path-93);}.cls-98{clip-path:url(#clip-path-94);}.cls-99{clip-path:url(#clip-path-95);}.cls-100{clip-path:url(#clip-path-96);}.cls-101{clip-path:url(#clip-path-97);}.cls-102{clip-path:url(#clip-path-98);}.cls-103{clip-path:url(#clip-path-99);}.cls-104{clip-path:url(#clip-path-100);}.cls-105{clip-path:url(#clip-path-101);}.cls-106{clip-path:url(#clip-path-102);}.cls-107{fill:#8376ce;}.cls-108{fill:#4234c6;}.cls-109{fill:#5a53e0;}.cls-110{fill:#dd7bee;}.cls-111{fill:#3d3058;}.cls-112{fill:#3b2e56;}.cls-113{fill:#3f315c;}.cls-114{fill:#6b539a;}.cls-115{clip-path:url(#clip-path-103);}.cls-116{fill:#392c52;}.cls-117{fill:#3b2e55;}.cls-118{fill:#372b4f;}.cls-119{clip-path:url(#clip-path-104);}.cls-120{clip-path:url(#clip-path-105);}.cls-121{clip-path:url(#clip-path-106);}.cls-122{clip-path:url(#clip-path-107);}.cls-123{clip-path:url(#clip-path-108);}.cls-124{clip-path:url(#clip-path-109);}</style><clipPath id="clip-path"><polygon class="cls-1" points="304.51 -86.6 535.34 524.59 -6.68 634.15 -237.51 22.96 304.51 -86.6"/></clipPath><clipPath id="clip-path-2"><polygon class="cls-1" points="547.68 -279.15 778.51 332.04 236.49 441.61 5.66 -169.59 547.68 -279.15"/></clipPath><clipPath id="clip-path-3"><polygon class="cls-1" points="547.68 -279.15 778.51 332.04 535.34 524.59 304.51 -86.6 547.68 -279.15"/></clipPath><clipPath id="clip-path-4"><polygon class="cls-1" points="778.51 332.04 535.34 524.59 -6.68 634.15 236.49 441.61 778.51 332.04"/></clipPath><clipPath id="clip-path-5"><polygon class="cls-1" points="236.49 441.61 -6.68 634.15 -237.51 22.96 5.66 -169.59 236.49 441.61"/></clipPath><clipPath id="clip-path-6"><polygon class="cls-1" points="5.66 -169.59 547.68 -279.15 304.51 -86.6 -237.51 22.96 5.66 -169.59"/></clipPath><clipPath id="clip-path-7"><polygon class="cls-1" points="975.51 -264.6 1206.34 346.59 664.32 456.15 433.49 -155.04 975.51 -264.6"/></clipPath><clipPath id="clip-path-8"><polygon class="cls-1" points="1218.68 -457.15 1449.51 154.04 907.49 263.61 676.66 -347.59 1218.68 -457.15"/></clipPath><clipPath id="clip-path-9"><polygon class="cls-1" points="1218.68 -457.15 1449.51 154.04 1206.34 346.59 975.51 -264.6 1218.68 -457.15"/></clipPath><clipPath id="clip-path-10"><polygon class="cls-1" points="1449.51 154.04 1206.34 346.59 664.32 456.15 907.49 263.61 1449.51 154.04"/></clipPath><clipPath id="clip-path-11"><polygon class="cls-1" points="907.49 263.61 664.32 456.15 433.49 -155.04 676.66 -347.59 907.49 263.61"/></clipPath><clipPath id="clip-path-12"><polygon class="cls-1" points="975.51 193.4 1206.34 804.59 664.32 914.15 433.49 302.96 975.51 193.4"/></clipPath><clipPath id="clip-path-13"><polygon class="cls-1" points="1218.68 0.85 1449.51 612.04 907.49 721.61 676.66 110.41 1218.68 0.85"/></clipPath><clipPath id="clip-path-14"><polygon class="cls-1" points="1218.68 0.85 1449.51 612.04 1206.34 804.59 975.51 193.4 1218.68 0.85"/></clipPath><clipPath id="clip-path-15"><polygon class="cls-1" points="1449.51 612.04 1206.34 804.59 664.32 914.15 907.49 721.61 1449.51 612.04"/></clipPath><clipPath id="clip-path-16"><polygon class="cls-1" points="907.49 721.61 664.32 914.15 433.49 302.96 676.66 110.41 907.49 721.61"/></clipPath><clipPath id="clip-path-17"><polygon class="cls-1" points="676.66 110.41 1218.68 0.85 975.51 193.4 433.49 302.96 676.66 110.41"/></clipPath><clipPath id="clip-path-18"><polygon class="cls-1" points="3076.76 291 3266.09 326.27 3248.03 966.37 3058.7 931.1 3076.76 291"/></clipPath><clipPath id="clip-path-19"><polygon class="cls-1" points="3817.97 173.63 4007.3 208.9 3989.24 849 3799.92 813.73 3817.97 173.63"/></clipPath><clipPath id="clip-path-20"><polygon class="cls-1" points="3817.97 173.63 4007.3 208.9 3266.09 326.27 3076.76 291 3817.97 173.63"/></clipPath><clipPath id="clip-path-21"><polygon class="cls-1" points="4007.3 208.9 3989.24 849 3248.03 966.37 3266.09 326.27 4007.3 208.9"/></clipPath><clipPath id="clip-path-22"><polygon class="cls-1" points="3989.24 849 3248.03 966.37 3058.7 931.1 3799.92 813.73 3989.24 849"/></clipPath><clipPath id="clip-path-23"><polygon class="cls-1" points="3799.92 813.73 3058.7 931.1 3076.76 291 3817.97 173.63 3799.92 813.73"/></clipPath><clipPath id="clip-path-24"><polygon class="cls-1" points="2921.76 879 3111.09 914.27 3093.03 1554.37 2903.7 1519.1 2921.76 879"/></clipPath><clipPath id="clip-path-25"><polygon class="cls-1" points="3662.97 761.63 3852.3 796.9 3834.24 1437 3644.92 1401.73 3662.97 761.63"/></clipPath><clipPath id="clip-path-26"><polygon class="cls-1" points="3662.97 761.63 3852.3 796.9 3111.09 914.27 2921.76 879 3662.97 761.63"/></clipPath><clipPath id="clip-path-27"><polygon class="cls-1" points="3852.3 796.9 3834.24 1437 3093.03 1554.37 3111.09 914.27 3852.3 796.9"/></clipPath><clipPath id="clip-path-28"><polygon class="cls-1" points="3834.24 1437 3093.03 1554.37 2903.7 1519.1 3644.92 1401.73 3834.24 1437"/></clipPath><clipPath id="clip-path-29"><polygon class="cls-1" points="3644.92 1401.73 2903.7 1519.1 2921.76 879 3662.97 761.63 3644.92 1401.73"/></clipPath><clipPath id="clip-path-30"><polygon class="cls-1" points="3629.76 780 3819.09 815.27 3801.03 1455.37 3611.7 1420.1 3629.76 780"/></clipPath><clipPath id="clip-path-31"><polygon class="cls-1" points="4370.98 662.63 4560.31 697.9 3819.09 815.27 3629.76 780 4370.98 662.63"/></clipPath><clipPath id="clip-path-32"><polygon class="cls-1" points="4560.31 697.9 4542.24 1338 3801.03 1455.37 3819.09 815.27 4560.31 697.9"/></clipPath><clipPath id="clip-path-33"><polygon class="cls-1" points="4542.24 1338 3801.03 1455.37 3611.7 1420.1 4352.92 1302.73 4542.24 1338"/></clipPath><clipPath id="clip-path-34"><polygon class="cls-1" points="4352.92 1302.73 3611.7 1420.1 3629.76 780 4370.98 662.63 4352.92 1302.73"/></clipPath><clipPath id="clip-path-35"><polygon class="cls-1" points="1626.27 1702.53 1812.48 1774.76 1724.52 2394.84 1538.3 2322.62 1626.27 1702.53"/></clipPath><clipPath id="clip-path-36"><polygon class="cls-1" points="2367.49 1585.16 2553.7 1657.38 2465.73 2277.47 2279.52 2205.24 2367.49 1585.16"/></clipPath><clipPath id="clip-path-37"><polygon class="cls-1" points="2367.49 1585.16 2553.7 1657.38 1812.48 1774.76 1626.27 1702.53 2367.49 1585.16"/></clipPath><clipPath id="clip-path-38"><polygon class="cls-1" points="2553.7 1657.38 2465.73 2277.47 1724.52 2394.84 1812.48 1774.76 2553.7 1657.38"/></clipPath><clipPath id="clip-path-39"><polygon class="cls-1" points="2279.52 2205.24 1538.3 2322.62 1626.27 1702.53 2367.49 1585.16 2279.52 2205.24"/></clipPath><clipPath id="clip-path-40"><polygon class="cls-1" points="731.76 1453 921.09 1488.27 903.02 2128.37 713.7 2093.1 731.76 1453"/></clipPath><clipPath id="clip-path-41"><polygon class="cls-1" points="1472.97 1335.63 1662.31 1370.9 1644.24 2011 1454.92 1975.73 1472.97 1335.63"/></clipPath><clipPath id="clip-path-42"><polygon class="cls-1" points="1472.97 1335.63 1662.31 1370.9 921.09 1488.27 731.76 1453 1472.97 1335.63"/></clipPath><clipPath id="clip-path-43"><polygon class="cls-1" points="1662.31 1370.9 1644.24 2011 903.02 2128.37 921.09 1488.27 1662.31 1370.9"/></clipPath><clipPath id="clip-path-44"><polygon class="cls-1" points="1644.24 2011 903.02 2128.37 713.7 2093.1 1454.92 1975.73 1644.24 2011"/></clipPath><clipPath id="clip-path-45"><polygon class="cls-1" points="1454.92 1975.73 713.7 2093.1 731.76 1453 1472.97 1335.63 1454.92 1975.73"/></clipPath><clipPath id="clip-path-46"><polygon class="cls-1" points="3450.76 1373 3640.09 1408.27 3622.03 2048.37 3432.7 2013.1 3450.76 1373"/></clipPath><clipPath id="clip-path-47"><polygon class="cls-1" points="4191.98 1255.63 4381.31 1290.9 4363.24 1931 4173.92 1895.73 4191.98 1255.63"/></clipPath><clipPath id="clip-path-48"><polygon class="cls-1" points="4191.98 1255.63 4381.31 1290.9 3640.09 1408.27 3450.76 1373 4191.98 1255.63"/></clipPath><clipPath id="clip-path-49"><polygon class="cls-1" points="4381.31 1290.9 4363.24 1931 3622.03 2048.37 3640.09 1408.27 4381.31 1290.9"/></clipPath><clipPath id="clip-path-50"><polygon class="cls-1" points="4363.24 1931 3622.03 2048.37 3432.7 2013.1 4173.92 1895.73 4363.24 1931"/></clipPath><clipPath id="clip-path-51"><polygon class="cls-1" points="4173.92 1895.73 3432.7 2013.1 3450.76 1373 4191.98 1255.63 4173.92 1895.73"/></clipPath><clipPath id="clip-path-52"><polygon class="cls-1" points="1070.01 160.11 1443 611.81 1324.77 795.25 951.79 343.56 1070.01 160.11"/></clipPath><clipPath id="clip-path-53"><polygon class="cls-1" points="1811.23 42.74 2184.22 494.44 2065.99 677.88 1693 226.19 1811.23 42.74"/></clipPath><clipPath id="clip-path-54"><polygon class="cls-1" points="1811.23 42.74 2184.22 494.44 1443 611.81 1070.01 160.11 1811.23 42.74"/></clipPath><clipPath id="clip-path-55"><polygon class="cls-1" points="2184.22 494.44 2065.99 677.88 1324.77 795.25 1443 611.81 2184.22 494.44"/></clipPath><clipPath id="clip-path-56"><polygon class="cls-1" points="2065.99 677.88 1324.77 795.25 951.79 343.56 1693 226.19 2065.99 677.88"/></clipPath><clipPath id="clip-path-57"><polygon class="cls-1" points="1693 226.19 951.79 343.56 1070.01 160.11 1811.23 42.74 1693 226.19"/></clipPath><clipPath id="clip-path-58"><polygon class="cls-1" points="2728.82 1452.49 2913.41 1534.92 2805.97 2146.87 2621.37 2064.46 2728.82 1452.49"/></clipPath><clipPath id="clip-path-59"><polygon class="cls-1" points="3470.03 1335.12 3654.63 1417.55 3547.18 2029.5 3362.58 1947.08 3470.03 1335.12"/></clipPath><clipPath id="clip-path-60"><polygon class="cls-1" points="3470.03 1335.12 3654.63 1417.55 2913.41 1534.92 2728.82 1452.49 3470.03 1335.12"/></clipPath><clipPath id="clip-path-61"><polygon class="cls-1" points="3654.63 1417.55 3547.18 2029.5 2805.97 2146.87 2913.41 1534.92 3654.63 1417.55"/></clipPath><clipPath id="clip-path-62"><polygon class="cls-1" points="3547.18 2029.5 2805.97 2146.87 2621.37 2064.46 3362.58 1947.08 3547.18 2029.5"/></clipPath><clipPath id="clip-path-63"><polygon class="cls-1" points="3362.58 1947.08 2621.37 2064.46 2728.82 1452.49 3470.03 1335.12 3362.58 1947.08"/></clipPath><clipPath id="clip-path-64"><polygon class="cls-1" points="2906.07 333.37 3359.45 193.57 3418.71 444.01 2965.34 583.8 2906.07 333.37"/></clipPath><clipPath id="clip-path-65"><polygon class="cls-1" points="3647.29 215.99 4100.67 76.2 4159.93 326.63 3706.56 466.43 3647.29 215.99"/></clipPath><clipPath id="clip-path-66"><polygon class="cls-1" points="3647.29 215.99 2906.07 333.37 3359.45 193.57 4100.67 76.2 3647.29 215.99"/></clipPath><clipPath id="clip-path-67"><polygon class="cls-1" points="4100.67 76.2 4159.93 326.63 3418.71 444.01 3359.45 193.57 4100.67 76.2"/></clipPath><clipPath id="clip-path-68"><polygon class="cls-1" points="4159.93 326.63 3706.56 466.43 2965.34 583.8 3418.71 444.01 4159.93 326.63"/></clipPath><clipPath id="clip-path-69"><polygon class="cls-1" points="3706.56 466.43 2965.34 583.8 2906.07 333.37 3647.29 215.99 3706.56 466.43"/></clipPath><clipPath id="clip-path-70"><polygon class="cls-1" points="2799.07 -25.63 3252.45 -165.43 3311.71 85.01 2858.34 224.8 2799.07 -25.63"/></clipPath><clipPath id="clip-path-71"><polygon class="cls-1" points="3540.29 -143.01 3993.67 -282.8 4052.93 -32.37 3599.56 107.43 3540.29 -143.01"/></clipPath><clipPath id="clip-path-72"><polygon class="cls-1" points="3993.67 -282.8 4052.93 -32.37 3311.71 85.01 3252.45 -165.43 3993.67 -282.8"/></clipPath><clipPath id="clip-path-73"><polygon class="cls-1" points="4052.93 -32.37 3599.56 107.43 2858.34 224.8 3311.71 85.01 4052.93 -32.37"/></clipPath><clipPath id="clip-path-74"><polygon class="cls-1" points="3599.56 107.43 2858.34 224.8 2799.07 -25.63 3540.29 -143.01 3599.56 107.43"/></clipPath><clipPath id="clip-path-75"><polygon class="cls-1" points="352.07 1062.37 805.45 922.58 864.71 1173.01 411.34 1312.8 352.07 1062.37"/></clipPath><clipPath id="clip-path-76"><polygon class="cls-1" points="1093.29 944.99 1546.67 805.2 1605.93 1055.63 1152.56 1195.43 1093.29 944.99"/></clipPath><clipPath id="clip-path-77"><polygon class="cls-1" points="1093.29 944.99 352.07 1062.37 805.45 922.58 1546.67 805.2 1093.29 944.99"/></clipPath><clipPath id="clip-path-78"><polygon class="cls-1" points="1546.67 805.2 1605.93 1055.63 864.71 1173.01 805.45 922.58 1546.67 805.2"/></clipPath><clipPath id="clip-path-79"><polygon class="cls-1" points="1605.93 1055.63 1152.56 1195.43 411.34 1312.8 864.71 1173.01 1605.93 1055.63"/></clipPath><clipPath id="clip-path-80"><polygon class="cls-1" points="1152.56 1195.43 411.34 1312.8 352.07 1062.37 1093.29 944.99 1152.56 1195.43"/></clipPath><clipPath id="clip-path-81"><polygon class="cls-1" points="36.29 1195.99 489.67 1056.2 548.93 1306.63 95.56 1446.43 36.29 1195.99"/></clipPath><clipPath id="clip-path-82"><polygon class="cls-1" points="36.29 1195.99 -704.93 1313.37 -251.55 1173.58 489.67 1056.2 36.29 1195.99"/></clipPath><clipPath id="clip-path-83"><polygon class="cls-1" points="489.67 1056.2 548.93 1306.63 -192.29 1424.01 -251.55 1173.58 489.67 1056.2"/></clipPath><clipPath id="clip-path-84"><polygon class="cls-1" points="548.93 1306.63 95.56 1446.43 -645.66 1563.8 -192.29 1424.01 548.93 1306.63"/></clipPath><clipPath id="clip-path-85"><polygon class="cls-1" points="95.56 1446.43 -645.66 1563.8 -704.93 1313.37 36.29 1195.99 95.56 1446.43"/></clipPath><clipPath id="clip-path-86"><polygon class="cls-1" points="-411.93 831.37 41.45 691.58 100.71 942.01 -352.66 1081.8 -411.93 831.37"/></clipPath><clipPath id="clip-path-87"><polygon class="cls-1" points="329.29 713.99 782.67 574.2 841.93 824.63 388.56 964.43 329.29 713.99"/></clipPath><clipPath id="clip-path-88"><polygon class="cls-1" points="329.29 713.99 -411.93 831.37 41.45 691.58 782.67 574.2 329.29 713.99"/></clipPath><clipPath id="clip-path-89"><polygon class="cls-1" points="782.67 574.2 841.93 824.63 100.71 942.01 41.45 691.58 782.67 574.2"/></clipPath><clipPath id="clip-path-90"><polygon class="cls-1" points="841.93 824.63 388.56 964.43 -352.66 1081.8 100.71 942.01 841.93 824.63"/></clipPath><clipPath id="clip-path-91"><polygon class="cls-1" points="388.56 964.43 -352.66 1081.8 -411.93 831.37 329.29 713.99 388.56 964.43"/></clipPath><clipPath id="clip-path-92"><polygon class="cls-1" points="2323.8 216.64 2593.34 783.77 2436.97 906.74 2167.44 339.6 2323.8 216.64"/></clipPath><clipPath id="clip-path-93"><polygon class="cls-1" points="3065.02 99.27 3334.56 666.4 3178.19 789.37 2908.66 222.23 3065.02 99.27"/></clipPath><clipPath id="clip-path-94"><polygon class="cls-1" points="3065.02 99.27 3334.56 666.4 2593.34 783.77 2323.8 216.64 3065.02 99.27"/></clipPath><clipPath id="clip-path-95"><polygon class="cls-1" points="3334.56 666.4 3178.19 789.37 2436.97 906.74 2593.34 783.77 3334.56 666.4"/></clipPath><clipPath id="clip-path-96"><polygon class="cls-1" points="3178.19 789.37 2436.97 906.74 2167.44 339.6 2908.66 222.23 3178.19 789.37"/></clipPath><clipPath id="clip-path-97"><polygon class="cls-1" points="2908.66 222.23 2167.44 339.6 2323.8 216.64 3065.02 99.27 2908.66 222.23"/></clipPath><clipPath id="clip-path-98"><polygon class="cls-1" points="1980.81 -287.36 2250.34 279.77 2093.97 402.74 1824.44 -164.4 1980.81 -287.36"/></clipPath><clipPath id="clip-path-99"><polygon class="cls-1" points="2722.02 -404.74 2991.56 162.4 2835.19 285.37 2565.66 -281.77 2722.02 -404.74"/></clipPath><clipPath id="clip-path-100"><polygon class="cls-1" points="2722.02 -404.74 2991.56 162.4 2250.34 279.77 1980.81 -287.36 2722.02 -404.74"/></clipPath><clipPath id="clip-path-101"><polygon class="cls-1" points="2991.56 162.4 2835.19 285.37 2093.97 402.74 2250.34 279.77 2991.56 162.4"/></clipPath><clipPath id="clip-path-102"><polygon class="cls-1" points="2835.19 285.37 2093.97 402.74 1824.44 -164.4 2565.66 -281.77 2835.19 285.37"/></clipPath><clipPath id="clip-path-103"><path class="cls-1" d="M2014.9,1046.3l-26.17,41.6c-5.79,9.2-17.22,16.8-34.62,22l26.17-41.59C1997.68,1063.11,2009.11,1055.51,2014.9,1046.3Z"/></clipPath><clipPath id="clip-path-104"><polygon class="cls-1" points="-122.19 1562.64 147.34 2129.78 -9.02 2252.74 -278.56 1685.6 -122.19 1562.64"/></clipPath><clipPath id="clip-path-105"><polygon class="cls-1" points="619.02 1445.27 888.56 2012.4 732.2 2135.36 462.66 1568.23 619.02 1445.27"/></clipPath><clipPath id="clip-path-106"><polygon class="cls-1" points="619.02 1445.27 888.56 2012.4 147.34 2129.78 -122.19 1562.64 619.02 1445.27"/></clipPath><clipPath id="clip-path-107"><polygon class="cls-1" points="888.56 2012.4 732.2 2135.36 -9.02 2252.74 147.34 2129.78 888.56 2012.4"/></clipPath><clipPath id="clip-path-108"><polygon class="cls-1" points="732.2 2135.36 -9.02 2252.74 -278.56 1685.6 462.66 1568.23 732.2 2135.36"/></clipPath><clipPath id="clip-path-109"><polygon class="cls-1" points="462.66 1568.23 -278.56 1685.6 -122.19 1562.64 619.02 1445.27 462.66 1568.23"/></clipPath></defs><title>3d2</title><g id="FORMAS"><rect class="cls-2" x="-191" y="-243" width="4894" height="2667"/><g class="cls-3"><g class="cls-3"><g class="cls-4"><polygon class="cls-5" points="304.51 -86.6 535.34 524.59 -6.68 634.15 -237.51 22.96 304.51 -86.6"/></g></g><g class="cls-3"><g class="cls-6"><polygon class="cls-5" points="547.68 -279.15 778.51 332.04 236.49 441.61 5.66 -169.59 547.68 -279.15"/></g></g><g class="cls-3"><g class="cls-7"><polygon class="cls-5" points="547.68 -279.15 778.51 332.04 535.34 524.59 304.51 -86.6 547.68 -279.15"/></g></g><g class="cls-3"><g class="cls-8"><polygon class="cls-5" points="778.51 332.04 535.34 524.59 -6.68 634.15 236.49 441.61 778.51 332.04"/></g></g><g class="cls-3"><g class="cls-9"><polygon class="cls-5" points="236.49 441.61 -6.68 634.15 -237.51 22.96 5.66 -169.59 236.49 441.61"/></g></g><g class="cls-3"><g class="cls-10"><polygon class="cls-5" points="5.66 -169.59 547.68 -279.15 304.51 -86.6 -237.51 22.96 5.66 -169.59"/></g></g></g><g class="cls-3"><g class="cls-3"><g class="cls-11"><polygon class="cls-5" points="975.51 -264.6 1206.34 346.59 664.32 456.15 433.49 -155.04 975.51 -264.6"/></g></g><g class="cls-3"><g class="cls-12"><polygon class="cls-5" points="1218.68 -457.15 1449.51 154.04 907.49 263.61 676.66 -347.59 1218.68 -457.15"/></g></g><g class="cls-3"><g class="cls-13"><polygon class="cls-5" points="1218.68 -457.15 1449.51 154.04 1206.34 346.59 975.51 -264.6 1218.68 -457.15"/></g></g><g class="cls-3"><g class="cls-14"><polygon class="cls-5" points="1449.51 154.04 1206.34 346.59 664.32 456.15 907.49 263.61 1449.51 154.04"/></g></g><g class="cls-3"><g class="cls-15"><polygon class="cls-5" points="907.49 263.61 664.32 456.15 433.49 -155.04 676.66 -347.59 907.49 263.61"/></g></g></g><g class="cls-3"><g class="cls-3"><g class="cls-16"><polygon class="cls-5" points="975.51 193.4 1206.34 804.59 664.32 914.15 433.49 302.96 975.51 193.4"/></g></g><g class="cls-3"><g class="cls-17"><polygon class="cls-5" points="1218.68 0.85 1449.51 612.04 907.49 721.61 676.66 110.41 1218.68 0.85"/></g></g><g class="cls-3"><g class="cls-18"><polygon class="cls-5" points="1218.68 0.85 1449.51 612.04 1206.34 804.59 975.51 193.4 1218.68 0.85"/></g></g><g class="cls-3"><g class="cls-19"><polygon class="cls-5" points="1449.51 612.04 1206.34 804.59 664.32 914.15 907.49 721.61 1449.51 612.04"/></g></g><g class="cls-3"><g class="cls-20"><polygon class="cls-5" points="907.49 721.61 664.32 914.15 433.49 302.96 676.66 110.41 907.49 721.61"/></g></g><g class="cls-3"><g class="cls-21"><polygon class="cls-5" points="676.66 110.41 1218.68 0.85 975.51 193.4 433.49 302.96 676.66 110.41"/></g></g></g><g class="cls-3"><g class="cls-3"><g class="cls-22"><polygon class="cls-5" points="3076.76 291 3266.09 326.27 3248.03 966.37 3058.7 931.1 3076.76 291"/></g></g><g class="cls-3"><g class="cls-23"><polygon class="cls-5" points="3817.97 173.63 4007.3 208.9 3989.24 849 3799.92 813.73 3817.97 173.63"/></g></g><g class="cls-3"><g class="cls-24"><polygon class="cls-5" points="3817.97 173.63 4007.3 208.9 3266.09 326.27 3076.76 291 3817.97 173.63"/></g></g><g class="cls-3"><g class="cls-25"><polygon class="cls-5" points="4007.3 208.9 3989.24 849 3248.03 966.37 3266.09 326.27 4007.3 208.9"/></g></g><g class="cls-3"><g class="cls-26"><polygon class="cls-5" points="3989.24 849 3248.03 966.37 3058.7 931.1 3799.92 813.73 3989.24 849"/></g></g><g class="cls-3"><g class="cls-27"><polygon class="cls-5" points="3799.92 813.73 3058.7 931.1 3076.76 291 3817.97 173.63 3799.92 813.73"/></g></g></g><g class="cls-3"><g class="cls-3"><g class="cls-28"><polygon class="cls-5" points="2921.76 879 3111.09 914.27 3093.03 1554.37 2903.7 1519.1 2921.76 879"/></g></g><g class="cls-3"><g class="cls-29"><polygon class="cls-5" points="3662.97 761.63 3852.3 796.9 3834.24 1437 3644.92 1401.73 3662.97 761.63"/></g></g><g class="cls-3"><g class="cls-30"><polygon class="cls-5" points="3662.97 761.63 3852.3 796.9 3111.09 914.27 2921.76 879 3662.97 761.63"/></g></g><g class="cls-3"><g class="cls-31"><polygon class="cls-5" points="3852.3 796.9 3834.24 1437 3093.03 1554.37 3111.09 914.27 3852.3 796.9"/></g></g><g class="cls-3"><g class="cls-32"><polygon class="cls-5" points="3834.24 1437 3093.03 1554.37 2903.7 1519.1 3644.92 1401.73 3834.24 1437"/></g></g><g class="cls-3"><g class="cls-33"><polygon class="cls-5" points="3644.92 1401.73 2903.7 1519.1 2921.76 879 3662.97 761.63 3644.92 1401.73"/></g></g></g><g class="cls-3"><g class="cls-3"><g class="cls-34"><polygon class="cls-5" points="3629.76 780 3819.09 815.27 3801.03 1455.37 3611.7 1420.1 3629.76 780"/></g></g><g class="cls-3"><g class="cls-35"><polygon class="cls-5" points="4370.98 662.63 4560.31 697.9 3819.09 815.27 3629.76 780 4370.98 662.63"/></g></g><g class="cls-3"><g class="cls-36"><polygon class="cls-5" points="4560.31 697.9 4542.24 1338 3801.03 1455.37 3819.09 815.27 4560.31 697.9"/></g></g><g class="cls-3"><g class="cls-37"><polygon class="cls-5" points="4542.24 1338 3801.03 1455.37 3611.7 1420.1 4352.92 1302.73 4542.24 1338"/></g></g><g class="cls-3"><g class="cls-38"><polygon class="cls-5" points="4352.92 1302.73 3611.7 1420.1 3629.76 780 4370.98 662.63 4352.92 1302.73"/></g></g></g><g class="cls-3"><g class="cls-3"><g class="cls-39"><polygon class="cls-5" points="1626.27 1702.53 1812.48 1774.76 1724.52 2394.84 1538.3 2322.62 1626.27 1702.53"/></g></g><g class="cls-3"><g class="cls-40"><polygon class="cls-5" points="2367.49 1585.16 2553.7 1657.38 2465.73 2277.47 2279.52 2205.24 2367.49 1585.16"/></g></g><g class="cls-3"><g class="cls-41"><polygon class="cls-5" points="2367.49 1585.16 2553.7 1657.38 1812.48 1774.76 1626.27 1702.53 2367.49 1585.16"/></g></g><g class="cls-3"><g class="cls-42"><polygon class="cls-5" points="2553.7 1657.38 2465.73 2277.47 1724.52 2394.84 1812.48 1774.76 2553.7 1657.38"/></g></g><g class="cls-3"><g class="cls-43"><polygon class="cls-5" points="2279.52 2205.24 1538.3 2322.62 1626.27 1702.53 2367.49 1585.16 2279.52 2205.24"/></g></g></g><g class="cls-3"><g class="cls-3"><g class="cls-44"><polygon class="cls-5" points="731.76 1453 921.09 1488.27 903.02 2128.37 713.7 2093.1 731.76 1453"/></g></g><g class="cls-3"><g class="cls-45"><polygon class="cls-5" points="1472.97 1335.63 1662.31 1370.9 1644.24 2011 1454.92 1975.73 1472.97 1335.63"/></g></g><g class="cls-3"><g class="cls-46"><polygon class="cls-5" points="1472.97 1335.63 1662.31 1370.9 921.09 1488.27 731.76 1453 1472.97 1335.63"/></g></g><g class="cls-3"><g class="cls-47"><polygon class="cls-5" points="1662.31 1370.9 1644.24 2011 903.02 2128.37 921.09 1488.27 1662.31 1370.9"/></g></g><g class="cls-3"><g class="cls-48"><polygon class="cls-5" points="1644.24 2011 903.02 2128.37 713.7 2093.1 1454.92 1975.73 1644.24 2011"/></g></g><g class="cls-3"><g class="cls-49"><polygon class="cls-5" points="1454.92 1975.73 713.7 2093.1 731.76 1453 1472.97 1335.63 1454.92 1975.73"/></g></g></g><g class="cls-3"><g class="cls-3"><g class="cls-50"><polygon class="cls-5" points="3450.76 1373 3640.09 1408.27 3622.03 2048.37 3432.7 2013.1 3450.76 1373"/></g></g><g class="cls-3"><g class="cls-51"><polygon class="cls-5" points="4191.98 1255.63 4381.31 1290.9 4363.24 1931 4173.92 1895.73 4191.98 1255.63"/></g></g><g class="cls-3"><g class="cls-52"><polygon class="cls-5" points="4191.98 1255.63 4381.31 1290.9 3640.09 1408.27 3450.76 1373 4191.98 1255.63"/></g></g><g class="cls-3"><g class="cls-53"><polygon class="cls-5" points="4381.31 1290.9 4363.24 1931 3622.03 2048.37 3640.09 1408.27 4381.31 1290.9"/></g></g><g class="cls-3"><g class="cls-54"><polygon class="cls-5" points="4363.24 1931 3622.03 2048.37 3432.7 2013.1 4173.92 1895.73 4363.24 1931"/></g></g><g class="cls-3"><g class="cls-55"><polygon class="cls-5" points="4173.92 1895.73 3432.7 2013.1 3450.76 1373 4191.98 1255.63 4173.92 1895.73"/></g></g></g><g class="cls-3"><g class="cls-3"><g class="cls-56"><polygon class="cls-5" points="1070.01 160.11 1443 611.81 1324.77 795.25 951.79 343.56 1070.01 160.11"/></g></g><g class="cls-3"><g class="cls-57"><polygon class="cls-5" points="1811.23 42.74 2184.22 494.44 2065.99 677.88 1693 226.19 1811.23 42.74"/></g></g><g class="cls-3"><g class="cls-58"><polygon class="cls-5" points="1811.23 42.74 2184.22 494.44 1443 611.81 1070.01 160.11 1811.23 42.74"/></g></g><g class="cls-3"><g class="cls-59"><polygon class="cls-5" points="2184.22 494.44 2065.99 677.88 1324.77 795.25 1443 611.81 2184.22 494.44"/></g></g><g class="cls-3"><g class="cls-60"><polygon class="cls-5" points="2065.99 677.88 1324.77 795.25 951.79 343.56 1693 226.19 2065.99 677.88"/></g></g><g class="cls-3"><g class="cls-61"><polygon class="cls-5" points="1693 226.19 951.79 343.56 1070.01 160.11 1811.23 42.74 1693 226.19"/></g></g></g><g class="cls-3"><g class="cls-3"><g class="cls-62"><polygon class="cls-5" points="2728.82 1452.49 2913.41 1534.92 2805.97 2146.87 2621.37 2064.46 2728.82 1452.49"/></g></g><g class="cls-3"><g class="cls-63"><polygon class="cls-5" points="3470.03 1335.12 3654.63 1417.55 3547.18 2029.5 3362.58 1947.08 3470.03 1335.12"/></g></g><g class="cls-3"><g class="cls-64"><polygon class="cls-5" points="3470.03 1335.12 3654.63 1417.55 2913.41 1534.92 2728.82 1452.49 3470.03 1335.12"/></g></g><g class="cls-3"><g class="cls-65"><polygon class="cls-5" points="3654.63 1417.55 3547.18 2029.5 2805.97 2146.87 2913.41 1534.92 3654.63 1417.55"/></g></g><g class="cls-3"><g class="cls-66"><polygon class="cls-5" points="3547.18 2029.5 2805.97 2146.87 2621.37 2064.46 3362.58 1947.08 3547.18 2029.5"/></g></g><g class="cls-3"><g class="cls-67"><polygon class="cls-5" points="3362.58 1947.08 2621.37 2064.46 2728.82 1452.49 3470.03 1335.12 3362.58 1947.08"/></g></g></g><g class="cls-3"><g class="cls-3"><g class="cls-68"><polygon class="cls-5" points="2906.07 333.37 3359.45 193.57 3418.71 444.01 2965.34 583.8 2906.07 333.37"/></g></g><g class="cls-3"><g class="cls-69"><polygon class="cls-5" points="3647.29 215.99 4100.67 76.2 4159.93 326.63 3706.56 466.43 3647.29 215.99"/></g></g><g class="cls-3"><g class="cls-70"><polygon class="cls-5" points="3647.29 215.99 2906.07 333.37 3359.45 193.57 4100.67 76.2 3647.29 215.99"/></g></g><g class="cls-3"><g class="cls-71"><polygon class="cls-5" points="4100.67 76.2 4159.93 326.63 3418.71 444.01 3359.45 193.57 4100.67 76.2"/></g></g><g class="cls-3"><g class="cls-72"><polygon class="cls-5" points="4159.93 326.63 3706.56 466.43 2965.34 583.8 3418.71 444.01 4159.93 326.63"/></g></g><g class="cls-3"><g class="cls-73"><polygon class="cls-5" points="3706.56 466.43 2965.34 583.8 2906.07 333.37 3647.29 215.99 3706.56 466.43"/></g></g></g><g class="cls-3"><g class="cls-3"><g class="cls-74"><polygon class="cls-5" points="2799.07 -25.63 3252.45 -165.43 3311.71 85.01 2858.34 224.8 2799.07 -25.63"/></g></g><g class="cls-3"><g class="cls-75"><polygon class="cls-5" points="3540.29 -143.01 3993.67 -282.8 4052.93 -32.37 3599.56 107.43 3540.29 -143.01"/></g></g><g class="cls-3"><g class="cls-76"><polygon class="cls-5" points="3993.67 -282.8 4052.93 -32.37 3311.71 85.01 3252.45 -165.43 3993.67 -282.8"/></g></g><g class="cls-3"><g class="cls-77"><polygon class="cls-5" points="4052.93 -32.37 3599.56 107.43 2858.34 224.8 3311.71 85.01 4052.93 -32.37"/></g></g><g class="cls-3"><g class="cls-78"><polygon class="cls-5" points="3599.56 107.43 2858.34 224.8 2799.07 -25.63 3540.29 -143.01 3599.56 107.43"/></g></g></g><g class="cls-3"><g class="cls-3"><g class="cls-79"><polygon class="cls-5" points="352.07 1062.37 805.45 922.58 864.71 1173.01 411.34 1312.8 352.07 1062.37"/></g></g><g class="cls-3"><g class="cls-80"><polygon class="cls-5" points="1093.29 944.99 1546.67 805.2 1605.93 1055.63 1152.56 1195.43 1093.29 944.99"/></g></g><g class="cls-3"><g class="cls-81"><polygon class="cls-5" points="1093.29 944.99 352.07 1062.37 805.45 922.58 1546.67 805.2 1093.29 944.99"/></g></g><g class="cls-3"><g class="cls-82"><polygon class="cls-5" points="1546.67 805.2 1605.93 1055.63 864.71 1173.01 805.45 922.58 1546.67 805.2"/></g></g><g class="cls-3"><g class="cls-83"><polygon class="cls-5" points="1605.93 1055.63 1152.56 1195.43 411.34 1312.8 864.71 1173.01 1605.93 1055.63"/></g></g><g class="cls-3"><g class="cls-84"><polygon class="cls-5" points="1152.56 1195.43 411.34 1312.8 352.07 1062.37 1093.29 944.99 1152.56 1195.43"/></g></g></g><g class="cls-3"><g class="cls-3"><g class="cls-85"><polygon class="cls-5" points="36.29 1195.99 489.67 1056.2 548.93 1306.63 95.56 1446.43 36.29 1195.99"/></g></g><g class="cls-3"><g class="cls-86"><polygon class="cls-5" points="36.29 1195.99 -704.93 1313.37 -251.55 1173.58 489.67 1056.2 36.29 1195.99"/></g></g><g class="cls-3"><g class="cls-87"><polygon class="cls-5" points="489.67 1056.2 548.93 1306.63 -192.29 1424.01 -251.55 1173.58 489.67 1056.2"/></g></g><g class="cls-3"><g class="cls-88"><polygon class="cls-5" points="548.93 1306.63 95.56 1446.43 -645.66 1563.8 -192.29 1424.01 548.93 1306.63"/></g></g><g class="cls-3"><g class="cls-89"><polygon class="cls-5" points="95.56 1446.43 -645.66 1563.8 -704.93 1313.37 36.29 1195.99 95.56 1446.43"/></g></g></g><g class="cls-3"><g class="cls-3"><g class="cls-90"><polygon class="cls-5" points="-411.93 831.37 41.45 691.58 100.71 942.01 -352.66 1081.8 -411.93 831.37"/></g></g><g class="cls-3"><g class="cls-91"><polygon class="cls-5" points="329.29 713.99 782.67 574.2 841.93 824.63 388.56 964.43 329.29 713.99"/></g></g><g class="cls-3"><g class="cls-92"><polygon class="cls-5" points="329.29 713.99 -411.93 831.37 41.45 691.58 782.67 574.2 329.29 713.99"/></g></g><g class="cls-3"><g class="cls-93"><polygon class="cls-5" points="782.67 574.2 841.93 824.63 100.71 942.01 41.45 691.58 782.67 574.2"/></g></g><g class="cls-3"><g class="cls-94"><polygon class="cls-5" points="841.93 824.63 388.56 964.43 -352.66 1081.8 100.71 942.01 841.93 824.63"/></g></g><g class="cls-3"><g class="cls-95"><polygon class="cls-5" points="388.56 964.43 -352.66 1081.8 -411.93 831.37 329.29 713.99 388.56 964.43"/></g></g></g><g class="cls-3"><g class="cls-3"><g class="cls-96"><polygon class="cls-5" points="2323.8 216.64 2593.34 783.77 2436.97 906.74 2167.44 339.6 2323.8 216.64"/></g></g><g class="cls-3"><g class="cls-97"><polygon class="cls-5" points="3065.02 99.27 3334.56 666.4 3178.19 789.37 2908.66 222.23 3065.02 99.27"/></g></g><g class="cls-3"><g class="cls-98"><polygon class="cls-5" points="3065.02 99.27 3334.56 666.4 2593.34 783.77 2323.8 216.64 3065.02 99.27"/></g></g><g class="cls-3"><g class="cls-99"><polygon class="cls-5" points="3334.56 666.4 3178.19 789.37 2436.97 906.74 2593.34 783.77 3334.56 666.4"/></g></g><g class="cls-3"><g class="cls-100"><polygon class="cls-5" points="3178.19 789.37 2436.97 906.74 2167.44 339.6 2908.66 222.23 3178.19 789.37"/></g></g><g class="cls-3"><g class="cls-101"><polygon class="cls-5" points="2908.66 222.23 2167.44 339.6 2323.8 216.64 3065.02 99.27 2908.66 222.23"/></g></g></g><g class="cls-3"><g class="cls-3"><g class="cls-102"><polygon class="cls-5" points="1980.81 -287.36 2250.34 279.77 2093.97 402.74 1824.44 -164.4 1980.81 -287.36"/></g></g><g class="cls-3"><g class="cls-103"><polygon class="cls-5" points="2722.02 -404.74 2991.56 162.4 2835.19 285.37 2565.66 -281.77 2722.02 -404.74"/></g></g><g class="cls-3"><g class="cls-104"><polygon class="cls-5" points="2722.02 -404.74 2991.56 162.4 2250.34 279.77 1980.81 -287.36 2722.02 -404.74"/></g></g><g class="cls-3"><g class="cls-105"><polygon class="cls-5" points="2991.56 162.4 2835.19 285.37 2093.97 402.74 2250.34 279.77 2991.56 162.4"/></g></g><g class="cls-3"><g class="cls-106"><polygon class="cls-5" points="2835.19 285.37 2093.97 402.74 1824.44 -164.4 2565.66 -281.77 2835.19 285.37"/></g></g></g></g><g id="FONDO"><rect class="cls-107" x="1066" y="457.5" width="2072" height="1275" rx="296.85"/></g><g id="fondo2"><rect class="cls-108" x="1282" y="617.5" width="1640" height="955" rx="165.77"/><rect class="cls-109" x="1389" y="665.75" width="1426" height="858.5" rx="165.77"/><rect class="cls-107" x="1568.5" y="773.82" width="1067" height="642.37" rx="165.77"/><rect class="cls-110" x="1658.25" y="827.85" width="887.5" height="534.3" rx="165.77"/></g><g id="Capa_1" data-name="Capa 1"><g class="cls-3"><path class="cls-111" d="M2351.72,1066.25c-.69-1.56-1.42-3.1-2.17-4.63l-.45-.92q-1.11-2.22-2.29-4.38c-.14-.27-.29-.53-.44-.79q-1.14-2.05-2.35-4.07l-.28-.47c-.86-1.42-1.76-2.82-2.68-4.21l-.59-.89c-.86-1.28-1.74-2.56-2.65-3.81l-.19-.26c-.15-.19-.3-.38-.44-.58q-1.33-1.8-2.73-3.57l-.67-.84q-1.56-1.93-3.19-3.82l-.66-.74c-1-1.11-2-2.22-3-3.3-.2-.22-.4-.44-.61-.65q-1.74-1.82-3.55-3.58l-.83-.79c-1.14-1.09-2.29-2.16-3.47-3.21l-.4-.37-.15-.13c-1.26-1.11-2.56-2.2-3.87-3.28-.37-.31-.75-.61-1.13-.91-1-.84-2.1-1.66-3.17-2.47-.42-.33-.85-.65-1.28-1q-2-1.47-4-2.89l-.36-.26c-1.49-1-3-2-4.55-3-.44-.28-.88-.56-1.33-.83-1.17-.73-2.35-1.44-3.55-2.15l-1.4-.81c-1.62-.93-3.25-1.84-4.91-2.71h0l-.15-.07c-1.78-.94-3.58-1.85-5.42-2.73-.63-.31-1.29-.59-1.93-.89-1.27-.59-2.53-1.19-3.82-1.76-.78-.34-1.59-.66-2.37-1-1.19-.5-2.37-1-3.58-1.48-.86-.34-1.74-.66-2.61-1-1.17-.44-2.33-.89-3.52-1.31-.92-.33-1.86-.64-2.78-1-1.18-.4-2.34-.81-3.54-1.19-1-.31-2-.6-2.92-.9-1.19-.36-2.37-.72-3.58-1.06-1-.29-2-.56-3.05-.83-1.21-.33-2.41-.66-3.63-1-1-.27-2.11-.51-3.17-.76-1.23-.29-2.45-.58-3.69-.85s-2.19-.46-3.28-.68c-1.25-.26-2.51-.51-3.77-.75s-2.25-.4-3.38-.6-2.56-.44-3.85-.64l-3.48-.52c-1.3-.18-2.61-.37-3.93-.54s-2.38-.29-3.57-.42-2.67-.31-4-.44-2.43-.24-3.66-.34-2.73-.24-4.1-.34l-3.76-.25-4.18-.23q-1.92-.09-3.84-.15c-1.42-.05-2.85-.1-4.29-.13s-2.6-.05-3.92-.06l-2.1,0h-4.39c-14,.12-25.51.77-34.82,1.69-5.58.55-10.35,1.2-14.33,1.9l-26.17,41.59c10.61-1.85,26.84-3.4,49.15-3.58,2.19,0,4.34,0,6.49,0,1.32,0,2.63,0,3.93.06l4.27.13c1.29,0,2.57.09,3.85.16s2.8.14,4.18.23,2.51.15,3.76.24l4.1.34,3.67.34c1.34.13,2.68.28,4,.44s2.4.27,3.58.42,2.63.36,3.93.55,2.33.33,3.48.51,2.57.42,3.85.64,2.26.39,3.38.6,2.51.5,3.76.75c1.1.22,2.2.44,3.29.68s2.46.56,3.69.85l3.17.76q1.83.46,3.63,1c1,.27,2.05.54,3.05.83,1.21.34,2.39.71,3.58,1.07,1,.29,2,.58,2.92.89,1.19.38,2.36.79,3.53,1.19.93.31,1.87.62,2.79,1,1.19.42,2.35.87,3.51,1.31.87.34,1.76.66,2.62,1,1.21.48,2.39,1,3.58,1.48.78.34,1.59.65,2.37,1,1.3.57,2.57,1.16,3.84,1.76.64.29,1.29.58,1.91.88q2.76,1.32,5.42,2.73l.15.08c1.67.87,3.3,1.78,4.92,2.71l1.4.82c1.2.7,2.38,1.41,3.55,2.14l1.33.83c1.54,1,3.06,2,4.55,3l.37.27q2,1.41,4,2.88l1.28,1c1.07.81,2.13,1.64,3.17,2.47l1.13.91q2.05,1.68,4,3.42l.4.36c1.18,1.05,2.34,2.13,3.47,3.21l.83.79q1.82,1.77,3.55,3.58l.61.65q1.54,1.64,3,3.3l.66.75q1.64,1.88,3.19,3.81l.67.84q1.39,1.77,2.73,3.57l.44.59q1.45,2,2.84,4.07c.2.29.4.59.59.89.92,1.38,1.82,2.78,2.68,4.2l.28.47c.81,1.35,1.59,2.7,2.35,4.07.15.26.3.52.44.79q1.18,2.16,2.29,4.38l.45.92c.75,1.53,1.48,3.07,2.17,4.64,12.5,27.64,13.31,50.23,2.73,67l26.17-41.59C2365,1116.49,2364.22,1093.9,2351.72,1066.25Z"/><polygon class="cls-112" points="2177.83 1190.37 2151.66 1231.96 2046.42 999.19 2072.59 957.6 2177.83 1190.37"/><path class="cls-113" d="M2389.86,1157.22q-1,1-2,2a.86.86,0,0,0-.14.13c-.59.56-1.21,1.12-1.84,1.67l-.54.47c-.62.53-1.26,1.06-1.91,1.58l-.2.17c-.72.56-1.46,1.12-2.21,1.67l-.6.43c-.64.46-1.3.92-2,1.37l-.43.29c-.8.53-1.62,1-2.45,1.56l-.61.37c-.7.42-1.4.83-2.12,1.24l-.61.35c-.88.49-1.77,1-2.69,1.45l-.57.29c-.77.4-1.55.78-2.34,1.17l-.74.35c-1,.46-1.94.91-2.94,1.35l-.41.18-2.71,1.14-.83.34-1.58.61c-1,.39-2,.78-3.06,1.15l-1.42.51c-1.19.42-2.41.83-3.65,1.23l-.86.29q-2.29.72-4.67,1.41l-1.29.36c-1.2.34-2.41.67-3.64,1l-1.64.42c-1.23.3-2.47.6-3.73.89l-1.43.34q-2.58.59-5.25,1.12l-.85.17c-1.52.3-3.06.59-4.61.87l-1.79.31-4,.66-1.8.28c-1.69.25-3.4.5-5.14.73l-.7.1c-2,.26-4,.5-6,.73l-1.76.19c-1.49.16-3,.31-4.51.45l-2.06.19c-1.59.15-3.2.28-4.83.4l-1.61.13c-2.15.15-4.32.3-6.52.42l-1.43.07c-1.76.1-3.53.18-5.32.26l-2.22.08-4.94.16-2.11.05c-2.33.06-4.67.1-7.05.12l-7.22,0h-10.78l-3.48,0-1.78,0-3.23,0-1.75,0-3.44-.06-1.37,0-4.7-.1-.79,0-3.84-.1-1.55,0-3.06-.1-1.63,0-3-.11-1.5,0-3.47-.15-.9,0-4.26-.2-1.2-.06-3-.15-1.54-.08-2.65-.15-1.53-.09-2.72-.17-1.33-.08-3.8-.25h-.13L2151.66,1232l4,.26,1.27.08,2.78.17,1.48.09,2.71.15,1.49.08,3.07.16,1.14,0,4.27.2.9,0,3.47.14,1.5,0,3,.11,1.64,0,3,.1,1.55,0,3.84.1.79,0,4.7.1,1.37,0,3.44.06,1.75,0,3.23,0,1.78,0,3.48,0h10.78l7.22,0c2.38,0,4.72-.06,7-.11l2.11-.06c1.66,0,3.31-.1,4.94-.16l2.22-.08,5.32-.25,1.43-.08q3.3-.18,6.52-.42l1.62-.13c1.62-.12,3.23-.25,4.82-.4l2.06-.19c1.52-.14,3-.29,4.51-.45l1.76-.19c2-.23,4-.47,6-.73l.7-.1c1.74-.23,3.45-.47,5.14-.73l1.8-.28q2-.32,4-.66l1.79-.31c1.55-.28,3.09-.57,4.61-.87l.85-.17q2.67-.54,5.25-1.12l1.43-.33,3.73-.9,1.64-.42c1.23-.32,2.45-.65,3.64-1l1.29-.36q2.37-.67,4.67-1.41l.86-.29c1.24-.4,2.46-.81,3.65-1.23l1.42-.5c1-.38,2.06-.77,3.07-1.16l.85-.32.71-.29.85-.34c.91-.37,1.81-.76,2.7-1.14l.41-.18c1-.44,2-.89,2.94-1.35l.74-.35q1.18-.57,2.34-1.17l.57-.29c.92-.47,1.81-1,2.69-1.45.21-.11.41-.23.61-.35.72-.41,1.42-.82,2.12-1.24l.61-.37c.83-.51,1.65-1,2.45-1.56l.43-.29c.67-.45,1.33-.91,2-1.37l.6-.43c.75-.55,1.49-1.11,2.21-1.67l.2-.17c.65-.52,1.29-1,1.91-1.58l.54-.47c.63-.55,1.25-1.11,1.84-1.67l.14-.13c.5-.48,1-1,1.47-1.46l.57-.58a65,65,0,0,0,8.42-10.67l26.17-41.59A65,65,0,0,1,2389.86,1157.22Z"/><path class="cls-114" d="M2310.84,980.25c38.5,19.07,68.23,46.31,85.53,84.58,17.46,38.61,14.89,70.35-6.51,92.39-21.25,22.37-67.43,34.75-132.39,35.3-30.75.26-57-.58-79.64-2.15L2072.59,957.6a801.76,801.76,0,0,1,89.53-5.7C2224.11,951.38,2272.86,961.19,2310.84,980.25Zm-56.06,187.62c92.25-.78,125.83-37.71,96.94-101.62-24.74-55.82-85.41-90.9-176.67-90.14-22.31.19-38.54,1.73-49.15,3.59l84.45,186.78c11.54,1.31,27.57,1.53,44.43,1.39"/></g><g class="cls-3"><g class="cls-3"><g class="cls-115"><g class="cls-3"><path class="cls-116" d="M2014.9,1046.3l-26.17,41.6a35,35,0,0,1-4.6,5.79l26.17-41.59a35,35,0,0,0,4.6-5.8"/><path class="cls-117" d="M2010.3,1052.1l-26.17,41.59c-5,5.11-12.06,9.57-21.29,13.22l26.17-41.59c9.23-3.65,16.3-8.11,21.29-13.22"/><path class="cls-111" d="M1989,1065.32l-26.17,41.59q-4.08,1.62-8.73,3l26.17-41.59q4.65-1.39,8.73-3"/></g></g></g><polygon class="cls-112" points="1905.31 1082 1879.14 1123.59 1868.67 1100.42 1894.84 1058.83 1905.31 1082"/><path class="cls-113" d="M1820.45,1041l.35-.21,1.49-.84.33-.17,1.28-.69.48-.24c.49-.25,1-.5,1.49-.74l.22-.11,1.77-.82.5-.23,1.45-.63.51-.22,2-.8.33-.13,1.62-.62.63-.23,1.47-.52.62-.22,2.09-.7.06,0,2.1-.65.67-.2,1.62-.46.71-.19,2-.52.35-.09,2.35-.56.68-.15,1.78-.38.79-.17,1.93-.37.58-.1c.84-.15,1.68-.3,2.53-.43l.61-.09,2-.29.85-.11,2-.24.73-.08,2.69-.26.44,0,2.31-.17.88,0,2-.09.85,0c.94,0,1.89,0,2.84-.06s1.89,0,2.82,0l1.75,0c.62,0,1.24,0,1.85.06l1.71.07,1.81.1,1.65.11,1.76.15,1.61.16c.58,0,1.15.12,1.71.19l1.57.19,1.66.23,1.52.23,1.62.28,1.47.27,1.57.31,1.43.31,1.53.35,1.37.34c.5.12,1,.26,1.48.39l1.33.37,1.44.43,1.28.4,1.4.47,1.22.42,1.36.51,1.18.45,1.31.55,1.13.47,1.27.58,1.08.5,1.24.62,1,.51.42.23c.92.49,1.81,1,2.67,1.51l.63.37c.94.57,1.85,1.15,2.73,1.75l.49.35c.77.53,1.52,1.08,2.25,1.64l.47.36c.81.63,1.59,1.28,2.34,1.93l.57.51,1.35,1.26.58.57c.5.5,1,1,1.46,1.52l.28.29c.56.61,1.09,1.23,1.6,1.85l.41.52c.37.47.73.93,1.08,1.4l.49.67c.24.35.48.69.71,1l.48.72c.23.36.45.72.67,1.08s.28.46.41.7q.35.6.66,1.2c.11.2.22.39.32.59.31.6.6,1.2.88,1.81a24.91,24.91,0,0,1,2.48,11.14,18.14,18.14,0,0,1-2.84,9.18h0l26.17-41.59c3.45-5.48,4-12.22.36-20.32-.28-.61-.57-1.21-.88-1.81-.1-.2-.21-.39-.32-.59-.21-.4-.43-.81-.66-1.21-.13-.23-.27-.46-.41-.69s-.44-.72-.67-1.08l-.48-.72c-.23-.35-.47-.7-.71-1l-.24-.35-.25-.32c-.35-.47-.71-.93-1.08-1.4l-.41-.52c-.52-.63-1-1.24-1.6-1.85l-.27-.29c-.48-.51-1-1-1.47-1.52l-.58-.57c-.44-.42-.89-.84-1.36-1.26l-.37-.35-.19-.16c-.75-.65-1.53-1.3-2.34-1.93l-.47-.36q-1.1-.84-2.25-1.65l-.49-.34c-.88-.6-1.79-1.18-2.73-1.75-.2-.13-.42-.25-.63-.37-.86-.52-1.75-1-2.67-1.51l-.29-.16-.13-.07-1-.52-1.24-.61-1.08-.5-1.27-.58-1.13-.48-1.31-.54-1.18-.45-1.36-.51-1.22-.42-1.4-.47-1.28-.4-1.44-.43-1.33-.37c-.49-.13-1-.27-1.48-.39l-1.37-.34-1.54-.36-1.41-.3-1.58-.31-1.47-.27-1.62-.28-1.52-.23-1.66-.23-1.57-.19-1.71-.2-1.61-.15-1.76-.15-1.65-.11-1.81-.1-1.71-.08-1.85,0-1.75,0-.94,0h-1.88c-1,0-1.9,0-2.84.06l-.85,0-2,.09-.88.05-2.31.17-.44,0c-.9.08-1.8.16-2.69.26l-.73.08-2,.24-.84.11-2,.29-.6.09c-.85.13-1.7.28-2.53.42l-.57.11-1.94.37-.79.16-1.79.39-.67.15-2.35.56-.34.09-2,.51-.71.2-1.62.46-.67.2-2.1.65-.06,0c-.71.23-1.41.46-2.09.7l-.62.21-1.47.53-.63.23-1.62.62-.27.11-.06,0c-.66.26-1.31.53-2,.8l-.51.22-1.45.63-.5.23c-.6.27-1.2.54-1.77.82l-.22.11c-.51.24-1,.49-1.49.74l-.48.24-1.29.68-.32.18-1.49.84-.35.2-1.1.66-.38.24-1.3.83-21.56-22.37-26.17,41.59,21.57,22.37,1.29-.83.39-.24Z"/><path class="cls-113" d="M2014.54,1104.35l-.47-.36c-.83-.6-1.68-1.19-2.54-1.76l-.62-.41c-.71-.46-1.43-.92-2.17-1.37l-.64-.4c-.9-.54-1.81-1.07-2.73-1.58l-.54-.3-1.45-.78-.6-.3c-.77-.4-1.56-.79-2.34-1.17l-1.29-.63c-1-.44-1.92-.87-2.89-1.29l-.84-.37c-1.25-.54-2.53-1.05-3.82-1.55l-1-.38c-1-.36-1.92-.71-2.9-1l-1.45-.49c-.86-.29-1.72-.57-2.59-.84-.52-.17-1-.33-1.58-.48l-2.58-.75-1.58-.44-2.79-.71-1.41-.35q-1.86-.45-3.75-.84l-.48-.11q-2.15-.45-4.29-.84l-1.33-.23-3-.5-1.63-.25-2.77-.38-1.7-.22-2.78-.32-1.64-.17c-1-.1-2-.19-3-.27l-1.35-.12c-1.46-.11-2.93-.2-4.39-.28l-.44,0c-1.32-.07-2.63-.12-3.94-.16l-1.47,0-2.91,0h-3.14l-24.3.2-26.17,41.59,24.3-.2h3.14l2.91,0,1.47,0c1.31,0,2.62.1,3.94.16l.44,0c1.46.08,2.93.17,4.39.28l1.35.12c1,.08,2,.17,3.05.27l1.64.17,2.78.32,1.7.22c.93.12,1.85.25,2.77.39.54.08,1.09.15,1.63.24l3,.5,1.33.23c1.44.27,2.87.54,4.29.84l.48.11q1.89.4,3.75.84l1.41.35q1.41.35,2.79.72l1.58.43,2.58.75,1.58.48q1.3.4,2.58.84l1.46.49c1,.34,1.94.69,2.9,1l1,.38c1.29.5,2.57,1,3.83,1.55l.83.37c1,.42,1.94.85,2.89,1.3l1.29.62c.78.38,1.57.77,2.34,1.17l2.05,1.09.53.29c.93.51,1.84,1,2.74,1.58l.65.4c.73.45,1.45.91,2.16,1.37l.62.41c.86.58,1.71,1.16,2.54,1.76l.47.36c.69.51,1.37,1,2,1.55l.62.5c.78.63,1.55,1.28,2.3,1.94.46.4.88.82,1.32,1.22s.79.72,1.17,1.09.83.85,1.24,1.28.74.75,1.1,1.14.79.9,1.18,1.35.68.77,1,1.16.75,1,1.12,1.46.62.78.91,1.17a1.27,1.27,0,0,0,.13.19c.53.75,1,1.5,1.54,2.27.16.26.32.51.47.77.39.61.75,1.24,1.11,1.87l.44.78c.47.87.92,1.75,1.34,2.65,4.09,8.54,5.13,18.39-.09,26.69l26.17-41.59c5.22-8.3,4.18-18.15.09-26.69-.42-.9-.87-1.78-1.34-2.65l-.44-.78c-.36-.63-.72-1.26-1.11-1.87-.16-.26-.31-.52-.48-.77-.49-.77-1-1.52-1.53-2.27a1.27,1.27,0,0,1-.13-.19l0,0c-.27-.38-.58-.75-.86-1.12s-.75-1-1.14-1.48-.66-.76-1-1.14-.78-.93-1.19-1.38-.73-.75-1.09-1.12-.82-.87-1.25-1.29-.78-.72-1.17-1.09-.87-.82-1.32-1.22l-.06-.06c-.73-.64-1.48-1.26-2.24-1.88l-.62-.5C2015.91,1105.37,2015.23,1104.86,2014.54,1104.35Z"/><path class="cls-113" d="M2048.43,1213.08c.28-.31.55-.64.81-1s.36-.43.53-.65.56-.73.83-1.09c.13-.19.27-.37.4-.55.39-.56.77-1.12,1.13-1.69l26.17-41.59c-.36.57-.74,1.13-1.13,1.69l-.4.54c-.27.37-.54.74-.83,1.1s-.35.43-.53.65-.53.64-.81,1-.4.45-.61.67-.55.61-.83.91l-.51.51c-.47.47-1,.93-1.45,1.39l-.55.51c-.67.59-1.34,1.17-2.05,1.74l-.06,0c-.7.56-1.42,1.1-2.17,1.63l-.66.47c-.61.42-1.22.84-1.86,1.25l-.62.4c-.83.51-1.67,1-2.55,1.52l-.51.28c-.73.4-1.49.8-2.26,1.19-.27.15-.55.29-.83.42-.79.39-1.59.77-2.41,1.14l-.55.25c-1,.45-2,.88-3.07,1.29l-1.16.45-1.48.56-1.28.45-1.53.52-1.34.43-1.58.49-1.39.41-1.63.46-1.45.38-1.69.42-1.51.36c-.58.13-1.16.27-1.75.39s-1,.23-1.55.33l-1.82.37-1.6.3-1.88.33-1.65.27-1.94.3-1.7.24-2,.27-1.72.21-2.12.23c-.58.06-1.16.13-1.75.18l-2.21.2-1.77.15-2.34.16c-.58,0-1.17.09-1.76.12l-2.52.13-1.69.09c-1,0-1.92.06-2.88.09l-1.45,0c-1.46,0-2.94.06-4.45.07h-3.26l-1.44,0-1.89,0-1.51,0-1.82,0-1.54-.06-1.78-.06-1.53-.08-1.77-.09-1.53-.09-1.75-.11-1.53-.11-1.73-.13-1.54-.13-1.69-.14-1.55-.15-1.66-.16-1.54-.16-1.64-.18-1.53-.18-1.63-.2-1.5-.19-1.61-.21-1.49-.2-1.59-.23-1.47-.22c-.53-.07-1.05-.15-1.58-.24l-1.44-.22-1.55-.26-1.43-.24-1.52-.26-1.41-.25-1.49-.28-1.39-.26-1.48-.29-1.34-.26-1.46-.3-1.32-.28-1.42-.3-1.29-.29-1.4-.31-1.26-.29-1.37-.33-1.22-.29-1.35-.34-1.18-.29-1.31-.34-1.16-.31-1.27-.34-1.12-.31-1.25-.35-1.06-.3-1.24-.37-1-.3-1.21-.37-1-.29-1.21-.39-.87-.29-1.22-.4-.78-.27-1.26-.44-.65-.23-1.82-.67-26.17,41.59,1.82.67.65.23c.42.15.83.3,1.26.44l.78.27,1.22.41.88.28,1.2.39,1,.29,1.21.38,1,.29,1.24.37,1,.3,1.27.36,1.1.3,1.29.35,1.15.3,1.31.34,1.18.3,1.35.33,1.21.29,1.38.33,1.26.29,1.4.31,1.29.29,1.42.3,1.32.28,1.46.3,1.34.26,1.49.29,1.37.26,1.51.28,1.39.25,1.54.27,1.41.23,1.58.26,1.41.22,1.6.25,1.45.21,1.61.23,1.47.2,1.62.21,1.5.19,1.64.2,1.51.18,1.67.18,1.51.16,1.69.16,1.52.15,1.72.15,1.51.12,1.75.13,1.52.11,1.76.11,1.51.09,1.8.09,1.51.08,1.82.07,1.49,0,1.87,0,1.46,0,1.95,0h4.66c1.5,0,3,0,4.44-.08l1.45,0c1,0,1.93,0,2.88-.09l1.69-.09,2.52-.13,1.76-.11,2.34-.17,1.77-.15c.74-.06,1.48-.12,2.21-.2s1.17-.12,1.75-.18l2.12-.23,1.72-.21c.68-.09,1.36-.17,2-.27l1.7-.24,1.95-.3,1.64-.27,1.88-.33,1.6-.3,1.82-.37c.52-.1,1-.21,1.55-.33s1.18-.25,1.75-.39,1-.23,1.51-.36,1.13-.28,1.69-.42l1.45-.38,1.63-.46,1.39-.41,1.59-.49,1.33-.43,1.53-.52,1.28-.45,1.48-.56.91-.34.25-.11c1-.41,2.07-.84,3.07-1.28l.55-.26c.82-.37,1.62-.75,2.41-1.13l.84-.42c.76-.4,1.52-.79,2.25-1.2l.51-.28c.88-.5,1.72-1,2.55-1.52l.62-.4c.64-.41,1.25-.83,1.86-1.25l.66-.47c.75-.53,1.47-1.07,2.17-1.62l.06,0c.71-.57,1.39-1.15,2-1.74l.55-.51c.5-.46,1-.92,1.45-1.39.1-.11.22-.21.33-.32l.18-.19.83-.9C2048,1213.53,2048.24,1213.31,2048.43,1213.08Z"/><path class="cls-114" d="M1898.65,960.47c63.48-.54,104.32,25.9,116.86,53.64,10.63,23.52-.16,43.71-35.23,54.22l.31.7c42.22,5.29,84,26.08,98.42,58,16.51,36.51-9.21,68.8-86.58,69.45-36.21.31-71.6-7.5-90.8-14.74l1.11-24c14.94,5.51,47.67,14,77.92,13.79,56-.47,62-25.9,52.91-44.85-15-32-61.8-45.3-104-44.94l-24.3.2-10.47-23.17,24.29-.2c31.74-.27,66.68-12.2,54.46-39.23-8.26-18.26-31.93-34.27-72.1-33.93-25.79.21-46.93,8.5-57.65,15.63l-21.56-22.37C1835.18,969.82,1863.94,960.76,1898.65,960.47Z"/><polygon class="cls-118" points="1901.63 1181.77 1875.46 1223.36 1876.57 1199.39 1902.74 1157.8 1901.63 1181.77"/></g></g><g id="formas2"><g class="cls-3"><g class="cls-3"><g class="cls-119"><polygon class="cls-5" points="-122.19 1562.64 147.34 2129.78 -9.02 2252.74 -278.56 1685.6 -122.19 1562.64"/></g></g><g class="cls-3"><g class="cls-120"><polygon class="cls-5" points="619.02 1445.27 888.56 2012.4 732.2 2135.36 462.66 1568.23 619.02 1445.27"/></g></g><g class="cls-3"><g class="cls-121"><polygon class="cls-5" points="619.02 1445.27 888.56 2012.4 147.34 2129.78 -122.19 1562.64 619.02 1445.27"/></g></g><g class="cls-3"><g class="cls-122"><polygon class="cls-5" points="888.56 2012.4 732.2 2135.36 -9.02 2252.74 147.34 2129.78 888.56 2012.4"/></g></g><g class="cls-3"><g class="cls-123"><polygon class="cls-5" points="732.2 2135.36 -9.02 2252.74 -278.56 1685.6 462.66 1568.23 732.2 2135.36"/></g></g><g class="cls-3"><g class="cls-124"><polygon class="cls-5" points="462.66 1568.23 -278.56 1685.6 -122.19 1562.64 619.02 1445.27 462.66 1568.23"/></g></g></g></g></svg>