<svg xmlns="http://www.w3.org/2000/svg" xmlns:xlink="http://www.w3.org/1999/xlink" viewBox="0 0 4894 2667"><defs><style>.cls-1,.cls-5{fill:none;}.cls-2{fill:#a986bf;}.cls-3{isolation:isolate;}.cls-4{clip-path:url(#clip-path);}.cls-5{stroke:#000;stroke-miterlimit:10;stroke-width:0.25px;}.cls-6{clip-path:url(#clip-path-2);}.cls-7{clip-path:url(#clip-path-3);}.cls-8{clip-path:url(#clip-path-4);}.cls-9{clip-path:url(#clip-path-5);}.cls-10{clip-path:url(#clip-path-6);}.cls-11{clip-path:url(#clip-path-7);}.cls-12{clip-path:url(#clip-path-8);}.cls-13{clip-path:url(#clip-path-9);}.cls-14{clip-path:url(#clip-path-10);}.cls-15{clip-path:url(#clip-path-11);}.cls-16{clip-path:url(#clip-path-12);}.cls-17{clip-path:url(#clip-path-13);}.cls-18{clip-path:url(#clip-path-14);}.cls-19{clip-path:url(#clip-path-15);}.cls-20{clip-path:url(#clip-path-16);}.cls-21{clip-path:url(#clip-path-17);}.cls-22{clip-path:url(#clip-path-18);}.cls-23{clip-path:url(#clip-path-19);}.cls-24{clip-path:url(#clip-path-20);}.cls-25{clip-path:url(#clip-path-21);}.cls-26{clip-path:url(#clip-path-22);}.cls-27{clip-path:url(#clip-path-23);}.cls-28{clip-path:url(#clip-path-24);}.cls-29{clip-path:url(#clip-path-25);}.cls-30{clip-path:url(#clip-path-26);}.cls-31{clip-path:url(#clip-path-27);}.cls-32{clip-path:url(#clip-path-28);}.cls-33{clip-path:url(#clip-path-29);}.cls-34{clip-path:url(#clip-path-30);}.cls-35{clip-path:url(#clip-path-31);}.cls-36{clip-path:url(#clip-path-32);}.cls-37{clip-path:url(#clip-path-33);}.cls-38{clip-path:url(#clip-path-34);}.cls-39{clip-path:url(#clip-path-35);}.cls-40{clip-path:url(#clip-path-36);}.cls-41{clip-path:url(#clip-path-37);}.cls-42{clip-path:url(#clip-path-38);}.cls-43{clip-path:url(#clip-path-39);}.cls-44{clip-path:url(#clip-path-40);}.cls-45{clip-path:url(#clip-path-41);}.cls-46{clip-path:url(#clip-path-42);}.cls-47{clip-path:url(#clip-path-43);}.cls-48{clip-path:url(#clip-path-44);}.cls-49{clip-path:url(#clip-path-45);}.cls-50{clip-path:url(#clip-path-46);}.cls-51{clip-path:url(#clip-path-47);}.cls-52{clip-path:url(#clip-path-48);}.cls-53{clip-path:url(#clip-path-49);}.cls-54{clip-path:url(#clip-path-50);}.cls-55{clip-path:url(#clip-path-51);}.cls-56{clip-path:url(#clip-path-52);}.cls-57{clip-path:url(#clip-path-53);}.cls-58{clip-path:url(#clip-path-54);}.cls-59{clip-path:url(#clip-path-55);}.cls-60{clip-path:url(#clip-path-56);}.cls-61{clip-path:url(#clip-path-57);}.cls-62{clip-path:url(#clip-path-58);}.cls-63{clip-path:url(#clip-path-59);}.cls-64{clip-path:url(#clip-path-60);}.cls-65{clip-path:url(#clip-path-61);}.cls-66{clip-path:url(#clip-path-62);}.cls-67{clip-path:url(#clip-path-63);}.cls-68{clip-path:url(#clip-path-64);}.cls-69{clip-path:url(#clip-path-65);}.cls-70{clip-path:url(#clip-path-66);}.cls-71{clip-path:url(#clip-path-67);}.cls-72{clip-path:url(#clip-path-68);}.cls-73{clip-path:url(#clip-path-69);}.cls-74{clip-path:url(#clip-path-70);}.cls-75{clip-path:url(#clip-path-71);}.cls-76{clip-path:url(#clip-path-72);}.cls-77{clip-path:url(#clip-path-73);}.cls-78{clip-path:url(#clip-path-74);}.cls-79{clip-path:url(#clip-path-75);}.cls-80{clip-path:url(#clip-path-76);}.cls-81{clip-path:url(#clip-path-77);}.cls-82{clip-path:url(#clip-path-78);}.cls-83{clip-path:url(#clip-path-79);}.cls-84{clip-path:url(#clip-path-80);}.cls-85{clip-path:url(#clip-path-81);}.cls-86{clip-path:url(#clip-path-82);}.cls-87{clip-path:url(#clip-path-83);}.cls-88{clip-path:url(#clip-path-84);}.cls-89{clip-path:url(#clip-path-85);}.cls-90{clip-path:url(#clip-path-86);}.cls-91{clip-path:url(#clip-path-87);}.cls-92{clip-path:url(#clip-path-88);}.cls-93{clip-path:url(#clip-path-89);}.cls-94{clip-path:url(#clip-path-90);}.cls-95{clip-path:url(#clip-path-91);}.cls-96{clip-path:url(#clip-path-92);}.cls-97{clip-path:url(#clip-path-93);}.cls-98{clip-path:url(#clip-path-94);}.cls-99{clip-path:url(#clip-path-95);}.cls-100{clip-path:url(#clip-path-96);}.cls-101{clip-path:url(#clip-path-97);}.cls-102{clip-path:url(#clip-path-98);}.cls-103{clip-path:url(#clip-path-99);}.cls-104{clip-path:url(#clip-path-100);}.cls-105{clip-path:url(#clip-path-101);}.cls-106{clip-path:url(#clip-path-102);}.cls-107{clip-path:url(#clip-path-103);}.cls-108{clip-path:url(#clip-path-104);}.cls-109{clip-path:url(#clip-path-105);}.cls-110{clip-path:url(#clip-path-106);}.cls-111{clip-path:url(#clip-path-107);}.cls-112{clip-path:url(#clip-path-108);}.cls-113{clip-path:url(#clip-path-109);}.cls-114{clip-path:url(#clip-path-110);}.cls-115{clip-path:url(#clip-path-111);}.cls-116{clip-path:url(#clip-path-112);}.cls-117{clip-path:url(#clip-path-113);}.cls-118{clip-path:url(#clip-path-114);}.cls-119{clip-path:url(#clip-path-115);}.cls-120{clip-path:url(#clip-path-116);}.cls-121{clip-path:url(#clip-path-117);}.cls-122{clip-path:url(#clip-path-118);}.cls-123{clip-path:url(#clip-path-119);}.cls-124{clip-path:url(#clip-path-120);}.cls-125{clip-path:url(#clip-path-121);}.cls-126{clip-path:url(#clip-path-122);}.cls-127{clip-path:url(#clip-path-123);}.cls-128{clip-path:url(#clip-path-124);}.cls-129{clip-path:url(#clip-path-125);}.cls-130{clip-path:url(#clip-path-126);}.cls-131{clip-path:url(#clip-path-127);}.cls-132{clip-path:url(#clip-path-128);}.cls-133{clip-path:url(#clip-path-129);}.cls-134{clip-path:url(#clip-path-130);}.cls-135{clip-path:url(#clip-path-131);}.cls-136{clip-path:url(#clip-path-132);}.cls-137{clip-path:url(#clip-path-133);}.cls-138{clip-path:url(#clip-path-134);}.cls-139{clip-path:url(#clip-path-135);}.cls-140{clip-path:url(#clip-path-136);}.cls-141{clip-path:url(#clip-path-137);}.cls-142{clip-path:url(#clip-path-138);}.cls-143{clip-path:url(#clip-path-139);}.cls-144{clip-path:url(#clip-path-140);}.cls-145{clip-path:url(#clip-path-141);}.cls-146{clip-path:url(#clip-path-142);}.cls-147{clip-path:url(#clip-path-143);}.cls-148{clip-path:url(#clip-path-144);}.cls-149{clip-path:url(#clip-path-145);}.cls-150{clip-path:url(#clip-path-146);}.cls-151{clip-path:url(#clip-path-147);}.cls-152{clip-path:url(#clip-path-148);}.cls-153{clip-path:url(#clip-path-149);}.cls-154{clip-path:url(#clip-path-150);}.cls-155{clip-path:url(#clip-path-151);}.cls-156{clip-path:url(#clip-path-152);}.cls-157{clip-path:url(#clip-path-153);}.cls-158{clip-path:url(#clip-path-154);}.cls-159{clip-path:url(#clip-path-155);}.cls-160{clip-path:url(#clip-path-156);}.cls-161{clip-path:url(#clip-path-157);}.cls-162{clip-path:url(#clip-path-158);}.cls-163{clip-path:url(#clip-path-159);}.cls-164{clip-path:url(#clip-path-160);}.cls-165{fill:#8376ce;}.cls-166{fill:#4234c6;}.cls-167{fill:#5a53e0;}.cls-168{fill:#dd7bee;}.cls-169{fill:#3d3058;}.cls-170{fill:#3b2e56;}.cls-171{fill:#3f315c;}.cls-172{fill:#6b539a;}.cls-173{clip-path:url(#clip-path-161);}.cls-174{fill:#392c52;}.cls-175{fill:#3b2e55;}.cls-176{fill:#372b4f;}.cls-177{clip-path:url(#clip-path-162);}.cls-178{clip-path:url(#clip-path-163);}.cls-179{clip-path:url(#clip-path-164);}.cls-180{clip-path:url(#clip-path-165);}.cls-181{clip-path:url(#clip-path-166);}.cls-182{clip-path:url(#clip-path-167);}.cls-183{clip-path:url(#clip-path-168);}.cls-184{clip-path:url(#clip-path-169);}.cls-185{clip-path:url(#clip-path-170);}.cls-186{clip-path:url(#clip-path-171);}.cls-187{clip-path:url(#clip-path-172);}.cls-188{clip-path:url(#clip-path-173);}.cls-189{clip-path:url(#clip-path-174);}.cls-190{clip-path:url(#clip-path-175);}.cls-191{clip-path:url(#clip-path-176);}.cls-192{clip-path:url(#clip-path-177);}.cls-193{clip-path:url(#clip-path-178);}.cls-194{clip-path:url(#clip-path-179);}.cls-195{clip-path:url(#clip-path-180);}.cls-196{clip-path:url(#clip-path-181);}.cls-197{clip-path:url(#clip-path-182);}.cls-198{clip-path:url(#clip-path-183);}.cls-199{clip-path:url(#clip-path-184);}.cls-200{clip-path:url(#clip-path-185);}.cls-201{clip-path:url(#clip-path-186);}.cls-202{clip-path:url(#clip-path-187);}.cls-203{clip-path:url(#clip-path-188);}.cls-204{clip-path:url(#clip-path-189);}.cls-205{clip-path:url(#clip-path-190);}.cls-206{clip-path:url(#clip-path-191);}.cls-207{clip-path:url(#clip-path-192);}.cls-208{clip-path:url(#clip-path-193);}</style><clipPath id="clip-path" transform="translate(191 243)"><polygon class="cls-1" points="3077.46 292.13 3265.32 327.12 3247.32 965.25 3059.46 930.25 3077.46 292.13"/></clipPath><clipPath id="clip-path-2" transform="translate(191 243)"><polygon class="cls-1" points="3818.68 174.76 4006.54 209.75 3988.53 847.88 3800.67 812.88 3818.68 174.76"/></clipPath><clipPath id="clip-path-3" transform="translate(191 243)"><polygon class="cls-1" points="3818.68 174.76 4006.54 209.75 3265.32 327.12 3077.46 292.13 3818.68 174.76"/></clipPath><clipPath id="clip-path-4" transform="translate(191 243)"><polygon class="cls-1" points="4006.54 209.75 3988.53 847.88 3247.32 965.25 3265.32 327.12 4006.54 209.75"/></clipPath><clipPath id="clip-path-5" transform="translate(191 243)"><polygon class="cls-1" points="3988.53 847.88 3247.32 965.25 3059.46 930.25 3800.67 812.88 3988.53 847.88"/></clipPath><clipPath id="clip-path-6" transform="translate(191 243)"><polygon class="cls-1" points="3800.67 812.88 3059.46 930.25 3077.46 292.13 3818.68 174.76 3800.67 812.88"/></clipPath><clipPath id="clip-path-7" transform="translate(191 243)"><path class="cls-1" d="M3076.05,289.89l190.79,35.54-18.11,642.06L3057.93,932Zm171.27,675.36,18-638.13-187.86-35-18,638.12,187.86,35"/></clipPath><clipPath id="clip-path-8" transform="translate(191 243)"><path class="cls-1" d="M3817.27,172.51l190.79,35.54-18.12,642.07-190.79-35.55Zm171.26,675.37,18-638.13-187.86-35-18,638.12,187.86,35"/></clipPath><clipPath id="clip-path-9" transform="translate(191 243)"><polygon class="cls-1" points="3817.27 172.51 4008.06 208.05 3266.84 325.43 3076.05 289.88 3817.27 172.51"/></clipPath><clipPath id="clip-path-10" transform="translate(191 243)"><polygon class="cls-1" points="4008.06 208.05 3989.95 850.12 3248.73 967.49 3266.84 325.43 4008.06 208.05"/></clipPath><clipPath id="clip-path-11" transform="translate(191 243)"><polygon class="cls-1" points="3989.95 850.12 3248.73 967.49 3057.93 931.95 3799.15 814.57 3989.95 850.12"/></clipPath><clipPath id="clip-path-12" transform="translate(191 243)"><polygon class="cls-1" points="3799.15 814.57 3057.93 931.95 3076.05 289.88 3817.27 172.51 3799.15 814.57"/></clipPath><clipPath id="clip-path-13" transform="translate(191 243)"><polygon class="cls-1" points="3988.53 847.88 3247.32 965.25 3265.32 327.12 4006.54 209.75 3988.53 847.88"/></clipPath><clipPath id="clip-path-14" transform="translate(191 243)"><polygon class="cls-1" points="4006.54 209.75 3265.32 327.12 3077.46 292.13 3818.68 174.76 4006.54 209.75"/></clipPath><clipPath id="clip-path-15" transform="translate(191 243)"><polygon class="cls-1" points="3818.68 174.76 3800.67 812.88 3059.46 930.25 3077.46 292.13 3818.68 174.76"/></clipPath><clipPath id="clip-path-16" transform="translate(191 243)"><polygon class="cls-1" points="3800.67 812.88 3988.53 847.88 3247.32 965.25 3059.46 930.25 3800.67 812.88"/></clipPath><clipPath id="clip-path-17" transform="translate(191 243)"><polygon class="cls-1" points="3220 983.69 3349.1 1007.74 3336.73 1446.26 3207.63 1422.21 3220 983.69"/></clipPath><clipPath id="clip-path-18" transform="translate(191 243)"><polygon class="cls-1" points="3729.36 903.03 3858.46 927.09 3846.08 1365.6 3716.99 1341.55 3729.36 903.03"/></clipPath><clipPath id="clip-path-19" transform="translate(191 243)"><polygon class="cls-1" points="3729.36 903.03 3858.46 927.09 3349.1 1007.74 3220 983.69 3729.36 903.03"/></clipPath><clipPath id="clip-path-20" transform="translate(191 243)"><polygon class="cls-1" points="3858.46 927.09 3846.08 1365.6 3336.73 1446.26 3349.1 1007.74 3858.46 927.09"/></clipPath><clipPath id="clip-path-21" transform="translate(191 243)"><polygon class="cls-1" points="3846.08 1365.6 3336.73 1446.26 3207.63 1422.21 3716.99 1341.55 3846.08 1365.6"/></clipPath><clipPath id="clip-path-22" transform="translate(191 243)"><polygon class="cls-1" points="3716.99 1341.55 3207.63 1422.21 3220 983.69 3729.36 903.03 3716.99 1341.55"/></clipPath><clipPath id="clip-path-23" transform="translate(191 243)"><path class="cls-1" d="M3219,982.15l131.12,24.42-12.46,441.22-131.11-24.43Zm117.7,464.1,12.37-438.51-129.1-24-12.37,438.52,129.1,24"/></clipPath><clipPath id="clip-path-24" transform="translate(191 243)"><path class="cls-1" d="M3728.39,901.49l131.11,24.43-12.45,441.21-131.11-24.42Zm117.69,464.11,12.37-438.52L3729.36,903,3717,1341.55l129.09,24"/></clipPath><clipPath id="clip-path-25" transform="translate(191 243)"><polygon class="cls-1" points="3728.39 901.49 3859.5 925.92 3350.14 1006.57 3219.03 982.15 3728.39 901.49"/></clipPath><clipPath id="clip-path-26" transform="translate(191 243)"><polygon class="cls-1" points="3859.5 925.92 3847.05 1367.13 3337.69 1447.79 3350.14 1006.57 3859.5 925.92"/></clipPath><clipPath id="clip-path-27" transform="translate(191 243)"><polygon class="cls-1" points="3847.05 1367.13 3337.69 1447.79 3206.58 1423.36 3715.94 1342.71 3847.05 1367.13"/></clipPath><clipPath id="clip-path-28" transform="translate(191 243)"><polygon class="cls-1" points="3715.94 1342.71 3206.58 1423.36 3219.03 982.15 3728.39 901.49 3715.94 1342.71"/></clipPath><clipPath id="clip-path-29" transform="translate(191 243)"><polygon class="cls-1" points="3846.08 1365.6 3336.72 1446.26 3349.1 1007.74 3858.45 927.08 3846.08 1365.6"/></clipPath><clipPath id="clip-path-30" transform="translate(191 243)"><polygon class="cls-1" points="3858.45 927.08 3349.1 1007.74 3220 983.69 3729.36 903.03 3858.45 927.08"/></clipPath><clipPath id="clip-path-31" transform="translate(191 243)"><polygon class="cls-1" points="3729.36 903.03 3716.99 1341.55 3207.63 1422.21 3220 983.69 3729.36 903.03"/></clipPath><clipPath id="clip-path-32" transform="translate(191 243)"><polygon class="cls-1" points="3716.99 1341.55 3846.08 1365.6 3336.72 1446.26 3207.63 1422.21 3716.99 1341.55"/></clipPath><clipPath id="clip-path-33" transform="translate(191 243)"><polygon class="cls-1" points="1819.88 1801.71 1919.86 1840.49 1872.41 2175 1772.43 2136.22 1819.88 1801.71"/></clipPath><clipPath id="clip-path-34" transform="translate(191 243)"><polygon class="cls-1" points="2220.96 1738.2 2320.94 1776.98 2273.49 2111.48 2173.51 2072.71 2220.96 1738.2"/></clipPath><clipPath id="clip-path-35" transform="translate(191 243)"><polygon class="cls-1" points="2220.96 1738.2 2320.94 1776.98 1919.86 1840.49 1819.88 1801.71 2220.96 1738.2"/></clipPath><clipPath id="clip-path-36" transform="translate(191 243)"><polygon class="cls-1" points="2320.94 1776.98 2273.49 2111.48 1872.41 2175 1919.86 1840.49 2320.94 1776.98"/></clipPath><clipPath id="clip-path-37" transform="translate(191 243)"><polygon class="cls-1" points="2273.49 2111.48 1872.41 2175 1772.43 2136.22 2173.51 2072.71 2273.49 2111.48"/></clipPath><clipPath id="clip-path-38" transform="translate(191 243)"><polygon class="cls-1" points="2173.51 2072.71 1772.43 2136.22 1819.88 1801.71 2220.96 1738.2 2173.51 2072.71"/></clipPath><clipPath id="clip-path-39" transform="translate(191 243)"><path class="cls-1" d="M1819.25,1800.38l101.54,39.38L1873,2176.33,1771.5,2137ZM1872.41,2175l47.45-334.51-100-38.78-47.45,334.51,100,38.78"/></clipPath><clipPath id="clip-path-40" transform="translate(191 243)"><path class="cls-1" d="M2220.33,1736.87l101.54,39.38-47.75,336.57-101.54-39.38Zm53.16,374.61,47.45-334.5-100-38.78-47.45,334.51,100,38.77"/></clipPath><clipPath id="clip-path-41" transform="translate(191 243)"><polygon class="cls-1" points="2220.33 1736.87 2321.87 1776.25 1920.79 1839.76 1819.25 1800.38 2220.33 1736.87"/></clipPath><clipPath id="clip-path-42" transform="translate(191 243)"><polygon class="cls-1" points="2321.87 1776.25 2274.12 2112.82 1873.04 2176.33 1920.79 1839.76 2321.87 1776.25"/></clipPath><clipPath id="clip-path-43" transform="translate(191 243)"><polygon class="cls-1" points="2274.12 2112.82 1873.04 2176.33 1771.5 2136.95 2172.58 2073.43 2274.12 2112.82"/></clipPath><clipPath id="clip-path-44" transform="translate(191 243)"><polygon class="cls-1" points="2172.58 2073.43 1771.5 2136.95 1819.25 1800.38 2220.33 1736.87 2172.58 2073.43"/></clipPath><clipPath id="clip-path-45" transform="translate(191 243)"><polygon class="cls-1" points="2273.49 2111.48 1872.4 2175 1919.86 1840.49 2320.94 1776.98 2273.49 2111.48"/></clipPath><clipPath id="clip-path-46" transform="translate(191 243)"><polygon class="cls-1" points="2320.94 1776.98 1919.86 1840.49 1819.88 1801.71 2220.96 1738.2 2320.94 1776.98"/></clipPath><clipPath id="clip-path-47" transform="translate(191 243)"><polygon class="cls-1" points="2220.96 1738.2 2173.51 2072.71 1772.43 2136.22 1819.88 1801.71 2220.96 1738.2"/></clipPath><clipPath id="clip-path-48" transform="translate(191 243)"><polygon class="cls-1" points="2173.51 2072.71 2273.49 2111.48 1872.4 2175 1772.43 2136.22 2173.51 2072.71"/></clipPath><clipPath id="clip-path-49" transform="translate(191 243)"><polygon class="cls-1" points="732.11 1453.56 920.7 1488.7 902.67 2127.81 714.08 2092.68 732.11 1453.56"/></clipPath><clipPath id="clip-path-50" transform="translate(191 243)"><polygon class="cls-1" points="1473.33 1336.19 1661.92 1371.33 1643.89 2010.44 1455.3 1975.3 1473.33 1336.19"/></clipPath><clipPath id="clip-path-51" transform="translate(191 243)"><polygon class="cls-1" points="1473.33 1336.19 1661.92 1371.33 920.7 1488.7 732.11 1453.56 1473.33 1336.19"/></clipPath><clipPath id="clip-path-52" transform="translate(191 243)"><polygon class="cls-1" points="1661.92 1371.33 1643.89 2010.44 902.67 2127.81 920.7 1488.7 1661.92 1371.33"/></clipPath><clipPath id="clip-path-53" transform="translate(191 243)"><polygon class="cls-1" points="1643.89 2010.44 902.67 2127.81 714.08 2092.68 1455.3 1975.3 1643.89 2010.44"/></clipPath><clipPath id="clip-path-54" transform="translate(191 243)"><polygon class="cls-1" points="1455.3 1975.3 714.08 2092.68 732.11 1453.56 1473.33 1336.19 1455.3 1975.3"/></clipPath><clipPath id="clip-path-55" transform="translate(191 243)"><path class="cls-1" d="M731.4,1452.45l190.07,35.4-18.09,641.08-190.07-35.41Zm171.27,675.36,18-639.11-188.59-35.14-18,639.11,188.59,35.14"/></clipPath><clipPath id="clip-path-56" transform="translate(191 243)"><path class="cls-1" d="M1472.62,1335.07l190.06,35.41-18.09,641.08-190.06-35.41Zm171.27,675.37,18-639.11-188.59-35.14-18,639.11,188.59,35.14"/></clipPath><clipPath id="clip-path-57" transform="translate(191 243)"><polygon class="cls-1" points="1472.62 1335.07 1662.68 1370.48 921.47 1487.85 731.4 1452.44 1472.62 1335.07"/></clipPath><clipPath id="clip-path-58" transform="translate(191 243)"><polygon class="cls-1" points="1662.68 1370.48 1644.59 2011.56 903.38 2128.93 921.47 1487.85 1662.68 1370.48"/></clipPath><clipPath id="clip-path-59" transform="translate(191 243)"><polygon class="cls-1" points="1644.59 2011.56 903.38 2128.93 713.31 2093.52 1454.53 1976.15 1644.59 2011.56"/></clipPath><clipPath id="clip-path-60" transform="translate(191 243)"><polygon class="cls-1" points="1454.53 1976.15 713.31 2093.52 731.4 1452.44 1472.62 1335.07 1454.53 1976.15"/></clipPath><clipPath id="clip-path-61" transform="translate(191 243)"><polygon class="cls-1" points="1643.89 2010.44 902.67 2127.81 920.7 1488.7 1661.92 1371.33 1643.89 2010.44"/></clipPath><clipPath id="clip-path-62" transform="translate(191 243)"><polygon class="cls-1" points="1661.92 1371.33 920.7 1488.7 732.11 1453.56 1473.33 1336.19 1661.92 1371.33"/></clipPath><clipPath id="clip-path-63" transform="translate(191 243)"><polygon class="cls-1" points="1473.33 1336.19 1455.3 1975.3 714.08 2092.67 732.11 1453.56 1473.33 1336.19"/></clipPath><clipPath id="clip-path-64" transform="translate(191 243)"><polygon class="cls-1" points="1455.3 1975.3 1643.89 2010.44 902.67 2127.81 714.08 2092.67 1455.3 1975.3"/></clipPath><clipPath id="clip-path-65" transform="translate(191 243)"><polygon class="cls-1" points="3744.15 1755.06 3808.67 1844.35 3657.18 2044.03 3592.65 1954.74 3744.15 1755.06"/></clipPath><clipPath id="clip-path-66" transform="translate(191 243)"><polygon class="cls-1" points="4090.35 1700.23 4154.88 1789.52 4003.38 1989.21 3938.86 1899.92 4090.35 1700.23"/></clipPath><clipPath id="clip-path-67" transform="translate(191 243)"><polygon class="cls-1" points="4090.35 1700.23 4154.88 1789.52 3808.67 1844.35 3744.15 1755.06 4090.35 1700.23"/></clipPath><clipPath id="clip-path-68" transform="translate(191 243)"><polygon class="cls-1" points="4154.88 1789.52 4003.38 1989.21 3657.18 2044.03 3808.67 1844.35 4154.88 1789.52"/></clipPath><clipPath id="clip-path-69" transform="translate(191 243)"><polygon class="cls-1" points="4003.38 1989.21 3657.18 2044.03 3592.65 1954.74 3938.86 1899.92 4003.38 1989.21"/></clipPath><clipPath id="clip-path-70" transform="translate(191 243)"><polygon class="cls-1" points="3938.86 1899.92 3592.65 1954.74 3744.15 1755.06 4090.35 1700.23 3938.86 1899.92"/></clipPath><clipPath id="clip-path-71" transform="translate(191 243)"><path class="cls-1" d="M3744.11,1753.73l65.54,90.7-152.43,200.92-65.54-90.7ZM3657.18,2044l151.49-199.68-64.52-89.3-151.5,199.69,64.53,89.29"/></clipPath><clipPath id="clip-path-72" transform="translate(191 243)"><path class="cls-1" d="M4090.32,1698.91l65.54,90.7-152.44,200.92-65.53-90.7Zm-86.94,290.3,151.5-199.69-64.53-89.29-151.49,199.69,64.52,89.29"/></clipPath><clipPath id="clip-path-73" transform="translate(191 243)"><polygon class="cls-1" points="4090.32 1698.91 4155.86 1789.61 3809.65 1844.43 3744.11 1753.73 4090.32 1698.91"/></clipPath><clipPath id="clip-path-74" transform="translate(191 243)"><polygon class="cls-1" points="4155.86 1789.61 4003.43 1990.53 3657.22 2045.35 3809.65 1844.43 4155.86 1789.61"/></clipPath><clipPath id="clip-path-75" transform="translate(191 243)"><polygon class="cls-1" points="4003.43 1990.53 3657.22 2045.35 3591.68 1954.65 3937.89 1899.83 4003.43 1990.53"/></clipPath><clipPath id="clip-path-76" transform="translate(191 243)"><polygon class="cls-1" points="3937.89 1899.83 3591.68 1954.65 3744.11 1753.73 4090.32 1698.91 3937.89 1899.83"/></clipPath><clipPath id="clip-path-77" transform="translate(191 243)"><polygon class="cls-1" points="4003.38 1989.21 3657.18 2044.03 3808.67 1844.35 4154.88 1789.52 4003.38 1989.21"/></clipPath><clipPath id="clip-path-78" transform="translate(191 243)"><polygon class="cls-1" points="4154.88 1789.52 3808.67 1844.35 3744.15 1755.06 4090.35 1700.23 4154.88 1789.52"/></clipPath><clipPath id="clip-path-79" transform="translate(191 243)"><polygon class="cls-1" points="4090.35 1700.23 3938.86 1899.92 3592.65 1954.74 3744.15 1755.06 4090.35 1700.23"/></clipPath><clipPath id="clip-path-80" transform="translate(191 243)"><polygon class="cls-1" points="3938.86 1899.92 4003.38 1989.21 3657.18 2044.03 3592.65 1954.74 3938.86 1899.92"/></clipPath><clipPath id="clip-path-81" transform="translate(191 243)"><polygon class="cls-1" points="1241.89 154.46 1526.02 498.55 1436.39 637.64 1152.25 293.55 1241.89 154.46"/></clipPath><clipPath id="clip-path-82" transform="translate(191 243)"><polygon class="cls-1" points="1808.27 64.77 2092.41 408.86 2002.77 547.95 1718.63 203.86 1808.27 64.77"/></clipPath><clipPath id="clip-path-83" transform="translate(191 243)"><polygon class="cls-1" points="1808.27 64.77 2092.41 408.86 1526.02 498.55 1241.89 154.46 1808.27 64.77"/></clipPath><clipPath id="clip-path-84" transform="translate(191 243)"><polygon class="cls-1" points="2092.41 408.86 2002.77 547.95 1436.39 637.64 1526.02 498.55 2092.41 408.86"/></clipPath><clipPath id="clip-path-85" transform="translate(191 243)"><polygon class="cls-1" points="2002.77 547.95 1436.39 637.64 1152.25 293.55 1718.63 203.86 2002.77 547.95"/></clipPath><clipPath id="clip-path-86" transform="translate(191 243)"><polygon class="cls-1" points="1718.63 203.86 1152.25 293.55 1241.89 154.46 1808.27 64.77 1718.63 203.86"/></clipPath><clipPath id="clip-path-87" transform="translate(191 243)"><path class="cls-1" d="M1241.71,152.31,1527.6,498.53l-91,141.26L1150.67,293.57Zm194.68,485.33L1526,498.55,1241.89,154.46l-89.64,139.09,284.14,344.09"/></clipPath><clipPath id="clip-path-88" transform="translate(191 243)"><path class="cls-1" d="M1808.1,62.62,2094,408.84l-91,141.26L1717.06,203.88ZM2002.77,548l89.64-139.09L1808.27,64.77l-89.64,139.09L2002.77,548"/></clipPath><clipPath id="clip-path-89" transform="translate(191 243)"><polygon class="cls-1" points="1808.1 62.62 2093.98 408.84 1527.6 498.53 1241.71 152.31 1808.1 62.62"/></clipPath><clipPath id="clip-path-90" transform="translate(191 243)"><polygon class="cls-1" points="2093.98 408.84 2002.94 550.1 1436.56 639.79 1527.6 498.53 2093.98 408.84"/></clipPath><clipPath id="clip-path-91" transform="translate(191 243)"><polygon class="cls-1" points="2002.94 550.1 1436.56 639.79 1150.67 293.57 1717.06 203.88 2002.94 550.1"/></clipPath><clipPath id="clip-path-92" transform="translate(191 243)"><polygon class="cls-1" points="1717.06 203.88 1150.67 293.57 1241.71 152.31 1808.1 62.62 1717.06 203.88"/></clipPath><clipPath id="clip-path-93" transform="translate(191 243)"><polygon class="cls-1" points="2002.77 547.95 1436.39 637.64 1526.02 498.55 2092.41 408.86 2002.77 547.95"/></clipPath><clipPath id="clip-path-94" transform="translate(191 243)"><polygon class="cls-1" points="2092.41 408.86 1526.02 498.55 1241.89 154.46 1808.27 64.77 2092.41 408.86"/></clipPath><clipPath id="clip-path-95" transform="translate(191 243)"><polygon class="cls-1" points="1808.27 64.77 1718.63 203.86 1152.25 293.55 1241.89 154.46 1808.27 64.77"/></clipPath><clipPath id="clip-path-96" transform="translate(191 243)"><polygon class="cls-1" points="1718.63 203.86 2002.77 547.95 1436.39 637.64 1152.25 293.55 1718.63 203.86"/></clipPath><clipPath id="clip-path-97" transform="translate(191 243)"><polygon class="cls-1" points="2729.37 1453.75 2912.54 1535.55 2805.41 2145.61 2622.25 2063.83 2729.37 1453.75"/></clipPath><clipPath id="clip-path-98" transform="translate(191 243)"><polygon class="cls-1" points="3470.58 1336.38 3653.75 1418.17 3546.63 2028.24 3363.46 1946.46 3470.58 1336.38"/></clipPath><clipPath id="clip-path-99" transform="translate(191 243)"><polygon class="cls-1" points="3470.58 1336.38 3653.75 1418.17 2912.54 1535.55 2729.37 1453.75 3470.58 1336.38"/></clipPath><clipPath id="clip-path-100" transform="translate(191 243)"><polygon class="cls-1" points="3653.75 1418.17 3546.63 2028.24 2805.41 2145.61 2912.54 1535.55 3653.75 1418.17"/></clipPath><clipPath id="clip-path-101" transform="translate(191 243)"><polygon class="cls-1" points="3546.63 2028.24 2805.41 2145.61 2622.25 2063.83 3363.46 1946.46 3546.63 2028.24"/></clipPath><clipPath id="clip-path-102" transform="translate(191 243)"><polygon class="cls-1" points="3363.46 1946.46 2622.25 2063.83 2729.37 1453.75 3470.58 1336.38 3363.46 1946.46"/></clipPath><clipPath id="clip-path-103" transform="translate(191 243)"><path class="cls-1" d="M2728.26,1451.23l186,83.07-107.78,613.83-186-83.06Zm77.15,694.38,107.12-610.07-183.17-81.79-107.11,610.08,183.16,81.78"/></clipPath><clipPath id="clip-path-104" transform="translate(191 243)"><path class="cls-1" d="M3469.48,1333.86l186,83.07-107.78,613.83-186-83.06Zm77.15,694.38,107.12-610.07-183.17-81.79-107.12,610.08,183.17,81.78"/></clipPath><clipPath id="clip-path-105" transform="translate(191 243)"><polygon class="cls-1" points="3469.48 1333.86 3655.51 1416.93 2914.29 1534.3 2728.26 1451.23 3469.48 1333.86"/></clipPath><clipPath id="clip-path-106" transform="translate(191 243)"><polygon class="cls-1" points="3655.51 1416.93 3547.73 2030.76 2806.51 2148.14 2914.29 1534.3 3655.51 1416.93"/></clipPath><clipPath id="clip-path-107" transform="translate(191 243)"><polygon class="cls-1" points="3547.73 2030.76 2806.51 2148.14 2620.48 2065.07 3361.7 1947.7 3547.73 2030.76"/></clipPath><clipPath id="clip-path-108" transform="translate(191 243)"><polygon class="cls-1" points="3361.7 1947.7 2620.48 2065.07 2728.26 1451.23 3469.48 1333.86 3361.7 1947.7"/></clipPath><clipPath id="clip-path-109" transform="translate(191 243)"><polygon class="cls-1" points="3546.63 2028.24 2805.41 2145.61 2912.53 1535.54 3653.75 1418.17 3546.63 2028.24"/></clipPath><clipPath id="clip-path-110" transform="translate(191 243)"><polygon class="cls-1" points="3653.75 1418.17 2912.53 1535.54 2729.36 1453.75 3470.58 1336.38 3653.75 1418.17"/></clipPath><clipPath id="clip-path-111" transform="translate(191 243)"><polygon class="cls-1" points="3470.58 1336.38 3363.46 1946.45 2622.24 2063.83 2729.36 1453.75 3470.58 1336.38"/></clipPath><clipPath id="clip-path-112" transform="translate(191 243)"><polygon class="cls-1" points="3363.46 1946.45 3546.63 2028.24 2805.41 2145.61 2622.24 2063.83 3363.46 1946.45"/></clipPath><clipPath id="clip-path-113" transform="translate(191 243)"><polygon class="cls-1" points="2390.4 128.53 2491.8 268.86 2253.9 582.43 2152.5 442.11 2390.4 128.53"/></clipPath><clipPath id="clip-path-114" transform="translate(191 243)"><polygon class="cls-1" points="2935.53 42.21 3036.93 182.54 2799.03 496.11 2697.62 355.79 2935.53 42.21"/></clipPath><clipPath id="clip-path-115" transform="translate(191 243)"><polygon class="cls-1" points="2935.53 42.21 3036.93 182.54 2491.8 268.86 2390.4 128.53 2935.53 42.21"/></clipPath><clipPath id="clip-path-116" transform="translate(191 243)"><polygon class="cls-1" points="3036.93 182.54 2799.03 496.11 2253.9 582.43 2491.8 268.86 3036.93 182.54"/></clipPath><clipPath id="clip-path-117" transform="translate(191 243)"><polygon class="cls-1" points="2799.03 496.11 2253.9 582.43 2152.5 442.11 2697.62 355.79 2799.03 496.11"/></clipPath><clipPath id="clip-path-118" transform="translate(191 243)"><polygon class="cls-1" points="2697.62 355.79 2152.5 442.11 2390.4 128.53 2935.53 42.21 2697.62 355.79"/></clipPath><clipPath id="clip-path-119" transform="translate(191 243)"><path class="cls-1" d="M2390.34,126.47l103,142.52L2254,584.5,2151,442Zm-136.44,456,237.9-313.57L2390.4,128.54,2152.5,442.11l101.4,140.32"/></clipPath><clipPath id="clip-path-120" transform="translate(191 243)"><path class="cls-1" d="M2935.47,40.15l103,142.52L2799.08,498.18l-103-142.52ZM2799,496.11l237.9-313.57L2935.53,42.22,2697.62,355.79,2799,496.11"/></clipPath><clipPath id="clip-path-121" transform="translate(191 243)"><polygon class="cls-1" points="2935.47 40.15 3038.45 182.67 2493.33 268.99 2390.34 126.47 2935.47 40.15"/></clipPath><clipPath id="clip-path-122" transform="translate(191 243)"><polygon class="cls-1" points="3038.45 182.67 2799.08 498.18 2253.96 584.5 2493.33 268.99 3038.45 182.67"/></clipPath><clipPath id="clip-path-123" transform="translate(191 243)"><polygon class="cls-1" points="2799.08 498.18 2253.96 584.5 2150.97 441.98 2696.1 355.66 2799.08 498.18"/></clipPath><clipPath id="clip-path-124" transform="translate(191 243)"><polygon class="cls-1" points="2696.1 355.66 2150.97 441.98 2390.34 126.47 2935.47 40.15 2696.1 355.66"/></clipPath><clipPath id="clip-path-125" transform="translate(191 243)"><polygon class="cls-1" points="2799.03 496.11 2253.9 582.43 2491.8 268.86 3036.93 182.54 2799.03 496.11"/></clipPath><clipPath id="clip-path-126" transform="translate(191 243)"><polygon class="cls-1" points="3036.93 182.54 2491.8 268.86 2390.4 128.54 2935.53 42.22 3036.93 182.54"/></clipPath><clipPath id="clip-path-127" transform="translate(191 243)"><polygon class="cls-1" points="2935.53 42.22 2697.62 355.79 2152.5 442.11 2390.4 128.54 2935.53 42.22"/></clipPath><clipPath id="clip-path-128" transform="translate(191 243)"><polygon class="cls-1" points="2697.62 355.79 2799.03 496.11 2253.9 582.43 2152.5 442.11 2697.62 355.79"/></clipPath><clipPath id="clip-path-129" transform="translate(191 243)"><polygon class="cls-1" points="259.1 897.67 389.33 936.6 349.39 1374.21 219.15 1335.28 259.1 897.67"/></clipPath><clipPath id="clip-path-130" transform="translate(191 243)"><polygon class="cls-1" points="774.34 816.08 904.57 855.01 864.62 1292.63 734.39 1253.69 774.34 816.08"/></clipPath><clipPath id="clip-path-131" transform="translate(191 243)"><polygon class="cls-1" points="774.34 816.08 904.57 855.01 389.33 936.6 259.1 897.67 774.34 816.08"/></clipPath><clipPath id="clip-path-132" transform="translate(191 243)"><polygon class="cls-1" points="904.57 855.01 864.62 1292.63 349.39 1374.21 389.33 936.6 904.57 855.01"/></clipPath><clipPath id="clip-path-133" transform="translate(191 243)"><polygon class="cls-1" points="864.62 1292.63 349.39 1374.21 219.15 1335.28 734.39 1253.69 864.62 1292.63"/></clipPath><clipPath id="clip-path-134" transform="translate(191 243)"><polygon class="cls-1" points="734.39 1253.69 219.15 1335.28 259.1 897.67 774.34 816.08 734.39 1253.69"/></clipPath><clipPath id="clip-path-135" transform="translate(191 243)"><path class="cls-1" d="M258.66,896.84,389.9,936.07l-40.07,439L218.59,1335.8Zm90.73,477.37,39.94-437.62L259.1,897.67l-40,437.61,130.24,38.93"/></clipPath><clipPath id="clip-path-136" transform="translate(191 243)"><path class="cls-1" d="M773.89,815.26l131.25,39.23-40.08,439-131.24-39.23Zm90.73,477.37,40-437.62L774.34,816.08l-40,437.61,130.23,38.94"/></clipPath><clipPath id="clip-path-137" transform="translate(191 243)"><polygon class="cls-1" points="773.89 815.26 905.14 854.49 389.9 936.07 258.66 896.84 773.89 815.26"/></clipPath><clipPath id="clip-path-138" transform="translate(191 243)"><polygon class="cls-1" points="905.14 854.49 865.06 1293.44 349.83 1375.03 389.9 936.07 905.14 854.49"/></clipPath><clipPath id="clip-path-139" transform="translate(191 243)"><polygon class="cls-1" points="865.06 1293.44 349.83 1375.03 218.59 1335.8 733.82 1254.21 865.06 1293.44"/></clipPath><clipPath id="clip-path-140" transform="translate(191 243)"><polygon class="cls-1" points="733.82 1254.21 218.59 1335.8 258.66 896.84 773.89 815.26 733.82 1254.21"/></clipPath><clipPath id="clip-path-141" transform="translate(191 243)"><polygon class="cls-1" points="864.62 1292.63 349.39 1374.21 389.33 936.59 904.57 855.01 864.62 1292.63"/></clipPath><clipPath id="clip-path-142" transform="translate(191 243)"><polygon class="cls-1" points="904.57 855.01 389.33 936.59 259.1 897.67 774.34 816.08 904.57 855.01"/></clipPath><clipPath id="clip-path-143" transform="translate(191 243)"><polygon class="cls-1" points="774.34 816.08 734.39 1253.69 219.15 1335.28 259.1 897.67 774.34 816.08"/></clipPath><clipPath id="clip-path-144" transform="translate(191 243)"><polygon class="cls-1" points="734.39 1253.69 864.62 1292.63 349.39 1374.21 219.15 1335.28 734.39 1253.69"/></clipPath><clipPath id="clip-path-145" transform="translate(191 243)"><polygon class="cls-1" points="332.14 245.4 426.13 394.69 169.51 680.44 75.53 531.16 332.14 245.4"/></clipPath><clipPath id="clip-path-146" transform="translate(191 243)"><polygon class="cls-1" points="877.2 159.09 971.19 308.38 714.57 594.13 620.58 444.85 877.2 159.09"/></clipPath><clipPath id="clip-path-147" transform="translate(191 243)"><polygon class="cls-1" points="877.2 159.09 971.19 308.38 426.13 394.69 332.14 245.4 877.2 159.09"/></clipPath><clipPath id="clip-path-148" transform="translate(191 243)"><polygon class="cls-1" points="971.19 308.38 714.57 594.13 169.51 680.44 426.13 394.69 971.19 308.38"/></clipPath><clipPath id="clip-path-149" transform="translate(191 243)"><polygon class="cls-1" points="714.57 594.13 169.51 680.44 75.53 531.16 620.58 444.85 714.57 594.13"/></clipPath><clipPath id="clip-path-150" transform="translate(191 243)"><polygon class="cls-1" points="620.58 444.85 75.53 531.16 332.14 245.4 877.2 159.09 620.58 444.85"/></clipPath><clipPath id="clip-path-151" transform="translate(191 243)"><path class="cls-1" d="M332.21,243.36,427.66,395,169.45,682.48,74,530.87ZM169.51,680.44,426.13,394.69l-94-149.29L75.53,531.16l94,149.28"/></clipPath><clipPath id="clip-path-152" transform="translate(191 243)"><path class="cls-1" d="M877.27,157.05l95.45,151.62L714.51,596.17,619.06,444.56ZM714.57,594.13,971.19,308.38l-94-149.29L620.58,444.85l94,149.28"/></clipPath><clipPath id="clip-path-153" transform="translate(191 243)"><polygon class="cls-1" points="877.26 157.05 972.72 308.67 427.66 394.98 332.21 243.36 877.26 157.05"/></clipPath><clipPath id="clip-path-154" transform="translate(191 243)"><polygon class="cls-1" points="972.72 308.67 714.51 596.17 169.45 682.48 427.66 394.98 972.72 308.67"/></clipPath><clipPath id="clip-path-155" transform="translate(191 243)"><polygon class="cls-1" points="714.51 596.17 169.45 682.48 74 530.87 619.06 444.56 714.51 596.17"/></clipPath><clipPath id="clip-path-156" transform="translate(191 243)"><polygon class="cls-1" points="619.06 444.56 74 530.87 332.21 243.36 877.26 157.05 619.06 444.56"/></clipPath><clipPath id="clip-path-157" transform="translate(191 243)"><polygon class="cls-1" points="714.57 594.13 169.51 680.44 426.13 394.69 971.19 308.38 714.57 594.13"/></clipPath><clipPath id="clip-path-158" transform="translate(191 243)"><polygon class="cls-1" points="971.19 308.38 426.13 394.69 332.14 245.4 877.2 159.09 971.19 308.38"/></clipPath><clipPath id="clip-path-159" transform="translate(191 243)"><polygon class="cls-1" points="877.2 159.09 620.58 444.85 75.53 531.16 332.14 245.4 877.2 159.09"/></clipPath><clipPath id="clip-path-160" transform="translate(191 243)"><polygon class="cls-1" points="620.58 444.85 714.57 594.13 169.51 680.44 75.53 531.16 620.58 444.85"/></clipPath><clipPath id="clip-path-161" transform="translate(191 243)"><path class="cls-1" d="M2014.9,1046.3l-26.17,41.6c-5.79,9.2-17.22,16.8-34.62,22l26.17-41.59C1997.68,1063.11,2009.11,1055.51,2014.9,1046.3Z"/></clipPath><clipPath id="clip-path-162" transform="translate(191 243)"><polygon class="cls-1" points="265.51 1798.58 335.29 1945.41 295 1977.1 225.22 1830.27 265.51 1798.58"/></clipPath><clipPath id="clip-path-163" transform="translate(191 243)"><polygon class="cls-1" points="458 1768.1 527.78 1914.93 487.49 1946.62 417.71 1799.79 458 1768.1"/></clipPath><clipPath id="clip-path-164" transform="translate(191 243)"><polygon class="cls-1" points="458 1768.1 527.78 1914.93 335.29 1945.41 265.51 1798.58 458 1768.1"/></clipPath><clipPath id="clip-path-165" transform="translate(191 243)"><polygon class="cls-1" points="527.78 1914.93 487.49 1946.62 295 1977.1 335.29 1945.41 527.78 1914.93"/></clipPath><clipPath id="clip-path-166" transform="translate(191 243)"><polygon class="cls-1" points="487.49 1946.62 295 1977.1 225.22 1830.27 417.71 1799.79 487.49 1946.62"/></clipPath><clipPath id="clip-path-167" transform="translate(191 243)"><polygon class="cls-1" points="417.71 1799.79 225.22 1830.27 265.51 1798.58 458 1768.1 417.71 1799.79"/></clipPath><clipPath id="clip-path-168" transform="translate(191 243)"><path class="cls-1" d="M224.69,1830.07l40.92-32.18,70.21,147.73L294.9,1977.8Zm110.6,115.34-69.78-146.83-40.29,31.69L295,1977.1l40.29-31.69"/></clipPath><clipPath id="clip-path-169" transform="translate(191 243)"><path class="cls-1" d="M417.18,1799.59l40.92-32.18,70.21,147.73-40.92,32.18Zm110.6,115.34L458,1768.1l-40.29,31.69,69.78,146.83,40.29-31.69"/></clipPath><clipPath id="clip-path-170" transform="translate(191 243)"><polygon class="cls-1" points="417.18 1799.59 224.69 1830.07 265.61 1797.89 458.1 1767.41 417.18 1799.59"/></clipPath><clipPath id="clip-path-171" transform="translate(191 243)"><polygon class="cls-1" points="458.1 1767.41 528.31 1915.14 335.82 1945.62 265.61 1797.89 458.1 1767.41"/></clipPath><clipPath id="clip-path-172" transform="translate(191 243)"><polygon class="cls-1" points="528.31 1915.14 487.39 1947.32 294.9 1977.8 335.82 1945.62 528.31 1915.14"/></clipPath><clipPath id="clip-path-173" transform="translate(191 243)"><polygon class="cls-1" points="487.39 1947.32 294.9 1977.8 224.69 1830.07 417.18 1799.59 487.39 1947.32"/></clipPath><clipPath id="clip-path-174" transform="translate(191 243)"><polygon class="cls-1" points="527.78 1914.93 335.29 1945.41 265.51 1798.58 458 1768.1 527.78 1914.93"/></clipPath><clipPath id="clip-path-175" transform="translate(191 243)"><polygon class="cls-1" points="458 1768.1 417.71 1799.79 225.22 1830.27 265.51 1798.58 458 1768.1"/></clipPath><clipPath id="clip-path-176" transform="translate(191 243)"><polygon class="cls-1" points="417.71 1799.79 487.49 1946.62 295 1977.1 225.22 1830.27 417.71 1799.79"/></clipPath><clipPath id="clip-path-177" transform="translate(191 243)"><polygon class="cls-1" points="487.49 1946.62 295 1977.1 335.29 1945.41 527.78 1914.93 487.49 1946.62"/></clipPath><clipPath id="clip-path-178" transform="translate(191 243)"><polygon class="cls-1" points="47.14 1463.41 153.97 1560.96 129.6 1614.51 22.77 1516.97 47.14 1463.41"/></clipPath><clipPath id="clip-path-179" transform="translate(191 243)"><polygon class="cls-1" points="239.28 1432.99 346.11 1530.53 321.74 1584.09 214.91 1486.54 239.28 1432.99"/></clipPath><clipPath id="clip-path-180" transform="translate(191 243)"><polygon class="cls-1" points="239.28 1432.99 346.11 1530.53 153.97 1560.96 47.14 1463.41 239.28 1432.99"/></clipPath><clipPath id="clip-path-181" transform="translate(191 243)"><polygon class="cls-1" points="346.11 1530.53 321.74 1584.09 129.6 1614.51 153.97 1560.96 346.11 1530.53"/></clipPath><clipPath id="clip-path-182" transform="translate(191 243)"><polygon class="cls-1" points="321.74 1584.09 129.6 1614.51 22.77 1516.97 214.91 1486.54 321.74 1584.09"/></clipPath><clipPath id="clip-path-183" transform="translate(191 243)"><polygon class="cls-1" points="214.91 1486.54 22.77 1516.97 47.14 1463.41 239.28 1432.99 214.91 1486.54"/></clipPath><clipPath id="clip-path-184" transform="translate(191 243)"><path class="cls-1" d="M47,1462.69l107.49,98.15-24.75,54.39L22.25,1517.09Zm82.6,151.82L154,1561,47.14,1463.41,22.77,1517l106.83,97.54"/></clipPath><clipPath id="clip-path-185" transform="translate(191 243)"><path class="cls-1" d="M239.14,1432.27l107.49,98.14-24.75,54.4-107.49-98.15Zm82.6,151.82,24.37-53.56L239.28,1433l-24.37,53.55,106.83,97.55"/></clipPath><clipPath id="clip-path-186" transform="translate(191 243)"><polygon class="cls-1" points="239.14 1432.27 346.63 1530.41 154.49 1560.84 47 1462.69 239.14 1432.27"/></clipPath><clipPath id="clip-path-187" transform="translate(191 243)"><polygon class="cls-1" points="346.63 1530.41 321.88 1584.81 129.74 1615.23 154.49 1560.84 346.63 1530.41"/></clipPath><clipPath id="clip-path-188" transform="translate(191 243)"><polygon class="cls-1" points="321.88 1584.81 129.74 1615.23 22.25 1517.09 214.39 1486.66 321.88 1584.81"/></clipPath><clipPath id="clip-path-189" transform="translate(191 243)"><polygon class="cls-1" points="214.39 1486.66 22.25 1517.09 47 1462.69 239.14 1432.27 214.39 1486.66"/></clipPath><clipPath id="clip-path-190" transform="translate(191 243)"><polygon class="cls-1" points="321.74 1584.09 129.6 1614.51 153.97 1560.96 346.11 1530.53 321.74 1584.09"/></clipPath><clipPath id="clip-path-191" transform="translate(191 243)"><polygon class="cls-1" points="346.11 1530.53 153.97 1560.96 47.14 1463.41 239.28 1432.99 346.11 1530.53"/></clipPath><clipPath id="clip-path-192" transform="translate(191 243)"><polygon class="cls-1" points="239.28 1432.99 214.91 1486.54 22.77 1516.97 47.14 1463.41 239.28 1432.99"/></clipPath><clipPath id="clip-path-193" transform="translate(191 243)"><polygon class="cls-1" points="214.91 1486.54 321.74 1584.09 129.6 1614.51 22.77 1516.97 214.91 1486.54"/></clipPath></defs><title>3d4</title><g id="FORMAS"><rect class="cls-2" width="4894" height="2667"/><g class="cls-3"><g class="cls-3"><g class="cls-4"><polygon class="cls-5" points="3268.46 535.13 3456.32 570.12 3438.32 1208.25 3250.46 1173.25 3268.46 535.13"/></g></g><g class="cls-3"><g class="cls-6"><polygon class="cls-5" points="4009.68 417.76 4197.54 452.75 4179.53 1090.88 3991.67 1055.88 4009.68 417.76"/></g></g><g class="cls-3"><g class="cls-7"><polygon class="cls-5" points="4009.68 417.76 4197.54 452.75 3456.32 570.12 3268.46 535.13 4009.68 417.76"/></g></g><g class="cls-3"><g class="cls-8"><polygon class="cls-5" points="4197.54 452.75 4179.53 1090.88 3438.32 1208.25 3456.32 570.12 4197.54 452.75"/></g></g><g class="cls-3"><g class="cls-9"><polygon class="cls-5" points="4179.53 1090.88 3438.32 1208.25 3250.46 1173.25 3991.67 1055.88 4179.53 1090.88"/></g></g><g class="cls-3"><g class="cls-10"><polygon class="cls-5" points="3991.67 1055.88 3250.46 1173.25 3268.46 535.13 4009.68 417.76 3991.67 1055.88"/></g></g><g class="cls-3"><g class="cls-11"><path class="cls-5" d="M3076.05,289.89l190.79,35.54-18.11,642.06L3057.93,932Zm171.27,675.36,18-638.13-187.86-35-18,638.12,187.86,35" transform="translate(191 243)"/></g></g><g class="cls-3"><g class="cls-12"><path class="cls-5" d="M3817.27,172.51l190.79,35.54-18.12,642.07-190.79-35.55Zm171.26,675.37,18-638.13-187.86-35-18,638.12,187.86,35" transform="translate(191 243)"/></g></g><g class="cls-3"><g class="cls-13"><polygon class="cls-5" points="4008.27 415.51 4199.06 451.05 3457.84 568.42 3267.05 532.88 4008.27 415.51"/></g></g><g class="cls-3"><g class="cls-14"><polygon class="cls-5" points="4199.06 451.05 4180.94 1093.12 3439.73 1210.49 3457.84 568.42 4199.06 451.05"/></g></g><g class="cls-3"><g class="cls-15"><polygon class="cls-5" points="4180.94 1093.12 3439.73 1210.49 3248.93 1174.94 3990.15 1057.57 4180.94 1093.12"/></g></g><g class="cls-3"><g class="cls-16"><polygon class="cls-5" points="3990.15 1057.57 3248.93 1174.94 3267.05 532.88 4008.27 415.51 3990.15 1057.57"/></g></g><g class="cls-3"><g class="cls-17"><polygon class="cls-5" points="4179.53 1090.88 3438.32 1208.25 3456.32 570.12 4197.54 452.75 4179.53 1090.88"/></g></g><g class="cls-3"><g class="cls-18"><polygon class="cls-5" points="4197.54 452.75 3456.32 570.12 3268.46 535.13 4009.68 417.76 4197.54 452.75"/></g></g><g class="cls-3"><g class="cls-19"><polygon class="cls-5" points="4009.68 417.76 3991.67 1055.88 3250.46 1173.25 3268.46 535.13 4009.68 417.76"/></g></g><g class="cls-3"><g class="cls-20"><polygon class="cls-5" points="3991.67 1055.88 4179.53 1090.88 3438.32 1208.25 3250.46 1173.25 3991.67 1055.88"/></g></g></g><g class="cls-3"><g class="cls-3"><g class="cls-21"><polygon class="cls-5" points="3411 1226.69 3540.1 1250.74 3527.73 1689.26 3398.63 1665.21 3411 1226.69"/></g></g><g class="cls-3"><g class="cls-22"><polygon class="cls-5" points="3920.36 1146.03 4049.46 1170.09 4037.08 1608.6 3907.99 1584.55 3920.36 1146.03"/></g></g><g class="cls-3"><g class="cls-23"><polygon class="cls-5" points="3920.36 1146.03 4049.46 1170.09 3540.1 1250.74 3411 1226.69 3920.36 1146.03"/></g></g><g class="cls-3"><g class="cls-24"><polygon class="cls-5" points="4049.46 1170.09 4037.08 1608.6 3527.73 1689.26 3540.1 1250.74 4049.46 1170.09"/></g></g><g class="cls-3"><g class="cls-25"><polygon class="cls-5" points="4037.08 1608.6 3527.73 1689.26 3398.63 1665.21 3907.99 1584.55 4037.08 1608.6"/></g></g><g class="cls-3"><g class="cls-26"><polygon class="cls-5" points="3907.99 1584.55 3398.63 1665.21 3411 1226.69 3920.36 1146.03 3907.99 1584.55"/></g></g><g class="cls-3"><g class="cls-27"><path class="cls-5" d="M3219,982.15l131.12,24.42-12.46,441.22-131.11-24.43Zm117.7,464.1,12.37-438.51-129.1-24-12.37,438.52,129.1,24" transform="translate(191 243)"/></g></g><g class="cls-3"><g class="cls-28"><path class="cls-5" d="M3728.39,901.49l131.11,24.43-12.45,441.21-131.11-24.42Zm117.69,464.11,12.37-438.52L3729.36,903,3717,1341.55l129.09,24" transform="translate(191 243)"/></g></g><g class="cls-3"><g class="cls-29"><polygon class="cls-5" points="3919.39 1144.49 4050.5 1168.92 3541.14 1249.57 3410.03 1225.15 3919.39 1144.49"/></g></g><g class="cls-3"><g class="cls-30"><polygon class="cls-5" points="4050.5 1168.92 4038.05 1610.13 3528.69 1690.79 3541.14 1249.57 4050.5 1168.92"/></g></g><g class="cls-3"><g class="cls-31"><polygon class="cls-5" points="4038.05 1610.13 3528.69 1690.79 3397.58 1666.36 3906.94 1585.71 4038.05 1610.13"/></g></g><g class="cls-3"><g class="cls-32"><polygon class="cls-5" points="3906.94 1585.71 3397.58 1666.36 3410.03 1225.15 3919.39 1144.49 3906.94 1585.71"/></g></g><g class="cls-3"><g class="cls-33"><polygon class="cls-5" points="4037.08 1608.6 3527.72 1689.26 3540.1 1250.74 4049.45 1170.08 4037.08 1608.6"/></g></g><g class="cls-3"><g class="cls-34"><polygon class="cls-5" points="4049.45 1170.08 3540.1 1250.74 3411 1226.69 3920.36 1146.03 4049.45 1170.08"/></g></g><g class="cls-3"><g class="cls-35"><polygon class="cls-5" points="3920.36 1146.03 3907.99 1584.55 3398.63 1665.21 3411 1226.69 3920.36 1146.03"/></g></g><g class="cls-3"><g class="cls-36"><polygon class="cls-5" points="3907.99 1584.55 4037.08 1608.6 3527.72 1689.26 3398.63 1665.21 3907.99 1584.55"/></g></g></g><g class="cls-3"><g class="cls-3"><g class="cls-37"><polygon class="cls-5" points="2010.88 2044.71 2110.86 2083.49 2063.41 2418 1963.43 2379.22 2010.88 2044.71"/></g></g><g class="cls-3"><g class="cls-38"><polygon class="cls-5" points="2411.96 1981.2 2511.94 2019.98 2464.49 2354.48 2364.51 2315.71 2411.96 1981.2"/></g></g><g class="cls-3"><g class="cls-39"><polygon class="cls-5" points="2411.96 1981.2 2511.94 2019.98 2110.86 2083.49 2010.88 2044.71 2411.96 1981.2"/></g></g><g class="cls-3"><g class="cls-40"><polygon class="cls-5" points="2511.94 2019.98 2464.49 2354.48 2063.41 2418 2110.86 2083.49 2511.94 2019.98"/></g></g><g class="cls-3"><g class="cls-41"><polygon class="cls-5" points="2464.49 2354.48 2063.41 2418 1963.43 2379.22 2364.51 2315.71 2464.49 2354.48"/></g></g><g class="cls-3"><g class="cls-42"><polygon class="cls-5" points="2364.51 2315.71 1963.43 2379.22 2010.88 2044.71 2411.96 1981.2 2364.51 2315.71"/></g></g><g class="cls-3"><g class="cls-43"><path class="cls-5" d="M1819.25,1800.38l101.54,39.38L1873,2176.33,1771.5,2137ZM1872.41,2175l47.45-334.51-100-38.78-47.45,334.51,100,38.78" transform="translate(191 243)"/></g></g><g class="cls-3"><g class="cls-44"><path class="cls-5" d="M2220.33,1736.87l101.54,39.38-47.75,336.57-101.54-39.38Zm53.16,374.61,47.45-334.5-100-38.78-47.45,334.51,100,38.77" transform="translate(191 243)"/></g></g><g class="cls-3"><g class="cls-45"><polygon class="cls-5" points="2411.33 1979.87 2512.87 2019.25 2111.79 2082.76 2010.25 2043.38 2411.33 1979.87"/></g></g><g class="cls-3"><g class="cls-46"><polygon class="cls-5" points="2512.87 2019.25 2465.12 2355.82 2064.04 2419.33 2111.79 2082.76 2512.87 2019.25"/></g></g><g class="cls-3"><g class="cls-47"><polygon class="cls-5" points="2465.12 2355.82 2064.04 2419.33 1962.5 2379.95 2363.58 2316.43 2465.12 2355.82"/></g></g><g class="cls-3"><g class="cls-48"><polygon class="cls-5" points="2363.58 2316.43 1962.5 2379.95 2010.25 2043.38 2411.33 1979.87 2363.58 2316.43"/></g></g><g class="cls-3"><g class="cls-49"><polygon class="cls-5" points="2464.49 2354.48 2063.41 2418 2110.86 2083.49 2511.94 2019.98 2464.49 2354.48"/></g></g><g class="cls-3"><g class="cls-50"><polygon class="cls-5" points="2511.94 2019.98 2110.86 2083.49 2010.88 2044.71 2411.96 1981.2 2511.94 2019.98"/></g></g><g class="cls-3"><g class="cls-51"><polygon class="cls-5" points="2411.96 1981.2 2364.51 2315.71 1963.43 2379.22 2010.88 2044.71 2411.96 1981.2"/></g></g><g class="cls-3"><g class="cls-52"><polygon class="cls-5" points="2364.51 2315.71 2464.49 2354.48 2063.41 2418 1963.43 2379.22 2364.51 2315.71"/></g></g></g><g class="cls-3"><g class="cls-3"><g class="cls-53"><polygon class="cls-5" points="923.11 1696.56 1111.7 1731.7 1093.67 2370.81 905.08 2335.68 923.11 1696.56"/></g></g><g class="cls-3"><g class="cls-54"><polygon class="cls-5" points="1664.33 1579.19 1852.92 1614.33 1834.89 2253.44 1646.3 2218.3 1664.33 1579.19"/></g></g><g class="cls-3"><g class="cls-55"><polygon class="cls-5" points="1664.33 1579.19 1852.92 1614.33 1111.7 1731.7 923.11 1696.56 1664.33 1579.19"/></g></g><g class="cls-3"><g class="cls-56"><polygon class="cls-5" points="1852.92 1614.33 1834.89 2253.44 1093.67 2370.81 1111.7 1731.7 1852.92 1614.33"/></g></g><g class="cls-3"><g class="cls-57"><polygon class="cls-5" points="1834.89 2253.44 1093.67 2370.81 905.08 2335.68 1646.3 2218.3 1834.89 2253.44"/></g></g><g class="cls-3"><g class="cls-58"><polygon class="cls-5" points="1646.3 2218.3 905.08 2335.68 923.11 1696.56 1664.33 1579.19 1646.3 2218.3"/></g></g><g class="cls-3"><g class="cls-59"><path class="cls-5" d="M731.4,1452.45l190.07,35.4-18.09,641.08-190.07-35.41Zm171.27,675.36,18-639.11-188.59-35.14-18,639.11,188.59,35.14" transform="translate(191 243)"/></g></g><g class="cls-3"><g class="cls-60"><path class="cls-5" d="M1472.62,1335.07l190.06,35.41-18.09,641.08-190.06-35.41Zm171.27,675.37,18-639.11-188.59-35.14-18,639.11,188.59,35.14" transform="translate(191 243)"/></g></g><g class="cls-3"><g class="cls-61"><polygon class="cls-5" points="1663.62 1578.07 1853.68 1613.48 1112.46 1730.85 922.4 1695.44 1663.62 1578.07"/></g></g><g class="cls-3"><g class="cls-62"><polygon class="cls-5" points="1853.68 1613.48 1835.59 2254.56 1094.38 2371.93 1112.46 1730.85 1853.68 1613.48"/></g></g><g class="cls-3"><g class="cls-63"><polygon class="cls-5" points="1835.59 2254.56 1094.38 2371.93 904.31 2336.52 1645.53 2219.15 1835.59 2254.56"/></g></g><g class="cls-3"><g class="cls-64"><polygon class="cls-5" points="1645.53 2219.15 904.31 2336.52 922.4 1695.44 1663.62 1578.07 1645.53 2219.15"/></g></g><g class="cls-3"><g class="cls-65"><polygon class="cls-5" points="1834.89 2253.44 1093.67 2370.81 1111.7 1731.7 1852.92 1614.33 1834.89 2253.44"/></g></g><g class="cls-3"><g class="cls-66"><polygon class="cls-5" points="1852.92 1614.33 1111.7 1731.7 923.11 1696.56 1664.33 1579.19 1852.92 1614.33"/></g></g><g class="cls-3"><g class="cls-67"><polygon class="cls-5" points="1664.33 1579.19 1646.3 2218.3 905.08 2335.67 923.11 1696.56 1664.33 1579.19"/></g></g><g class="cls-3"><g class="cls-68"><polygon class="cls-5" points="1646.3 2218.3 1834.89 2253.44 1093.67 2370.81 905.08 2335.67 1646.3 2218.3"/></g></g></g><g class="cls-3"><g class="cls-3"><g class="cls-69"><polygon class="cls-5" points="3935.15 1998.06 3999.67 2087.34 3848.18 2287.03 3783.65 2197.74 3935.15 1998.06"/></g></g><g class="cls-3"><g class="cls-70"><polygon class="cls-5" points="4281.35 1943.23 4345.88 2032.52 4194.38 2232.21 4129.86 2142.92 4281.35 1943.23"/></g></g><g class="cls-3"><g class="cls-71"><polygon class="cls-5" points="4281.35 1943.23 4345.88 2032.52 3999.67 2087.34 3935.15 1998.06 4281.35 1943.23"/></g></g><g class="cls-3"><g class="cls-72"><polygon class="cls-5" points="4345.88 2032.52 4194.38 2232.21 3848.18 2287.03 3999.67 2087.34 4345.88 2032.52"/></g></g><g class="cls-3"><g class="cls-73"><polygon class="cls-5" points="4194.38 2232.21 3848.18 2287.03 3783.65 2197.74 4129.86 2142.92 4194.38 2232.21"/></g></g><g class="cls-3"><g class="cls-74"><polygon class="cls-5" points="4129.86 2142.92 3783.65 2197.74 3935.15 1998.06 4281.35 1943.23 4129.86 2142.92"/></g></g><g class="cls-3"><g class="cls-75"><path class="cls-5" d="M3744.11,1753.73l65.54,90.7-152.43,200.92-65.54-90.7ZM3657.18,2044l151.49-199.68-64.52-89.3-151.5,199.69,64.53,89.29" transform="translate(191 243)"/></g></g><g class="cls-3"><g class="cls-76"><path class="cls-5" d="M4090.32,1698.91l65.54,90.7-152.44,200.92-65.53-90.7Zm-86.94,290.3,151.5-199.69-64.53-89.29-151.49,199.69,64.52,89.29" transform="translate(191 243)"/></g></g><g class="cls-3"><g class="cls-77"><polygon class="cls-5" points="4281.32 1941.91 4346.86 2032.61 4000.65 2087.43 3935.11 1996.73 4281.32 1941.91"/></g></g><g class="cls-3"><g class="cls-78"><polygon class="cls-5" points="4346.86 2032.61 4194.43 2233.53 3848.22 2288.35 4000.65 2087.43 4346.86 2032.61"/></g></g><g class="cls-3"><g class="cls-79"><polygon class="cls-5" points="4194.43 2233.53 3848.22 2288.35 3782.68 2197.65 4128.89 2142.83 4194.43 2233.53"/></g></g><g class="cls-3"><g class="cls-80"><polygon class="cls-5" points="4128.89 2142.83 3782.68 2197.65 3935.11 1996.73 4281.32 1941.91 4128.89 2142.83"/></g></g><g class="cls-3"><g class="cls-81"><polygon class="cls-5" points="4194.38 2232.21 3848.18 2287.03 3999.67 2087.34 4345.88 2032.52 4194.38 2232.21"/></g></g><g class="cls-3"><g class="cls-82"><polygon class="cls-5" points="4345.88 2032.52 3999.67 2087.34 3935.15 1998.06 4281.35 1943.23 4345.88 2032.52"/></g></g><g class="cls-3"><g class="cls-83"><polygon class="cls-5" points="4281.35 1943.23 4129.86 2142.92 3783.65 2197.74 3935.15 1998.06 4281.35 1943.23"/></g></g><g class="cls-3"><g class="cls-84"><polygon class="cls-5" points="4129.86 2142.92 4194.38 2232.21 3848.18 2287.03 3783.65 2197.74 4129.86 2142.92"/></g></g></g><g class="cls-3"><g class="cls-3"><g class="cls-85"><polygon class="cls-5" points="1432.89 397.46 1717.02 741.55 1627.39 880.64 1343.25 536.55 1432.89 397.46"/></g></g><g class="cls-3"><g class="cls-86"><polygon class="cls-5" points="1999.27 307.77 2283.41 651.86 2193.77 790.95 1909.63 446.86 1999.27 307.77"/></g></g><g class="cls-3"><g class="cls-87"><polygon class="cls-5" points="1999.27 307.77 2283.41 651.86 1717.02 741.55 1432.89 397.46 1999.27 307.77"/></g></g><g class="cls-3"><g class="cls-88"><polygon class="cls-5" points="2283.41 651.86 2193.77 790.95 1627.39 880.64 1717.02 741.55 2283.41 651.86"/></g></g><g class="cls-3"><g class="cls-89"><polygon class="cls-5" points="2193.77 790.95 1627.39 880.64 1343.25 536.55 1909.63 446.86 2193.77 790.95"/></g></g><g class="cls-3"><g class="cls-90"><polygon class="cls-5" points="1909.63 446.86 1343.25 536.55 1432.89 397.46 1999.27 307.77 1909.63 446.86"/></g></g><g class="cls-3"><g class="cls-91"><path class="cls-5" d="M1241.71,152.31,1527.6,498.53l-91,141.26L1150.67,293.57Zm194.68,485.33L1526,498.55,1241.89,154.46l-89.64,139.09,284.14,344.09" transform="translate(191 243)"/></g></g><g class="cls-3"><g class="cls-92"><path class="cls-5" d="M1808.1,62.62,2094,408.84l-91,141.26L1717.06,203.88ZM2002.77,548l89.64-139.09L1808.27,64.77l-89.64,139.09L2002.77,548" transform="translate(191 243)"/></g></g><g class="cls-3"><g class="cls-93"><polygon class="cls-5" points="1999.1 305.62 2284.98 651.84 1718.6 741.53 1432.71 395.31 1999.1 305.62"/></g></g><g class="cls-3"><g class="cls-94"><polygon class="cls-5" points="2284.98 651.84 2193.95 793.1 1627.56 882.79 1718.6 741.53 2284.98 651.84"/></g></g><g class="cls-3"><g class="cls-95"><polygon class="cls-5" points="2193.95 793.1 1627.56 882.79 1341.67 536.57 1908.06 446.88 2193.95 793.1"/></g></g><g class="cls-3"><g class="cls-96"><polygon class="cls-5" points="1908.06 446.88 1341.67 536.57 1432.71 395.31 1999.1 305.62 1908.06 446.88"/></g></g><g class="cls-3"><g class="cls-97"><polygon class="cls-5" points="2193.77 790.95 1627.39 880.64 1717.02 741.55 2283.41 651.86 2193.77 790.95"/></g></g><g class="cls-3"><g class="cls-98"><polygon class="cls-5" points="2283.41 651.86 1717.02 741.55 1432.89 397.46 1999.27 307.77 2283.41 651.86"/></g></g><g class="cls-3"><g class="cls-99"><polygon class="cls-5" points="1999.27 307.77 1909.63 446.86 1343.25 536.55 1432.89 397.46 1999.27 307.77"/></g></g><g class="cls-3"><g class="cls-100"><polygon class="cls-5" points="1909.63 446.86 2193.77 790.95 1627.39 880.64 1343.25 536.55 1909.63 446.86"/></g></g></g><g class="cls-3"><g class="cls-3"><g class="cls-101"><polygon class="cls-5" points="2920.37 1696.75 3103.54 1778.55 2996.41 2388.61 2813.25 2306.83 2920.37 1696.75"/></g></g><g class="cls-3"><g class="cls-102"><polygon class="cls-5" points="3661.58 1579.38 3844.75 1661.17 3737.63 2271.24 3554.46 2189.46 3661.58 1579.38"/></g></g><g class="cls-3"><g class="cls-103"><polygon class="cls-5" points="3661.58 1579.38 3844.75 1661.17 3103.54 1778.55 2920.37 1696.75 3661.58 1579.38"/></g></g><g class="cls-3"><g class="cls-104"><polygon class="cls-5" points="3844.75 1661.17 3737.63 2271.24 2996.41 2388.61 3103.54 1778.55 3844.75 1661.17"/></g></g><g class="cls-3"><g class="cls-105"><polygon class="cls-5" points="3737.63 2271.24 2996.41 2388.61 2813.25 2306.83 3554.46 2189.46 3737.63 2271.24"/></g></g><g class="cls-3"><g class="cls-106"><polygon class="cls-5" points="3554.46 2189.46 2813.25 2306.83 2920.37 1696.75 3661.58 1579.38 3554.46 2189.46"/></g></g><g class="cls-3"><g class="cls-107"><path class="cls-5" d="M2728.26,1451.23l186,83.07-107.78,613.83-186-83.06Zm77.15,694.38,107.12-610.07-183.17-81.79-107.11,610.08,183.16,81.78" transform="translate(191 243)"/></g></g><g class="cls-3"><g class="cls-108"><path class="cls-5" d="M3469.48,1333.86l186,83.07-107.78,613.83-186-83.06Zm77.15,694.38,107.12-610.07-183.17-81.79-107.12,610.08,183.17,81.78" transform="translate(191 243)"/></g></g><g class="cls-3"><g class="cls-109"><polygon class="cls-5" points="3660.48 1576.86 3846.51 1659.93 3105.29 1777.3 2919.26 1694.23 3660.48 1576.86"/></g></g><g class="cls-3"><g class="cls-110"><polygon class="cls-5" points="3846.51 1659.93 3738.73 2273.76 2997.51 2391.14 3105.29 1777.3 3846.51 1659.93"/></g></g><g class="cls-3"><g class="cls-111"><polygon class="cls-5" points="3738.73 2273.76 2997.51 2391.14 2811.48 2308.07 3552.7 2190.7 3738.73 2273.76"/></g></g><g class="cls-3"><g class="cls-112"><polygon class="cls-5" points="3552.7 2190.7 2811.48 2308.07 2919.26 1694.23 3660.48 1576.86 3552.7 2190.7"/></g></g><g class="cls-3"><g class="cls-113"><polygon class="cls-5" points="3737.63 2271.24 2996.41 2388.61 3103.53 1778.54 3844.75 1661.17 3737.63 2271.24"/></g></g><g class="cls-3"><g class="cls-114"><polygon class="cls-5" points="3844.75 1661.17 3103.53 1778.54 2920.36 1696.75 3661.58 1579.38 3844.75 1661.17"/></g></g><g class="cls-3"><g class="cls-115"><polygon class="cls-5" points="3661.58 1579.38 3554.46 2189.45 2813.24 2306.83 2920.36 1696.75 3661.58 1579.38"/></g></g><g class="cls-3"><g class="cls-116"><polygon class="cls-5" points="3554.46 2189.45 3737.63 2271.24 2996.41 2388.61 2813.24 2306.83 3554.46 2189.45"/></g></g></g><g class="cls-3"><g class="cls-3"><g class="cls-117"><polygon class="cls-5" points="2581.4 371.54 2682.8 511.86 2444.9 825.43 2343.5 685.11 2581.4 371.54"/></g></g><g class="cls-3"><g class="cls-118"><polygon class="cls-5" points="3126.53 285.21 3227.93 425.54 2990.03 739.11 2888.62 598.79 3126.53 285.21"/></g></g><g class="cls-3"><g class="cls-119"><polygon class="cls-5" points="3126.53 285.21 3227.93 425.54 2682.8 511.86 2581.4 371.54 3126.53 285.21"/></g></g><g class="cls-3"><g class="cls-120"><polygon class="cls-5" points="3227.93 425.54 2990.03 739.11 2444.9 825.43 2682.8 511.86 3227.93 425.54"/></g></g><g class="cls-3"><g class="cls-121"><polygon class="cls-5" points="2990.03 739.11 2444.9 825.43 2343.5 685.11 2888.62 598.79 2990.03 739.11"/></g></g><g class="cls-3"><g class="cls-122"><polygon class="cls-5" points="2888.62 598.79 2343.5 685.11 2581.4 371.54 3126.53 285.21 2888.62 598.79"/></g></g><g class="cls-3"><g class="cls-123"><path class="cls-5" d="M2390.34,126.47l103,142.52L2254,584.5,2151,442Zm-136.44,456,237.9-313.57L2390.4,128.54,2152.5,442.11l101.4,140.32" transform="translate(191 243)"/></g></g><g class="cls-3"><g class="cls-124"><path class="cls-5" d="M2935.47,40.15l103,142.52L2799.08,498.18l-103-142.52ZM2799,496.11l237.9-313.57L2935.53,42.22,2697.62,355.79,2799,496.11" transform="translate(191 243)"/></g></g><g class="cls-3"><g class="cls-125"><polygon class="cls-5" points="3126.47 283.15 3229.45 425.67 2684.33 511.99 2581.34 369.47 3126.47 283.15"/></g></g><g class="cls-3"><g class="cls-126"><polygon class="cls-5" points="3229.45 425.67 2990.08 741.18 2444.96 827.5 2684.33 511.99 3229.45 425.67"/></g></g><g class="cls-3"><g class="cls-127"><polygon class="cls-5" points="2990.08 741.18 2444.96 827.5 2341.97 684.98 2887.1 598.66 2990.08 741.18"/></g></g><g class="cls-3"><g class="cls-128"><polygon class="cls-5" points="2887.1 598.66 2341.97 684.98 2581.34 369.47 3126.47 283.15 2887.1 598.66"/></g></g><g class="cls-3"><g class="cls-129"><polygon class="cls-5" points="2990.03 739.11 2444.9 825.43 2682.8 511.86 3227.93 425.54 2990.03 739.11"/></g></g><g class="cls-3"><g class="cls-130"><polygon class="cls-5" points="3227.93 425.54 2682.8 511.86 2581.4 371.54 3126.53 285.21 3227.93 425.54"/></g></g><g class="cls-3"><g class="cls-131"><polygon class="cls-5" points="3126.53 285.21 2888.62 598.79 2343.5 685.11 2581.4 371.54 3126.53 285.21"/></g></g><g class="cls-3"><g class="cls-132"><polygon class="cls-5" points="2888.62 598.79 2990.03 739.11 2444.9 825.43 2343.5 685.11 2888.62 598.79"/></g></g></g><g class="cls-3"><g class="cls-3"><g class="cls-133"><polygon class="cls-5" points="450.1 1140.67 580.34 1179.6 540.39 1617.21 410.15 1578.28 450.1 1140.67"/></g></g><g class="cls-3"><g class="cls-134"><polygon class="cls-5" points="965.34 1059.08 1095.57 1098.01 1055.62 1535.63 925.39 1496.69 965.34 1059.08"/></g></g><g class="cls-3"><g class="cls-135"><polygon class="cls-5" points="965.34 1059.08 1095.57 1098.01 580.34 1179.6 450.1 1140.67 965.34 1059.08"/></g></g><g class="cls-3"><g class="cls-136"><polygon class="cls-5" points="1095.57 1098.01 1055.62 1535.63 540.39 1617.21 580.34 1179.6 1095.57 1098.01"/></g></g><g class="cls-3"><g class="cls-137"><polygon class="cls-5" points="1055.62 1535.63 540.39 1617.21 410.15 1578.28 925.39 1496.69 1055.62 1535.63"/></g></g><g class="cls-3"><g class="cls-138"><polygon class="cls-5" points="925.39 1496.69 410.15 1578.28 450.1 1140.67 965.34 1059.08 925.39 1496.69"/></g></g><g class="cls-3"><g class="cls-139"><path class="cls-5" d="M258.66,896.84,389.9,936.07l-40.07,439L218.59,1335.8Zm90.73,477.37,39.94-437.62L259.1,897.67l-40,437.61,130.24,38.93" transform="translate(191 243)"/></g></g><g class="cls-3"><g class="cls-140"><path class="cls-5" d="M773.89,815.26l131.25,39.23-40.08,439-131.24-39.23Zm90.73,477.37,40-437.62L774.34,816.08l-40,437.61,130.23,38.94" transform="translate(191 243)"/></g></g><g class="cls-3"><g class="cls-141"><polygon class="cls-5" points="964.89 1058.26 1096.14 1097.48 580.9 1179.07 449.66 1139.84 964.89 1058.26"/></g></g><g class="cls-3"><g class="cls-142"><polygon class="cls-5" points="1096.14 1097.48 1056.06 1536.44 540.83 1618.03 580.9 1179.07 1096.14 1097.48"/></g></g><g class="cls-3"><g class="cls-143"><polygon class="cls-5" points="1056.06 1536.44 540.83 1618.03 409.59 1578.8 924.82 1497.21 1056.06 1536.44"/></g></g><g class="cls-3"><g class="cls-144"><polygon class="cls-5" points="924.82 1497.21 409.59 1578.8 449.66 1139.84 964.89 1058.26 924.82 1497.21"/></g></g><g class="cls-3"><g class="cls-145"><polygon class="cls-5" points="1055.62 1535.63 540.39 1617.21 580.34 1179.59 1095.57 1098.01 1055.62 1535.63"/></g></g><g class="cls-3"><g class="cls-146"><polygon class="cls-5" points="1095.57 1098.01 580.34 1179.59 450.1 1140.67 965.34 1059.08 1095.57 1098.01"/></g></g><g class="cls-3"><g class="cls-147"><polygon class="cls-5" points="965.34 1059.08 925.39 1496.69 410.15 1578.28 450.1 1140.67 965.34 1059.08"/></g></g><g class="cls-3"><g class="cls-148"><polygon class="cls-5" points="925.39 1496.69 1055.62 1535.63 540.39 1617.21 410.15 1578.28 925.39 1496.69"/></g></g></g><g class="cls-3"><g class="cls-3"><g class="cls-149"><polygon class="cls-5" points="523.14 488.4 617.13 637.69 360.51 923.44 266.52 774.16 523.14 488.4"/></g></g><g class="cls-3"><g class="cls-150"><polygon class="cls-5" points="1068.2 402.09 1162.19 551.38 905.57 837.13 811.58 687.85 1068.2 402.09"/></g></g><g class="cls-3"><g class="cls-151"><polygon class="cls-5" points="1068.2 402.09 1162.19 551.38 617.13 637.69 523.14 488.4 1068.2 402.09"/></g></g><g class="cls-3"><g class="cls-152"><polygon class="cls-5" points="1162.19 551.38 905.57 837.13 360.51 923.44 617.13 637.69 1162.19 551.38"/></g></g><g class="cls-3"><g class="cls-153"><polygon class="cls-5" points="905.57 837.13 360.51 923.44 266.52 774.16 811.58 687.85 905.57 837.13"/></g></g><g class="cls-3"><g class="cls-154"><polygon class="cls-5" points="811.58 687.85 266.52 774.16 523.14 488.4 1068.2 402.09 811.58 687.85"/></g></g><g class="cls-3"><g class="cls-155"><path class="cls-5" d="M332.21,243.36,427.66,395,169.45,682.48,74,530.87ZM169.51,680.44,426.13,394.69l-94-149.29L75.53,531.16l94,149.28" transform="translate(191 243)"/></g></g><g class="cls-3"><g class="cls-156"><path class="cls-5" d="M877.27,157.05l95.45,151.62L714.51,596.17,619.06,444.56ZM714.57,594.13,971.19,308.38l-94-149.29L620.58,444.85l94,149.28" transform="translate(191 243)"/></g></g><g class="cls-3"><g class="cls-157"><polygon class="cls-5" points="1068.27 400.05 1163.72 551.67 618.66 637.98 523.21 486.36 1068.27 400.05"/></g></g><g class="cls-3"><g class="cls-158"><polygon class="cls-5" points="1163.72 551.67 905.51 839.17 360.45 925.48 618.66 637.98 1163.72 551.67"/></g></g><g class="cls-3"><g class="cls-159"><polygon class="cls-5" points="905.51 839.17 360.45 925.48 265 773.87 810.06 687.56 905.51 839.17"/></g></g><g class="cls-3"><g class="cls-160"><polygon class="cls-5" points="810.06 687.56 265 773.87 523.21 486.36 1068.27 400.05 810.06 687.56"/></g></g><g class="cls-3"><g class="cls-161"><polygon class="cls-5" points="905.57 837.13 360.51 923.44 617.13 637.69 1162.19 551.38 905.57 837.13"/></g></g><g class="cls-3"><g class="cls-162"><polygon class="cls-5" points="1162.19 551.38 617.13 637.69 523.14 488.4 1068.2 402.09 1162.19 551.38"/></g></g><g class="cls-3"><g class="cls-163"><polygon class="cls-5" points="1068.2 402.09 811.58 687.85 266.52 774.16 523.14 488.4 1068.2 402.09"/></g></g><g class="cls-3"><g class="cls-164"><polygon class="cls-5" points="811.58 687.85 905.57 837.13 360.51 923.44 266.52 774.16 811.58 687.85"/></g></g></g></g><g id="FONDO"><rect class="cls-165" x="1257" y="700.5" width="2072" height="1275" rx="296.85"/></g><g id="fondo2"><rect class="cls-166" x="1473" y="860.5" width="1640" height="955" rx="165.77"/><rect class="cls-167" x="1580" y="908.75" width="1426" height="858.5" rx="165.77"/><rect class="cls-165" x="1759.5" y="1016.82" width="1067" height="642.37" rx="165.77"/><rect class="cls-168" x="1849.25" y="1070.85" width="887.5" height="534.3" rx="165.77"/></g><g id="Capa_1" data-name="Capa 1"><text x="191" y="243"/><g class="cls-3"><path class="cls-169" d="M2351.72,1066.25c-.69-1.56-1.42-3.1-2.17-4.63l-.45-.92q-1.11-2.22-2.29-4.38c-.14-.27-.29-.53-.44-.79q-1.14-2.05-2.35-4.07l-.28-.47c-.86-1.42-1.76-2.82-2.68-4.21l-.59-.89c-.86-1.28-1.74-2.56-2.65-3.81l-.19-.26c-.15-.19-.3-.38-.44-.58q-1.33-1.8-2.73-3.57l-.67-.84q-1.56-1.93-3.19-3.82l-.66-.74c-1-1.11-2-2.22-3-3.3-.2-.22-.4-.44-.61-.65q-1.74-1.82-3.55-3.58l-.83-.79c-1.14-1.09-2.29-2.16-3.47-3.21l-.4-.37-.15-.13c-1.26-1.11-2.56-2.2-3.87-3.28-.37-.31-.75-.61-1.13-.91-1-.84-2.1-1.66-3.17-2.47-.42-.33-.85-.65-1.28-1q-2-1.47-4-2.89l-.36-.26c-1.49-1-3-2-4.55-3-.44-.28-.88-.56-1.33-.83-1.17-.73-2.35-1.44-3.55-2.15l-1.4-.81c-1.62-.93-3.25-1.84-4.91-2.71h0l-.15-.07c-1.78-.94-3.58-1.85-5.42-2.73-.63-.31-1.29-.59-1.93-.89-1.27-.59-2.53-1.19-3.82-1.76-.78-.34-1.59-.66-2.37-1-1.19-.5-2.37-1-3.58-1.48-.86-.34-1.74-.66-2.61-1-1.17-.44-2.33-.89-3.52-1.31-.92-.33-1.86-.64-2.78-1-1.18-.4-2.34-.81-3.54-1.19-1-.31-2-.6-2.92-.9-1.19-.36-2.37-.72-3.58-1.06-1-.29-2-.56-3.05-.83-1.21-.33-2.41-.66-3.63-1-1-.27-2.11-.51-3.17-.76-1.23-.29-2.45-.58-3.69-.85s-2.19-.46-3.28-.68c-1.25-.26-2.51-.51-3.77-.75s-2.25-.4-3.38-.6-2.56-.44-3.85-.64l-3.48-.52c-1.3-.18-2.61-.37-3.93-.54s-2.38-.29-3.57-.42-2.67-.31-4-.44-2.43-.24-3.66-.34-2.73-.24-4.1-.34l-3.76-.25-4.18-.23q-1.92-.09-3.84-.15c-1.42-.05-2.85-.1-4.29-.13s-2.6-.05-3.92-.06l-2.1,0h-4.39c-14,.12-25.51.77-34.82,1.69-5.58.55-10.35,1.2-14.33,1.9l-26.17,41.59c10.61-1.85,26.84-3.4,49.15-3.58,2.19,0,4.34,0,6.49,0,1.32,0,2.63,0,3.93.06l4.27.13c1.29,0,2.57.09,3.85.16s2.8.14,4.18.23,2.51.15,3.76.24l4.1.34,3.67.34c1.34.13,2.68.28,4,.44s2.4.27,3.58.42,2.63.36,3.93.55,2.33.33,3.48.51,2.57.42,3.85.64,2.26.39,3.38.6,2.51.5,3.76.75c1.1.22,2.2.44,3.29.68s2.46.56,3.69.85l3.17.76q1.83.46,3.63,1c1,.27,2.05.54,3.05.83,1.21.34,2.39.71,3.58,1.07,1,.29,2,.58,2.92.89,1.19.38,2.36.79,3.53,1.19.93.31,1.87.62,2.79,1,1.19.42,2.35.87,3.51,1.31.87.34,1.76.66,2.62,1,1.21.48,2.39,1,3.58,1.48.78.34,1.59.65,2.37,1,1.3.57,2.57,1.16,3.84,1.76.64.29,1.29.58,1.91.88q2.76,1.32,5.42,2.73l.15.08c1.67.87,3.3,1.78,4.92,2.71l1.4.82c1.2.7,2.38,1.41,3.55,2.14l1.33.83c1.54,1,3.06,2,4.55,3l.37.27q2,1.41,4,2.88l1.28,1c1.07.81,2.13,1.64,3.17,2.47l1.13.91q2.05,1.68,4,3.42l.4.36c1.18,1.05,2.34,2.13,3.47,3.21l.83.79q1.82,1.77,3.55,3.58l.61.65q1.54,1.64,3,3.3l.66.75q1.64,1.88,3.19,3.81l.67.84q1.39,1.77,2.73,3.57l.44.59q1.45,2,2.84,4.07c.2.29.4.59.59.89.92,1.38,1.82,2.78,2.68,4.2l.28.47c.81,1.35,1.59,2.7,2.35,4.07.15.26.3.52.44.79q1.18,2.16,2.29,4.38l.45.92c.75,1.53,1.48,3.07,2.17,4.64,12.5,27.64,13.31,50.23,2.73,67l26.17-41.59C2365,1116.49,2364.22,1093.9,2351.72,1066.25Z" transform="translate(191 243)"/><polygon class="cls-170" points="2368.83 1433.37 2342.66 1474.96 2237.42 1242.19 2263.59 1200.6 2368.83 1433.37"/><path class="cls-171" d="M2389.86,1157.22q-1,1-2,2a.86.86,0,0,0-.14.13c-.59.56-1.21,1.12-1.84,1.67l-.54.47c-.62.53-1.26,1.06-1.91,1.58l-.2.17c-.72.56-1.46,1.12-2.21,1.67l-.6.43c-.64.46-1.3.92-2,1.37l-.43.29c-.8.53-1.62,1-2.45,1.56l-.61.37c-.7.42-1.4.83-2.12,1.24l-.61.35c-.88.49-1.77,1-2.69,1.45l-.57.29c-.77.4-1.55.78-2.34,1.17l-.74.35c-1,.46-1.94.91-2.94,1.35l-.41.18-2.71,1.14-.83.34-1.58.61c-1,.39-2,.78-3.06,1.15l-1.42.51c-1.19.42-2.41.83-3.65,1.23l-.86.29q-2.29.72-4.67,1.41l-1.29.36c-1.2.34-2.41.67-3.64,1l-1.64.42c-1.23.3-2.47.6-3.73.89l-1.43.34q-2.58.59-5.25,1.12l-.85.17c-1.52.3-3.06.59-4.61.87l-1.79.31-4,.66-1.8.28c-1.69.25-3.4.5-5.14.73l-.7.1c-2,.26-4,.5-6,.73l-1.76.19c-1.49.16-3,.31-4.51.45l-2.06.19c-1.59.15-3.2.28-4.83.4l-1.61.13c-2.15.15-4.32.3-6.52.42l-1.43.07c-1.76.1-3.53.18-5.32.26l-2.22.08-4.94.16-2.11.05c-2.33.06-4.67.1-7.05.12l-7.22,0h-10.78l-3.48,0-1.78,0-3.23,0-1.75,0-3.44-.06-1.37,0-4.7-.1-.79,0-3.84-.1-1.55,0-3.06-.1-1.63,0-3-.11-1.5,0-3.47-.15-.9,0-4.26-.2-1.2-.06-3-.15-1.54-.08-2.65-.15-1.53-.09-2.72-.17-1.33-.08-3.8-.25h-.13L2151.66,1232l4,.26,1.27.08,2.78.17,1.48.09,2.71.15,1.49.08,3.07.16,1.14,0,4.27.2.9,0,3.47.14,1.5,0,3,.11,1.64,0,3,.1,1.55,0,3.84.1.79,0,4.7.1,1.37,0,3.44.06,1.75,0,3.23,0,1.78,0,3.48,0h10.78l7.22,0c2.38,0,4.72-.06,7-.11l2.11-.06c1.66,0,3.31-.1,4.94-.16l2.22-.08,5.32-.25,1.43-.08q3.3-.18,6.52-.42l1.62-.13c1.62-.12,3.23-.25,4.82-.4l2.06-.19c1.52-.14,3-.29,4.51-.45l1.76-.19c2-.23,4-.47,6-.73l.7-.1c1.74-.23,3.45-.47,5.14-.73l1.8-.28q2-.32,4-.66l1.79-.31c1.55-.28,3.09-.57,4.61-.87l.85-.17q2.67-.54,5.25-1.12l1.43-.33,3.73-.9,1.64-.42c1.23-.32,2.45-.65,3.64-1l1.29-.36q2.37-.67,4.67-1.41l.86-.29c1.24-.4,2.46-.81,3.65-1.23l1.42-.5c1-.38,2.06-.77,3.07-1.16l.85-.32.71-.29.85-.34c.91-.37,1.81-.76,2.7-1.14l.41-.18c1-.44,2-.89,2.94-1.35l.74-.35q1.18-.57,2.34-1.17l.57-.29c.92-.47,1.81-1,2.69-1.45.21-.11.41-.23.61-.35.72-.41,1.42-.82,2.12-1.24l.61-.37c.83-.51,1.65-1,2.45-1.56l.43-.29c.67-.45,1.33-.91,2-1.37l.6-.43c.75-.55,1.49-1.11,2.21-1.67l.2-.17c.65-.52,1.29-1,1.91-1.58l.54-.47c.63-.55,1.25-1.11,1.84-1.67l.14-.13c.5-.48,1-1,1.47-1.46l.57-.58a65,65,0,0,0,8.42-10.67l26.17-41.59A65,65,0,0,1,2389.86,1157.22Z" transform="translate(191 243)"/><path class="cls-172" d="M2310.84,980.25c38.5,19.07,68.23,46.31,85.53,84.58,17.46,38.61,14.89,70.35-6.51,92.39-21.25,22.37-67.43,34.75-132.39,35.3-30.75.26-57-.58-79.64-2.15L2072.59,957.6a801.76,801.76,0,0,1,89.53-5.7C2224.11,951.38,2272.86,961.19,2310.84,980.25Zm-56.06,187.62c92.25-.78,125.83-37.71,96.94-101.62-24.74-55.82-85.41-90.9-176.67-90.14-22.31.19-38.54,1.73-49.15,3.59l84.45,186.78c11.54,1.31,27.57,1.53,44.43,1.39" transform="translate(191 243)"/></g><g class="cls-3"><g class="cls-3"><g class="cls-173"><g class="cls-3"><path class="cls-174" d="M2014.9,1046.3l-26.17,41.6a35,35,0,0,1-4.6,5.79l26.17-41.59a35,35,0,0,0,4.6-5.8" transform="translate(191 243)"/><path class="cls-175" d="M2010.3,1052.1l-26.17,41.59c-5,5.11-12.06,9.57-21.29,13.22l26.17-41.59c9.23-3.65,16.3-8.11,21.29-13.22" transform="translate(191 243)"/><path class="cls-169" d="M1989,1065.32l-26.17,41.59q-4.08,1.62-8.73,3l26.17-41.59q4.65-1.39,8.73-3" transform="translate(191 243)"/></g></g></g><polygon class="cls-170" points="2096.31 1325 2070.14 1366.59 2059.67 1343.42 2085.84 1301.83 2096.31 1325"/><path class="cls-171" d="M1820.45,1041l.35-.21,1.49-.84.33-.17,1.28-.69.48-.24c.49-.25,1-.5,1.49-.74l.22-.11,1.77-.82.5-.23,1.45-.63.51-.22,2-.8.33-.13,1.62-.62.63-.23,1.47-.52.62-.22,2.09-.7.06,0,2.1-.65.67-.2,1.62-.46.71-.19,2-.52.35-.09,2.35-.56.68-.15,1.78-.38.79-.17,1.93-.37.58-.1c.84-.15,1.68-.3,2.53-.43l.61-.09,2-.29.85-.11,2-.24.73-.08,2.69-.26.44,0,2.31-.17.88,0,2-.09.85,0c.94,0,1.89,0,2.84-.06s1.89,0,2.82,0l1.75,0c.62,0,1.24,0,1.85.06l1.71.07,1.81.1,1.65.11,1.76.15,1.61.16c.58,0,1.15.12,1.71.19l1.57.19,1.66.23,1.52.23,1.62.28,1.47.27,1.57.31,1.43.31,1.53.35,1.37.34c.5.12,1,.26,1.48.39l1.33.37,1.44.43,1.28.4,1.4.47,1.22.42,1.36.51,1.18.45,1.31.55,1.13.47,1.27.58,1.08.5,1.24.62,1,.51.42.23c.92.49,1.81,1,2.67,1.51l.63.37c.94.57,1.85,1.15,2.73,1.75l.49.35c.77.53,1.52,1.08,2.25,1.64l.47.36c.81.63,1.59,1.28,2.34,1.93l.57.51,1.35,1.26.58.57c.5.5,1,1,1.46,1.52l.28.29c.56.61,1.09,1.23,1.6,1.85l.41.52c.37.47.73.93,1.08,1.4l.49.67c.24.35.48.69.71,1l.48.72c.23.36.45.72.67,1.08s.28.46.41.7q.35.6.66,1.2c.11.2.22.39.32.59.31.6.6,1.2.88,1.81a24.91,24.91,0,0,1,2.48,11.14,18.14,18.14,0,0,1-2.84,9.18h0l26.17-41.59c3.45-5.48,4-12.22.36-20.32-.28-.61-.57-1.21-.88-1.81-.1-.2-.21-.39-.32-.59-.21-.4-.43-.81-.66-1.21-.13-.23-.27-.46-.41-.69s-.44-.72-.67-1.08l-.48-.72c-.23-.35-.47-.7-.71-1l-.24-.35-.25-.32c-.35-.47-.71-.93-1.08-1.4l-.41-.52c-.52-.63-1-1.24-1.6-1.85l-.27-.29c-.48-.51-1-1-1.47-1.52l-.58-.57c-.44-.42-.89-.84-1.36-1.26l-.37-.35-.19-.16c-.75-.65-1.53-1.3-2.34-1.93l-.47-.36q-1.1-.84-2.25-1.65l-.49-.34c-.88-.6-1.79-1.18-2.73-1.75-.2-.13-.42-.25-.63-.37-.86-.52-1.75-1-2.67-1.51l-.29-.16-.13-.07-1-.52-1.24-.61-1.08-.5-1.27-.58-1.13-.48-1.31-.54-1.18-.45-1.36-.51-1.22-.42-1.4-.47-1.28-.4-1.44-.43-1.33-.37c-.49-.13-1-.27-1.48-.39l-1.37-.34-1.54-.36-1.41-.3-1.58-.31-1.47-.27-1.62-.28-1.52-.23-1.66-.23-1.57-.19-1.71-.2-1.61-.15-1.76-.15-1.65-.11-1.81-.1-1.71-.08-1.85,0-1.75,0-.94,0h-1.88c-1,0-1.9,0-2.84.06l-.85,0-2,.09-.88.05-2.31.17-.44,0c-.9.08-1.8.16-2.69.26l-.73.08-2,.24-.84.11-2,.29-.6.09c-.85.13-1.7.28-2.53.42l-.57.11-1.94.37-.79.16-1.79.39-.67.15-2.35.56-.34.09-2,.51-.71.2-1.62.46-.67.2-2.1.65-.06,0c-.71.23-1.41.46-2.09.7l-.62.21-1.47.53-.63.23-1.62.62-.27.11-.06,0c-.66.26-1.31.53-2,.8l-.51.22-1.45.63-.5.23c-.6.27-1.2.54-1.77.82l-.22.11c-.51.24-1,.49-1.49.74l-.48.24-1.29.68-.32.18-1.49.84-.35.2-1.1.66-.38.24-1.3.83-21.56-22.37-26.17,41.59,21.57,22.37,1.29-.83.39-.24Z" transform="translate(191 243)"/><path class="cls-171" d="M2014.54,1104.35l-.47-.36c-.83-.6-1.68-1.19-2.54-1.76l-.62-.41c-.71-.46-1.43-.92-2.17-1.37l-.64-.4c-.9-.54-1.81-1.07-2.73-1.58l-.54-.3-1.45-.78-.6-.3c-.77-.4-1.56-.79-2.34-1.17l-1.29-.63c-1-.44-1.92-.87-2.89-1.29l-.84-.37c-1.25-.54-2.53-1.05-3.82-1.55l-1-.38c-1-.36-1.92-.71-2.9-1l-1.45-.49c-.86-.29-1.72-.57-2.59-.84-.52-.17-1-.33-1.58-.48l-2.58-.75-1.58-.44-2.79-.71-1.41-.35q-1.86-.45-3.75-.84l-.48-.11q-2.15-.45-4.29-.84l-1.33-.23-3-.5-1.63-.25-2.77-.38-1.7-.22-2.78-.32-1.64-.17c-1-.1-2-.19-3-.27l-1.35-.12c-1.46-.11-2.93-.2-4.39-.28l-.44,0c-1.32-.07-2.63-.12-3.94-.16l-1.47,0-2.91,0h-3.14l-24.3.2-26.17,41.59,24.3-.2h3.14l2.91,0,1.47,0c1.31,0,2.62.1,3.94.16l.44,0c1.46.08,2.93.17,4.39.28l1.35.12c1,.08,2,.17,3.05.27l1.64.17,2.78.32,1.7.22c.93.12,1.85.25,2.77.39.54.08,1.09.15,1.63.24l3,.5,1.33.23c1.44.27,2.87.54,4.29.84l.48.11q1.89.4,3.75.84l1.41.35q1.41.35,2.79.72l1.58.43,2.58.75,1.58.48q1.3.4,2.58.84l1.46.49c1,.34,1.94.69,2.9,1l1,.38c1.29.5,2.57,1,3.83,1.55l.83.37c1,.42,1.94.85,2.89,1.3l1.29.62c.78.38,1.57.77,2.34,1.17l2.05,1.09.53.29c.93.51,1.84,1,2.74,1.58l.65.4c.73.45,1.45.91,2.16,1.37l.62.41c.86.58,1.71,1.16,2.54,1.76l.47.36c.69.51,1.37,1,2,1.55l.62.5c.78.63,1.55,1.28,2.3,1.94.46.4.88.82,1.32,1.22s.79.72,1.17,1.09.83.85,1.24,1.28.74.75,1.1,1.14.79.9,1.18,1.35.68.77,1,1.16.75,1,1.12,1.46.62.78.91,1.17a1.27,1.27,0,0,0,.13.19c.53.75,1,1.5,1.54,2.27.16.26.32.51.47.77.39.61.75,1.24,1.11,1.87l.44.78c.47.87.92,1.75,1.34,2.65,4.09,8.54,5.13,18.39-.09,26.69l26.17-41.59c5.22-8.3,4.18-18.15.09-26.69-.42-.9-.87-1.78-1.34-2.65l-.44-.78c-.36-.63-.72-1.26-1.11-1.87-.16-.26-.31-.52-.48-.77-.49-.77-1-1.52-1.53-2.27a1.27,1.27,0,0,1-.13-.19l0,0c-.27-.38-.58-.75-.86-1.12s-.75-1-1.14-1.48-.66-.76-1-1.14-.78-.93-1.19-1.38-.73-.75-1.09-1.12-.82-.87-1.25-1.29-.78-.72-1.17-1.09-.87-.82-1.32-1.22l-.06-.06c-.73-.64-1.48-1.26-2.24-1.88l-.62-.5C2015.91,1105.37,2015.23,1104.86,2014.54,1104.35Z" transform="translate(191 243)"/><path class="cls-171" d="M2048.43,1213.08c.28-.31.55-.64.81-1s.36-.43.53-.65.56-.73.83-1.09c.13-.19.27-.37.4-.55.39-.56.77-1.12,1.13-1.69l26.17-41.59c-.36.57-.74,1.13-1.13,1.69l-.4.54c-.27.37-.54.74-.83,1.1s-.35.43-.53.65-.53.64-.81,1-.4.45-.61.67-.55.61-.83.91l-.51.51c-.47.47-1,.93-1.45,1.39l-.55.51c-.67.59-1.34,1.17-2.05,1.74l-.06,0c-.7.56-1.42,1.1-2.17,1.63l-.66.47c-.61.42-1.22.84-1.86,1.25l-.62.4c-.83.51-1.67,1-2.55,1.52l-.51.28c-.73.4-1.49.8-2.26,1.19-.27.15-.55.29-.83.42-.79.39-1.59.77-2.41,1.14l-.55.25c-1,.45-2,.88-3.07,1.29l-1.16.45-1.48.56-1.28.45-1.53.52-1.34.43-1.58.49-1.39.41-1.63.46-1.45.38-1.69.42-1.51.36c-.58.13-1.16.27-1.75.39s-1,.23-1.55.33l-1.82.37-1.6.3-1.88.33-1.65.27-1.94.3-1.7.24-2,.27-1.72.21-2.12.23c-.58.06-1.16.13-1.75.18l-2.21.2-1.77.15-2.34.16c-.58,0-1.17.09-1.76.12l-2.52.13-1.69.09c-1,0-1.92.06-2.88.09l-1.45,0c-1.46,0-2.94.06-4.45.07h-3.26l-1.44,0-1.89,0-1.51,0-1.82,0-1.54-.06-1.78-.06-1.53-.08-1.77-.09-1.53-.09-1.75-.11-1.53-.11-1.73-.13-1.54-.13-1.69-.14-1.55-.15-1.66-.16-1.54-.16-1.64-.18-1.53-.18-1.63-.2-1.5-.19-1.61-.21-1.49-.2-1.59-.23-1.47-.22c-.53-.07-1.05-.15-1.58-.24l-1.44-.22-1.55-.26-1.43-.24-1.52-.26-1.41-.25-1.49-.28-1.39-.26-1.48-.29-1.34-.26-1.46-.3-1.32-.28-1.42-.3-1.29-.29-1.4-.31-1.26-.29-1.37-.33-1.22-.29-1.35-.34-1.18-.29-1.31-.34-1.16-.31-1.27-.34-1.12-.31-1.25-.35-1.06-.3-1.24-.37-1-.3-1.21-.37-1-.29-1.21-.39-.87-.29-1.22-.4-.78-.27-1.26-.44-.65-.23-1.82-.67-26.17,41.59,1.82.67.65.23c.42.15.83.3,1.26.44l.78.27,1.22.41.88.28,1.2.39,1,.29,1.21.38,1,.29,1.24.37,1,.3,1.27.36,1.1.3,1.29.35,1.15.3,1.31.34,1.18.3,1.35.33,1.21.29,1.38.33,1.26.29,1.4.31,1.29.29,1.42.3,1.32.28,1.46.3,1.34.26,1.49.29,1.37.26,1.51.28,1.39.25,1.54.27,1.41.23,1.58.26,1.41.22,1.6.25,1.45.21,1.61.23,1.47.2,1.62.21,1.5.19,1.64.2,1.51.18,1.67.18,1.51.16,1.69.16,1.52.15,1.72.15,1.51.12,1.75.13,1.52.11,1.76.11,1.51.09,1.8.09,1.51.08,1.82.07,1.49,0,1.87,0,1.46,0,1.95,0h4.66c1.5,0,3,0,4.44-.08l1.45,0c1,0,1.93,0,2.88-.09l1.69-.09,2.52-.13,1.76-.11,2.34-.17,1.77-.15c.74-.06,1.48-.12,2.21-.2s1.17-.12,1.75-.18l2.12-.23,1.72-.21c.68-.09,1.36-.17,2-.27l1.7-.24,1.95-.3,1.64-.27,1.88-.33,1.6-.3,1.82-.37c.52-.1,1-.21,1.55-.33s1.18-.25,1.75-.39,1-.23,1.51-.36,1.13-.28,1.69-.42l1.45-.38,1.63-.46,1.39-.41,1.59-.49,1.33-.43,1.53-.52,1.28-.45,1.48-.56.91-.34.25-.11c1-.41,2.07-.84,3.07-1.28l.55-.26c.82-.37,1.62-.75,2.41-1.13l.84-.42c.76-.4,1.52-.79,2.25-1.2l.51-.28c.88-.5,1.72-1,2.55-1.52l.62-.4c.64-.41,1.25-.83,1.86-1.25l.66-.47c.75-.53,1.47-1.07,2.17-1.62l.06,0c.71-.57,1.39-1.15,2-1.74l.55-.51c.5-.46,1-.92,1.45-1.39.1-.11.22-.21.33-.32l.18-.19.83-.9C2048,1213.53,2048.24,1213.31,2048.43,1213.08Z" transform="translate(191 243)"/><path class="cls-172" d="M1898.65,960.47c63.48-.54,104.32,25.9,116.86,53.64,10.63,23.52-.16,43.71-35.23,54.22l.31.7c42.22,5.29,84,26.08,98.42,58,16.51,36.51-9.21,68.8-86.58,69.45-36.21.31-71.6-7.5-90.8-14.74l1.11-24c14.94,5.51,47.67,14,77.92,13.79,56-.47,62-25.9,52.91-44.85-15-32-61.8-45.3-104-44.94l-24.3.2-10.47-23.17,24.29-.2c31.74-.27,66.68-12.2,54.46-39.23-8.26-18.26-31.93-34.27-72.1-33.93-25.79.21-46.93,8.5-57.65,15.63l-21.56-22.37C1835.18,969.82,1863.94,960.76,1898.65,960.47Z" transform="translate(191 243)"/><polygon class="cls-176" points="2092.63 1424.77 2066.46 1466.36 2067.57 1442.39 2093.74 1400.8 2092.63 1424.77"/></g></g><g id="formas2"><g class="cls-3"><g class="cls-3"><g class="cls-177"><polygon class="cls-5" points="456.51 2041.58 526.29 2188.41 486 2220.1 416.22 2073.27 456.51 2041.58"/></g></g><g class="cls-3"><g class="cls-178"><polygon class="cls-5" points="649 2011.1 718.78 2157.93 678.49 2189.61 608.71 2042.79 649 2011.1"/></g></g><g class="cls-3"><g class="cls-179"><polygon class="cls-5" points="649 2011.1 718.78 2157.93 526.29 2188.41 456.51 2041.58 649 2011.1"/></g></g><g class="cls-3"><g class="cls-180"><polygon class="cls-5" points="718.78 2157.93 678.49 2189.61 486 2220.1 526.29 2188.41 718.78 2157.93"/></g></g><g class="cls-3"><g class="cls-181"><polygon class="cls-5" points="678.49 2189.61 486 2220.1 416.22 2073.27 608.71 2042.79 678.49 2189.61"/></g></g><g class="cls-3"><g class="cls-182"><polygon class="cls-5" points="608.71 2042.79 416.22 2073.27 456.51 2041.58 649 2011.1 608.71 2042.79"/></g></g><g class="cls-3"><g class="cls-183"><path class="cls-5" d="M224.69,1830.07l40.92-32.18,70.21,147.73L294.9,1977.8Zm110.6,115.34-69.78-146.83-40.29,31.69L295,1977.1l40.29-31.69" transform="translate(191 243)"/></g></g><g class="cls-3"><g class="cls-184"><path class="cls-5" d="M417.18,1799.59l40.92-32.18,70.21,147.73-40.92,32.18Zm110.6,115.34L458,1768.1l-40.29,31.69,69.78,146.83,40.29-31.69" transform="translate(191 243)"/></g></g><g class="cls-3"><g class="cls-185"><polygon class="cls-5" points="608.18 2042.59 415.69 2073.07 456.61 2040.89 649.1 2010.41 608.18 2042.59"/></g></g><g class="cls-3"><g class="cls-186"><polygon class="cls-5" points="649.1 2010.41 719.31 2158.14 526.82 2188.62 456.61 2040.89 649.1 2010.41"/></g></g><g class="cls-3"><g class="cls-187"><polygon class="cls-5" points="719.31 2158.14 678.39 2190.32 485.9 2220.8 526.82 2188.62 719.31 2158.14"/></g></g><g class="cls-3"><g class="cls-188"><polygon class="cls-5" points="678.39 2190.32 485.9 2220.8 415.69 2073.07 608.18 2042.59 678.39 2190.32"/></g></g><g class="cls-3"><g class="cls-189"><polygon class="cls-5" points="718.78 2157.93 526.29 2188.41 456.51 2041.58 649 2011.1 718.78 2157.93"/></g></g><g class="cls-3"><g class="cls-190"><polygon class="cls-5" points="649 2011.1 608.71 2042.79 416.22 2073.27 456.51 2041.58 649 2011.1"/></g></g><g class="cls-3"><g class="cls-191"><polygon class="cls-5" points="608.71 2042.79 678.49 2189.61 486 2220.09 416.22 2073.27 608.71 2042.79"/></g></g><g class="cls-3"><g class="cls-192"><polygon class="cls-5" points="678.49 2189.61 486 2220.09 526.29 2188.41 718.78 2157.93 678.49 2189.61"/></g></g></g><g class="cls-3"><g class="cls-3"><g class="cls-193"><polygon class="cls-5" points="238.14 1706.41 344.97 1803.96 320.6 1857.51 213.77 1759.97 238.14 1706.41"/></g></g><g class="cls-3"><g class="cls-194"><polygon class="cls-5" points="430.28 1675.99 537.11 1773.53 512.74 1827.09 405.91 1729.54 430.28 1675.99"/></g></g><g class="cls-3"><g class="cls-195"><polygon class="cls-5" points="430.28 1675.99 537.11 1773.53 344.97 1803.96 238.14 1706.41 430.28 1675.99"/></g></g><g class="cls-3"><g class="cls-196"><polygon class="cls-5" points="537.11 1773.53 512.74 1827.09 320.6 1857.51 344.97 1803.96 537.11 1773.53"/></g></g><g class="cls-3"><g class="cls-197"><polygon class="cls-5" points="512.74 1827.09 320.6 1857.51 213.77 1759.97 405.91 1729.54 512.74 1827.09"/></g></g><g class="cls-3"><g class="cls-198"><polygon class="cls-5" points="405.91 1729.54 213.77 1759.97 238.14 1706.41 430.28 1675.99 405.91 1729.54"/></g></g><g class="cls-3"><g class="cls-199"><path class="cls-5" d="M47,1462.69l107.49,98.15-24.75,54.39L22.25,1517.09Zm82.6,151.82L154,1561,47.14,1463.41,22.77,1517l106.83,97.54" transform="translate(191 243)"/></g></g><g class="cls-3"><g class="cls-200"><path class="cls-5" d="M239.14,1432.27l107.49,98.14-24.75,54.4-107.49-98.15Zm82.6,151.82,24.37-53.56L239.28,1433l-24.37,53.55,106.83,97.55" transform="translate(191 243)"/></g></g><g class="cls-3"><g class="cls-201"><polygon class="cls-5" points="430.14 1675.27 537.63 1773.41 345.49 1803.84 238 1705.69 430.14 1675.27"/></g></g><g class="cls-3"><g class="cls-202"><polygon class="cls-5" points="537.63 1773.41 512.88 1827.81 320.74 1858.23 345.49 1803.84 537.63 1773.41"/></g></g><g class="cls-3"><g class="cls-203"><polygon class="cls-5" points="512.88 1827.81 320.74 1858.23 213.25 1760.09 405.39 1729.66 512.88 1827.81"/></g></g><g class="cls-3"><g class="cls-204"><polygon class="cls-5" points="405.39 1729.66 213.25 1760.09 238 1705.69 430.14 1675.27 405.39 1729.66"/></g></g><g class="cls-3"><g class="cls-205"><polygon class="cls-5" points="512.74 1827.09 320.6 1857.51 344.97 1803.96 537.11 1773.53 512.74 1827.09"/></g></g><g class="cls-3"><g class="cls-206"><polygon class="cls-5" points="537.11 1773.53 344.97 1803.96 238.14 1706.41 430.28 1675.99 537.11 1773.53"/></g></g><g class="cls-3"><g class="cls-207"><polygon class="cls-5" points="430.28 1675.99 405.91 1729.54 213.77 1759.97 238.14 1706.41 430.28 1675.99"/></g></g><g class="cls-3"><g class="cls-208"><polygon class="cls-5" points="405.91 1729.54 512.74 1827.09 320.6 1857.51 213.77 1759.97 405.91 1729.54"/></g></g></g></g></svg>