<svg xmlns="http://www.w3.org/2000/svg" viewBox="0 0 1920 1080"><defs><style>.cls-1{fill:#ccffd9;}.cls-2,.cls-3,.cls-4,.cls-5,.cls-6{fill:none;stroke:#000;}.cls-2,.cls-3,.cls-4{stroke-miterlimit:10;}.cls-2,.cls-3,.cls-5{stroke-width:26.48px;}.cls-3,.cls-5,.cls-6{stroke-linecap:round;}.cls-4{stroke-width:25.31px;}.cls-5,.cls-6{stroke-linejoin:round;}.cls-6{stroke-width:30px;}.cls-7{font-size:388.81px;font-family:BowlbyOneSC-Regular, Bowlby One SC;}.cls-8{letter-spacing:-0.05em;}.cls-9{letter-spacing:0em;}</style></defs><title>animacion-final</title><g id="FONDO"><rect class="cls-1" x="-619.12" y="-218.78" width="3247" height="1546"/></g><g id="PERSONAJE1"><line class="cls-2" x1="202.16" y1="671.09" x2="202.16" y2="957.92"/><polyline class="cls-3" points="214.92 726.03 310.08 836.29 344.5 845.5"/><polyline class="cls-3" points="1656.92 726.03 1752.08 836.29 1786.5 845.5"/><polyline class="cls-3" points="189.74 728.99 88.15 833.35 47 853"/><polyline class="cls-3" points="1628.74 726.99 1527.15 831.35 1491 860"/><polyline class="cls-3" points="199.45 950.83 253.27 989.97 317.25 1038.49 363.37 1016.78"/><polyline class="cls-3" points="196.75 946.64 142.14 992.34 67.02 1012.84 38 1041.23"/><circle class="cls-3" cx="202.05" cy="593.62" r="72.37"/><line class="cls-2" x1="1642.06" y1="672.56" x2="1642.06" y2="959.39"/><polyline class="cls-3" points="1639.35 951.3 1693.17 990.44 1757.15 1038.96 1803.27 1017.25"/><polyline class="cls-3" points="1636.65 948.11 1582.04 993.81 1506.92 1014.3 1477.9 1039.7"/><circle class="cls-3" cx="1641.95" cy="595.09" r="72.37"/><line class="cls-2" x1="1293.33" y1="597.59" x2="1293.33" y2="884.42"/><polyline class="cls-3" points="1308.7 656.16 1362.67 791.44 1365 830"/><polyline class="cls-3" points="1286.19 652.94 1259.63 796.15 1257.39 828.79"/><polyline class="cls-3" points="1306.12 875.16 1365.26 905.33 1353.01 1001.17 1365.36 1026.76"/><polyline class="cls-3" points="1287.22 873.64 1246.48 1013.47 1280.64 1040.23"/><path class="cls-3" d="M1220.52,520.37a72.37,72.37,0,1,0,144.73,0"/><path class="cls-3" d="M1220.52,519.74a72.37,72.37,0,1,1,144.73,0"/><line class="cls-2" x1="1004.73" y1="632.9" x2="1004.73" y2="919.73"/><polyline class="cls-3" points="1005.02 669.32 1032.16 813.57 1049.81 850.75"/><polyline class="cls-3" points="999.12 682.2 985 828 960 862"/><polyline class="cls-3" points="1018.52 911.15 1078.42 960.04 974.39 986.11 955.86 1031.23"/><polyline class="cls-3" points="1003.52 890.85 1008.81 972.04 1000.5 1040.53 1066.18 1040"/><circle class="cls-3" cx="1004.29" cy="555.67" r="72.37"/><line class="cls-4" x1="606.37" y1="697.39" x2="606.37" y2="959.51"/><polyline class="cls-3" points="619.1 746 748.84 812.2 773 840"/><polyline class="cls-3" points="594.78 744.36 465.05 810.55 429 819"/><polyline class="cls-5" points="614 944 693.19 977.38 740.51 1040.52 786 1041"/><polyline class="cls-3" points="600.08 949.11 558.71 1000.99 470.34 1015.3 447.51 1041.59"/><circle class="cls-3" cx="607.25" cy="625.02" r="72.37"/></g><g id="LINEA_PISO" data-name="LINEA PISO"><line class="cls-6" x1="6" y1="1068" x2="2002" y2="1068"/></g><g id="TITULO"><text class="cls-7" transform="translate(326.04 329.41) scale(0.5 1)">ANIM<tspan class="cls-8" x="1214.66" y="0">A</tspan><tspan class="cls-9" x="1504.37" y="0">TION</tspan></text></g></svg>