<svg id="Capa_1" data-name="Capa 1" xmlns="http://www.w3.org/2000/svg" viewBox="0 0 1934 1523"><defs><style>.cls-1{fill:#5851b9;}.cls-2{font-size:388.81px;font-family:BowlbyOneSC-Regular, Bowlby One SC;}.cls-3{letter-spacing:-0.05em;}</style></defs><title>animation-avatar1</title><path class="cls-1" d="M960.38,1449.22A692.19,692.19,0,0,1,691,119.59a692.19,692.19,0,0,1,538.7,1275.26A687.65,687.65,0,0,1,960.38,1449.22Z"/><path d="M960.38,83.72a670.17,670.17,0,0,1,376.53,115,675.43,675.43,0,0,1,244,296.36,672.65,672.65,0,0,1-62.08,638.68,675.64,675.64,0,0,1-296.36,244,672.56,672.56,0,0,1-638.68-62.09,675.57,675.57,0,0,1-244-296.35,672.56,672.56,0,0,1,62.09-638.68A675.51,675.51,0,0,1,698.23,136.63,669.26,669.26,0,0,1,960.38,83.72m0-37c-392.4,0-710.5,318.1-710.5,710.5s318.1,710.5,710.5,710.5,710.5-318.1,710.5-710.5-318.11-710.5-710.5-710.5Z"/><text class="cls-2" transform="translate(333.04 847.69) scale(0.5 1)">ANIM<tspan class="cls-3" x="1214.66" y="0">A</tspan><tspan x="1504.37" y="0">TION</tspan></text></svg>