<svg id="Capa_1" data-name="Capa 1" xmlns="http://www.w3.org/2000/svg" viewBox="0 0 1934 1523"><defs><style>.cls-1{fill:#fc9;}.cls-2{fill:#963;}.cls-3{font-size:384.1px;fill:#aa6d23;font-family:BungeeInline-Regular, Bungee Inline;}.cls-4{letter-spacing:-0.03em;}.cls-5{letter-spacing:-0.01em;}</style></defs><title>art-avatar1</title><path class="cls-1" d="M960.38,1449.22A692.19,692.19,0,0,1,691,119.59a692.19,692.19,0,0,1,538.7,1275.26A687.65,687.65,0,0,1,960.38,1449.22Z"/><path class="cls-2" d="M960.38,83.72a670.17,670.17,0,0,1,376.53,115,675.43,675.43,0,0,1,244,296.36,672.65,672.65,0,0,1-62.08,638.68,675.64,675.64,0,0,1-296.36,244,672.56,672.56,0,0,1-638.68-62.09,675.57,675.57,0,0,1-244-296.35,672.56,672.56,0,0,1,62.09-638.68A675.51,675.51,0,0,1,698.23,136.63,669.26,669.26,0,0,1,960.38,83.72m0-37c-392.4,0-710.5,318.1-710.5,710.5s318.1,710.5,710.5,710.5,710.5-318.1,710.5-710.5-318.11-710.5-710.5-710.5Z"/><text class="cls-3" transform="translate(565.81 839.75)">a<tspan class="cls-4" x="280.39" y="0">r</tspan><tspan class="cls-5" x="554.25" y="0">t</tspan></text></svg>