<svg xmlns="http://www.w3.org/2000/svg" viewBox="0 0 2062 1160"><defs><style>.cls-1{fill:#ffd598;}.cls-2,.cls-8{fill:#aa6d23;}.cls-3,.cls-4,.cls-5,.cls-6,.cls-7{fill:none;stroke:#aa6d23;stroke-miterlimit:10;}.cls-3{stroke-width:16.73px;}.cls-4,.cls-5,.cls-6,.cls-7{stroke-linecap:round;}.cls-4{stroke-width:10.62px;}.cls-5{stroke-width:9.15px;}.cls-6{stroke-width:10px;}.cls-7{stroke-width:14px;}.cls-8{font-size:137px;font-family:BungeeInline-Regular, Bungee Inline;}.cls-9{letter-spacing:-0.03em;}.cls-10{letter-spacing:-0.01em;}</style></defs><title>art3</title><g id="art"><rect class="cls-1" x="-186" y="-76" width="2390" height="1271"/><g id="Layer_1" data-name="Layer 1"><path class="cls-2" d="M1993.45,932.54a125.38,125.38,0,0,0,17.44,3.68c3.27.44,4.67-4.61,1.34-5.05a121,121,0,0,1-17.44-3.68c-3.26-.93-4.57,4.15-1.34,5Z"/><path class="cls-2" d="M2018.49,958.38a121.38,121.38,0,0,0,3.13-18.19c.33-3.36-4.88-3.34-5.24,0a115.88,115.88,0,0,1-3,16.87C2012.62,960.3,2017.67,961.67,2018.49,958.38Z"/><path class="cls-2" d="M1988.42,953a175.45,175.45,0,0,0,36.24-4.93c3.26-.8,1.92-5.88-1.37-5.06a164.5,164.5,0,0,1-34.91,4.78c-3.36.08-3.34,5.32,0,5.21Z"/><path class="cls-2" d="M2000.68,953.53c-.62-3.51.78-7.51,1.51-11q1.27-6.09,2.59-12.22c.7-3.29-4.35-4.66-5-1.37q-1.47,6.93-2.93,13.85c-.82,4-1.85,7.91-1.17,12,.6,3.36,5.64,2,5-1.28Z"/><path class="cls-2" d="M1942.81,975.71c6.76,6.15,13.37,12.51,19.69,19.08,2.35,2.41,6-1.28,3.69-3.68-6.33-6.58-12.9-13-19.69-19.09C1944,969.77,1940.31,973.46,1942.81,975.71Z"/><path class="cls-2" d="M1931.46,995.39c9-6.11,19.35-9.71,28.27-16,2.73-1.94.13-6.5-2.6-4.57-8.89,6.23-19.26,9.87-28.26,16C1926.13,992.7,1928.7,997.29,1931.46,995.39Z"/><path class="cls-2" d="M1930.22,991.2c3.18,1.21,6.32,2.45,9.47,3.75a2.61,2.61,0,1,0,2.57-4.55c-3.54-1.52-7.09-2.91-10.73-4.28-3.14-1.18-4.45,3.9-1.31,5.08Z"/><path class="cls-2" d="M1960.09,1013.32q2.55-14.58,4.88-29.21c.52-3.29-4.54-4.66-5.08-1.34q-2.33,14.64-4.89,29.22c-.54,3.26,4.51,4.63,5.09,1.33Z"/><path class="cls-2" d="M1947.62,1013.45a118.94,118.94,0,0,0,16.53-2.46c3.26-.73,1.92-5.81-1.37-5a101.82,101.82,0,0,1-15.21,2.24c-3.29.27-3.28,5.51,0,5.27Z"/><path class="cls-2" d="M1906.5,1013.81a160.83,160.83,0,0,0,31.31,4.88c3.35.22,3.34-5,0-5.24a152.45,152.45,0,0,1-30-4.72c-3.21-.87-4.55,4.17-1.32,5.08Z"/><path class="cls-2" d="M1919.55,1032.13c-.31-.25-.26-2.28-.29-2.8-.09-1-.19-2-.25-3.08l-.48-6.93A107.79,107.79,0,0,0,1917,1006c-.66-3.3-5.68-2-5,1.34a116.17,116.17,0,0,1,1.58,15c.16,2.43.32,4.86.57,7.33.19,2,.07,4.8,1.77,6.13,2.65,2,6.4-1.65,3.69-3.75Z"/><path class="cls-2" d="M1939.57,1036.55a116.16,116.16,0,0,0-3.75-24.52c-.87-3.26-5.89-1.95-5,1.34a109.86,109.86,0,0,1,3.6,23.2c.1,3.36,5.34,3.37,5.2,0Z"/><path class="cls-2" d="M1912.19,1032.64c9.91.21,19.8-.05,29.71-.7,3.36-.21,3.35-5.44,0-5.23q-14.82.93-29.72.69c-3.35,0-3.34,5.14,0,5.24Z"/><path class="cls-2" d="M1903.19,922.46c8.82,3.34,18.13,5.28,27.19,7.64,3.23.84,4.57-4.21,1.31-5.08-9.12-2.36-18.37-4.29-27.18-7.64-3.12-1.15-4.46,3.9-1.32,5.08Z"/><path class="cls-2" d="M1800.47,1035.56c8.44.7,16.91,1.36,25.34.28,4.16-.52,8.22-1.68,12.41-1.91a42.21,42.21,0,0,1,12.47,1.23c3.27.75,4.61-4.3,1.32-5.08a50,50,0,0,0-12.33-1.44c-4.4.08-8.65,1.11-13,1.81-8.65,1.36-17.55.57-26.27-.16-3.29-.28-3.25,5,0,5.27Z"/><path class="cls-2" d="M1799.05,1045.93l30.43-31.73-4.37-2.54c-1.79,13.08-9.09,24.71-9.86,38-.2,3.36,5,3.37,5.24,0,.74-12.78,8-24.06,9.67-36.65.33-2.37-2.41-4.57-4.38-2.54l-30.44,31.74C1793,1044.62,1796.71,1048.33,1799.05,1045.93Z"/><path class="cls-2" d="M1849,1068.39c8.41.91,16.94,1.82,25.41.89,4.16-.45,8.25-1.46,12.41-1.6a43.47,43.47,0,0,1,12.44,1.51c3.24.84,4.58-4.21,1.31-5.08a48.72,48.72,0,0,0-12.29-1.72c-4.43,0-8.71.93-13.08,1.53-8.71,1.12-17.52.18-26.18-.8-3.33-.32-3.31,4.92,0,5.27Z"/><path class="cls-2" d="M1847.32,1078.67l31.21-31-4.38-2.53c-2.09,13-9.7,24.46-10.74,37.73-.27,3.35,5,3.36,5.23,0,1-12.75,8.6-23.85,10.6-36.41.39-2.43-2.44-4.47-4.38-2.53l-31.21,31c-2.4,2.4,1.31,6.1,3.67,3.74Z"/><path class="cls-2" d="M1843.62,990.37a103.27,103.27,0,0,0,18.74,19.54c2.63,2.07,6.34-1.59,3.69-3.69a97.51,97.51,0,0,1-17.88-18.43c-2-2.68-6.53-.14-4.55,2.58Z"/><path class="cls-2" d="M1866.17,1018.57a224.63,224.63,0,0,1,6.58-30.47c1-3.23-4.14-4.57-5.09-1.34a223.1,223.1,0,0,0-6.57,30.47C1860.67,1020.5,1865.72,1021.93,1866.17,1018.57Z"/><path class="cls-2" d="M1836.86,997a75.67,75.67,0,0,0,19.14-7.77c2.92-1.69.32-6.25-2.6-4.57a68,68,0,0,1-17.87,7.26c-3.27.79-1.93,5.87,1.33,5.08Z"/><path class="cls-2" d="M1853.15,1006.28a44.75,44.75,0,0,0,8.35-10c1.75-2.86-2.79-5.42-4.57-2.59a38.22,38.22,0,0,1-7.52,8.88C1846.89,1004.82,1850.63,1008.49,1853.15,1006.28Z"/><path class="cls-2" d="M1973.57,962.3a103.07,103.07,0,0,0,18.28,20c2.56,2.13,6.28-1.52,3.69-3.69a97.34,97.34,0,0,1-17.42-18.89c-1.94-2.74-6.47-.2-4.55,2.58Z"/><path class="cls-2" d="M1995.42,990.9a217.62,217.62,0,0,1,7.34-30.31c1-3.23-4-4.54-5-1.37a226.85,226.85,0,0,0-7.35,30.31c-.54,3.33,4.51,4.7,5.06,1.37Z"/><path class="cls-2" d="M1966.69,968.63a73,73,0,0,0,19.29-7.32c3-1.59.35-6.15-2.6-4.56a67.18,67.18,0,0,1-18.06,6.82c-3.26.73-1.89,5.79,1.37,5.06Z"/><path class="cls-2" d="M1982.7,978.3a44.46,44.46,0,0,0,8.59-9.77c1.81-2.79-2.72-5.42-4.56-2.59a40.17,40.17,0,0,1-7.74,8.66c-2.55,2.18,1.16,5.88,3.71,3.7Z"/><path class="cls-2" d="M1893.51,940.79a103.27,103.27,0,0,0,18.74,19.54c2.62,2.07,6.34-1.59,3.69-3.69a97.51,97.51,0,0,1-17.88-18.43c-2-2.68-6.59-.14-4.55,2.58Z"/><path class="cls-2" d="M1916,969a223.13,223.13,0,0,1,6.58-30.47c.94-3.23-4.14-4.57-5.06-1.37a223.1,223.1,0,0,0-6.57,30.47c-.46,3.3,4.57,4.7,5,1.37Z"/><path class="cls-2" d="M1886.72,947.39a75.17,75.17,0,0,0,19.1-7.74c2.93-1.69.33-6.25-2.59-4.57a68.07,68.07,0,0,1-17.88,7.26C1882.12,943.16,1883.49,948.21,1886.72,947.39Z"/><path class="cls-2" d="M1903,956.73a44.72,44.72,0,0,0,8.39-10c1.74-2.86-2.82-5.45-4.57-2.59a38.22,38.22,0,0,1-7.52,8.88c-2.52,2.21,1.18,5.91,3.7,3.7Z"/><path class="cls-2" d="M1856.32,969.33c.84,2.38,2.5,3.43,4.75,4.33,2.56,1,5.15,2,7.71,3l15.81,6.17c3.12,1.21,4.43-3.81,1.34-5l-12.6-4.92-6.11-2.36c-1.08-.4-2.19-.84-3.23-1.27-.5-.19-2.41-.62-2.66-1.24-1.08-3.11-6.16-1.8-5,1.37Z"/><path class="cls-2" d="M1859.91,975.93A225.41,225.41,0,0,0,1882.08,962c2.73-1.94.13-6.5-2.6-4.57a230.54,230.54,0,0,1-22.17,14c-3,1.65-.36,6.22,2.6,4.56Z"/><path class="cls-2" d="M1872.08,956.65a140.5,140.5,0,0,1,1.45,22.15c0,3.36,5.21,3.37,5.23,0a150.55,150.55,0,0,0-1.63-23.5C1876.63,952,1871.58,953.33,1872.08,956.65Z"/><path class="cls-2" d="M1871,979.9l22.71-8c3.14-1.1,1.83-6.15-1.34-5.08l-22.73,8c-3.14,1.1-1.77,6.15,1.36,5Z"/><path class="cls-2" d="M1880.71,1044.23c.75,2.28,2.32,3.42,4.45,4.32,2.56,1.09,5.08,2.14,7.61,3.19,5.09,2.14,10.18,4.28,15.29,6.38,3,1.28,5.69-3.21,2.58-4.55l-12.86-5.36-6.44-2.69-3.21-1.37c-.52-.21-2.18-.65-2.37-1.26-1-3.24-6.07-1.9-5,1.34Z"/><path class="cls-2" d="M1884.18,1050.83a233.64,233.64,0,0,0,22.51-13.43c2.76-1.85.2-6.44-2.6-4.57a220.72,220.72,0,0,1-22.54,13.4c-3,1.6-.36,6.16,2.63,4.6Z"/><path class="cls-2" d="M1896.69,1031.27a140.81,140.81,0,0,1,1,22.86c-.11,3.38,5.09,3.37,5.24,0a141.77,141.77,0,0,0-1-22.85c-.41-3.3-5.65-3.37-5.24,0Z"/><path class="cls-2" d="M1895.18,1055.07l22.9-7.45c3.2-1,1.83-6.1-1.37-5.06l-22.9,7.46c-3.13,1-1.86,6.12,1.37,5Z"/><path class="cls-2" d="M1921,905.32c.84,2.37,2.5,3.42,4.76,4.32,2.55,1,5.14,2,7.7,3,5.27,2.07,10.54,4.09,15.82,6.16,3.14,1.24,4.45-3.83,1.34-5L1938,908.81l-6.1-2.36c-1.08-.4-2.16-.86-3.24-1.27-.52-.21-2.4-.62-2.65-1.24-1.09-3.11-6.1-1.8-5,1.38Z"/><path class="cls-2" d="M1925.34,911.86a223.16,223.16,0,0,0,22.17-14c2.74-1.93.14-6.5-2.6-4.56a232.43,232.43,0,0,1-22.17,13.95C1919.82,908.92,1922.42,913.48,1925.34,911.86Z"/><path class="cls-2" d="M1936.72,892.64a141.49,141.49,0,0,1,1.44,22.14c0,3.36,5.21,3.37,5.23,0a150.37,150.37,0,0,0-1.62-23.5C1941.3,888,1936.25,889.34,1936.72,892.64Z"/><path class="cls-2" d="M1935.64,915.89l22.7-8c3.14-1.1,1.81-6.18-1.33-5.08l-22.71,8C1931.16,912,1932.5,917,1935.64,915.89Z"/><path class="cls-2" d="M1921,905.32c.84,2.37,2.5,3.42,4.76,4.32,2.55,1,5.14,2,7.7,3,5.27,2.07,10.54,4.09,15.82,6.16,3.14,1.24,4.45-3.83,1.34-5L1938,908.81l-6.1-2.36c-1.08-.4-2.16-.86-3.24-1.27-.52-.21-2.4-.62-2.65-1.24-1.09-3.11-6.1-1.8-5,1.38Z"/><path class="cls-2" d="M1925.34,911.86a223.16,223.16,0,0,0,22.17-14c2.74-1.93.14-6.5-2.6-4.56a232.43,232.43,0,0,1-22.17,13.95C1919.82,908.92,1922.42,913.48,1925.34,911.86Z"/><path class="cls-2" d="M1936.72,892.64a141.49,141.49,0,0,1,1.44,22.14c0,3.36,5.21,3.37,5.23,0a150.37,150.37,0,0,0-1.62-23.5C1941.3,888,1936.25,889.34,1936.72,892.64Z"/><path class="cls-2" d="M1935.64,915.89l22.7-8c3.14-1.1,1.81-6.18-1.33-5.08l-22.71,8C1931.16,912,1932.5,917,1935.64,915.89Z"/><path class="cls-2" d="M1934,941a46.14,46.14,0,0,1-1.68-6.41,42.36,42.36,0,0,0-2.14-6.32,48.18,48.18,0,0,0-2.91-5.67,6.71,6.71,0,0,1-.94-5.61c.61-3.26-4.48-4.66-5.08-1.33a13.09,13.09,0,0,0,0,6.55c.78,2.32,2.38,4.35,3.44,6.57,2.29,4.75,2.73,10,4.71,14.8.53,1.32,2.47,1.6,3.58,1a2.66,2.66,0,0,0,1-3.57Z"/><path class="cls-2" d="M1972.57,908.28l-3.66-23.2c-1.06-6.9-1.7-14.35-5.84-20.28-1.88-2.74-6.47-.2-4.55,2.58,4,5.71,4.41,13.19,5.44,19.88l3.54,22.33c.56,3.33,5.6,2,5.07-1.31Z"/><path class="cls-2" d="M1950.35,876,2004,892.13c3.23,1,4.51-4.08,1.31-5.08L1951.66,871c-3.17-1-4.52,4.09-1.31,5.08Z"/><path class="cls-2" d="M1963.62,897.66c2.21-.91,3.81-2.63,5.44-4.32l6.11-6.55,12-12.72c2.3-2.43-1.41-6.13-3.71-3.7l-11.36,12.1-5.53,5.9c-1.66,1.78-3.19,3.81-5.5,4.76C1957.94,894.39,1960.57,898.92,1963.62,897.66Z"/><path class="cls-2" d="M2036.71,941.64c-1.91-2.1-3.21-4.94-4.54-7.43-1.58-3.06-3.07-6.14-4.37-9.28-3.93-9.41-7.19-19.12-10.76-28.64-1.18-3.14-6.25-1.83-5.08,1.31,3.76,10,7.14,20.1,11.29,29.9,1.39,3.24,2.91,6.41,4.49,9.53a40.88,40.88,0,0,0,5.22,8.3c2.32,2.5,6-1.19,3.75-3.69Z"/><path class="cls-2" d="M2002.42,921c11.21-8.81,24.53-14.47,35.72-23.37,2.64-2.09-1.09-5.76-3.7-3.71-11.16,8.87-24.48,14.54-35.73,23.38C1996.07,919.43,1999.8,923.1,2002.42,921Z"/></g><circle class="cls-3" cx="925.51" cy="486.23" r="144"/><path class="cls-4" d="M782,485.73c0-70.42,73.54-118,144-118s143,48.58,143,119"/><path class="cls-4" d="M781,510.73c0-70.42,74.54-119,145-119s143,48.58,143,119"/><path class="cls-5" d="M781,510.73c0-60.65,83.35-97,144-97s144,36.35,144,97"/><path class="cls-4" d="M782,486.73c0,70.41,73.54,118,144,118s143-48.59,143-119"/><path class="cls-4" d="M781,461.73c0,70.41,74.54,119,145,119s143-48.59,143-119"/><path class="cls-5" d="M785,455.73c0,60.65,79.35,103,140,103s144-36.35,144-97"/><line class="cls-5" x1="1069.51" y1="485.73" x2="782.01" y2="485.73"/><line class="cls-5" x1="925.76" y1="629.48" x2="925.76" y2="341.98"/><circle class="cls-3" cx="1215.51" cy="487.23" r="144"/><path class="cls-4" d="M1072,486.73c0-70.42,73.54-118,144-118s143,48.58,143,119"/><path class="cls-4" d="M1071,511.73c0-70.42,74.54-119,145-119s143,48.58,143,119"/><path class="cls-5" d="M1071,511.73c0-60.65,83.35-97,144-97s144,36.35,144,97"/><path class="cls-4" d="M1072,487.73c0,70.41,73.54,118,144,118s143-48.59,143-119"/><path class="cls-4" d="M1071,462.73c0,70.41,74.54,119,145,119s143-48.59,143-119"/><path class="cls-5" d="M1075,456.73c0,60.65,79.35,103,140,103s144-36.35,144-97"/><line class="cls-5" x1="1359.51" y1="486.73" x2="1072.01" y2="486.73"/><line class="cls-5" x1="1215.76" y1="630.48" x2="1215.76" y2="342.98"/><circle class="cls-3" cx="1075.01" cy="877.73" r="144"/><path class="cls-4" d="M931.51,877.23c0-70.42,73.54-118,144-118s143,48.58,143,119"/><path class="cls-4" d="M930.51,902.23c0-70.42,74.54-119,145-119s143,48.58,143,119"/><path class="cls-5" d="M930.51,902.23c0-60.65,83.35-97,144-97s144,36.35,144,97"/><path class="cls-4" d="M931.51,878.23c0,70.41,73.54,118,144,118s143-48.59,143-119"/><path class="cls-4" d="M930.51,853.23c0,70.41,74.54,119,145,119s143-48.59,143-119"/><path class="cls-5" d="M934.51,847.23c0,60.65,79.35,103,140,103s144-36.35,144-97"/><line class="cls-5" x1="1219.01" y1="877.23" x2="931.51" y2="877.23"/><line class="cls-5" x1="1075.26" y1="1020.98" x2="1075.26" y2="733.48"/><circle class="cls-6" cx="616.39" cy="779.85" r="133"/><polygon class="cls-6" points="616.89 592.15 453.03 875.95 780.74 875.95 616.89 592.15"/><polygon class="cls-7" points="1073.21 589.54 1016.03 688.57 1130.39 688.57 1073.21 589.54"/><circle class="cls-6" cx="1504.39" cy="773.85" r="133"/><polygon class="cls-6" points="1504.89 586.15 1341.03 869.95 1668.74 869.95 1504.89 586.15"/><text class="cls-8" transform="translate(941.25 256.09)">a<tspan class="cls-9" x="100.01" y="0">r</tspan><tspan class="cls-10" x="197.69" y="0">t</tspan></text></g></svg>