<svg xmlns="http://www.w3.org/2000/svg" viewBox="0 0 2062 1160"><defs><style>.cls-1{fill:#66af91;}.cls-2{fill:#3d3228;}.cls-3,.cls-4,.cls-7{fill:none;stroke:#fff;stroke-miterlimit:10;}.cls-3,.cls-4{stroke-width:21.4px;}.cls-4{stroke-linecap:round;}.cls-5{font-size:160.47px;fill:#fff;font-family:Impact;}.cls-6{fill:#fcfcfc;}.cls-7{stroke-width:12px;}</style></defs><title>design</title><g id="fondo-inicio"><polygon class="cls-1" points="34 1526 -5070.95 1526 -3456 496 -1475.29 496 34 1526"/></g><g id="design"><rect class="cls-2" x="-13" y="-52" width="2102" height="1266"/><polygon class="cls-3" points="665.88 487.59 527.63 347.6 527.63 717.81 665.88 487.59"/><polyline class="cls-3" points="830.74 440.15 711 347.6 711 488.93 701.74 712.61 830.74 557"/><line class="cls-3" x1="800.66" y1="492.22" x2="710.99" y2="492.22"/><polyline class="cls-3" points="986.92 347.6 892.63 440.15 986.92 510.15 805.86 717.81"/><polyline class="cls-4" points="1299.28 734.59 1398.2 367.27 1457.38 600.5 1534.38 286.5"/><line class="cls-4" x1="1057.49" y1="348.18" x2="1057.49" y2="703.93"/><polyline class="cls-3" points="1185.9 510.15 1310.85 510.15 1243.75 703.93 1106.08 510.15 1225.24 348.18 1300.44 440.15"/><line class="cls-4" x1="1057.49" y1="286.86" x2="1057.49" y2="286.86"/><text class="cls-5" transform="translate(525.18 236.21) scale(0.91 1)">PEREYRA PROJECT</text><g id="Layer_1" data-name="Layer 1"><path class="cls-6" d="M1914,964.49a148.2,148.2,0,0,0,15,9.4c2.82,1.53,4.12-2.69,1.25-4.24a144.53,144.53,0,0,1-15-9.4c-2.81-2-4,2.29-1.25,4.24Z"/><path class="cls-6" d="M1935.24,997.14a100.57,100.57,0,0,0,3-15.87c.34-3-4.16-4.78-4.53-1.81a96,96,0,0,1-2.87,14.69C1930.12,996.91,1934.47,999.92,1935.24,997.14Z"/><path class="cls-6" d="M1909.29,981.82a150.36,150.36,0,0,0,31.46,7.84c2.84.38,1.77-4.82-1.09-5.18a140.64,140.64,0,0,1-30.31-7.52c-2.91-1.07-3,3.81-.06,4.86Z"/><path class="cls-6" d="M1919.9,986.51c-.48-3.48.81-6.72,1.5-9.68q1.2-5.24,2.45-10.49c.66-2.83-3.69-5.84-4.36-3l-2.76,11.9c-.78,3.41-1.75,6.72-1.22,10.75.45,3.33,4.85,3.81,4.39.53Z"/><path class="cls-6" d="M1869.41,987.33c5.74,8,11.36,16.23,16.72,24.52,2,3,5.25.88,3.26-2.17-5.37-8.29-11-16.5-16.73-24.52C1870.54,982.2,1867.28,984.37,1869.41,987.33Z"/><path class="cls-6" d="M1859.25,1001.77c7.85-2.62,16.91-2.42,24.74-5.19,2.4-.86.23-6-2.17-5.14-7.8,2.75-16.84,2.59-24.75,5.19C1854.67,997.43,1856.82,1002.59,1859.25,1001.77Z"/><path class="cls-6" d="M1858.24,997.44c2.73,2.21,5.43,4.44,8.13,6.73,1.11,1,2.42,1.29,3.11.32a3.23,3.23,0,0,0-.8-3.67c-3-2.63-6.09-5.14-9.22-7.66-2.7-2.18-3.92,2.1-1.22,4.28Z"/><path class="cls-6" d="M1883.72,1028.28c1.64-8.48,3.23-17,4.73-25.53.51-2.89-3.85-5.9-4.38-3-1.5,8.56-3.09,17-4.73,25.53-.53,2.85,3.83,5.86,4.38,3Z"/><path class="cls-6" d="M1872.92,1024.12a100.59,100.59,0,0,0,14.36,3.38c2.84.44,1.77-4.76-1.1-5.18a86.43,86.43,0,0,1-13.21-3.12c-2.85-.88-2.93,4,0,4.92Z"/><path class="cls-6" d="M1837.32,1010.36a185.94,185.94,0,0,0,27,15.27c2.9,1.36,3-3.52.07-4.88a177,177,0,0,1-25.87-14.67c-2.76-1.91-4,2.33-1.22,4.28Z"/><path class="cls-6" d="M1848.29,1031.89a9.82,9.82,0,0,1-.19-2.71c-.07-1-.13-2-.17-3l-.3-6.62a119.48,119.48,0,0,0-1.1-12.89c-.51-3.29-4.88-3.79-4.4-.48a129.32,129.32,0,0,1,1.11,14.54c.1,2.32.19,4.64.37,7,.13,1.9,0,4.5,1.43,6.32,2.26,2.81,5.57.66,3.25-2.23Z"/><path class="cls-6" d="M1865.56,1042.88a134.19,134.19,0,0,0-2.83-24.13c-.7-3.34-5.06-3.83-4.39-.48a128.15,128.15,0,0,1,2.72,22.84c0,3.16,4.56,5,4.5,1.77Z"/><path class="cls-6" d="M1841.91,1029.84c8.59,3.59,17.15,6.75,25.75,9.54,2.91,1,3-3.92.08-4.88q-12.85-4.21-25.75-9.54c-2.9-1.19-3,3.63-.08,4.88Z"/><path class="cls-6" d="M1836,924.16c7.57,6.14,15.6,11.13,23.4,16.44,2.79,1.89,4-2.35,1.23-4.28-7.86-5.33-15.83-10.3-23.41-16.44-2.68-2.13-3.92,2.11-1.22,4.28Z"/><path class="cls-6" d="M1745.12,994.26c7.3,3.54,14.62,7.07,22,9,3.6.95,7.14,1.26,10.77,2.47a46.83,46.83,0,0,1,10.78,5.43c2.82,1.81,4.07-2.42,1.23-4.28a56,56,0,0,0-10.65-5.57c-3.81-1.44-7.51-1.93-11.28-2.77-7.51-1.69-15.21-5.48-22.74-9.15-2.85-1.39-2.91,3.52-.06,4.92Z"/><path class="cls-6" d="M1743.71,1003.43l26.91-19.11-3.75-3.87c-1.77,11.58-8.29,19.9-9.18,32-.24,3,4.29,4.86,4.53,1.81.86-11.65,7.29-19.69,9-30.82.33-2.09-2-5.08-3.75-3.86l-26.9,19.11C1738.51,1000.14,1741.65,1004.86,1743.71,1003.43Z"/><path class="cls-6" d="M1786.6,1041.47c7.27,3.74,14.64,7.51,22,9.55,3.61,1,7.17,1.47,10.77,2.76a48.39,48.39,0,0,1,10.75,5.67c2.79,1.89,4-2.35,1.23-4.28a56.69,56.69,0,0,0-10.62-5.82c-3.84-1.53-7.56-2.12-11.35-3-7.57-2-15.18-5.85-22.66-9.72-2.87-1.44-3,3.44-.11,4.89Z"/><path class="cls-6" d="M1785,1050.46l27.55-18.13-3.74-3.86c-2,11.41-8.82,19.45-10,31.45-.29,3,4.25,4.84,4.54,1.8,1.09-11.52,7.85-19.25,9.8-30.26.38-2.13-2-5-3.75-3.87l-27.56,18.14c-2.12,1.41,1,6.13,3.12,4.73Z"/><path class="cls-6" d="M1783.27,967a159.07,159.07,0,0,0,15.89,24.62c2.24,2.83,5.52.7,3.26-2.16a152.94,152.94,0,0,1-15.17-23.29c-1.69-3.19-5.65-2.37-4,.83Z"/><path class="cls-6" d="M1802.31,1001a174.72,174.72,0,0,1,6.22-26.12c.87-2.69-3.51-5.67-4.38-3a174.72,174.72,0,0,0-6.22,26.12C1797.51,1000.87,1801.86,1003.94,1802.31,1001Z"/><path class="cls-6" d="M1777.3,970.83a49.28,49.28,0,0,0,16.7-.67c2.56-.57.39-5.71-2.17-5.14a44.43,44.43,0,0,1-15.6.62c-2.84-.38-1.77,4.81,1.07,5.19Z"/><path class="cls-6" d="M1791.24,985.06a23.4,23.4,0,0,0,7.4-6.41c1.57-2.06-2.31-6-3.9-4a20.36,20.36,0,0,1-6.67,5.69C1785.85,981.55,1789,986.25,1791.24,985.06Z"/><path class="cls-6" d="M1896.27,985.39a160.53,160.53,0,0,0,15.49,24.89c2.18,2.86,5.46.73,3.26-2.17a151.67,151.67,0,0,1-14.76-23.56c-1.64-3.22-5.6-2.4-4,.84Z"/><path class="cls-6" d="M1914.7,1019.51a166.88,166.88,0,0,1,6.88-25.71c.93-2.66-3.43-5.61-4.35-3a173.4,173.4,0,0,0-6.88,25.71c-.53,2.91,3.82,5.92,4.35,3Z"/><path class="cls-6" d="M1890.21,988.92a48.84,48.84,0,0,0,16.83-.2c2.58-.47.41-5.61-2.18-5.14a45.12,45.12,0,0,1-15.75.16c-2.84-.43-1.74,4.74,1.1,5.18Z"/><path class="cls-6" d="M1903.9,1003.42a23.4,23.4,0,0,0,7.61-6.15c1.62-2-2.26-6-3.9-4a21,21,0,0,1-6.85,5.42c-2.25,1.16.9,5.88,3.14,4.72Z"/><path class="cls-6" d="M1827.32,937.91a160,160,0,0,0,15.89,24.62c2.24,2.83,5.52.7,3.26-2.17a152,152,0,0,1-15.17-23.29c-1.69-3.19-5.7-2.39-4,.84Z"/><path class="cls-6" d="M1846.33,971.92a176.26,176.26,0,0,1,6.22-26.12c.88-2.68-3.5-5.67-4.35-3a174.42,174.42,0,0,0-6.22,26.12c-.45,2.91,3.88,5.93,4.35,3Z"/><path class="cls-6" d="M1821.32,941.73a49.16,49.16,0,0,0,16.68-.66c2.56-.57.39-5.71-2.17-5.14a44.42,44.42,0,0,1-15.6.63C1817.41,936.22,1818.51,941.39,1821.32,941.73Z"/><path class="cls-6" d="M1835.26,956a23.74,23.74,0,0,0,7.43-6.42c1.57-2.07-2.34-6.05-3.9-4a20.24,20.24,0,0,1-6.67,5.69c-2.22,1.2.92,5.92,3.14,4.72Z"/><path class="cls-6" d="M1794.62,951.74a10.85,10.85,0,0,0,4,5.66c2.2,1.83,4.43,3.64,6.63,5.41L1818.87,974c2.68,2.2,3.9-2,1.25-4.23l-10.83-8.92-5.24-4.28c-.93-.75-1.89-1.53-2.79-2.29-.42-.35-2.07-1.41-2.27-2.07-.89-3.27-5.31-3.79-4.37-.44Z"/><path class="cls-6" d="M1797.62,959.12a125.75,125.75,0,0,0,19.43-5.4c2.4-.86.23-6-2.17-5.14a131.74,131.74,0,0,1-19.43,5.4c-2.59.53-.42,5.67,2.17,5.14Z"/><path class="cls-6" d="M1808.49,945.34a148.34,148.34,0,0,1,.87,21.12c-.08,3.11,4.46,4.92,4.53,1.8a160,160,0,0,0-1-22.44C1812.51,942.55,1808.12,942.07,1808.49,945.34Z"/><path class="cls-6" d="M1807.16,966.62l19.8.32c2.73,0,1.69-5.1-1.07-5.19l-19.83-.31c-2.74-.05-1.64,5.13,1.1,5.18Z"/><path class="cls-6" d="M1814.46,1029.84a10.5,10.5,0,0,0,3.78,5.55c2.19,1.89,4.36,3.74,6.53,5.58q6.56,5.61,13.14,11.19c2.62,2.23,5-1.05,2.3-3.36l-11-9.39-5.53-4.72-2.75-2.37c-.45-.38-1.89-1.36-2-2-.83-3.36-5.22-3.84-4.39-.48Z"/><path class="cls-6" d="M1817.35,1037.18a132.26,132.26,0,0,0,19.72-4.79c2.43-.77.28-5.93-2.17-5.15a125.87,125.87,0,0,1-19.75,4.76c-2.58.47-.41,5.61,2.2,5.18Z"/><path class="cls-6" d="M1828.52,1023.26a146.83,146.83,0,0,1,.46,21.61c-.16,3.12,4.35,4.89,4.53,1.81a146.8,146.8,0,0,0-.46-21.61c-.29-3.21-4.83-5.08-4.53-1.81Z"/><path class="cls-6" d="M1826.8,1044.9l20,.91c2.79.13,1.69-5-1.1-5.18l-20-.9c-2.74-.11-1.72,5.06,1.09,5.17Z"/><path class="cls-6" d="M1851.69,914.29a10.79,10.79,0,0,0,4,5.66c2.2,1.82,4.42,3.64,6.62,5.41,4.53,3.74,9.06,7.42,13.59,11.16,2.7,2.24,3.92-2,1.25-4.24l-10.83-8.91-5.25-4.28c-.93-.75-1.85-1.55-2.78-2.3-.45-.38-2.07-1.4-2.27-2.06-.89-3.27-5.26-3.77-4.37-.44Z"/><path class="cls-6" d="M1855.38,921.88a124.62,124.62,0,0,0,19.43-5.39c2.41-.86.23-6-2.17-5.14a130.17,130.17,0,0,1-19.43,5.39C1850.65,917.26,1852.82,922.4,1855.38,921.88Z"/><path class="cls-6" d="M1865.56,907.89a149.74,149.74,0,0,1,.87,21.11c-.08,3.12,4.45,4.93,4.53,1.81a159.93,159.93,0,0,0-1-22.44C1869.6,905.14,1865.21,904.66,1865.56,907.89Z"/><path class="cls-6" d="M1864.22,929.17l19.8.32c2.74,0,1.67-5.14-1.07-5.19l-19.8-.33C1860.42,924,1861.49,929.12,1864.22,929.17Z"/><path class="cls-6" d="M1851.69,914.29a10.79,10.79,0,0,0,4,5.66c2.2,1.82,4.42,3.64,6.62,5.41,4.53,3.74,9.06,7.42,13.59,11.16,2.7,2.24,3.92-2,1.25-4.24l-10.83-8.91-5.25-4.28c-.93-.75-1.85-1.55-2.78-2.3-.45-.38-2.07-1.4-2.27-2.06-.89-3.27-5.26-3.77-4.37-.44Z"/><path class="cls-6" d="M1855.38,921.88a124.62,124.62,0,0,0,19.43-5.39c2.41-.86.23-6-2.17-5.14a130.17,130.17,0,0,1-19.43,5.39C1850.65,917.26,1852.82,922.4,1855.38,921.88Z"/><path class="cls-6" d="M1865.56,907.89a149.74,149.74,0,0,1,.87,21.11c-.08,3.12,4.45,4.93,4.53,1.81a159.93,159.93,0,0,0-1-22.44C1869.6,905.14,1865.21,904.66,1865.56,907.89Z"/><path class="cls-6" d="M1864.22,929.17l19.8.32c2.74,0,1.67-5.14-1.07-5.19l-19.8-.33C1860.42,924,1861.49,929.12,1864.22,929.17Z"/><path class="cls-6" d="M1862.41,952a58.49,58.49,0,0,1-1.35-6.54,55.32,55.32,0,0,0-1.74-6.62c-.69-2.09-1.49-4.17-2.42-6.28a7.75,7.75,0,0,1-.72-5.54c.58-2.83-3.8-5.88-4.38-3a13,13,0,0,0-.13,6.1c.64,2.42,2,4.87,2.87,7.3,1.9,5.2,2.19,10.23,3.83,15.39a3.18,3.18,0,0,0,3.08,2.15c1.23-.2,1.39-1.55,1-3Z"/><path class="cls-6" d="M1896.34,934.75l-2.78-22.86c-.8-6.79-1.22-13.95-4.7-20.89-1.59-3.2-5.6-2.4-4,.84,3.35,6.68,3.59,13.8,4.37,20.38l2.68,22c.43,3.29,4.82,3.77,4.42.52Z"/><path class="cls-6" d="M1877.65,897.11l46.16,33.36c2.78,2,4-2.25,1.22-4.28l-46.16-33.36c-2.73-2-4,2.26-1.22,4.28Z"/><path class="cls-6" d="M1888.76,921.79c1.94-.1,3.35-1.15,4.79-2.17l5.4-4,10.59-7.74c2-1.47-1.1-6.19-3.14-4.72l-10.05,7.37-4.89,3.6c-1.46,1.09-2.83,2.46-4.84,2.55C1883.91,916.79,1886.1,921.91,1888.76,921.79Z"/><path class="cls-6" d="M1951.3,987.8a53,53,0,0,1-3.8-8.48c-1.32-3.39-2.55-6.77-3.63-10.14-3.24-10.11-5.9-20.26-8.82-30.35-1-3.34-5.39-3.86-4.42-.52,3.08,10.55,5.83,21.15,9.26,31.71,1.15,3.49,2.41,7,3.72,10.41a61.42,61.42,0,0,0,4.39,9.51c2,3.13,5.21,1,3.3-2.14Z"/><path class="cls-6" d="M1922,956.86c9.86-4.36,21.5-5.06,31.34-9.52,2.32-1-.85-5.74-3.15-4.72-9.81,4.44-21.44,5.14-31.34,9.52C1916.49,953.18,1919.66,957.88,1922,956.86Z"/></g><path class="cls-7" d="M941,871.54l38.25,24.19c-7.84,15.15-22.46,24.53-38.25,24.53-24.18,0-44.07-22-44.07-48.72s19.89-48.71,44.07-48.71c18.55,0,35.2,12.94,41.47,32.23Z"/><path class="cls-7" d="M1114,871.54l38.25,24.19c-7.84,15.15-22.46,24.53-38.25,24.53-24.18,0-44.07-22-44.07-48.72s19.89-48.71,44.07-48.71c18.55,0,35.2,12.94,41.47,32.23Z"/><path class="cls-7" d="M1038.19,1017.23h0a15.28,15.28,0,0,0-14.22-.29h0a15.27,15.27,0,0,1-21.82-16.55h0A15.27,15.27,0,0,0,998,986.78h0a15.27,15.27,0,0,1,9-25.87h0a15.26,15.26,0,0,0,11.67-8.12h0a15.27,15.27,0,0,1,27.38.57h0a15.29,15.29,0,0,0,11.33,8.59h0a15.27,15.27,0,0,1,7.92,26.22h0a15.28,15.28,0,0,0-4.67,13.42h0A15.27,15.27,0,0,1,1038.19,1017.23Z"/><path class="cls-7" d="M569,867.54l24.19-38.25c15.15,7.84,24.53,22.47,24.53,38.25,0,24.18-22,44.07-48.72,44.07s-48.72-19.89-48.72-44.07c0-18.54,13-35.19,32.24-41.47Z"/><path class="cls-7" d="M742,867.54l24.19-38.25c15.15,7.84,24.53,22.47,24.53,38.25,0,24.18-22,44.07-48.72,44.07s-48.72-19.89-48.72-44.07c0-18.54,13-35.19,32.24-41.47Z"/><path class="cls-7" d="M666.19,1013.23h0a15.28,15.28,0,0,0-14.22-.29h0a15.27,15.27,0,0,1-21.82-16.55h0A15.27,15.27,0,0,0,626,982.78h0a15.27,15.27,0,0,1,9-25.87h0a15.26,15.26,0,0,0,11.67-8.12h0a15.27,15.27,0,0,1,27.38.57h0A15.29,15.29,0,0,0,685.42,958h0a15.27,15.27,0,0,1,7.92,26.22h0a15.28,15.28,0,0,0-4.67,13.42h0A15.27,15.27,0,0,1,666.19,1013.23Z"/><path class="cls-7" d="M1320,868.54l-24.19,38.26c-15.15-7.84-24.53-22.47-24.53-38.26,0-24.17,22-44.07,48.72-44.07s48.72,19.9,48.72,44.07c0,18.55-13,35.2-32.24,41.48Z"/><path class="cls-7" d="M1493,868.54l-24.19,38.26c-15.15-7.84-24.53-22.47-24.53-38.26,0-24.17,22-44.07,48.72-44.07s48.72,19.9,48.72,44.07c0,18.55-13,35.2-32.24,41.48Z"/><path class="cls-7" d="M1417.19,1014.23h0a15.28,15.28,0,0,0-14.22-.29h0a15.27,15.27,0,0,1-21.82-16.55h0a15.27,15.27,0,0,0-4.11-13.61h0a15.27,15.27,0,0,1,9-25.87h0a15.26,15.26,0,0,0,11.67-8.12h0a15.27,15.27,0,0,1,27.38.57h0a15.29,15.29,0,0,0,11.33,8.59h0a15.27,15.27,0,0,1,7.92,26.22h0a15.28,15.28,0,0,0-4.67,13.42h0A15.27,15.27,0,0,1,1417.19,1014.23Z"/></g></svg>