<svg id="Capa_1" data-name="Capa 1" xmlns="http://www.w3.org/2000/svg" viewBox="0 0 1934 1523"><defs><style>.cls-1{fill:#3d3228;}.cls-2{fill:#963;}.cls-3,.cls-4{fill:none;stroke:#fff;stroke-miterlimit:10;stroke-width:21.4px;}.cls-4{stroke-linecap:round;}</style></defs><title>design-avatar1</title><path class="cls-1" d="M960.38,1449.22A692.19,692.19,0,0,1,691,119.59a692.19,692.19,0,0,1,538.7,1275.26A687.65,687.65,0,0,1,960.38,1449.22Z"/><path class="cls-2" d="M960.38,83.72a670.17,670.17,0,0,1,376.53,115,675.43,675.43,0,0,1,244,296.36,672.65,672.65,0,0,1-62.08,638.68,675.64,675.64,0,0,1-296.36,244,672.56,672.56,0,0,1-638.68-62.09,675.57,675.57,0,0,1-244-296.35,672.56,672.56,0,0,1,62.09-638.68A675.51,675.51,0,0,1,698.23,136.63,669.26,669.26,0,0,1,960.38,83.72m0-37c-392.4,0-710.5,318.1-710.5,710.5s318.1,710.5,710.5,710.5,710.5-318.1,710.5-710.5-318.11-710.5-710.5-710.5Z"/><polygon class="cls-3" points="601.88 738.54 463.63 598.56 463.63 968.77 601.88 738.54"/><polyline class="cls-3" points="766.74 691.11 647 598.56 647 739.89 637.74 963.56 766.74 807.96"/><line class="cls-3" x1="736.66" y1="743.17" x2="646.99" y2="743.17"/><polyline class="cls-3" points="922.92 598.56 828.63 691.11 922.92 761.1 741.86 968.77"/><polyline class="cls-4" points="1235.28 985.54 1334.2 618.23 1393.38 851.46 1470.38 537.46"/><line class="cls-4" x1="993.49" y1="599.14" x2="993.49" y2="954.89"/><polyline class="cls-3" points="1121.9 761.1 1246.85 761.1 1179.75 954.89 1042.08 761.1 1161.24 599.14 1236.44 691.11"/><line class="cls-4" x1="993.49" y1="537.82" x2="993.49" y2="537.82"/></svg>