<svg xmlns="http://www.w3.org/2000/svg" xmlns:xlink="http://www.w3.org/1999/xlink" viewBox="0 0 1920 1080"><defs><style>.cls-1{fill:#184c98;}.cls-2{fill:#3c3c48;}.cls-3{fill:#545353;}.cls-4{fill:blue;}.cls-5{fill:red;}.cls-6{fill:#ff0;}.cls-7{fill:lime;}.cls-8{fill:url(#Degradado_sin_nombre_31);}.cls-9{font-size:172px;font-family:RussoOne-Regular, Russo One;}</style><radialGradient id="Degradado_sin_nombre_31" cx="906.75" cy="500.92" r="21.25" gradientUnits="userSpaceOnUse"><stop offset="0.08" stop-color="#fff"/><stop offset="0.21" stop-color="#fcfcfc"/><stop offset="0.33" stop-color="#f1f1f1"/><stop offset="0.43" stop-color="#e0e0e0"/><stop offset="0.53" stop-color="#c7c7c7"/><stop offset="0.63" stop-color="#a7a7a7"/><stop offset="0.73" stop-color="gray"/><stop offset="0.82" stop-color="#515151"/><stop offset="0.91" stop-color="#1d1d1d"/><stop offset="0.96"/></radialGradient></defs><title>gaming-portada</title><g id="Capa_1" data-name="Capa 1"><rect class="cls-1" x="-236.62" y="-109.28" width="2394" height="1299"/><path d="M1484.41,746.39,1370.36,415a65.39,65.39,0,0,0-54.14-43.65l-321.11-38a298.79,298.79,0,0,0-70.22,0L776.07,351l-172.29,20.4A65.39,65.39,0,0,0,549.64,415l-114,331.35a128.43,128.43,0,0,0,79,163l26,9.1A100,100,0,0,0,659.1,876.14l69-113.19a116.36,116.36,0,0,1,90.14-55.45h283.56A116.36,116.36,0,0,1,1191.92,763l69,113.19a100,100,0,0,0,118.46,42.37l26-9.1A128.43,128.43,0,0,0,1484.41,746.39Z"/><path class="cls-2" d="M776.5,351.17h0l-169,20,68.19-31.62A84,84,0,0,1,776.5,351.17Z"/><path class="cls-2" d="M1143.5,351.17h0l169,20-68.19-31.62A84,84,0,0,0,1143.5,351.17Z"/><circle class="cls-3" cx="968" cy="413.67" r="47.5"/><circle class="cls-4" cx="1220.25" cy="499.42" r="32.75"/><circle class="cls-5" cx="1336.77" cy="499.42" r="32.75"/><circle class="cls-6" cx="1278.51" cy="441.16" r="32.75"/><circle class="cls-7" cx="1278.51" cy="557.68" r="32.75"/><circle class="cls-2" cx="776.25" cy="614.42" r="71.75"/><ellipse class="cls-2" cx="642" cy="474.67" rx="73" ry="72"/><ellipse cx="642" cy="474.67" rx="45" ry="46"/><ellipse class="cls-2" cx="1115" cy="614.67" rx="73" ry="72"/><ellipse cx="1115" cy="614.67" rx="45" ry="46"/><circle class="cls-8" cx="906.75" cy="500.92" r="21.25"/><circle class="cls-3" cx="906.75" cy="500.92" r="21.25"/><circle class="cls-3" cx="1028.43" cy="501.23" r="21.25"/><path d="M835,604.46l-38.86-2c-5.51,0-8-2.46-8-8l-2-38.86a10,10,0,0,0-10-10h0a10,10,0,0,0-10,10l-2,38.86c0,5.5-2.46,8-8,8l-38.86,2a10,10,0,0,0-10,10h0a10,10,0,0,0,10,10l38.86,2c5.51,0,8,2.46,8,8l2,38.86a10,10,0,0,0,10,10h0a10,10,0,0,0,10-10l2-38.86c0-5.5,2.46-8,8-8l38.86-2a10,10,0,0,0,10-10h0A10,10,0,0,0,835,604.46Z"/></g><g id="TEXTO"><text class="cls-9" transform="translate(602.24 219.55)">GAMING</text></g></svg>