<svg xmlns="http://www.w3.org/2000/svg" viewBox="0 0 307.71 265.66"><defs><style>.cls-1{fill:#fcfcfc;}</style></defs><title>gato1</title><g id="Capa_2" data-name="Capa 2"><g id="gato"><path d="M306.86,21.8c-6.64-51.61-56.22.6-81.81,31.6A53.29,53.29,0,0,1,184,72.8H123.73A53.29,53.29,0,0,1,82.66,53.4C57.07,22.4,7.49-29.81.86,21.8-6.94,82.44,40,194.1,80.05,243.69a53,53,0,0,0,37.5,19.51l32.52,2.33a53.13,53.13,0,0,0,7.57,0l32.53-2.33a53,53,0,0,0,37.49-19.51C267.67,194.1,314.65,82.44,306.86,21.8Z"/><polygon class="cls-1" points="141.19 134.35 93.87 96.39 76.48 121.39 141.19 134.35"/><polygon class="cls-1" points="178.55 134.35 225.88 96.39 243.26 121.39 178.55 134.35"/></g></g></svg>