<svg xmlns="http://www.w3.org/2000/svg" xmlns:xlink="http://www.w3.org/1999/xlink" viewBox="0 0 1920 1080"><defs><style>.cls-1{fill:#184c98;}.cls-2{fill:#3c3c48;}.cls-3{fill:#545353;}.cls-4{fill:blue;}.cls-5{fill:red;}.cls-6{fill:#ff0;}.cls-7{fill:lime;}.cls-8{fill:url(#Degradado_sin_nombre_31);}</style><radialGradient id="Degradado_sin_nombre_31" cx="906.75" cy="414.25" r="21.25" gradientUnits="userSpaceOnUse"><stop offset="0.08" stop-color="#fff"/><stop offset="0.21" stop-color="#fcfcfc"/><stop offset="0.33" stop-color="#f1f1f1"/><stop offset="0.43" stop-color="#e0e0e0"/><stop offset="0.53" stop-color="#c7c7c7"/><stop offset="0.63" stop-color="#a7a7a7"/><stop offset="0.73" stop-color="gray"/><stop offset="0.82" stop-color="#515151"/><stop offset="0.91" stop-color="#1d1d1d"/><stop offset="0.96"/></radialGradient></defs><title>jostik</title><g id="jostik"><rect class="cls-1" x="-197" y="-174" width="2394" height="1299"/><path d="M1484.41,659.72,1370.36,328.37a65.38,65.38,0,0,0-54.14-43.65l-321.11-38a298.79,298.79,0,0,0-70.22,0L776.07,264.32l-172.29,20.4a65.38,65.38,0,0,0-54.14,43.65l-114,331.35a128.42,128.42,0,0,0,79,163l26,9.11A100.06,100.06,0,0,0,659.1,789.47l69-113.19a116.36,116.36,0,0,1,90.14-55.45h283.56a116.36,116.36,0,0,1,90.14,55.45l69,113.19a100.06,100.06,0,0,0,118.46,42.37l26-9.11A128.42,128.42,0,0,0,1484.41,659.72Z"/><path class="cls-2" d="M776.5,264.5h0l-169,20,68.19-31.62A84,84,0,0,1,776.5,264.5Z"/><path class="cls-2" d="M1143.5,264.5h0l169,20-68.19-31.62A84,84,0,0,0,1143.5,264.5Z"/><circle class="cls-3" cx="968" cy="327" r="47.5"/><circle class="cls-4" cx="1220.25" cy="412.75" r="32.75"/><circle class="cls-5" cx="1336.77" cy="412.75" r="32.75"/><circle class="cls-6" cx="1278.51" cy="354.49" r="32.75"/><circle class="cls-7" cx="1278.51" cy="471.01" r="32.75"/><circle class="cls-2" cx="776.25" cy="527.75" r="71.75"/><ellipse class="cls-2" cx="642" cy="388" rx="73" ry="72"/><ellipse cx="642" cy="388" rx="45" ry="46"/><ellipse class="cls-2" cx="1115" cy="528" rx="73" ry="72"/><ellipse cx="1115" cy="528" rx="45" ry="46"/><circle class="cls-8" cx="906.75" cy="414.25" r="21.25"/><circle class="cls-3" cx="906.75" cy="414.25" r="21.25"/><circle class="cls-3" cx="1028.43" cy="414.56" r="21.25"/><path d="M835,517.79l-38.86-2c-5.51,0-8-2.46-8-8l-2-38.86a10,10,0,0,0-10-10h0a10,10,0,0,0-10,10l-2,38.86c0,5.51-2.46,8-8,8l-38.86,2a10,10,0,0,0-10,10h0a10,10,0,0,0,10,10l38.86,2c5.51,0,8,2.46,8,8l2,38.86a10,10,0,0,0,10,10h0a10,10,0,0,0,10-10l2-38.86c0-5.51,2.46-8,8-8l38.86-2a10,10,0,0,0,10-10h0A10,10,0,0,0,835,517.79Z"/></g></svg>