<svg xmlns="http://www.w3.org/2000/svg" viewBox="0 0 2121 1840"><defs><style>.cls-1{fill:#8bf6ff;}.cls-2{fill:#040006;}</style></defs><title>logo-pereyra-project-avatar1</title><g id="Capa_2" data-name="Capa 2"><path class="cls-1" d="M1060.5,1612a689.77,689.77,0,1,1,269.35-54.37A687.61,687.61,0,0,1,1060.5,1612Z"/><path d="M1060.5,246.5A670.07,670.07,0,0,1,1437,361.5a675.66,675.66,0,0,1,244.06,296.35A672.52,672.52,0,0,1,1619,1296.53a675.66,675.66,0,0,1-296.35,244.06A672.52,672.52,0,0,1,684,1478.5a675.66,675.66,0,0,1-244.06-296.35A672.52,672.52,0,0,1,502,543.47,675.66,675.66,0,0,1,798.35,299.41,669.26,669.26,0,0,1,1060.5,246.5m0-37C668.1,209.5,350,527.6,350,920s318.1,710.5,710.5,710.5S1771,1312.4,1771,920s-318.1-710.5-710.5-710.5Z"/><g id="Layer_1" data-name="Layer 1"><path class="cls-2" d="M1385.15,1020.74a921.1,921.1,0,0,0,39.15,94.58c8,16.6,26.39.28,18.18-16.59a892.65,892.65,0,0,1-39.15-94.59c-6.64-18.8-24.82-1.93-18.18,16.6Z"/><path class="cls-2" d="M1382.88,1248.63a568.86,568.86,0,0,0,60.65-67.48c10.48-13.56-4.37-36.79-14.86-23.51a535.43,535.43,0,0,1-56.45,62.22C1360.69,1230.93,1371.17,1259.69,1382.88,1248.63Z"/><path class="cls-2" d="M1312.63,1089.88c35.82,53.1,75.15,100.12,117.09,140.22,11.53,11.06,22.19-17.7,10.49-28.77-40.55-38.44-78.47-83.8-112.9-135-9.79-14.66-24.64,8.85-14.68,23.51Z"/><path class="cls-2" d="M1346,1147.13c8.21-18.53,23.59-30.15,35.47-42.32,14-14.38,28-28.76,42.12-43.14,11.36-11.62.88-40.38-10.48-28.77l-47.71,49c-13.63,14.1-27.79,27.1-37.4,48.4-7.87,17.7,10.31,34.29,18,16.87Z"/><path class="cls-2" d="M1118.29,987.27c1.75,57.8,2.45,115.88,1.75,173.69-.18,21.29,20.8,21.29,21,0,.7-57.81.18-115.89-1.75-173.69C1138.56,966,1117.59,966,1118.29,987.27Z"/><path class="cls-2" d="M1030,1024.61c42.81,12.72,82.66,43.14,125.83,55,13.28,3.6,18.87-28.48,5.59-32.08-43-11.89-82.84-42-125.83-55C1022.52,988.65,1016.75,1020.74,1030,1024.61Z"/><path class="cls-2" d="M1038.43,1000.27c5.59,19.64,11,39.27,16.25,59.19,2.1,8.29,7,14.1,12.93,11.61,4.89-2.21,9.44-12.17,7.34-20.46-5.77-22.68-11.88-44.81-18.35-67.21-5.59-19.36-23.77-2.49-18.17,16.87Z"/><path class="cls-2" d="M1060.45,1233.14q48.75-53.92,97-109c10.83-12.44.35-41.21-10.66-28.76q-48.24,55.17-97,109c-10.83,12.17-.34,40.93,10.67,28.76Z"/><path class="cls-2" d="M1024.62,1177.83a571.83,571.83,0,0,0,54,63.05c11.36,11.34,22-17.42,10.49-28.76a489.45,489.45,0,0,1-49.64-58.08c-10.13-13.55-25,10-14.85,23.79Z"/><path class="cls-2" d="M906.65,995.29c21.32,58.08,47,111.74,75.15,162.07,8.91,16,23.77-7.47,14.86-23.51a1072.39,1072.39,0,0,1-71.83-155.43c-6.64-18.25-24.82-1.66-18.18,16.87Z"/><path class="cls-2" d="M891.62,1135.79c-.17-2.49,5.77-11.34,7.17-13.83,2.62-5,5.24-10,8-14.93l18.35-33.19a720.23,720.23,0,0,0,33.38-66.38c7.51-17.7-10.49-34.29-18.18-16.59-11.36,26.55-24.81,50.33-38.27,74.39-6.47,11.62-12.93,23.24-19.22,35.4-5.07,9.68-13.46,21.85-12.41,35.4,1.75,21,22.89,21.3,21.14-.27Z"/><path class="cls-2" d="M936,1245.31c22.55-38.72,42.3-81.31,59.07-126.67,6.82-18.53-11.18-35.12-18.17-16.59a770.29,770.29,0,0,1-55.75,120c-9.26,15.49,5.59,39,14.85,23.23Z"/><path class="cls-2" d="M869.25,1105.09c27.62,45.36,56.45,88.5,86.51,130,10.14,14.1,25-9.41,14.86-23.51q-44.83-62.23-86.51-130c-9.44-15.21-24.12,8-14.86,23.51Z"/><path class="cls-2" d="M1157.09,571.31c15.55,54.49,36.52,104.82,55.57,156,6.82,18.25,25,1.66,18.18-16.87-19.22-51.44-40-101.5-55.58-156-5.59-19.08-23.76-2.49-18.17,16.87Z"/><path class="cls-2" d="M543.15,617.78c22,40.93,44.21,81.86,71.3,114.77,13.28,16.32,28.14,29.32,40.72,47a280.81,280.81,0,0,1,32,61.4c7.17,18,25.34,1.38,18.18-16.87a337.92,337.92,0,0,0-30.94-61.68c-12.75-19.36-27.78-33.74-42.11-50.06C603.79,679.73,580.72,636.31,558,594c-8.56-16-23.42,7.75-14.85,23.79Z"/><path class="cls-2" d="M509.59,657.88l176.86-5.81-5.24-31c-42.29,50.61-96.12,70-136.14,126.11-10.14,14.11,4.72,37.61,14.85,23.51C598.37,716.79,651,698.53,691.7,649.86c7.69-9.13,6.11-31.25-5.25-31l-176.86,5.81C496.14,625,496.14,658.16,509.59,657.88Z"/><path class="cls-2" d="M587.89,982.29c21.32,41.76,43,84.08,69.73,117.82,13.1,16.59,27.61,30.42,39.84,48.4,12.24,18.25,22.72,39.55,31.11,62.5,6.82,18.26,25,1.66,18.18-16.87a338.39,338.39,0,0,0-30.06-62.78c-12.59-19.91-27.44-34.84-41.6-51.72-28-34-50.33-77.71-72.17-120.86-8.57-16.31-23.42,7.2-15,23.51Z"/><path class="cls-2" d="M553.81,1020.74l176.86,1.1-5.25-31c-43,48.95-97.16,66.1-137.88,120.86-10.31,13.83,4.54,37.33,14.85,23.5,39.15-52.54,92.28-68.31,133.7-115.6,8-9.13,5.76-31-5.25-31L554,987.55c-13.63,0-13.63,33.19-.17,33.19Z"/><path class="cls-2" d="M794.46,608.65a1020.47,1020.47,0,0,0-2.28,171.47c1.58,21,22.55,21.3,21,0a971,971,0,0,1,1.57-162.62c1.92-21-18.18-29.87-20.27-8.85Z"/><path class="cls-2" d="M778.38,836A980.11,980.11,0,0,1,883.76,729c11.88-10.24,1.22-39-10.66-28.77a981.11,981.11,0,0,0-105.38,107C757.23,820,767.54,849,778.38,836Z"/><path class="cls-2" d="M756.36,608.1C780.3,630.5,806,647.65,832.9,659c13.11,5.53,18.7-26.56,5.6-32.09-25.17-10.51-49.11-26.27-71.48-47.57-11.54-11.06-22.2,17.7-10.66,28.77Z"/><path class="cls-2" d="M776.28,722.6a116.42,116.42,0,0,0,52.08-7.19c13.11-5,7.52-36.79-5.59-32.09a100.14,100.14,0,0,1-46.66,6.09C762.65,688,762.82,721.21,776.28,722.6Z"/><path class="cls-2" d="M1244,1065a1021.19,1021.19,0,0,0-4.9,171.47c1.23,21,22.2,21.29,21,0a972,972,0,0,1,4.2-162.62c2.27-21-17.83-29.87-20.27-8.85Z"/><path class="cls-2" d="M1224.72,1290.94c34.08-38.16,69.91-72.73,107.13-102.88,12.06-10,1.4-38.44-10.48-28.76a962,962,0,0,0-107.13,102.88c-11,12.45-.53,41.21,10.48,28.76Z"/><path class="cls-2" d="M1206.37,1062.5c23.6,23.51,48.94,41.48,75.67,53.65,12.94,6.09,18.53-26,5.6-32.08-25-11.34-48.76-28.21-70.78-50.34-11.36-11.33-21.85,17.43-10.49,28.77Z"/><path class="cls-2" d="M1224.37,1177.55a116.37,116.37,0,0,0,52.26-5.25c13.1-4.43,7.69-36.51-5.6-32.09a103.24,103.24,0,0,1-46.66,4.15c-13.45-1.66-13.45,31.53,0,33.19Z"/><path class="cls-2" d="M1077.4,610a1020.47,1020.47,0,0,0-2.27,171.47c1.57,21,22.54,21.3,21,0a971,971,0,0,1,1.57-162.62c1.92-21-18.35-30.14-20.27-8.85Z"/><path class="cls-2" d="M1061.14,837.37a981.08,981.08,0,0,1,105.39-107c11.88-10.23,1.22-39-10.49-28.76a980.11,980.11,0,0,0-105.38,107c-10.66,12.72-.35,41.48,10.48,28.76Z"/><path class="cls-2" d="M1039.3,609.2c23.77,22.4,49.63,39.55,76.37,50.89,13.11,5.53,18.7-26.55,5.59-32.08-25.16-10.51-49.11-26.27-71.48-47.57C1038.25,569.65,1027.76,598.42,1039.3,609.2Z"/><path class="cls-2" d="M1059.05,724a117.52,117.52,0,0,0,52.25-7.19c13.11-5,7.52-37.06-5.59-32.08a100.27,100.27,0,0,1-46.66,6.08c-13.46-1.38-13.46,31.81,0,33.19Z"/><path class="cls-2" d="M890.4,571.31c-4.37,14.38-2.62,26.55,1.22,40.66,4.37,16,8.92,32.08,13.46,47.84l27.44,98.46c5.42,19.36,23.42,2.77,18.17-16.59l-21.84-78.55-10.66-37.89c-1.92-6.63-3.85-13.55-5.59-20.19-.88-3-5.07-13.55-4-17.42,5.76-18.81-12.41-35.68-18.18-16.32Z"/><path class="cls-2" d="M881.84,617A634.25,634.25,0,0,0,984.6,653.73c13.28,3.6,18.87-28.49,5.59-32.08a661,661,0,0,1-102.76-36.78c-13.11-5.81-18.7,26.27-5.59,32.08Z"/><path class="cls-2" d="M971.32,585.14a891.85,891.85,0,0,1-58.9,105.65c-9.61,14.94,5.24,38.44,14.86,23.51a959.38,959.38,0,0,0,62.21-112.56C997.53,584.59,979.36,568,971.32,585.14Z"/><path class="cls-2" d="M902.11,684.43l87.38,65.82c12.06,9.13,22.72-19.36,10.66-28.76L912.6,655.67c-12.06-9.13-22.55,19.63-10.49,28.76Z"/><path class="cls-2" d="M746.75,1016c-4.37,13.56-3.15,25.73.35,39.28,4.19,16.31,8.38,32.36,12.58,48.4q12.59,48.52,25.34,97.07c5.07,19.36,25.34,11.06,20.27-8.85L784,1110.34l-10.66-40.93c-1.75-6.91-3.5-13.55-5.24-20.46-.88-3.32-4.37-12.73-3.15-16.32,6.29-19.08-11.88-35.68-18.17-16.6Z"/><path class="cls-2" d="M737.83,1061.11a668.84,668.84,0,0,0,102.24,40.66c13.11,4.15,18.87-27.93,5.59-32.08a643.27,643.27,0,0,1-102.23-40.93c-12.94-6.09-18.53,26-5.6,32.35Z"/><path class="cls-2" d="M829.06,1029.59a876.09,876.09,0,0,1-62.22,106.75c-10,14.66,4.9,37.89,14.86,23.51a875.42,875.42,0,0,0,62.21-106.76c8.22-16.59-6.46-40.37-14.85-23.5Z"/><path class="cls-2" d="M757.06,1129.43l86.33,69.14c12.06,9.68,22.54-19.08,10.49-28.76l-86.34-69.15c-11.88-9.4-22.72,19.09-10.48,28.77Z"/><path class="cls-2" d="M1256.35,574.08c-4.36,14.38-2.62,26.55,1.23,40.65,4.37,16,8.91,32.09,13.45,47.85,9.09,32.91,18.35,65.55,27.44,98.46,5.42,19.64,23.6,2.76,18.18-16.6L1294.8,665.9,1284.14,628c-1.92-6.64-3.67-13.55-5.59-20.19-.87-3.32-5.07-13.55-4-17.42,5.77-18.81-12.23-35.4-18.18-16.32Z"/><path class="cls-2" d="M1250.24,623A632.35,632.35,0,0,0,1353,659.81c13.28,3.6,18.87-28.48,5.59-32.08A659.92,659.92,0,0,1,1255.83,591C1242.9,585.14,1237.31,617.22,1250.24,623Z"/><path class="cls-2" d="M1337.27,587.91a891.23,891.23,0,0,1-58.9,105.65c-9.61,14.93,5.25,38.44,14.86,23.5a960.07,960.07,0,0,0,62.22-112.56C1363.48,587.63,1345.31,571,1337.27,587.91Z"/><path class="cls-2" d="M1268.06,687.2,1355.45,753c12,9.12,22.71-19.64,10.66-28.76l-87.39-65.83C1266.49,649.58,1256,678.07,1268.06,687.2Z"/><path class="cls-2" d="M1256.35,574.08c-4.36,14.38-2.62,26.55,1.23,40.65,4.37,16,8.91,32.09,13.45,47.85,9.09,32.91,18.35,65.55,27.44,98.46,5.42,19.64,23.6,2.76,18.18-16.6L1294.8,665.9,1284.14,628c-1.92-6.64-3.67-13.55-5.59-20.19-.87-3.32-5.07-13.55-4-17.42,5.77-18.81-12.23-35.4-18.18-16.32Z"/><path class="cls-2" d="M1250.24,623A632.35,632.35,0,0,0,1353,659.81c13.28,3.6,18.87-28.48,5.59-32.08A659.92,659.92,0,0,1,1255.83,591C1242.9,585.14,1237.31,617.22,1250.24,623Z"/><path class="cls-2" d="M1337.27,587.91a891.23,891.23,0,0,1-58.9,105.65c-9.61,14.93,5.25,38.44,14.86,23.5a960.07,960.07,0,0,0,62.22-112.56C1363.48,587.63,1345.31,571,1337.27,587.91Z"/><path class="cls-2" d="M1268.06,687.2,1355.45,753c12,9.12,22.71-19.64,10.66-28.76l-87.39-65.83C1266.49,649.58,1256,678.07,1268.06,687.2Z"/><path class="cls-2" d="M1192,792.57c3.5-13,8.91-24.34,13.46-36.23a352.21,352.21,0,0,0,11.88-37.89c3.15-12.45,5.77-25.17,7.87-38.45,2.27-14.38,5.59-21.29,13.28-29.31,11-11.89.52-40.93-10.66-28.76-7.34,8-14.51,16.31-18.7,29.31-4.37,13.83-5.59,30.15-8.91,44.81-7,31.52-20.63,57-28.67,87.39-2.27,8.3,2.45,18.25,7.34,20.47,6.12,3,10.84-3,13.11-11.34Z"/><path class="cls-2" d="M1394.77,818.56l55.57-120.3c16.6-35.68,36-71.91,41.07-117,2.45-20.74-17.83-29.87-20.27-8.85-4.9,43.42-25,78.82-41.07,113.39l-53.48,115.88c-7.86,17.43,10.31,34,18.18,16.87Z"/><path class="cls-2" d="M1423.25,574.63,1530,886.88c6.47,18.8,24.47,1.93,18.18-16.87L1441.43,557.76c-6.29-18.53-24.47-1.93-18.18,16.87Z"/><path class="cls-2" d="M1399.49,730.89c8.91,5.81,18.35,5.26,27.78,5l36-1.93,70.26-3.32c13.46-.56,13.46-33.74,0-33.19l-66.76,3.32-32.51,1.66c-9.78.55-19.92,2.76-29.18-3.32C1392.67,690.79,1387.25,722.87,1399.49,730.89Z"/><path class="cls-2" d="M1482.32,1255.27c.53-18,4.9-36.51,8.22-53.66,4.19-20.74,8.74-41.21,14-61.12,15.55-59.74,33.9-117.82,50.85-176.45,5.6-19.36-12.58-36.23-18.17-16.87-17.65,61.4-36.88,122-53,184.47-5.25,20.74-10,41.76-14.34,62.78-3.84,19.64-8,40.1-8.73,60.57-.53,21.57,20.44,21.57,21.14.28Z"/><path class="cls-2" d="M1443.35,1009.4c57,10.78,111,45.08,168.12,55.31,13.46,2.49,13.28-30.7,0-33.19-57-10.23-111-44.53-168.12-55.31C1429.89,973.72,1430.07,1006.91,1443.35,1009.4Z"/></g></g></svg>