<svg xmlns="http://www.w3.org/2000/svg" viewBox="0 0 246.71 94.02"><title>logo-iniciales_1</title><g id="Capa_2" data-name="Capa 2"><g id="logo-iniciales"><g id="Layer_1" data-name="Layer 1"><path d="M25,10.53c12.59,14.8,25.3,29.6,40.8,41.5,7.6,5.9,16.1,10.6,23.3,17a97.6,97.6,0,0,1,18.3,22.2c4.1,6.5,14.5.5,10.4-6.1a115,115,0,0,0-17.7-22.3c-7.3-7-15.9-12.2-24.1-18.1-16.3-11.8-29.5-27.5-42.5-42.8-4.91-5.8-13.41,2.8-8.5,8.6Z"/><path d="M5.78,25,107,22.93l-3-11.2C79.78,30,49,37,26.07,57.33c-5.8,5.1,2.7,13.6,8.5,8.5,22-19.5,52.1-26.1,75.41-43.7,4.4-3.3,3.5-11.3-3-11.2L5.78,13C-1.93,13.13-1.93,25.13,5.78,25Z"/></g><g id="Layer_1-2" data-name="Layer 1"><path d="M153,10.53c12.59,14.8,25.3,29.6,40.8,41.5,7.6,5.9,16.1,10.6,23.3,17a97.6,97.6,0,0,1,18.3,22.2c4.1,6.5,14.5.5,10.4-6.1a115,115,0,0,0-17.7-22.3c-7.3-7-15.9-12.2-24.1-18.1-16.3-11.8-29.5-27.5-42.5-42.8-4.91-5.8-13.41,2.8-8.5,8.6Z"/><path d="M133.78,25,235,22.93l-3-11.2C207.78,30,177,37,154.07,57.33c-5.8,5.1,2.7,13.6,8.5,8.5,22-19.5,52.1-26.1,75.41-43.7,4.4-3.3,3.5-11.3-3-11.2L133.78,13C126.07,13.13,126.07,25.13,133.78,25Z"/></g></g></g></svg>