<svg xmlns="http://www.w3.org/2000/svg" xmlns:xlink="http://www.w3.org/1999/xlink" viewBox="0 0 1920 1080"><defs><style>.cls-1{fill:#0a0202;}.cls-2,.cls-9{fill:#fff;}.cls-3{fill:url(#Degradado_sin_nombre_27);}.cls-4,.cls-6{fill:none;stroke:#333232;stroke-miterlimit:10;}.cls-4{stroke-width:5.05px;}.cls-5{fill:#fc3;}.cls-6{stroke-width:2.04px;}.cls-7{fill:#333232;}.cls-8,.cls-9{font-size:115.65px;font-family:BowlbyOneSC-Regular, Bowlby One SC;}</style><radialGradient id="Degradado_sin_nombre_27" cx="959.58" cy="539.81" r="322" gradientUnits="userSpaceOnUse"><stop offset="0" stop-color="blue"/><stop offset="0" stop-color="#0505ff"/><stop offset="0.06" stop-color="#3f3fff"/><stop offset="0.12" stop-color="#7272ff"/><stop offset="0.18" stop-color="#9d9dff"/><stop offset="0.24" stop-color="#c1c1ff"/><stop offset="0.3" stop-color="#dcdcff"/><stop offset="0.36" stop-color="#f0f0ff"/><stop offset="0.42" stop-color="#fbfbff"/><stop offset="0.48" stop-color="#fff"/><stop offset="0.56" stop-color="#fcfcfc"/><stop offset="0.62" stop-color="#f1f1f1"/><stop offset="0.67" stop-color="#e0e0e0"/><stop offset="0.73" stop-color="#c7c7c7"/><stop offset="0.78" stop-color="#a7a7a7"/><stop offset="0.83" stop-color="gray"/><stop offset="0.88" stop-color="#515151"/><stop offset="0.93" stop-color="#1d1d1d"/><stop offset="0.96"/></radialGradient></defs><title>music-portada</title><g id="Capa_1" data-name="Capa 1"><rect class="cls-1" x="-0.42" y="539.81" width="192" height="180"/><rect class="cls-1" x="191.58" y="719.81" width="192" height="180"/><rect class="cls-1" x="-0.42" y="899.81" width="192" height="180"/><rect class="cls-1" x="575.58" y="719.81" width="192" height="180"/><rect class="cls-1" x="767.58" y="899.81" width="192" height="180"/><rect class="cls-1" x="767.58" y="539.81" width="192" height="180"/><rect class="cls-1" x="1151.58" y="539.81" width="192" height="180"/><rect class="cls-1" x="959.58" y="719.81" width="192" height="180"/><rect class="cls-1" x="1151.58" y="899.81" width="192" height="180"/><rect class="cls-1" x="1343.58" y="719.81" width="192" height="180"/><rect class="cls-1" x="1535.58" y="899.81" width="192" height="180"/><rect class="cls-1" x="1535.58" y="539.81" width="192" height="180"/><rect class="cls-1" x="1727.58" y="719.81" width="192" height="180"/><rect class="cls-1" x="383.58" y="899.81" width="192" height="180"/><rect class="cls-2" x="383.58" y="719.81" width="192" height="180"/><rect class="cls-2" x="575.58" y="539.81" width="192" height="180"/><rect class="cls-2" x="575.58" y="899.81" width="192" height="180"/><rect class="cls-2" x="767.58" y="719.81" width="192" height="180"/><rect class="cls-2" x="959.58" y="539.81" width="192" height="180"/><rect class="cls-2" x="959.58" y="899.81" width="192" height="180"/><rect class="cls-2" x="1151.58" y="719.81" width="192" height="180"/><rect class="cls-2" x="1343.58" y="899.81" width="192" height="180"/><rect class="cls-2" x="1535.58" y="719.81" width="192" height="180"/><rect class="cls-2" x="1727.58" y="899.81" width="192" height="180"/><rect class="cls-2" x="1343.58" y="539.81" width="192" height="180"/><rect class="cls-2" x="1727.58" y="539.81" width="192" height="180"/><rect class="cls-2" x="-0.42" y="719.81" width="192" height="180"/><rect class="cls-2" x="191.58" y="899.81" width="192" height="180"/><rect class="cls-2" x="191.58" y="539.81" width="192" height="180"/><rect class="cls-1" x="383.58" y="539.81" width="192" height="180"/><rect class="cls-1" x="1727.49" y="360.27" width="192" height="180"/><rect class="cls-1" x="1535.58" y="180.17" width="192" height="180"/><rect class="cls-1" x="1727.68" y="0.27" width="192" height="180"/><rect class="cls-1" x="1151.58" y="179.96" width="192" height="180"/><rect class="cls-1" x="959.68" y="-0.14" width="192" height="180"/><rect class="cls-1" x="959.49" y="359.86" width="192" height="180"/><rect class="cls-1" x="575.49" y="359.65" width="192" height="180"/><rect class="cls-1" x="767.58" y="179.75" width="192" height="180"/><rect class="cls-1" x="575.68" y="-0.35" width="192" height="180"/><rect class="cls-1" x="383.58" y="179.55" width="192" height="180"/><rect class="cls-1" x="191.68" y="-0.56" width="192" height="180"/><rect class="cls-1" x="191.49" y="359.44" width="192" height="180"/><rect class="cls-1" x="-0.42" y="179.34" width="192" height="180"/><rect class="cls-1" x="1343.68" y="0.06" width="192" height="180"/><rect class="cls-2" x="1343.58" y="180.06" width="192" height="180"/><rect class="cls-2" x="1151.49" y="359.96" width="192" height="180"/><rect class="cls-2" x="1151.68" y="-0.04" width="192" height="180"/><rect class="cls-2" x="959.58" y="179.86" width="192" height="180"/><rect class="cls-2" x="767.49" y="359.75" width="192" height="180"/><rect class="cls-2" x="767.68" y="-0.25" width="192" height="180"/><rect class="cls-2" x="575.58" y="179.65" width="192" height="180"/><rect class="cls-2" x="383.68" y="-0.45" width="192" height="180"/><rect class="cls-2" x="191.58" y="179.44" width="192" height="180"/><rect class="cls-2" x="-0.32" y="-0.66" width="192" height="180"/><rect class="cls-2" x="383.49" y="359.55" width="192" height="180"/><rect class="cls-2" x="-0.51" y="359.34" width="192" height="180"/><rect class="cls-2" x="1727.58" y="180.27" width="192" height="180"/><rect class="cls-2" x="1535.68" y="0.17" width="192" height="180"/><rect class="cls-2" x="1535.49" y="360.17" width="192" height="180"/><rect class="cls-1" x="1343.49" y="360.06" width="192" height="180"/><circle class="cls-3" cx="959.58" cy="539.81" r="322"/><rect class="cls-1" x="834.39" y="350.42" width="250.38" height="378.78" rx="51.25"/><circle class="cls-4" cx="959.58" cy="570.3" r="91.48"/><circle class="cls-5" cx="959.58" cy="570.3" r="82.26"/><circle class="cls-1" cx="959.58" cy="570.3" r="37.72"/><circle class="cls-6" cx="959.58" cy="426.65" r="36.91"/><circle class="cls-7" cx="959.58" cy="426.65" r="33.19"/><circle class="cls-1" cx="959.58" cy="426.65" r="15.22"/><rect class="cls-7" x="876.93" y="673.02" width="170.13" height="29.69" rx="14.85"/></g><g id="music-text"><text/><text class="cls-8" transform="translate(411.68 130.64) scale(0.99 1)">M</text><text class="cls-9" transform="translate(611.68 126.64) scale(0.99 1)">u</text><text class="cls-8" transform="translate(799.68 126.64) scale(0.99 1)">s</text><text class="cls-9" transform="translate(1022.68 126.64) scale(0.99 1)">i</text><text class="cls-8" transform="translate(1222.68 130.64) scale(0.99 1)">c</text><text class="cls-9" transform="translate(1376.68 130.64) scale(0.99 1)">!!!</text></g></svg>