<svg xmlns="http://www.w3.org/2000/svg" xmlns:xlink="http://www.w3.org/1999/xlink" viewBox="0 0 1920 1080"><defs><style>.cls-1{fill:#0a0202;}.cls-2{fill:#fff;}.cls-3{fill:url(#Degradado_sin_nombre_27);}.cls-4,.cls-6{fill:none;stroke:#333232;stroke-miterlimit:10;}.cls-4{stroke-width:5.05px;}.cls-5{fill:#fcd329;}.cls-6{stroke-width:2.04px;}.cls-7{fill:#333232;}</style><radialGradient id="Degradado_sin_nombre_27" cx="960" cy="540" r="322" gradientUnits="userSpaceOnUse"><stop offset="0" stop-color="blue"/><stop offset="0" stop-color="#0505ff"/><stop offset="0.06" stop-color="#3f3fff"/><stop offset="0.12" stop-color="#7272ff"/><stop offset="0.18" stop-color="#9d9dff"/><stop offset="0.24" stop-color="#c1c1ff"/><stop offset="0.3" stop-color="#dcdcff"/><stop offset="0.36" stop-color="#f0f0ff"/><stop offset="0.42" stop-color="#fbfbff"/><stop offset="0.48" stop-color="#fff"/><stop offset="0.56" stop-color="#fcfcfc"/><stop offset="0.62" stop-color="#f1f1f1"/><stop offset="0.67" stop-color="#e0e0e0"/><stop offset="0.73" stop-color="#c7c7c7"/><stop offset="0.78" stop-color="#a7a7a7"/><stop offset="0.83" stop-color="gray"/><stop offset="0.88" stop-color="#515151"/><stop offset="0.93" stop-color="#1d1d1d"/><stop offset="0.96"/></radialGradient></defs><title>parlante1</title><g id="piso"><rect class="cls-1" y="540" width="192" height="180"/><rect class="cls-1" x="192" y="720" width="192" height="180"/><rect class="cls-1" y="900" width="192" height="180"/><rect class="cls-1" x="576" y="720" width="192" height="180"/><rect class="cls-1" x="768" y="900" width="192" height="180"/><rect class="cls-1" x="768" y="540" width="192" height="180"/><rect class="cls-1" x="1152" y="540" width="192" height="180"/><rect class="cls-1" x="960" y="720" width="192" height="180"/><rect class="cls-1" x="1152" y="900" width="192" height="180"/><rect class="cls-1" x="1344" y="720" width="192" height="180"/><rect class="cls-1" x="1536" y="900" width="192" height="180"/><rect class="cls-1" x="1536" y="540" width="192" height="180"/><rect class="cls-1" x="1728" y="720" width="192" height="180"/><rect class="cls-1" x="384" y="900" width="192" height="180"/><rect class="cls-2" x="384" y="720" width="192" height="180"/><rect class="cls-2" x="576" y="540" width="192" height="180"/><rect class="cls-2" x="576" y="900" width="192" height="180"/><rect class="cls-2" x="768" y="720" width="192" height="180"/><rect class="cls-2" x="960" y="540" width="192" height="180"/><rect class="cls-2" x="960" y="900" width="192" height="180"/><rect class="cls-2" x="1152" y="720" width="192" height="180"/><rect class="cls-2" x="1344" y="900" width="192" height="180"/><rect class="cls-2" x="1536" y="720" width="192" height="180"/><rect class="cls-2" x="1728" y="900" width="192" height="180"/><rect class="cls-2" x="1344" y="540" width="192" height="180"/><rect class="cls-2" x="1728" y="540" width="192" height="180"/><rect class="cls-2" y="720" width="192" height="180"/><rect class="cls-2" x="192" y="900" width="192" height="180"/><rect class="cls-2" x="192" y="540" width="192" height="180"/><rect class="cls-1" x="384" y="540" width="192" height="180"/><rect class="cls-1" x="1727.9" y="360.47" width="192" height="180"/><rect class="cls-1" x="1536" y="180.36" width="192" height="180"/><rect class="cls-1" x="1728.1" y="0.47" width="192" height="180"/><rect class="cls-1" x="1152" y="180.16" width="192" height="180"/><rect class="cls-1" x="960.1" y="0.05" width="192" height="180"/><rect class="cls-1" x="959.9" y="360.05" width="192" height="180"/><rect class="cls-1" x="575.9" y="359.84" width="192" height="180"/><rect class="cls-1" x="768" y="179.95" width="192" height="180"/><rect class="cls-1" x="576.1" y="-0.16" width="192" height="180"/><rect class="cls-1" x="384" y="179.74" width="192" height="180"/><rect class="cls-1" x="192.1" y="-0.36" width="192" height="180"/><rect class="cls-1" x="191.9" y="359.64" width="192" height="180"/><rect class="cls-1" y="179.53" width="192" height="180"/><rect class="cls-1" x="1344.1" y="0.26" width="192" height="180"/><rect class="cls-2" x="1344" y="180.26" width="192" height="180"/><rect class="cls-2" x="1151.9" y="360.16" width="192" height="180"/><rect class="cls-2" x="1152.1" y="0.16" width="192" height="180"/><rect class="cls-2" x="960" y="180.05" width="192" height="180"/><rect class="cls-2" x="767.9" y="359.95" width="192" height="180"/><rect class="cls-2" x="768.1" y="-0.05" width="192" height="180"/><rect class="cls-2" x="576" y="179.84" width="192" height="180"/><rect class="cls-2" x="384.1" y="-0.26" width="192" height="180"/><rect class="cls-2" x="192" y="179.64" width="192" height="180"/><rect class="cls-2" x="0.1" y="-0.47" width="192" height="180"/><rect class="cls-2" x="383.9" y="359.74" width="192" height="180"/><rect class="cls-2" x="-0.1" y="359.53" width="192" height="180"/><rect class="cls-2" x="1728" y="180.47" width="192" height="180"/><rect class="cls-2" x="1536.1" y="0.36" width="192" height="180"/><rect class="cls-2" x="1535.9" y="360.36" width="192" height="180"/><rect class="cls-1" x="1343.9" y="360.26" width="192" height="180"/></g><g id="parlante-music"><circle class="cls-3" cx="960" cy="540" r="322"/><rect class="cls-1" x="834.81" y="350.61" width="250.38" height="378.78" rx="51.25"/><circle class="cls-4" cx="960" cy="570.49" r="91.48"/><circle class="cls-5" cx="960" cy="570.49" r="82.26"/><circle class="cls-1" cx="960" cy="570.49" r="37.72"/><circle class="cls-6" cx="960" cy="426.85" r="36.91"/><circle class="cls-7" cx="960" cy="426.85" r="33.19"/><circle class="cls-1" cx="960" cy="426.85" r="15.22"/><rect class="cls-7" x="877.34" y="673.21" width="170.13" height="29.69" rx="14.85"/></g></svg>