<svg xmlns="http://www.w3.org/2000/svg" viewBox="0 0 1920 1080"><defs><style>.cls-1{fill:#184c98;}.cls-2{fill:#3d3228;}.cls-3,.cls-6{fill:#777272;}.cls-10,.cls-11,.cls-12,.cls-3,.cls-6,.cls-8,.cls-9{stroke:#000;}.cls-10,.cls-11,.cls-12,.cls-14,.cls-16,.cls-3,.cls-6,.cls-7,.cls-8,.cls-9{stroke-miterlimit:10;}.cls-3{stroke-width:11.29px;}.cls-4{fill:#0a0202;}.cls-5,.cls-7{fill:#fff;}.cls-6{stroke-width:1.63px;}.cls-7{stroke:#777272;stroke-width:0.61px;}.cls-8{stroke-width:1.05px;}.cls-9{stroke-width:1.07px;}.cls-10{stroke-width:1.09px;}.cls-11{stroke-width:1.04px;}.cls-12{stroke-width:2.68px;}.cls-13,.cls-14,.cls-16{fill:none;}.cls-14,.cls-16{stroke:#333232;}.cls-14{stroke-width:5.05px;}.cls-15{fill:#fcd329;}.cls-16{stroke-width:2.04px;}.cls-17{fill:#333232;}.cls-18{fill:#1e1c1c;}</style></defs><title>pieza-final</title><g id="pared"><rect class="cls-1" x="-378" y="-143" width="2797" height="1087"/></g><g id="mesa"><rect class="cls-2" x="197" y="636" width="1454" height="32"/></g><g id="pantalla"><rect class="cls-3" x="612" y="82.51" width="766" height="398.32"/><rect x="978.07" y="478.41" width="34.67" height="149.17"/><rect x="986.44" y="357.37" width="16.93" height="540.33" transform="translate(1622.44 -367.37) rotate(90)"/></g><g id="piano"><polygon class="cls-4" points="123.08 955.07 -110.32 955.07 133.89 926.61 317.75 926.61 123.08 955.07"/><polygon class="cls-4" points="104.31 1004.51 -215.19 1004.51 123.08 955.07 356.49 955.07 104.31 1004.51"/><polygon class="cls-4" points="743.3 1004.51 423.81 1004.51 589.9 955.07 823.31 955.07 743.3 1004.51"/><polygon class="cls-4" points="1076 1111.75 569.8 1111.75 743.3 1004.51 1062.8 1004.51 1076 1111.75"/><polygon class="cls-4" points="1056.72 955.07 823.31 955.07 869.35 926.61 1053.21 926.61 1056.72 955.07"/><polygon class="cls-4" points="1523.53 955.07 1290.12 955.07 1237.08 926.61 1420.94 926.61 1523.53 955.07"/><polygon class="cls-4" points="1382.3 1004.51 1062.8 1004.51 1056.72 955.07 1290.12 955.07 1382.3 1004.51"/><polygon class="cls-4" points="2088.4 1111.75 1582.2 1111.75 1382.3 1004.51 1701.8 1004.51 2088.4 1111.75"/><polygon class="cls-4" points="2021.29 1004.51 1701.8 1004.51 1523.53 955.07 1756.94 955.07 2021.29 1004.51"/><polygon class="cls-4" points="1990.35 955.07 1756.94 955.07 1604.81 926.61 1788.67 926.61 1990.35 955.07"/><polygon class="cls-4" points="63.6 1111.75 -442.6 1111.75 104.31 1004.51 423.81 1004.51 63.6 1111.75"/><polygon class="cls-5" points="423.81 1004.51 104.31 1004.51 356.49 955.07 589.9 955.07 423.81 1004.51"/><polygon class="cls-5" points="823.31 955.07 589.9 955.07 685.48 926.61 869.35 926.61 823.31 955.07"/><polygon class="cls-5" points="569.8 1111.75 63.6 1111.75 423.81 1004.51 743.3 1004.51 569.8 1111.75"/><polygon class="cls-5" points="1062.8 1004.51 743.3 1004.51 823.31 955.07 1056.72 955.07 1062.8 1004.51"/><polygon class="cls-5" points="1290.12 955.07 1056.72 955.07 1053.21 926.61 1237.08 926.61 1290.12 955.07"/><polygon class="cls-5" points="1582.2 1111.75 1076 1111.75 1062.8 1004.51 1382.3 1004.51 1582.2 1111.75"/><polygon class="cls-5" points="1701.8 1004.51 1382.3 1004.51 1290.12 955.07 1523.53 955.07 1701.8 1004.51"/><polygon class="cls-5" points="2594.6 1111.75 2088.4 1111.75 1701.8 1004.51 2021.29 1004.51 2594.6 1111.75"/><polygon class="cls-5" points="2340.79 1004.51 2021.29 1004.51 1756.94 955.07 1990.35 955.07 2340.79 1004.51"/><polygon class="cls-5" points="1756.94 955.07 1523.53 955.07 1420.94 926.61 1604.81 926.61 1756.94 955.07"/><polygon class="cls-5" points="2223.76 955.07 1990.35 955.07 1788.67 926.61 1972.54 926.61 2223.76 955.07"/><polygon class="cls-5" points="-215.19 1004.51 -534.68 1004.51 -110.32 955.07 123.08 955.07 -215.19 1004.51"/><polygon class="cls-5" points="-442.6 1111.75 -948.8 1111.75 -215.19 1004.51 104.31 1004.51 -442.6 1111.75"/><polygon class="cls-5" points="356.49 955.07 123.08 955.07 317.75 926.61 501.62 926.61 356.49 955.07"/><polygon class="cls-4" points="589.9 955.07 356.49 955.07 501.62 926.61 685.48 926.61 589.9 955.07"/><rect class="cls-5" x="-3" y="921" width="200" height="23"/><rect class="cls-5" x="413" y="921" width="214" height="23"/><rect class="cls-5" x="841" y="921" width="214" height="23"/><rect class="cls-5" x="1270" y="921" width="214" height="23"/><rect class="cls-5" x="1698" y="921" width="214" height="23"/><rect x="197" y="921" width="216" height="23"/><rect x="626" y="921" width="215" height="23"/><rect x="1060" y="921" width="210" height="23"/><rect x="1484" y="921" width="214" height="23"/><rect x="1912" y="921" width="214" height="23"/><rect x="405.59" y="599.99" width="10.88" height="13.05"/><rect x="429.52" y="599.99" width="10.88" height="13.05"/><rect x="442.03" y="599.99" width="10.88" height="13.05"/><rect x="455.08" y="599.99" width="10.88" height="13.05"/><rect x="389.28" y="599.99" width="10.88" height="13.05"/><rect x="343.06" y="599.99" width="13.05" height="13.05"/><rect x="324.57" y="599.99" width="15.23" height="13.05"/><rect x="491.51" y="599.99" width="10.88" height="13.05"/><rect x="515.43" y="599.99" width="10.88" height="13.05"/><rect x="527.94" y="599.99" width="10.88" height="13.05"/><rect x="540.99" y="599.99" width="10.88" height="13.05"/><rect x="475.19" y="599.99" width="10.88" height="13.05"/><rect x="585.03" y="599.99" width="10.88" height="13.05"/><rect x="608.96" y="599.99" width="10.88" height="13.05"/><rect x="621.46" y="599.99" width="10.88" height="13.05"/><rect x="634.51" y="599.99" width="10.88" height="13.05"/><rect x="568.72" y="599.99" width="10.88" height="13.05"/><rect class="cls-6" x="305" y="602.71" width="371.38" height="34.29"/><rect class="cls-7" x="382.48" y="602.57" width="293.9" height="14.31"/><rect x="394.18" y="550" width="1.09" height="1.09"/><line class="cls-8" x1="401.79" y1="602.71" x2="401.79" y2="616.88"/><line class="cls-9" x1="392.54" y1="601.08" x2="392.54" y2="616.88"/><line class="cls-10" x1="410.49" y1="599.99" x2="410.49" y2="616.88"/><line class="cls-8" x1="419.73" y1="602.71" x2="419.73" y2="615.79"/><line class="cls-8" x1="438.76" y1="602.71" x2="438.76" y2="616.34"/><line class="cls-9" x1="429.52" y1="602.17" x2="429.52" y2="616.34"/><line class="cls-10" x1="447.46" y1="599.99" x2="447.46" y2="616.34"/><line class="cls-8" x1="456.71" y1="602.71" x2="456.71" y2="616.34"/><line class="cls-8" x1="474.65" y1="602.17" x2="474.65" y2="616.34"/><line class="cls-11" x1="465.95" y1="602.71" x2="465.95" y2="616.34"/><line class="cls-9" x1="483.89" y1="601.08" x2="483.89" y2="616.34"/><line class="cls-8" x1="493.14" y1="602.17" x2="493.14" y2="616.34"/><line class="cls-8" x1="512.71" y1="602.17" x2="512.71" y2="616.34"/><line class="cls-9" x1="503.47" y1="602.17" x2="503.47" y2="616.34"/><line class="cls-10" x1="521.41" y1="601.08" x2="521.41" y2="616.34"/><line class="cls-8" x1="530.63" y1="601.63" x2="530.66" y2="616.34"/><line class="cls-8" x1="549.69" y1="602.71" x2="549.69" y2="616.34"/><line class="cls-9" x1="540.44" y1="602.17" x2="540.44" y2="616.34"/><line class="cls-10" x1="558.39" y1="602.71" x2="558.39" y2="616.34"/><line class="cls-8" x1="567.63" y1="602.71" x2="567.63" y2="616.34"/><line class="cls-8" x1="585.58" y1="602.17" x2="585.58" y2="616.34"/><line class="cls-9" x1="576.88" y1="602.71" x2="576.88" y2="616.34"/><line class="cls-10" x1="594.82" y1="601.62" x2="594.82" y2="615.79"/><line class="cls-8" x1="604.06" y1="602.17" x2="604.06" y2="615.79"/><line class="cls-10" x1="611.68" y1="602.17" x2="611.68" y2="615.79"/><line class="cls-8" x1="620.92" y1="602.17" x2="620.92" y2="615.79"/><line class="cls-8" x1="638.86" y1="602.17" x2="638.86" y2="616.34"/><line class="cls-9" x1="630.16" y1="602.17" x2="630.16" y2="615.79"/><line class="cls-8" x1="648.11" y1="602.71" x2="648.11" y2="615.79"/><line class="cls-8" x1="657.35" y1="602.17" x2="657.35" y2="616.34"/><line class="cls-10" x1="665.51" y1="602.17" x2="665.51" y2="615.79"/><line class="cls-12" x1="675.02" y1="602.17" x2="675.02" y2="616.34"/><rect class="cls-13" x="8" width="1909" height="1103"/></g><g id="estante"><rect class="cls-2" x="1398" y="427" width="397" height="32"/><rect class="cls-2" x="100" y="427" width="397" height="32"/></g><g id="paralantes"><rect class="cls-4" x="1468.79" y="48" width="250.38" height="378.78" rx="51.25"/><circle class="cls-14" cx="1593.98" cy="267.88" r="91.48"/><circle class="cls-15" cx="1593.98" cy="267.88" r="82.26"/><circle class="cls-4" cx="1593.98" cy="267.88" r="37.72"/><circle class="cls-16" cx="1593.98" cy="124.24" r="36.91"/><circle class="cls-17" cx="1593.98" cy="124.24" r="33.19"/><circle class="cls-4" cx="1593.98" cy="124.24" r="15.22"/><rect class="cls-17" x="1511.32" y="370.6" width="170.13" height="29.69" rx="14.85"/><rect class="cls-4" x="171" y="48.22" width="250.38" height="378.78" rx="51.25"/><circle class="cls-14" cx="296.19" cy="268.11" r="91.48"/><circle class="cls-15" cx="296.19" cy="268.11" r="82.26"/><circle class="cls-4" cx="296.19" cy="268.11" r="37.72"/><circle class="cls-16" cx="296.19" cy="124.46" r="36.91"/><circle class="cls-17" cx="296.19" cy="124.46" r="33.19"/><circle class="cls-4" cx="296.19" cy="124.46" r="15.22"/><rect class="cls-17" x="213.53" y="370.83" width="170.13" height="29.69" rx="14.85"/></g><g id="sillon"><path class="cls-18" d="M1117.23,961.25l-44.87-35.46h0l-32.45-29.08a.24.24,0,0,1,.17-.42h116.09a39.39,39.39,0,0,0,39.39-39.39V537.25a112.44,112.44,0,0,0-111.73-112.44.5.5,0,0,1-.49-.49V379.6a74,74,0,0,0-74-74H976.16a74,74,0,0,0-74,74v45a.25.25,0,0,1-.25.24h0A112.69,112.69,0,0,0,789.18,537.49v319.4a39.4,39.4,0,0,0,39.39,39.39H946.45a.24.24,0,0,1,.17.42l-29.29,27.64h0l-44.48,37-.12.06C809.73,972.13,768,990.77,768,1012c0,33.14,101.86,60,227.5,60s227.5-26.87,227.5-60c0-21.32-42.15-40-105.66-50.69A.22.22,0,0,1,1117.23,961.25Zm-71.06-7.78c-11.28-.68-22.89-1.13-34.74-1.35a.24.24,0,0,1-.24-.24V922.09a.25.25,0,0,1,.41-.18L1046.34,953A.25.25,0,0,1,1046.17,953.47Zm-103-1.74,30-28.26a.24.24,0,0,1,.41.17V952a.23.23,0,0,1-.23.24q-16.35.42-32,1.43l1.83-2Z"/></g></svg>