<svg xmlns="http://www.w3.org/2000/svg" viewBox="0 0 1920 1080"><defs><style>.cls-1{fill:#0a0202;}.cls-12,.cls-2{fill:#fff;}.cls-3{fill:#184c98;}.cls-4{fill:#3d3228;}.cls-5,.cls-7{fill:none;stroke:#333232;}.cls-11,.cls-12,.cls-13,.cls-14,.cls-15,.cls-16,.cls-17,.cls-5,.cls-7,.cls-9{stroke-miterlimit:10;}.cls-5{stroke-width:5.05px;}.cls-6{fill:#fcd329;}.cls-7{stroke-width:2.04px;}.cls-8{fill:#333232;}.cls-11,.cls-9{fill:#777272;}.cls-11,.cls-13,.cls-14,.cls-15,.cls-16,.cls-17,.cls-9{stroke:#000;}.cls-9{stroke-width:11.29px;}.cls-10{fill:#1e1c1c;}.cls-11{stroke-width:1.63px;}.cls-12{stroke:#777272;stroke-width:0.61px;}.cls-13{stroke-width:1.05px;}.cls-14{stroke-width:1.07px;}.cls-15{stroke-width:1.09px;}.cls-16{stroke-width:1.04px;}.cls-17{stroke-width:2.68px;}</style></defs><title>pieza-para-pagina4</title><g id="piso"><polygon class="cls-1" points="115.08 955.07 -118.32 955.07 125.89 926.61 309.75 926.61 115.08 955.07"/><polygon class="cls-1" points="96.31 1004.51 -223.19 1004.51 115.08 955.07 348.49 955.07 96.31 1004.51"/><polygon class="cls-1" points="735.3 1004.51 415.81 1004.51 581.9 955.07 815.31 955.07 735.3 1004.51"/><polygon class="cls-1" points="1068 1111.75 561.8 1111.75 735.3 1004.51 1054.8 1004.51 1068 1111.75"/><polygon class="cls-1" points="1048.72 955.07 815.31 955.07 861.35 926.61 1045.21 926.61 1048.72 955.07"/><polygon class="cls-1" points="1515.53 955.07 1282.12 955.07 1229.08 926.61 1412.94 926.61 1515.53 955.07"/><polygon class="cls-1" points="1374.3 1004.51 1054.8 1004.51 1048.72 955.07 1282.12 955.07 1374.3 1004.51"/><polygon class="cls-1" points="2080.4 1111.75 1574.2 1111.75 1374.3 1004.51 1693.8 1004.51 2080.4 1111.75"/><polygon class="cls-1" points="2013.29 1004.51 1693.8 1004.51 1515.53 955.07 1748.94 955.07 2013.29 1004.51"/><polygon class="cls-1" points="1982.35 955.07 1748.94 955.07 1596.81 926.61 1780.67 926.61 1982.35 955.07"/><polygon class="cls-1" points="55.6 1111.75 -450.6 1111.75 96.31 1004.51 415.81 1004.51 55.6 1111.75"/><polygon class="cls-2" points="415.81 1004.51 96.31 1004.51 348.49 955.07 581.9 955.07 415.81 1004.51"/><polygon class="cls-2" points="815.31 955.07 581.9 955.07 677.48 926.61 861.35 926.61 815.31 955.07"/><polygon class="cls-2" points="561.8 1111.75 55.6 1111.75 415.81 1004.51 735.3 1004.51 561.8 1111.75"/><polygon class="cls-2" points="1054.8 1004.51 735.3 1004.51 815.31 955.07 1048.72 955.07 1054.8 1004.51"/><polygon class="cls-2" points="1282.12 955.07 1048.72 955.07 1045.21 926.61 1229.08 926.61 1282.12 955.07"/><polygon class="cls-2" points="1574.2 1111.75 1068 1111.75 1054.8 1004.51 1374.3 1004.51 1574.2 1111.75"/><polygon class="cls-2" points="1693.8 1004.51 1374.3 1004.51 1282.12 955.07 1515.53 955.07 1693.8 1004.51"/><polygon class="cls-2" points="2586.6 1111.75 2080.4 1111.75 1693.8 1004.51 2013.29 1004.51 2586.6 1111.75"/><polygon class="cls-2" points="2332.79 1004.51 2013.29 1004.51 1748.94 955.07 1982.35 955.07 2332.79 1004.51"/><polygon class="cls-2" points="1748.94 955.07 1515.53 955.07 1412.94 926.61 1596.81 926.61 1748.94 955.07"/><polygon class="cls-2" points="2215.76 955.07 1982.35 955.07 1780.67 926.61 1964.54 926.61 2215.76 955.07"/><polygon class="cls-2" points="-223.19 1004.51 -542.68 1004.51 -118.32 955.07 115.08 955.07 -223.19 1004.51"/><polygon class="cls-2" points="-450.6 1111.75 -956.8 1111.75 -223.19 1004.51 96.31 1004.51 -450.6 1111.75"/><polygon class="cls-2" points="348.49 955.07 115.08 955.07 309.75 926.61 493.62 926.61 348.49 955.07"/><polygon class="cls-1" points="581.9 955.07 348.49 955.07 493.62 926.61 677.48 926.61 581.9 955.07"/></g><g id="pared"><rect class="cls-3" x="-386" y="-143" width="2797" height="1087"/></g><g id="zocalo"><rect class="cls-2" x="-11" y="921" width="200" height="23"/><rect class="cls-2" x="405" y="921" width="214" height="23"/><rect class="cls-2" x="833" y="921" width="214" height="23"/><rect class="cls-2" x="1262" y="921" width="214" height="23"/><rect class="cls-2" x="1690" y="921" width="214" height="23"/><rect x="189" y="921" width="216" height="23"/><rect x="618" y="921" width="215" height="23"/><rect x="1052" y="921" width="210" height="23"/><rect x="1476" y="921" width="214" height="23"/></g><g id="mesa"><rect class="cls-4" x="189" y="636" width="1454" height="32"/><rect class="cls-4" x="92" y="427" width="397" height="32"/><rect class="cls-4" x="1390" y="427" width="397" height="32"/></g><g id="paralantes"><rect class="cls-1" x="163" y="48.22" width="250.38" height="378.78" rx="51.25"/><circle class="cls-5" cx="288.19" cy="268.11" r="91.48"/><circle class="cls-6" cx="288.19" cy="268.11" r="82.26"/><circle class="cls-1" cx="288.19" cy="268.11" r="37.72"/><circle class="cls-7" cx="288.19" cy="124.46" r="36.91"/><circle class="cls-8" cx="288.19" cy="124.46" r="33.19"/><circle class="cls-1" cx="288.19" cy="124.46" r="15.22"/><rect class="cls-8" x="205.53" y="370.83" width="170.13" height="29.69" rx="14.85"/><rect class="cls-1" x="1460.79" y="48" width="250.38" height="378.78" rx="51.25"/><circle class="cls-5" cx="1585.98" cy="267.88" r="91.48"/><circle class="cls-6" cx="1585.98" cy="267.88" r="82.26"/><circle class="cls-1" cx="1585.98" cy="267.88" r="37.72"/><circle class="cls-7" cx="1585.98" cy="124.24" r="36.91"/><circle class="cls-8" cx="1585.98" cy="124.24" r="33.19"/><circle class="cls-1" cx="1585.98" cy="124.24" r="15.22"/><rect class="cls-8" x="1503.32" y="370.6" width="170.13" height="29.69" rx="14.85"/></g><g id="pantalla"><rect class="cls-9" x="604" y="82.51" width="766" height="398.32"/><rect x="970.07" y="478.41" width="34.67" height="149.17"/><rect x="978.44" y="357.37" width="16.93" height="540.33" transform="translate(1614.44 -359.37) rotate(90)"/></g><g id="sillon"><path class="cls-10" d="M1109.23,961.25l-44.87-35.46h0l-32.45-29.08a.24.24,0,0,1,.17-.42h116.09a39.39,39.39,0,0,0,39.39-39.39V537.25a112.44,112.44,0,0,0-111.73-112.44.5.5,0,0,1-.49-.49V379.6a74,74,0,0,0-74-74H968.16a74,74,0,0,0-74,74v45a.25.25,0,0,1-.25.24h0A112.69,112.69,0,0,0,781.18,537.49v319.4a39.4,39.4,0,0,0,39.39,39.39H938.45a.24.24,0,0,1,.17.42l-29.29,27.64h0l-44.48,37-.12.06C801.73,972.13,760,990.77,760,1012c0,33.14,101.86,60,227.5,60s227.5-26.87,227.5-60c0-21.32-42.15-40-105.66-50.69A.22.22,0,0,1,1109.23,961.25Zm-71.06-7.78c-11.28-.68-22.89-1.13-34.74-1.35a.24.24,0,0,1-.24-.24V922.09a.25.25,0,0,1,.41-.18L1038.34,953A.25.25,0,0,1,1038.17,953.47Zm-103-1.74,30-28.26a.24.24,0,0,1,.41.17V952a.23.23,0,0,1-.23.24q-16.35.42-32,1.43l1.83-2Z"/></g><g id="piano"><rect x="397.59" y="599.99" width="10.88" height="13.05"/><rect x="421.52" y="599.99" width="10.88" height="13.05"/><rect x="434.03" y="599.99" width="10.88" height="13.05"/><rect x="447.08" y="599.99" width="10.88" height="13.05"/><rect x="381.28" y="599.99" width="10.88" height="13.05"/><rect x="335.06" y="599.99" width="13.05" height="13.05"/><rect x="316.57" y="599.99" width="15.23" height="13.05"/><rect x="483.51" y="599.99" width="10.88" height="13.05"/><rect x="507.43" y="599.99" width="10.88" height="13.05"/><rect x="519.94" y="599.99" width="10.88" height="13.05"/><rect x="532.99" y="599.99" width="10.88" height="13.05"/><rect x="467.19" y="599.99" width="10.88" height="13.05"/><rect x="577.03" y="599.99" width="10.88" height="13.05"/><rect x="600.96" y="599.99" width="10.88" height="13.05"/><rect x="613.46" y="599.99" width="10.88" height="13.05"/><rect x="626.51" y="599.99" width="10.88" height="13.05"/><rect x="560.72" y="599.99" width="10.88" height="13.05"/><rect class="cls-11" x="297" y="602.71" width="371.38" height="34.29"/><rect class="cls-12" x="374.48" y="602.57" width="293.9" height="14.31"/><rect x="386.18" y="550" width="1.09" height="1.09"/><line class="cls-13" x1="393.79" y1="602.71" x2="393.79" y2="616.88"/><line class="cls-14" x1="384.54" y1="601.08" x2="384.54" y2="616.88"/><line class="cls-15" x1="402.49" y1="599.99" x2="402.49" y2="616.88"/><line class="cls-13" x1="411.73" y1="602.71" x2="411.73" y2="615.79"/><line class="cls-13" x1="430.76" y1="602.71" x2="430.76" y2="616.34"/><line class="cls-14" x1="421.52" y1="602.17" x2="421.52" y2="616.34"/><line class="cls-15" x1="439.46" y1="599.99" x2="439.46" y2="616.34"/><line class="cls-13" x1="448.71" y1="602.71" x2="448.71" y2="616.34"/><line class="cls-13" x1="466.65" y1="602.17" x2="466.65" y2="616.34"/><line class="cls-16" x1="457.95" y1="602.71" x2="457.95" y2="616.34"/><line class="cls-14" x1="475.89" y1="601.08" x2="475.89" y2="616.34"/><line class="cls-13" x1="485.14" y1="602.17" x2="485.14" y2="616.34"/><line class="cls-13" x1="504.71" y1="602.17" x2="504.71" y2="616.34"/><line class="cls-14" x1="495.47" y1="602.17" x2="495.47" y2="616.34"/><line class="cls-15" x1="513.41" y1="601.08" x2="513.41" y2="616.34"/><line class="cls-13" x1="522.63" y1="601.63" x2="522.66" y2="616.34"/><line class="cls-13" x1="541.69" y1="602.71" x2="541.69" y2="616.34"/><line class="cls-14" x1="532.44" y1="602.17" x2="532.44" y2="616.34"/><line class="cls-15" x1="550.39" y1="602.71" x2="550.39" y2="616.34"/><line class="cls-13" x1="559.63" y1="602.71" x2="559.63" y2="616.34"/><line class="cls-13" x1="577.58" y1="602.17" x2="577.58" y2="616.34"/><line class="cls-14" x1="568.88" y1="602.71" x2="568.88" y2="616.34"/><line class="cls-15" x1="586.82" y1="601.62" x2="586.82" y2="615.79"/><line class="cls-13" x1="596.06" y1="602.17" x2="596.06" y2="615.79"/><line class="cls-15" x1="603.68" y1="602.17" x2="603.68" y2="615.79"/><line class="cls-13" x1="612.92" y1="602.17" x2="612.92" y2="615.79"/><line class="cls-13" x1="630.86" y1="602.17" x2="630.86" y2="616.34"/><line class="cls-14" x1="622.16" y1="602.17" x2="622.16" y2="615.79"/><line class="cls-13" x1="640.11" y1="602.71" x2="640.11" y2="615.79"/><line class="cls-13" x1="649.35" y1="602.17" x2="649.35" y2="616.34"/><line class="cls-15" x1="657.51" y1="602.17" x2="657.51" y2="615.79"/><line class="cls-17" x1="667.02" y1="602.17" x2="667.02" y2="616.34"/></g></svg>