<svg xmlns="http://www.w3.org/2000/svg" viewBox="0 0 4204 2190"><defs><style>.cls-1{fill:#8a9dad;}.cls-2{fill:#9ac8e8;}.cls-3{fill:#090a0a;}.cls-4,.cls-5,.cls-6,.cls-7{fill:#c2d9f3;}.cls-5,.cls-6,.cls-7,.cls-8{stroke:#090a0a;}.cls-16,.cls-5,.cls-6,.cls-7,.cls-8{stroke-miterlimit:10;}.cls-5{stroke-width:28.39px;}.cls-6{stroke-width:27.63px;}.cls-7{stroke-width:27.32px;}.cls-8{font-size:127.17px;stroke-width:7.37px;}.cls-10,.cls-11,.cls-12,.cls-13,.cls-14,.cls-15,.cls-16,.cls-8,.cls-9{font-family:MyriadPro-Regular, Myriad Pro;}.cls-9{font-size:232.76px;}.cls-10{font-size:260.25px;}.cls-11{font-size:235.14px;}.cls-12{font-size:250.79px;}.cls-13{font-size:236.08px;}.cls-14{font-size:232.05px;}.cls-15{font-size:262.46px;}.cls-16{font-size:184.01px;stroke:#000;}.cls-17,.cls-19{stroke-width:8px;}.cls-17,.cls-18{font-size:150px;}</style></defs><title>program</title><g id="program"><rect class="cls-1" width="4204" height="2190"/></g><g id="teclas-program"><rect class="cls-2" x="650.5" y="563.5" width="509" height="509" rx="129.74"/><path class="cls-3" d="M1029.76,579A114.24,114.24,0,0,1,1144,693.24V942.76A114.24,114.24,0,0,1,1029.76,1057H780.24A114.24,114.24,0,0,1,666,942.76V693.24A114.24,114.24,0,0,1,780.24,579h249.52m0-31H780.24A145.24,145.24,0,0,0,635,693.24V942.76A145.24,145.24,0,0,0,780.24,1088h249.52A145.24,145.24,0,0,0,1175,942.76V693.24A145.24,145.24,0,0,0,1029.76,548Z"/><rect class="cls-4" x="739.5" y="652.5" width="332" height="332" rx="68.62"/><path class="cls-3" d="M1002.88,668A53.18,53.18,0,0,1,1056,721.12V915.88A53.18,53.18,0,0,1,1002.88,969H808.12A53.18,53.18,0,0,1,755,915.88V721.12A53.18,53.18,0,0,1,808.12,668h194.76m0-31H808.12A84.12,84.12,0,0,0,724,721.12V915.88A84.12,84.12,0,0,0,808.12,1000h194.76A84.12,84.12,0,0,0,1087,915.88V721.12A84.12,84.12,0,0,0,1002.88,637Z"/><line class="cls-5" x1="1109.5" y1="593.5" x2="1039" y2="675"/><line class="cls-5" x1="701.5" y1="593.5" x2="772" y2="675"/><line class="cls-6" x1="701.5" y1="1042.5" x2="770" y2="963"/><line class="cls-7" x1="1109.5" y1="1042.5" x2="1039" y2="967"/><rect class="cls-2" x="100.5" y="561.5" width="509" height="509" rx="129.74"/><path class="cls-3" d="M479.76,577A114.24,114.24,0,0,1,594,691.24V940.76A114.24,114.24,0,0,1,479.76,1055H230.24A114.24,114.24,0,0,1,116,940.76V691.24A114.24,114.24,0,0,1,230.24,577H479.76m0-31H230.24A145.24,145.24,0,0,0,85,691.24V940.76A145.24,145.24,0,0,0,230.24,1086H479.76A145.24,145.24,0,0,0,625,940.76V691.24A145.24,145.24,0,0,0,479.76,546Z"/><rect class="cls-4" x="189.5" y="650.5" width="332" height="332" rx="68.62"/><path class="cls-3" d="M452.88,666A53.18,53.18,0,0,1,506,719.12V913.88A53.18,53.18,0,0,1,452.88,967H258.12A53.18,53.18,0,0,1,205,913.88V719.12A53.18,53.18,0,0,1,258.12,666H452.88m0-31H258.12A84.12,84.12,0,0,0,174,719.12V913.88A84.12,84.12,0,0,0,258.12,998H452.88A84.12,84.12,0,0,0,537,913.88V719.12A84.12,84.12,0,0,0,452.88,635Z"/><line class="cls-5" x1="559.5" y1="591.5" x2="489" y2="673"/><line class="cls-5" x1="151.5" y1="591.5" x2="222" y2="673"/><line class="cls-6" x1="151.5" y1="1040.5" x2="220" y2="961"/><line class="cls-7" x1="559.5" y1="1040.5" x2="489" y2="965"/><rect class="cls-2" x="1199.5" y="561.5" width="509" height="509" rx="129.74"/><path class="cls-3" d="M1578.76,577A114.24,114.24,0,0,1,1693,691.24V940.76A114.24,114.24,0,0,1,1578.76,1055H1329.24A114.24,114.24,0,0,1,1215,940.76V691.24A114.24,114.24,0,0,1,1329.24,577h249.52m0-31H1329.24A145.24,145.24,0,0,0,1184,691.24V940.76A145.24,145.24,0,0,0,1329.24,1086h249.52A145.24,145.24,0,0,0,1724,940.76V691.24A145.24,145.24,0,0,0,1578.76,546Z"/><rect class="cls-4" x="1288.5" y="650.5" width="332" height="332" rx="68.62"/><path class="cls-3" d="M1551.88,666A53.18,53.18,0,0,1,1605,719.12V913.88A53.18,53.18,0,0,1,1551.88,967H1357.12A53.18,53.18,0,0,1,1304,913.88V719.12A53.18,53.18,0,0,1,1357.12,666h194.76m0-31H1357.12A84.12,84.12,0,0,0,1273,719.12V913.88A84.12,84.12,0,0,0,1357.12,998h194.76A84.12,84.12,0,0,0,1636,913.88V719.12A84.12,84.12,0,0,0,1551.88,635Z"/><line class="cls-5" x1="1658.5" y1="591.5" x2="1588" y2="673"/><line class="cls-5" x1="1250.5" y1="591.5" x2="1321" y2="673"/><line class="cls-6" x1="1250.5" y1="1040.5" x2="1319" y2="961"/><line class="cls-7" x1="1658.5" y1="1040.5" x2="1588" y2="965"/><rect class="cls-2" x="1749.5" y="562.5" width="509" height="509" rx="129.74"/><path class="cls-3" d="M2128.76,578A114.24,114.24,0,0,1,2243,692.24V941.76A114.24,114.24,0,0,1,2128.76,1056H1879.24A114.24,114.24,0,0,1,1765,941.76V692.24A114.24,114.24,0,0,1,1879.24,578h249.52m0-31H1879.24A145.24,145.24,0,0,0,1734,692.24V941.76A145.24,145.24,0,0,0,1879.24,1087h249.52A145.24,145.24,0,0,0,2274,941.76V692.24A145.24,145.24,0,0,0,2128.76,547Z"/><rect class="cls-4" x="1838.5" y="651.5" width="332" height="332" rx="68.62"/><path class="cls-3" d="M2101.88,667A53.18,53.18,0,0,1,2155,720.12V914.88A53.18,53.18,0,0,1,2101.88,968H1907.12A53.18,53.18,0,0,1,1854,914.88V720.12A53.18,53.18,0,0,1,1907.12,667h194.76m0-31H1907.12A84.12,84.12,0,0,0,1823,720.12V914.88A84.12,84.12,0,0,0,1907.12,999h194.76A84.12,84.12,0,0,0,2186,914.88V720.12A84.12,84.12,0,0,0,2101.88,636Z"/><line class="cls-5" x1="2208.5" y1="592.5" x2="2138" y2="674"/><line class="cls-5" x1="1800.5" y1="592.5" x2="1871" y2="674"/><line class="cls-6" x1="1800.5" y1="1041.5" x2="1869" y2="962"/><line class="cls-7" x1="2208.5" y1="1041.5" x2="2138" y2="966"/><rect class="cls-2" x="2299.5" y="561.5" width="509" height="509" rx="129.74"/><path class="cls-3" d="M2678.76,577A114.24,114.24,0,0,1,2793,691.24V940.76A114.24,114.24,0,0,1,2678.76,1055H2429.24A114.24,114.24,0,0,1,2315,940.76V691.24A114.24,114.24,0,0,1,2429.24,577h249.52m0-31H2429.24A145.24,145.24,0,0,0,2284,691.24V940.76A145.24,145.24,0,0,0,2429.24,1086h249.52A145.24,145.24,0,0,0,2824,940.76V691.24A145.24,145.24,0,0,0,2678.76,546Z"/><rect class="cls-4" x="2388.5" y="650.5" width="332" height="332" rx="68.62"/><path class="cls-3" d="M2651.88,666A53.18,53.18,0,0,1,2705,719.12V913.88A53.18,53.18,0,0,1,2651.88,967H2457.12A53.18,53.18,0,0,1,2404,913.88V719.12A53.18,53.18,0,0,1,2457.12,666h194.76m0-31H2457.12A84.12,84.12,0,0,0,2373,719.12V913.88A84.12,84.12,0,0,0,2457.12,998h194.76A84.12,84.12,0,0,0,2736,913.88V719.12A84.12,84.12,0,0,0,2651.88,635Z"/><line class="cls-5" x1="2758.5" y1="591.5" x2="2688" y2="673"/><line class="cls-5" x1="2350.5" y1="591.5" x2="2421" y2="673"/><line class="cls-6" x1="2350.5" y1="1040.5" x2="2419" y2="961"/><line class="cls-7" x1="2758.5" y1="1040.5" x2="2688" y2="965"/><rect class="cls-2" x="2849.5" y="561.5" width="509" height="509" rx="129.74"/><path class="cls-3" d="M3228.76,577A114.24,114.24,0,0,1,3343,691.24V940.76A114.24,114.24,0,0,1,3228.76,1055H2979.24A114.24,114.24,0,0,1,2865,940.76V691.24A114.24,114.24,0,0,1,2979.24,577h249.52m0-31H2979.24A145.24,145.24,0,0,0,2834,691.24V940.76A145.24,145.24,0,0,0,2979.24,1086h249.52A145.24,145.24,0,0,0,3374,940.76V691.24A145.24,145.24,0,0,0,3228.76,546Z"/><rect class="cls-4" x="2938.5" y="650.5" width="332" height="332" rx="68.62"/><path class="cls-3" d="M3201.88,666A53.18,53.18,0,0,1,3255,719.12V913.88A53.18,53.18,0,0,1,3201.88,967H3007.12A53.18,53.18,0,0,1,2954,913.88V719.12A53.18,53.18,0,0,1,3007.12,666h194.76m0-31H3007.12A84.12,84.12,0,0,0,2923,719.12V913.88A84.12,84.12,0,0,0,3007.12,998h194.76A84.12,84.12,0,0,0,3286,913.88V719.12A84.12,84.12,0,0,0,3201.88,635Z"/><line class="cls-5" x1="3308.5" y1="591.5" x2="3238" y2="673"/><line class="cls-5" x1="2900.5" y1="591.5" x2="2971" y2="673"/><line class="cls-6" x1="2900.5" y1="1040.5" x2="2969" y2="961"/><line class="cls-7" x1="3308.5" y1="1040.5" x2="3238" y2="965"/><rect class="cls-2" x="3399.5" y="561.5" width="509" height="509" rx="129.74"/><path class="cls-3" d="M3778.76,577A114.24,114.24,0,0,1,3893,691.24V940.76A114.24,114.24,0,0,1,3778.76,1055H3529.24A114.24,114.24,0,0,1,3415,940.76V691.24A114.24,114.24,0,0,1,3529.24,577h249.52m0-31H3529.24A145.24,145.24,0,0,0,3384,691.24V940.76A145.24,145.24,0,0,0,3529.24,1086h249.52A145.24,145.24,0,0,0,3924,940.76V691.24A145.24,145.24,0,0,0,3778.76,546Z"/><rect class="cls-4" x="3488.5" y="650.5" width="332" height="332" rx="68.62"/><path class="cls-3" d="M3751.88,666A53.18,53.18,0,0,1,3805,719.12V913.88A53.18,53.18,0,0,1,3751.88,967H3557.12A53.18,53.18,0,0,1,3504,913.88V719.12A53.18,53.18,0,0,1,3557.12,666h194.76m0-31H3557.12A84.12,84.12,0,0,0,3473,719.12V913.88A84.12,84.12,0,0,0,3557.12,998h194.76A84.12,84.12,0,0,0,3836,913.88V719.12A84.12,84.12,0,0,0,3751.88,635Z"/><line class="cls-5" x1="3858.5" y1="591.5" x2="3788" y2="673"/><line class="cls-5" x1="3450.5" y1="591.5" x2="3521" y2="673"/><line class="cls-6" x1="3450.5" y1="1040.5" x2="3519" y2="961"/><line class="cls-7" x1="3858.5" y1="1040.5" x2="3788" y2="965"/><rect class="cls-2" x="3949.5" y="561.5" width="509" height="509" rx="129.74"/><path class="cls-3" d="M4328.76,577A114.24,114.24,0,0,1,4443,691.24V940.76A114.24,114.24,0,0,1,4328.76,1055H4079.24A114.24,114.24,0,0,1,3965,940.76V691.24A114.24,114.24,0,0,1,4079.24,577h249.52m0-31H4079.24A145.24,145.24,0,0,0,3934,691.24V940.76A145.24,145.24,0,0,0,4079.24,1086h249.52A145.24,145.24,0,0,0,4474,940.76V691.24A145.24,145.24,0,0,0,4328.76,546Z"/><rect class="cls-4" x="4038.5" y="650.5" width="332" height="332" rx="68.62"/><path class="cls-3" d="M4301.88,666A53.18,53.18,0,0,1,4355,719.12V913.88A53.18,53.18,0,0,1,4301.88,967H4107.12A53.18,53.18,0,0,1,4054,913.88V719.12A53.18,53.18,0,0,1,4107.12,666h194.76m0-31H4107.12A84.12,84.12,0,0,0,4023,719.12V913.88A84.12,84.12,0,0,0,4107.12,998h194.76A84.12,84.12,0,0,0,4386,913.88V719.12A84.12,84.12,0,0,0,4301.88,635Z"/><line class="cls-5" x1="4000.5" y1="591.5" x2="4071" y2="673"/><line class="cls-6" x1="4000.5" y1="1040.5" x2="4069" y2="961"/><rect class="cls-2" x="375.5" y="17.5" width="509" height="509" rx="129.74"/><path class="cls-3" d="M754.76,33A114.24,114.24,0,0,1,869,147.24V396.76A114.24,114.24,0,0,1,754.76,511H505.24A114.24,114.24,0,0,1,391,396.76V147.24A114.24,114.24,0,0,1,505.24,33H754.76m0-31H505.24A145.24,145.24,0,0,0,360,147.24V396.76A145.24,145.24,0,0,0,505.24,542H754.76A145.24,145.24,0,0,0,900,396.76V147.24A145.24,145.24,0,0,0,754.76,2Z"/><rect class="cls-4" x="464.5" y="106.5" width="332" height="332" rx="68.62"/><path class="cls-3" d="M727.88,122A53.18,53.18,0,0,1,781,175.12V369.88A53.18,53.18,0,0,1,727.88,423H533.12A53.18,53.18,0,0,1,480,369.88V175.12A53.18,53.18,0,0,1,533.12,122H727.88m0-31H533.12A84.12,84.12,0,0,0,449,175.12V369.88A84.12,84.12,0,0,0,533.12,454H727.88A84.12,84.12,0,0,0,812,369.88V175.12A84.12,84.12,0,0,0,727.88,91Z"/><line class="cls-5" x1="834.5" y1="47.5" x2="764" y2="129"/><line class="cls-5" x1="426.5" y1="47.5" x2="497" y2="129"/><line class="cls-6" x1="426.5" y1="496.5" x2="495" y2="417"/><line class="cls-7" x1="834.5" y1="496.5" x2="764" y2="421"/><rect class="cls-2" x="-174.5" y="15.5" width="509" height="509" rx="129.74"/><path class="cls-3" d="M204.76,31A114.24,114.24,0,0,1,319,145.24V394.76A114.24,114.24,0,0,1,204.76,509H-44.76a113.49,113.49,0,0,1-80.78-33.46A113.49,113.49,0,0,1-159,394.76V145.24a113.49,113.49,0,0,1,33.46-80.78A113.49,113.49,0,0,1-44.76,31H204.76m0-31H-44.76A145.24,145.24,0,0,0-190,145.24V394.76A145.24,145.24,0,0,0-44.76,540H204.76A145.24,145.24,0,0,0,350,394.76V145.24A145.24,145.24,0,0,0,204.76,0Z"/><rect class="cls-4" x="-85.5" y="104.5" width="332" height="332" rx="68.62"/><path class="cls-3" d="M177.88,120A53.18,53.18,0,0,1,231,173.12V367.88A53.18,53.18,0,0,1,177.88,421H-16.88A53.18,53.18,0,0,1-70,367.88V173.12A53.18,53.18,0,0,1-16.88,120H177.88m0-31H-16.88A84.12,84.12,0,0,0-101,173.12V367.88A84.12,84.12,0,0,0-16.88,452H177.88A84.12,84.12,0,0,0,262,367.88V173.12A84.12,84.12,0,0,0,177.88,89Z"/><line class="cls-5" x1="284.5" y1="45.5" x2="214" y2="127"/><line class="cls-7" x1="284.5" y1="494.5" x2="214" y2="419"/><rect class="cls-2" x="-444.5" y="561.5" width="509" height="509" rx="129.74"/><path class="cls-3" d="M-65.24,577a113.49,113.49,0,0,1,80.78,33.46A113.49,113.49,0,0,1,49,691.24V940.76a113.49,113.49,0,0,1-33.46,80.78A113.49,113.49,0,0,1-65.24,1055H-314.76a113.49,113.49,0,0,1-80.78-33.46A113.49,113.49,0,0,1-429,940.76V691.24a113.49,113.49,0,0,1,33.46-80.78A113.49,113.49,0,0,1-314.76,577H-65.24m0-31H-314.76A145.24,145.24,0,0,0-460,691.24V940.76A145.24,145.24,0,0,0-314.76,1086H-65.24A145.24,145.24,0,0,0,80,940.76V691.24A145.24,145.24,0,0,0-65.24,546Z"/><line class="cls-5" x1="14.5" y1="591.5" x2="-56" y2="673"/><line class="cls-7" x1="14.5" y1="1040.5" x2="-56" y2="965"/><rect class="cls-2" x="924.5" y="15.5" width="509" height="509" rx="129.74"/><path class="cls-3" d="M1303.76,31A114.24,114.24,0,0,1,1418,145.24V394.76A114.24,114.24,0,0,1,1303.76,509H1054.24A114.24,114.24,0,0,1,940,394.76V145.24A114.24,114.24,0,0,1,1054.24,31h249.52m0-31H1054.24A145.24,145.24,0,0,0,909,145.24V394.76A145.24,145.24,0,0,0,1054.24,540h249.52A145.24,145.24,0,0,0,1449,394.76V145.24A145.24,145.24,0,0,0,1303.76,0Z"/><rect class="cls-4" x="1013.5" y="104.5" width="332" height="332" rx="68.62"/><path class="cls-3" d="M1276.88,120A53.18,53.18,0,0,1,1330,173.12V367.88A53.18,53.18,0,0,1,1276.88,421H1082.12A53.18,53.18,0,0,1,1029,367.88V173.12A53.18,53.18,0,0,1,1082.12,120h194.76m0-31H1082.12A84.12,84.12,0,0,0,998,173.12V367.88A84.12,84.12,0,0,0,1082.12,452h194.76A84.12,84.12,0,0,0,1361,367.88V173.12A84.12,84.12,0,0,0,1276.88,89Z"/><line class="cls-5" x1="1383.5" y1="45.5" x2="1313" y2="127"/><line class="cls-5" x1="975.5" y1="45.5" x2="1046" y2="127"/><line class="cls-6" x1="975.5" y1="494.5" x2="1044" y2="415"/><line class="cls-7" x1="1383.5" y1="494.5" x2="1313" y2="419"/><rect class="cls-2" x="1474.5" y="16.5" width="509" height="509" rx="129.74"/><path class="cls-3" d="M1853.76,32A114.24,114.24,0,0,1,1968,146.24V395.76A114.24,114.24,0,0,1,1853.76,510H1604.24A114.24,114.24,0,0,1,1490,395.76V146.24A114.24,114.24,0,0,1,1604.24,32h249.52m0-31H1604.24A145.24,145.24,0,0,0,1459,146.24V395.76A145.24,145.24,0,0,0,1604.24,541h249.52A145.24,145.24,0,0,0,1999,395.76V146.24A145.24,145.24,0,0,0,1853.76,1Z"/><rect class="cls-4" x="1563.5" y="105.5" width="332" height="332" rx="68.62"/><path class="cls-3" d="M1826.88,121A53.18,53.18,0,0,1,1880,174.12V368.88A53.18,53.18,0,0,1,1826.88,422H1632.12A53.18,53.18,0,0,1,1579,368.88V174.12A53.18,53.18,0,0,1,1632.12,121h194.76m0-31H1632.12A84.12,84.12,0,0,0,1548,174.12V368.88A84.12,84.12,0,0,0,1632.12,453h194.76A84.12,84.12,0,0,0,1911,368.88V174.12A84.12,84.12,0,0,0,1826.88,90Z"/><line class="cls-5" x1="1933.5" y1="46.5" x2="1863" y2="128"/><line class="cls-5" x1="1525.5" y1="46.5" x2="1596" y2="128"/><line class="cls-6" x1="1525.5" y1="495.5" x2="1594" y2="416"/><line class="cls-7" x1="1933.5" y1="495.5" x2="1863" y2="420"/><rect class="cls-2" x="2024.5" y="15.5" width="509" height="509" rx="129.74"/><path class="cls-3" d="M2403.76,31A114.24,114.24,0,0,1,2518,145.24V394.76A114.24,114.24,0,0,1,2403.76,509H2154.24A114.24,114.24,0,0,1,2040,394.76V145.24A114.24,114.24,0,0,1,2154.24,31h249.52m0-31H2154.24A145.24,145.24,0,0,0,2009,145.24V394.76A145.24,145.24,0,0,0,2154.24,540h249.52A145.24,145.24,0,0,0,2549,394.76V145.24A145.24,145.24,0,0,0,2403.76,0Z"/><rect class="cls-4" x="2113.5" y="104.5" width="332" height="332" rx="68.62"/><path class="cls-3" d="M2376.88,120A53.18,53.18,0,0,1,2430,173.12V367.88A53.18,53.18,0,0,1,2376.88,421H2182.12A53.18,53.18,0,0,1,2129,367.88V173.12A53.18,53.18,0,0,1,2182.12,120h194.76m0-31H2182.12A84.12,84.12,0,0,0,2098,173.12V367.88A84.12,84.12,0,0,0,2182.12,452h194.76A84.12,84.12,0,0,0,2461,367.88V173.12A84.12,84.12,0,0,0,2376.88,89Z"/><line class="cls-5" x1="2483.5" y1="45.5" x2="2413" y2="127"/><line class="cls-5" x1="2075.5" y1="45.5" x2="2146" y2="127"/><line class="cls-6" x1="2075.5" y1="494.5" x2="2144" y2="415"/><line class="cls-7" x1="2483.5" y1="494.5" x2="2413" y2="419"/><rect class="cls-2" x="2574.5" y="15.5" width="509" height="509" rx="129.74"/><path class="cls-3" d="M2953.76,31A114.24,114.24,0,0,1,3068,145.24V394.76A114.24,114.24,0,0,1,2953.76,509H2704.24A114.24,114.24,0,0,1,2590,394.76V145.24A114.24,114.24,0,0,1,2704.24,31h249.52m0-31H2704.24A145.24,145.24,0,0,0,2559,145.24V394.76A145.24,145.24,0,0,0,2704.24,540h249.52A145.24,145.24,0,0,0,3099,394.76V145.24A145.24,145.24,0,0,0,2953.76,0Z"/><rect class="cls-4" x="2663.5" y="104.5" width="332" height="332" rx="68.62"/><path class="cls-3" d="M2926.88,120A53.18,53.18,0,0,1,2980,173.12V367.88A53.18,53.18,0,0,1,2926.88,421H2732.12A53.18,53.18,0,0,1,2679,367.88V173.12A53.18,53.18,0,0,1,2732.12,120h194.76m0-31H2732.12A84.12,84.12,0,0,0,2648,173.12V367.88A84.12,84.12,0,0,0,2732.12,452h194.76A84.12,84.12,0,0,0,3011,367.88V173.12A84.12,84.12,0,0,0,2926.88,89Z"/><line class="cls-5" x1="3033.5" y1="45.5" x2="2963" y2="127"/><line class="cls-5" x1="2625.5" y1="45.5" x2="2696" y2="127"/><line class="cls-6" x1="2625.5" y1="494.5" x2="2694" y2="415"/><line class="cls-7" x1="3033.5" y1="494.5" x2="2963" y2="419"/><rect class="cls-2" x="3124.5" y="15.5" width="509" height="509" rx="129.74"/><path class="cls-3" d="M3503.76,31A114.24,114.24,0,0,1,3618,145.24V394.76A114.24,114.24,0,0,1,3503.76,509H3254.24A114.24,114.24,0,0,1,3140,394.76V145.24A114.24,114.24,0,0,1,3254.24,31h249.52m0-31H3254.24A145.24,145.24,0,0,0,3109,145.24V394.76A145.24,145.24,0,0,0,3254.24,540h249.52A145.24,145.24,0,0,0,3649,394.76V145.24A145.24,145.24,0,0,0,3503.76,0Z"/><rect class="cls-4" x="3213.5" y="104.5" width="332" height="332" rx="68.62"/><path class="cls-3" d="M3476.88,120A53.18,53.18,0,0,1,3530,173.12V367.88A53.18,53.18,0,0,1,3476.88,421H3282.12A53.18,53.18,0,0,1,3229,367.88V173.12A53.18,53.18,0,0,1,3282.12,120h194.76m0-31H3282.12A84.12,84.12,0,0,0,3198,173.12V367.88A84.12,84.12,0,0,0,3282.12,452h194.76A84.12,84.12,0,0,0,3561,367.88V173.12A84.12,84.12,0,0,0,3476.88,89Z"/><line class="cls-5" x1="3583.5" y1="45.5" x2="3513" y2="127"/><line class="cls-5" x1="3175.5" y1="45.5" x2="3246" y2="127"/><line class="cls-6" x1="3175.5" y1="494.5" x2="3244" y2="415"/><line class="cls-7" x1="3583.5" y1="494.5" x2="3513" y2="419"/><rect class="cls-2" x="3674.5" y="15.5" width="509" height="509" rx="129.74"/><path class="cls-3" d="M4053.76,31A114.24,114.24,0,0,1,4168,145.24V394.76A114.24,114.24,0,0,1,4053.76,509H3804.24A114.24,114.24,0,0,1,3690,394.76V145.24A114.24,114.24,0,0,1,3804.24,31h249.52m0-31H3804.24A145.24,145.24,0,0,0,3659,145.24V394.76A145.24,145.24,0,0,0,3804.24,540h249.52A145.24,145.24,0,0,0,4199,394.76V145.24A145.24,145.24,0,0,0,4053.76,0Z"/><rect class="cls-4" x="3763.5" y="104.5" width="332" height="332" rx="68.62"/><path class="cls-3" d="M4026.88,120A53.18,53.18,0,0,1,4080,173.12V367.88A53.18,53.18,0,0,1,4026.88,421H3832.12A53.18,53.18,0,0,1,3779,367.88V173.12A53.18,53.18,0,0,1,3832.12,120h194.76m0-31H3832.12A84.12,84.12,0,0,0,3748,173.12V367.88A84.12,84.12,0,0,0,3832.12,452h194.76A84.12,84.12,0,0,0,4111,367.88V173.12A84.12,84.12,0,0,0,4026.88,89Z"/><line class="cls-5" x1="4133.5" y1="45.5" x2="4063" y2="127"/><line class="cls-5" x1="3725.5" y1="45.5" x2="3796" y2="127"/><line class="cls-6" x1="3725.5" y1="494.5" x2="3794" y2="415"/><line class="cls-7" x1="4133.5" y1="494.5" x2="4063" y2="419"/><rect class="cls-2" x="341.5" y="1107.5" width="509" height="509" rx="129.74"/><path class="cls-3" d="M720.76,1123A114.24,114.24,0,0,1,835,1237.24v249.52A114.24,114.24,0,0,1,720.76,1601H471.24A114.24,114.24,0,0,1,357,1486.76V1237.24A114.24,114.24,0,0,1,471.24,1123H720.76m0-31H471.24A145.24,145.24,0,0,0,326,1237.24v249.52A145.24,145.24,0,0,0,471.24,1632H720.76A145.24,145.24,0,0,0,866,1486.76V1237.24A145.24,145.24,0,0,0,720.76,1092Z"/><rect class="cls-4" x="430.5" y="1196.5" width="332" height="332" rx="68.62"/><path class="cls-3" d="M693.88,1212A53.18,53.18,0,0,1,747,1265.12v194.76A53.18,53.18,0,0,1,693.88,1513H499.12A53.18,53.18,0,0,1,446,1459.88V1265.12A53.18,53.18,0,0,1,499.12,1212H693.88m0-31H499.12A84.12,84.12,0,0,0,415,1265.12v194.76A84.12,84.12,0,0,0,499.12,1544H693.88A84.12,84.12,0,0,0,778,1459.88V1265.12A84.12,84.12,0,0,0,693.88,1181Z"/><line class="cls-5" x1="800.5" y1="1137.5" x2="730" y2="1219"/><line class="cls-5" x1="392.5" y1="1137.5" x2="463" y2="1219"/><line class="cls-6" x1="392.5" y1="1586.5" x2="461" y2="1507"/><line class="cls-7" x1="800.5" y1="1586.5" x2="730" y2="1511"/><rect class="cls-2" x="-208.5" y="1105.5" width="509" height="509" rx="129.74"/><path class="cls-3" d="M170.76,1121A114.24,114.24,0,0,1,285,1235.24v249.52A114.24,114.24,0,0,1,170.76,1599H-78.76a113.49,113.49,0,0,1-80.78-33.46A113.49,113.49,0,0,1-193,1484.76V1235.24a113.49,113.49,0,0,1,33.46-80.78A113.49,113.49,0,0,1-78.76,1121H170.76m0-31H-78.76A145.24,145.24,0,0,0-224,1235.24v249.52A145.24,145.24,0,0,0-78.76,1630H170.76A145.24,145.24,0,0,0,316,1484.76V1235.24A145.24,145.24,0,0,0,170.76,1090Z"/><rect class="cls-4" x="-119.5" y="1194.5" width="332" height="332" rx="68.62"/><path class="cls-3" d="M143.88,1210A53.18,53.18,0,0,1,197,1263.12v194.76A53.18,53.18,0,0,1,143.88,1511H-50.88A53.18,53.18,0,0,1-104,1457.88V1263.12A53.18,53.18,0,0,1-50.88,1210H143.88m0-31H-50.88A84.12,84.12,0,0,0-135,1263.12v194.76A84.12,84.12,0,0,0-50.88,1542H143.88A84.12,84.12,0,0,0,228,1457.88V1263.12A84.12,84.12,0,0,0,143.88,1179Z"/><text class="cls-8" transform="translate(94.13 1332.45) scale(1.18 1)">{<tspan x="0" y="152.61">[</tspan></text><text class="cls-8" transform="matrix(-1.18, 0, 0, -1, 180.14, 319.15)">{<tspan x="0" y="152.61">[</tspan></text><line class="cls-5" x1="250.5" y1="1135.5" x2="180" y2="1217"/><line class="cls-7" x1="250.5" y1="1584.5" x2="180" y2="1509"/><rect class="cls-2" x="890.5" y="1105.5" width="509" height="509" rx="129.74"/><path class="cls-3" d="M1269.76,1121A114.24,114.24,0,0,1,1384,1235.24v249.52A114.24,114.24,0,0,1,1269.76,1599H1020.24A114.24,114.24,0,0,1,906,1484.76V1235.24A114.24,114.24,0,0,1,1020.24,1121h249.52m0-31H1020.24A145.24,145.24,0,0,0,875,1235.24v249.52A145.24,145.24,0,0,0,1020.24,1630h249.52A145.24,145.24,0,0,0,1415,1484.76V1235.24A145.24,145.24,0,0,0,1269.76,1090Z"/><rect class="cls-4" x="979.5" y="1194.5" width="332" height="332" rx="68.62"/><path class="cls-3" d="M1242.88,1210a53.18,53.18,0,0,1,53.12,53.12v194.76a53.18,53.18,0,0,1-53.12,53.12H1048.12A53.18,53.18,0,0,1,995,1457.88V1263.12a53.18,53.18,0,0,1,53.12-53.12h194.76m0-31H1048.12A84.12,84.12,0,0,0,964,1263.12v194.76a84.12,84.12,0,0,0,84.12,84.12h194.76a84.12,84.12,0,0,0,84.12-84.12V1263.12a84.12,84.12,0,0,0-84.12-84.12Z"/><line class="cls-5" x1="1349.5" y1="1135.5" x2="1279" y2="1217"/><line class="cls-5" x1="941.5" y1="1135.5" x2="1012" y2="1217"/><line class="cls-6" x1="941.5" y1="1584.5" x2="1010" y2="1505"/><line class="cls-7" x1="1349.5" y1="1584.5" x2="1279" y2="1509"/><rect class="cls-2" x="1440.5" y="1106.5" width="509" height="509" rx="129.74"/><path class="cls-3" d="M1819.76,1122A114.24,114.24,0,0,1,1934,1236.24v249.52A114.24,114.24,0,0,1,1819.76,1600H1570.24A114.24,114.24,0,0,1,1456,1485.76V1236.24A114.24,114.24,0,0,1,1570.24,1122h249.52m0-31H1570.24A145.24,145.24,0,0,0,1425,1236.24v249.52A145.24,145.24,0,0,0,1570.24,1631h249.52A145.24,145.24,0,0,0,1965,1485.76V1236.24A145.24,145.24,0,0,0,1819.76,1091Z"/><rect class="cls-4" x="1529.5" y="1195.5" width="332" height="332" rx="68.62"/><path class="cls-3" d="M1792.88,1211a53.18,53.18,0,0,1,53.12,53.12v194.76a53.18,53.18,0,0,1-53.12,53.12H1598.12a53.18,53.18,0,0,1-53.12-53.12V1264.12a53.18,53.18,0,0,1,53.12-53.12h194.76m0-31H1598.12a84.12,84.12,0,0,0-84.12,84.12v194.76a84.12,84.12,0,0,0,84.12,84.12h194.76a84.12,84.12,0,0,0,84.12-84.12V1264.12a84.12,84.12,0,0,0-84.12-84.12Z"/><line class="cls-5" x1="1899.5" y1="1136.5" x2="1829" y2="1218"/><line class="cls-5" x1="1491.5" y1="1136.5" x2="1562" y2="1218"/><line class="cls-6" x1="1491.5" y1="1585.5" x2="1560" y2="1506"/><line class="cls-7" x1="1899.5" y1="1585.5" x2="1829" y2="1510"/><rect class="cls-2" x="1990.5" y="1105.5" width="509" height="509" rx="129.74"/><path class="cls-3" d="M2369.76,1121A114.24,114.24,0,0,1,2484,1235.24v249.52A114.24,114.24,0,0,1,2369.76,1599H2120.24A114.24,114.24,0,0,1,2006,1484.76V1235.24A114.24,114.24,0,0,1,2120.24,1121h249.52m0-31H2120.24A145.24,145.24,0,0,0,1975,1235.24v249.52A145.24,145.24,0,0,0,2120.24,1630h249.52A145.24,145.24,0,0,0,2515,1484.76V1235.24A145.24,145.24,0,0,0,2369.76,1090Z"/><rect class="cls-4" x="2079.5" y="1194.5" width="332" height="332" rx="68.62"/><path class="cls-3" d="M2342.88,1210a53.18,53.18,0,0,1,53.12,53.12v194.76a53.18,53.18,0,0,1-53.12,53.12H2148.12a53.18,53.18,0,0,1-53.12-53.12V1263.12a53.18,53.18,0,0,1,53.12-53.12h194.76m0-31H2148.12a84.12,84.12,0,0,0-84.12,84.12v194.76a84.12,84.12,0,0,0,84.12,84.12h194.76a84.12,84.12,0,0,0,84.12-84.12V1263.12a84.12,84.12,0,0,0-84.12-84.12Z"/><line class="cls-5" x1="2449.5" y1="1135.5" x2="2379" y2="1217"/><line class="cls-5" x1="2041.5" y1="1135.5" x2="2112" y2="1217"/><line class="cls-6" x1="2041.5" y1="1584.5" x2="2110" y2="1505"/><line class="cls-7" x1="2449.5" y1="1584.5" x2="2379" y2="1509"/><rect class="cls-2" x="2540.5" y="1105.5" width="509" height="509" rx="129.74"/><path class="cls-3" d="M2919.76,1121A114.24,114.24,0,0,1,3034,1235.24v249.52A114.24,114.24,0,0,1,2919.76,1599H2670.24A114.24,114.24,0,0,1,2556,1484.76V1235.24A114.24,114.24,0,0,1,2670.24,1121h249.52m0-31H2670.24A145.24,145.24,0,0,0,2525,1235.24v249.52A145.24,145.24,0,0,0,2670.24,1630h249.52A145.24,145.24,0,0,0,3065,1484.76V1235.24A145.24,145.24,0,0,0,2919.76,1090Z"/><rect class="cls-4" x="2629.5" y="1194.5" width="332" height="332" rx="68.62"/><path class="cls-3" d="M2892.88,1210a53.18,53.18,0,0,1,53.12,53.12v194.76a53.18,53.18,0,0,1-53.12,53.12H2698.12a53.18,53.18,0,0,1-53.12-53.12V1263.12a53.18,53.18,0,0,1,53.12-53.12h194.76m0-31H2698.12a84.12,84.12,0,0,0-84.12,84.12v194.76a84.12,84.12,0,0,0,84.12,84.12h194.76a84.12,84.12,0,0,0,84.12-84.12V1263.12a84.12,84.12,0,0,0-84.12-84.12Z"/><line class="cls-5" x1="2999.5" y1="1135.5" x2="2929" y2="1217"/><line class="cls-5" x1="2591.5" y1="1135.5" x2="2662" y2="1217"/><line class="cls-6" x1="2591.5" y1="1584.5" x2="2660" y2="1505"/><line class="cls-7" x1="2999.5" y1="1584.5" x2="2929" y2="1509"/><rect class="cls-2" x="3090.5" y="1105.5" width="509" height="509" rx="129.74"/><path class="cls-3" d="M3469.76,1121A114.24,114.24,0,0,1,3584,1235.24v249.52A114.24,114.24,0,0,1,3469.76,1599H3220.24A114.24,114.24,0,0,1,3106,1484.76V1235.24A114.24,114.24,0,0,1,3220.24,1121h249.52m0-31H3220.24A145.24,145.24,0,0,0,3075,1235.24v249.52A145.24,145.24,0,0,0,3220.24,1630h249.52A145.24,145.24,0,0,0,3615,1484.76V1235.24A145.24,145.24,0,0,0,3469.76,1090Z"/><rect class="cls-4" x="3179.5" y="1194.5" width="332" height="332" rx="68.62"/><path class="cls-3" d="M3442.88,1210a53.18,53.18,0,0,1,53.12,53.12v194.76a53.18,53.18,0,0,1-53.12,53.12H3248.12a53.18,53.18,0,0,1-53.12-53.12V1263.12a53.18,53.18,0,0,1,53.12-53.12h194.76m0-31H3248.12a84.12,84.12,0,0,0-84.12,84.12v194.76a84.12,84.12,0,0,0,84.12,84.12h194.76a84.12,84.12,0,0,0,84.12-84.12V1263.12a84.12,84.12,0,0,0-84.12-84.12Z"/><line class="cls-5" x1="3549.5" y1="1135.5" x2="3479" y2="1217"/><line class="cls-5" x1="3141.5" y1="1135.5" x2="3212" y2="1217"/><line class="cls-6" x1="3141.5" y1="1584.5" x2="3210" y2="1505"/><line class="cls-7" x1="3549.5" y1="1584.5" x2="3479" y2="1509"/><rect class="cls-2" x="3640.5" y="1105.5" width="509" height="509" rx="129.74"/><path class="cls-3" d="M4019.76,1121A114.24,114.24,0,0,1,4134,1235.24v249.52A114.24,114.24,0,0,1,4019.76,1599H3770.24A114.24,114.24,0,0,1,3656,1484.76V1235.24A114.24,114.24,0,0,1,3770.24,1121h249.52m0-31H3770.24A145.24,145.24,0,0,0,3625,1235.24v249.52A145.24,145.24,0,0,0,3770.24,1630h249.52A145.24,145.24,0,0,0,4165,1484.76V1235.24A145.24,145.24,0,0,0,4019.76,1090Z"/><rect class="cls-4" x="3729.5" y="1194.5" width="332" height="332" rx="68.62"/><path class="cls-3" d="M3992.88,1210a53.18,53.18,0,0,1,53.12,53.12v194.76a53.18,53.18,0,0,1-53.12,53.12H3798.12a53.18,53.18,0,0,1-53.12-53.12V1263.12a53.18,53.18,0,0,1,53.12-53.12h194.76m0-31H3798.12a84.12,84.12,0,0,0-84.12,84.12v194.76a84.12,84.12,0,0,0,84.12,84.12h194.76a84.12,84.12,0,0,0,84.12-84.12V1263.12a84.12,84.12,0,0,0-84.12-84.12Z"/><line class="cls-5" x1="4099.5" y1="1135.5" x2="4029" y2="1217"/><line class="cls-5" x1="3691.5" y1="1135.5" x2="3762" y2="1217"/><line class="cls-6" x1="3691.5" y1="1584.5" x2="3760" y2="1505"/><line class="cls-7" x1="4099.5" y1="1584.5" x2="4029" y2="1509"/><rect class="cls-2" x="600.5" y="1655.5" width="509" height="509" rx="129.74"/><path class="cls-3" d="M979.76,1671A114.24,114.24,0,0,1,1094,1785.24v249.52A114.24,114.24,0,0,1,979.76,2149H730.24A114.24,114.24,0,0,1,616,2034.76V1785.24A114.24,114.24,0,0,1,730.24,1671H979.76m0-31H730.24A145.24,145.24,0,0,0,585,1785.24v249.52A145.24,145.24,0,0,0,730.24,2180H979.76A145.24,145.24,0,0,0,1125,2034.76V1785.24A145.24,145.24,0,0,0,979.76,1640Z"/><rect class="cls-4" x="689.5" y="1744.5" width="332" height="332" rx="68.62"/><path class="cls-3" d="M952.88,1760a53.18,53.18,0,0,1,53.12,53.12v194.76A53.18,53.18,0,0,1,952.88,2061H758.12A53.18,53.18,0,0,1,705,2007.88V1813.12A53.18,53.18,0,0,1,758.12,1760H952.88m0-31H758.12A84.12,84.12,0,0,0,674,1813.12v194.76A84.12,84.12,0,0,0,758.12,2092H952.88a84.12,84.12,0,0,0,84.12-84.12V1813.12A84.12,84.12,0,0,0,952.88,1729Z"/><line class="cls-5" x1="1059.5" y1="1685.5" x2="989" y2="1767"/><line class="cls-5" x1="651.5" y1="1685.5" x2="722" y2="1767"/><line class="cls-6" x1="651.5" y1="2134.5" x2="720" y2="2055"/><line class="cls-7" x1="1059.5" y1="2134.5" x2="989" y2="2059"/><rect class="cls-2" x="50.5" y="1653.5" width="509" height="509" rx="129.74"/><path class="cls-3" d="M429.76,1669A114.24,114.24,0,0,1,544,1783.24v249.52A114.24,114.24,0,0,1,429.76,2147H180.24A114.24,114.24,0,0,1,66,2032.76V1783.24A114.24,114.24,0,0,1,180.24,1669H429.76m0-31H180.24A145.24,145.24,0,0,0,35,1783.24v249.52A145.24,145.24,0,0,0,180.24,2178H429.76A145.24,145.24,0,0,0,575,2032.76V1783.24A145.24,145.24,0,0,0,429.76,1638Z"/><rect class="cls-4" x="139.5" y="1742.5" width="332" height="332" rx="68.62"/><path class="cls-3" d="M402.88,1758A53.18,53.18,0,0,1,456,1811.12v194.76A53.18,53.18,0,0,1,402.88,2059H208.12A53.18,53.18,0,0,1,155,2005.88V1811.12A53.18,53.18,0,0,1,208.12,1758H402.88m0-31H208.12A84.12,84.12,0,0,0,124,1811.12v194.76A84.12,84.12,0,0,0,208.12,2090H402.88A84.12,84.12,0,0,0,487,2005.88V1811.12A84.12,84.12,0,0,0,402.88,1727Z"/><line class="cls-5" x1="509.5" y1="1683.5" x2="439" y2="1765"/><line class="cls-5" x1="101.5" y1="1683.5" x2="172" y2="1765"/><line class="cls-6" x1="101.5" y1="2132.5" x2="170" y2="2053"/><line class="cls-7" x1="509.5" y1="2132.5" x2="439" y2="2057"/><rect class="cls-2" x="1149.5" y="1653.5" width="509" height="509" rx="129.74"/><path class="cls-3" d="M1528.76,1669A114.24,114.24,0,0,1,1643,1783.24v249.52A114.24,114.24,0,0,1,1528.76,2147H1279.24A114.24,114.24,0,0,1,1165,2032.76V1783.24A114.24,114.24,0,0,1,1279.24,1669h249.52m0-31H1279.24A145.24,145.24,0,0,0,1134,1783.24v249.52A145.24,145.24,0,0,0,1279.24,2178h249.52A145.24,145.24,0,0,0,1674,2032.76V1783.24A145.24,145.24,0,0,0,1528.76,1638Z"/><rect class="cls-4" x="1238.5" y="1742.5" width="332" height="332" rx="68.62"/><path class="cls-3" d="M1501.88,1758a53.18,53.18,0,0,1,53.12,53.12v194.76a53.18,53.18,0,0,1-53.12,53.12H1307.12a53.18,53.18,0,0,1-53.12-53.12V1811.12a53.18,53.18,0,0,1,53.12-53.12h194.76m0-31H1307.12a84.12,84.12,0,0,0-84.12,84.12v194.76a84.12,84.12,0,0,0,84.12,84.12h194.76a84.12,84.12,0,0,0,84.12-84.12V1811.12a84.12,84.12,0,0,0-84.12-84.12Z"/><line class="cls-5" x1="1608.5" y1="1683.5" x2="1538" y2="1765"/><line class="cls-5" x1="1200.5" y1="1683.5" x2="1271" y2="1765"/><line class="cls-6" x1="1200.5" y1="2132.5" x2="1269" y2="2053"/><line class="cls-7" x1="1608.5" y1="2132.5" x2="1538" y2="2057"/><rect class="cls-2" x="1699.5" y="1654.5" width="509" height="509" rx="129.74"/><path class="cls-3" d="M2078.76,1670A114.24,114.24,0,0,1,2193,1784.24v249.52A114.24,114.24,0,0,1,2078.76,2148H1829.24A114.24,114.24,0,0,1,1715,2033.76V1784.24A114.24,114.24,0,0,1,1829.24,1670h249.52m0-31H1829.24A145.24,145.24,0,0,0,1684,1784.24v249.52A145.24,145.24,0,0,0,1829.24,2179h249.52A145.24,145.24,0,0,0,2224,2033.76V1784.24A145.24,145.24,0,0,0,2078.76,1639Z"/><rect class="cls-4" x="1788.5" y="1743.5" width="332" height="332" rx="68.62"/><path class="cls-3" d="M2051.88,1759a53.18,53.18,0,0,1,53.12,53.12v194.76a53.18,53.18,0,0,1-53.12,53.12H1857.12a53.18,53.18,0,0,1-53.12-53.12V1812.12a53.18,53.18,0,0,1,53.12-53.12h194.76m0-31H1857.12a84.12,84.12,0,0,0-84.12,84.12v194.76a84.12,84.12,0,0,0,84.12,84.12h194.76a84.12,84.12,0,0,0,84.12-84.12V1812.12a84.12,84.12,0,0,0-84.12-84.12Z"/><line class="cls-5" x1="2158.5" y1="1684.5" x2="2088" y2="1766"/><line class="cls-5" x1="1750.5" y1="1684.5" x2="1821" y2="1766"/><line class="cls-6" x1="1750.5" y1="2133.5" x2="1819" y2="2054"/><line class="cls-7" x1="2158.5" y1="2133.5" x2="2088" y2="2058"/><rect class="cls-2" x="2249.5" y="1653.5" width="509" height="509" rx="129.74"/><path class="cls-3" d="M2628.76,1669A114.24,114.24,0,0,1,2743,1783.24v249.52A114.24,114.24,0,0,1,2628.76,2147H2379.24A114.24,114.24,0,0,1,2265,2032.76V1783.24A114.24,114.24,0,0,1,2379.24,1669h249.52m0-31H2379.24A145.24,145.24,0,0,0,2234,1783.24v249.52A145.24,145.24,0,0,0,2379.24,2178h249.52A145.24,145.24,0,0,0,2774,2032.76V1783.24A145.24,145.24,0,0,0,2628.76,1638Z"/><rect class="cls-4" x="2338.5" y="1742.5" width="332" height="332" rx="68.62"/><path class="cls-3" d="M2601.88,1758a53.18,53.18,0,0,1,53.12,53.12v194.76a53.18,53.18,0,0,1-53.12,53.12H2407.12a53.18,53.18,0,0,1-53.12-53.12V1811.12a53.18,53.18,0,0,1,53.12-53.12h194.76m0-31H2407.12a84.12,84.12,0,0,0-84.12,84.12v194.76a84.12,84.12,0,0,0,84.12,84.12h194.76a84.12,84.12,0,0,0,84.12-84.12V1811.12a84.12,84.12,0,0,0-84.12-84.12Z"/><line class="cls-5" x1="2708.5" y1="1683.5" x2="2638" y2="1765"/><line class="cls-5" x1="2300.5" y1="1683.5" x2="2371" y2="1765"/><line class="cls-6" x1="2300.5" y1="2132.5" x2="2369" y2="2053"/><line class="cls-7" x1="2708.5" y1="2132.5" x2="2638" y2="2057"/><rect class="cls-2" x="2799.5" y="1653.5" width="509" height="509" rx="129.74"/><path class="cls-3" d="M3178.76,1669A114.24,114.24,0,0,1,3293,1783.24v249.52A114.24,114.24,0,0,1,3178.76,2147H2929.24A114.24,114.24,0,0,1,2815,2032.76V1783.24A114.24,114.24,0,0,1,2929.24,1669h249.52m0-31H2929.24A145.24,145.24,0,0,0,2784,1783.24v249.52A145.24,145.24,0,0,0,2929.24,2178h249.52A145.24,145.24,0,0,0,3324,2032.76V1783.24A145.24,145.24,0,0,0,3178.76,1638Z"/><rect class="cls-4" x="2888.5" y="1742.5" width="332" height="332" rx="68.62"/><path class="cls-3" d="M3151.88,1758a53.18,53.18,0,0,1,53.12,53.12v194.76a53.18,53.18,0,0,1-53.12,53.12H2957.12a53.18,53.18,0,0,1-53.12-53.12V1811.12a53.18,53.18,0,0,1,53.12-53.12h194.76m0-31H2957.12a84.12,84.12,0,0,0-84.12,84.12v194.76a84.12,84.12,0,0,0,84.12,84.12h194.76a84.12,84.12,0,0,0,84.12-84.12V1811.12a84.12,84.12,0,0,0-84.12-84.12Z"/><line class="cls-5" x1="3258.5" y1="1683.5" x2="3188" y2="1765"/><line class="cls-5" x1="2850.5" y1="1683.5" x2="2921" y2="1765"/><line class="cls-6" x1="2850.5" y1="2132.5" x2="2919" y2="2053"/><line class="cls-7" x1="3258.5" y1="2132.5" x2="3188" y2="2057"/><rect class="cls-2" x="3349.5" y="1653.5" width="509" height="509" rx="129.74"/><path class="cls-3" d="M3728.76,1669A114.24,114.24,0,0,1,3843,1783.24v249.52A114.24,114.24,0,0,1,3728.76,2147H3479.24A114.24,114.24,0,0,1,3365,2032.76V1783.24A114.24,114.24,0,0,1,3479.24,1669h249.52m0-31H3479.24A145.24,145.24,0,0,0,3334,1783.24v249.52A145.24,145.24,0,0,0,3479.24,2178h249.52A145.24,145.24,0,0,0,3874,2032.76V1783.24A145.24,145.24,0,0,0,3728.76,1638Z"/><rect class="cls-4" x="3438.5" y="1742.5" width="332" height="332" rx="68.62"/><path class="cls-3" d="M3701.88,1758a53.18,53.18,0,0,1,53.12,53.12v194.76a53.18,53.18,0,0,1-53.12,53.12H3507.12a53.18,53.18,0,0,1-53.12-53.12V1811.12a53.18,53.18,0,0,1,53.12-53.12h194.76m0-31H3507.12a84.12,84.12,0,0,0-84.12,84.12v194.76a84.12,84.12,0,0,0,84.12,84.12h194.76a84.12,84.12,0,0,0,84.12-84.12V1811.12a84.12,84.12,0,0,0-84.12-84.12Z"/><line class="cls-5" x1="3808.5" y1="1683.5" x2="3738" y2="1765"/><line class="cls-5" x1="3400.5" y1="1683.5" x2="3471" y2="1765"/><line class="cls-6" x1="3400.5" y1="2132.5" x2="3469" y2="2053"/><line class="cls-7" x1="3808.5" y1="2132.5" x2="3738" y2="2057"/><rect class="cls-2" x="3899.5" y="1653.5" width="509" height="509" rx="129.74"/><path class="cls-3" d="M4278.76,1669A114.24,114.24,0,0,1,4393,1783.24v249.52A114.24,114.24,0,0,1,4278.76,2147H4029.24A114.24,114.24,0,0,1,3915,2032.76V1783.24A114.24,114.24,0,0,1,4029.24,1669h249.52m0-31H4029.24A145.24,145.24,0,0,0,3884,1783.24v249.52A145.24,145.24,0,0,0,4029.24,2178h249.52A145.24,145.24,0,0,0,4424,2032.76V1783.24A145.24,145.24,0,0,0,4278.76,1638Z"/><rect class="cls-4" x="3988.5" y="1742.5" width="332" height="332" rx="68.62"/><path class="cls-3" d="M4251.88,1758a53.18,53.18,0,0,1,53.12,53.12v194.76a53.18,53.18,0,0,1-53.12,53.12H4057.12a53.18,53.18,0,0,1-53.12-53.12V1811.12a53.18,53.18,0,0,1,53.12-53.12h194.76m0-31H4057.12a84.12,84.12,0,0,0-84.12,84.12v194.76a84.12,84.12,0,0,0,84.12,84.12h194.76a84.12,84.12,0,0,0,84.12-84.12V1811.12a84.12,84.12,0,0,0-84.12-84.12Z"/><line class="cls-5" x1="3950.5" y1="1683.5" x2="4021" y2="1765"/><line class="cls-6" x1="3950.5" y1="2132.5" x2="4019" y2="2053"/><text class="cls-9" transform="translate(508.17 298.97)">P</text><text class="cls-10" transform="translate(1059.99 298.7)">R</text><text class="cls-11" transform="translate(1593.99 298.97)">O</text><text class="cls-12" transform="translate(2135.99 299.06)">G</text><text class="cls-13" transform="translate(2685.99 298.74)">R</text><text class="cls-14" transform="translate(3237.99 307.75)">A</text><text class="cls-15" transform="translate(3785.99 308.14)">M</text><text class="cls-9" transform="translate(230.17 867.97)">P</text><text class="cls-10" transform="translate(781.99 867.7)">R</text><text class="cls-11" transform="translate(1315.99 867.97)">O</text><text class="cls-12" transform="translate(1857.99 868.06)">G</text><text class="cls-13" transform="translate(2407.99 867.74)">R</text><text class="cls-14" transform="translate(2959.99 876.75)">A</text><text class="cls-15" transform="translate(3507.99 877.14)">M</text><text class="cls-15" transform="translate(4076.99 868.14)">*</text><text class="cls-9" transform="translate(459.17 1394.97)">P</text><text class="cls-10" transform="translate(1010.99 1394.7)">R</text><text class="cls-11" transform="translate(1544.99 1394.97)">O</text><text class="cls-12" transform="translate(2086.99 1395.06) scale(0.98 1)">G</text><text class="cls-13" transform="translate(2661.99 1394.74)">R</text><text class="cls-14" transform="translate(3209.99 1403.75)">A</text><text class="cls-15" transform="translate(3736.99 1404.14)">M</text><text class="cls-9" transform="translate(746.17 1935.97)">P</text><text class="cls-10" transform="translate(1297.99 1935.7)">R</text><text class="cls-11" transform="translate(1831.99 1935.97)">O</text><text class="cls-12" transform="translate(2373.99 1936.06)">G</text><text class="cls-13" transform="translate(2923.99 1935.74)">R</text><text class="cls-14" transform="translate(3475.99 1944.75)">A</text><text class="cls-15" transform="translate(4023.99 1945.14)">M</text><text class="cls-16" transform="translate(277.98 1863.99)"><tspan xml:space="preserve">  </tspan><tspan class="cls-17" x="78.02" y="0">&lt;</tspan><tspan class="cls-18"><tspan x="0" y="180" xml:space="preserve">  </tspan><tspan class="cls-19" x="63.6" y="180">&gt;</tspan></tspan></text></g></svg>