<svg xmlns="http://www.w3.org/2000/svg" viewBox="0 0 4204 2190"><defs><style>.cls-1,.cls-10,.cls-11,.cls-12,.cls-13,.cls-14,.cls-15,.cls-16,.cls-17,.cls-18,.cls-19,.cls-20,.cls-21,.cls-22,.cls-23,.cls-24,.cls-25,.cls-26,.cls-27,.cls-28,.cls-29,.cls-30,.cls-31,.cls-39,.cls-4,.cls-40,.cls-41,.cls-43,.cls-5,.cls-6,.cls-7,.cls-8,.cls-9{fill:#c2d9f3;}.cls-2{fill:#9ac8e8;}.cls-3{fill:#090a0a;}.cls-10,.cls-11,.cls-12,.cls-13,.cls-14,.cls-15,.cls-16,.cls-17,.cls-18,.cls-19,.cls-20,.cls-21,.cls-22,.cls-23,.cls-24,.cls-25,.cls-26,.cls-27,.cls-28,.cls-29,.cls-30,.cls-31,.cls-39,.cls-4,.cls-40,.cls-41,.cls-5,.cls-6,.cls-7,.cls-8,.cls-9{stroke:#090a0a;}.cls-10,.cls-11,.cls-12,.cls-13,.cls-14,.cls-15,.cls-16,.cls-17,.cls-18,.cls-19,.cls-20,.cls-21,.cls-22,.cls-23,.cls-24,.cls-25,.cls-26,.cls-27,.cls-28,.cls-29,.cls-30,.cls-31,.cls-39,.cls-4,.cls-40,.cls-41,.cls-42,.cls-43,.cls-44,.cls-5,.cls-6,.cls-7,.cls-8,.cls-9{stroke-miterlimit:10;}.cls-4{stroke-width:17.09px;}.cls-5{stroke-width:16.65px;}.cls-6{stroke-width:16.23px;}.cls-7{stroke-width:16.1px;}.cls-8{stroke-width:17.39px;}.cls-9{stroke-width:16.73px;}.cls-10{stroke-width:15.82px;}.cls-11{stroke-width:16.37px;}.cls-12{stroke-width:17.07px;}.cls-13{stroke-width:16.98px;}.cls-14{stroke-width:16.45px;}.cls-15{stroke-width:16.32px;}.cls-16{stroke-width:17.75px;}.cls-17{stroke-width:16.78px;}.cls-18{stroke-width:16.7px;}.cls-19{stroke-width:17.08px;}.cls-20{stroke-width:16.7px;}.cls-21{stroke-width:17.83px;}.cls-22{stroke-width:16.62px;}.cls-23{stroke-width:17.15px;}.cls-24{stroke-width:16.78px;}.cls-25{stroke-width:16.82px;}.cls-26{stroke-width:16.37px;}.cls-27{stroke-width:16.28px;}.cls-28{stroke-width:16.86px;}.cls-29{stroke-width:17.87px;}.cls-30{stroke-width:16.88px;}.cls-31{stroke-width:16.73px;}.cls-32{font-size:163.19px;}.cls-32,.cls-33,.cls-34,.cls-35,.cls-36,.cls-37,.cls-38,.cls-45{font-family:MyriadPro-Regular, Myriad Pro;}.cls-33{font-size:182.46px;}.cls-34{font-size:164.86px;}.cls-35{font-size:175.83px;}.cls-36{font-size:165.52px;}.cls-37{font-size:162.69px;}.cls-38{font-size:184.01px;}.cls-39{stroke-width:18.33px;}.cls-40{stroke-width:18.62px;}.cls-41{stroke-width:16.69px;}.cls-42{fill:#c2edf3;stroke-width:40px;}.cls-42,.cls-43{stroke:#050505;}.cls-43{stroke-width:45.13px;}.cls-44{fill:none;stroke:#000;stroke-width:30px;}.cls-45{font-size:400px;}</style></defs><title>program1</title><g id="fondo"><rect class="cls-1" x="-162.5" y="-125" width="4451" height="2465"/></g><g id="fondo-teclas-web"><rect class="cls-2" x="16.98" y="1517.27" width="356.86" height="356.86" rx="134.38"/><path class="cls-3" d="M239.46,1528.14A123.49,123.49,0,0,1,363,1651.64v88.12a123.51,123.51,0,0,1-123.51,123.51H151.35A123.53,123.53,0,0,1,27.84,1739.76v-88.12a123.51,123.51,0,0,1,123.51-123.5h88.11m0-21.74H151.35A145.24,145.24,0,0,0,6.11,1651.64v88.12A145.24,145.24,0,0,0,151.35,1885h88.11a145.25,145.25,0,0,0,145.25-145.24v-88.12A145.25,145.25,0,0,0,239.46,1506.4Z"/><rect class="cls-1" x="79.37" y="1579.67" width="232.77" height="232.77" rx="73.25"/><path class="cls-3" d="M238.89,1590.54a62.45,62.45,0,0,1,62.39,62.38v86.26a62.46,62.46,0,0,1-62.39,62.39H152.63a62.46,62.46,0,0,1-62.39-62.39v-86.26a62.45,62.45,0,0,1,62.39-62.38h86.26m0-21.74H152.63a84.12,84.12,0,0,0-84.12,84.12v86.26a84.12,84.12,0,0,0,84.12,84.12h86.26A84.12,84.12,0,0,0,323,1739.18v-86.26a84.12,84.12,0,0,0-84.12-84.12Z"/><line class="cls-4" x1="331.5" y1="1546" x2="289.36" y2="1595.44"/><line class="cls-5" x1="60.5" y1="1548" x2="102.16" y2="1595.44"/><line class="cls-6" x1="60.5" y1="1844" x2="100.76" y2="1797.36"/><line class="cls-7" x1="331.5" y1="1844" x2="289.36" y2="1800.17"/><path class="cls-2" d="M536.26,1515.87h88.11a134.38,134.38,0,0,1,134.38,134.38v88.11a134.38,134.38,0,0,1-134.37,134.38H536.26a134.37,134.37,0,0,1-134.37-134.37v-88.11a134.38,134.38,0,0,1,134.38-134.37Z"/><path class="cls-3" d="M624.37,1526.73a123.51,123.51,0,0,1,123.51,123.51v88.12a123.49,123.49,0,0,1-123.51,123.5H536.26a123.51,123.51,0,0,1-123.51-123.5v-88.12a123.53,123.53,0,0,1,123.51-123.51h88.11m0-21.73H536.26A145.24,145.24,0,0,0,391,1650.24v88.12A145.24,145.24,0,0,0,536.26,1883.6h88.11a145.24,145.24,0,0,0,145.24-145.24v-88.12A145.24,145.24,0,0,0,624.37,1505Z"/><rect class="cls-1" x="464.28" y="1578.27" width="232.77" height="232.77" rx="73.25"/><path class="cls-3" d="M623.8,1589.13a62.45,62.45,0,0,1,62.38,62.39v86.26a62.45,62.45,0,0,1-62.38,62.39H537.53a62.45,62.45,0,0,1-62.38-62.39v-86.26a62.45,62.45,0,0,1,62.38-62.39H623.8m0-21.73H537.53a84.12,84.12,0,0,0-84.11,84.12v86.26a84.12,84.12,0,0,0,84.11,84.12H623.8a84.12,84.12,0,0,0,84.12-84.12v-86.26a84.12,84.12,0,0,0-84.12-84.12Z"/><line class="cls-8" x1="716.5" y1="1543" x2="674.26" y2="1594.04"/><line class="cls-9" x1="445.5" y1="1546" x2="487.07" y2="1594.04"/><line class="cls-10" x1="448.5" y1="1844" x2="485.67" y2="1795.96"/><line class="cls-11" x1="716.5" y1="1844" x2="674.26" y2="1798.76"/><rect class="cls-2" x="787.49" y="1516.57" width="356.86" height="356.86" rx="134.38"/><path class="cls-3" d="M1010,1527.44a123.51,123.51,0,0,1,123.51,123.5v88.12A123.51,123.51,0,0,1,1010,1862.56H921.87a123.49,123.49,0,0,1-123.51-123.5v-88.12a123.49,123.49,0,0,1,123.51-123.5H1010m0-21.74H921.87a145.24,145.24,0,0,0-145.24,145.24v88.12A145.24,145.24,0,0,0,921.87,1884.3H1010a145.24,145.24,0,0,0,145.24-145.24v-88.12A145.24,145.24,0,0,0,1010,1505.7Z"/><rect class="cls-1" x="849.89" y="1578.97" width="232.77" height="232.77" rx="73.25"/><path class="cls-3" d="M1009.41,1589.83a62.45,62.45,0,0,1,62.38,62.39v86.26a62.45,62.45,0,0,1-62.38,62.39H923.14a62.45,62.45,0,0,1-62.38-62.39v-86.26a62.45,62.45,0,0,1,62.38-62.39h86.27m0-21.73H923.14A84.12,84.12,0,0,0,839,1652.22v86.26a84.12,84.12,0,0,0,84.12,84.12h86.27a84.12,84.12,0,0,0,84.12-84.12v-86.26a84.12,84.12,0,0,0-84.12-84.12Z"/><line class="cls-12" x1="1102.5" y1="1546" x2="1059.87" y2="1594.74"/><line class="cls-13" x1="830.5" y1="1546" x2="872.68" y2="1594.74"/><line class="cls-14" x1="830.5" y1="1844" x2="871.27" y2="1796.66"/><line class="cls-15" x1="1102.5" y1="1844" x2="1059.87" y2="1799.46"/><path class="cls-2" d="M1307.48,1515.87h88.11A134.38,134.38,0,0,1,1530,1650.24v88.11a134.38,134.38,0,0,1-134.37,134.38h-88.11a134.37,134.37,0,0,1-134.37-134.37v-88.11A134.37,134.37,0,0,1,1307.48,1515.87Z"/><path class="cls-3" d="M1395.59,1526.73a123.53,123.53,0,0,1,123.51,123.51v88.12a123.51,123.51,0,0,1-123.51,123.5h-88.11A123.49,123.49,0,0,1,1184,1738.36v-88.12a123.51,123.51,0,0,1,123.51-123.51h88.11m0-21.73h-88.11a145.25,145.25,0,0,0-145.25,145.24v88.12a145.25,145.25,0,0,0,145.25,145.24h88.11a145.24,145.24,0,0,0,145.24-145.24v-88.12A145.24,145.24,0,0,0,1395.59,1505Z"/><rect class="cls-1" x="1235.5" y="1578.27" width="232.77" height="232.77" rx="73.25"/><path class="cls-3" d="M1395,1589.13a62.45,62.45,0,0,1,62.38,62.39v86.26a62.45,62.45,0,0,1-62.38,62.39h-86.27a62.45,62.45,0,0,1-62.38-62.39v-86.26a62.45,62.45,0,0,1,62.38-62.39H1395m0-21.73h-86.27a84.12,84.12,0,0,0-84.12,84.12v86.26a84.12,84.12,0,0,0,84.12,84.12H1395a84.12,84.12,0,0,0,84.11-84.12v-86.26A84.12,84.12,0,0,0,1395,1567.4Z"/><line class="cls-16" x1="1489.5" y1="1543" x2="1445.48" y2="1594.04"/><line class="cls-17" x1="1216.5" y1="1546" x2="1258.29" y2="1594.04"/><line class="cls-18" x1="1215.5" y1="1844" x2="1256.88" y2="1795.96"/><line class="cls-19" x1="1489.5" y1="1846" x2="1445.48" y2="1798.76"/><path class="cls-2" d="M1693.09,1515.87h88.11a134.37,134.37,0,0,1,134.37,134.37v88.11a134.37,134.37,0,0,1-134.37,134.37h-88.11a134.37,134.37,0,0,1-134.37-134.37v-88.11A134.38,134.38,0,0,1,1693.09,1515.87Z"/><path class="cls-3" d="M1781.2,1526.73a123.53,123.53,0,0,1,123.51,123.51v88.12a123.51,123.51,0,0,1-123.51,123.5h-88.11a123.49,123.49,0,0,1-123.51-123.5v-88.12a123.51,123.51,0,0,1,123.51-123.51h88.11m0-21.73h-88.11a145.25,145.25,0,0,0-145.25,145.24v88.12a145.25,145.25,0,0,0,145.25,145.24h88.11a145.24,145.24,0,0,0,145.24-145.24v-88.12A145.24,145.24,0,0,0,1781.2,1505Z"/><rect class="cls-1" x="1621.11" y="1578.27" width="232.77" height="232.77" rx="73.25"/><path class="cls-3" d="M1780.63,1589.13a62.46,62.46,0,0,1,62.38,62.39v86.26a62.46,62.46,0,0,1-62.38,62.39h-86.27a62.45,62.45,0,0,1-62.38-62.39v-86.26a62.45,62.45,0,0,1,62.38-62.39h86.27m0-21.73h-86.27a84.12,84.12,0,0,0-84.12,84.12v86.26a84.12,84.12,0,0,0,84.12,84.12h86.27a84.12,84.12,0,0,0,84.11-84.12v-86.26a84.12,84.12,0,0,0-84.11-84.12Z"/><line class="cls-20" x1="1872.5" y1="1546" x2="1831.09" y2="1594.04"/><line class="cls-21" x1="1599.5" y1="1543" x2="1643.89" y2="1594.04"/><line class="cls-22" x1="1601.5" y1="1844" x2="1642.49" y2="1795.96"/><line class="cls-23" x1="1875.5" y1="1846" x2="1831.09" y2="1798.76"/><path class="cls-2" d="M2078.69,1515.87h88.11a134.37,134.37,0,0,1,134.37,134.37v88.11a134.37,134.37,0,0,1-134.37,134.37h-88.11a134.38,134.38,0,0,1-134.37-134.37v-88.11a134.38,134.38,0,0,1,134.38-134.37Z"/><path class="cls-3" d="M2166.81,1526.73a123.53,123.53,0,0,1,123.51,123.51v88.12a123.51,123.51,0,0,1-123.51,123.5h-88.12a123.49,123.49,0,0,1-123.5-123.5v-88.12a123.51,123.51,0,0,1,123.5-123.51h88.12m0-21.73h-88.12a145.24,145.24,0,0,0-145.24,145.24v88.12a145.24,145.24,0,0,0,145.24,145.24h88.12a145.24,145.24,0,0,0,145.24-145.24v-88.12A145.24,145.24,0,0,0,2166.81,1505Z"/><rect class="cls-1" x="2006.72" y="1578.27" width="232.77" height="232.77" rx="73.25"/><path class="cls-3" d="M2166.23,1589.13a62.46,62.46,0,0,1,62.39,62.39v86.26a62.46,62.46,0,0,1-62.39,62.39H2080a62.46,62.46,0,0,1-62.39-62.39v-86.26a62.46,62.46,0,0,1,62.39-62.39h86.26m0-21.73H2080a84.12,84.12,0,0,0-84.12,84.12v86.26A84.12,84.12,0,0,0,2080,1821.9h86.26a84.12,84.12,0,0,0,84.12-84.12v-86.26a84.12,84.12,0,0,0-84.12-84.12Z"/><line class="cls-24" x1="2258.5" y1="1546" x2="2216.7" y2="1594.04"/><line class="cls-25" x1="1987.5" y1="1546" x2="2029.5" y2="1594.04"/><line class="cls-26" x1="1987.5" y1="1843" x2="2028.1" y2="1795.96"/><line class="cls-27" x1="2258.5" y1="1844" x2="2216.7" y2="1798.76"/><path class="cls-2" d="M2464.3,1515.87h88.11a134.38,134.38,0,0,1,134.38,134.38v88.11a134.37,134.37,0,0,1-134.37,134.37H2464.3a134.37,134.37,0,0,1-134.37-134.37v-88.11A134.38,134.38,0,0,1,2464.3,1515.87Z"/><path class="cls-3" d="M2552.42,1526.73a123.51,123.51,0,0,1,123.5,123.51v88.12a123.49,123.49,0,0,1-123.5,123.5H2464.3a123.49,123.49,0,0,1-123.5-123.5v-88.12a123.51,123.51,0,0,1,123.5-123.51h88.12m0-21.73H2464.3a145.24,145.24,0,0,0-145.24,145.24v88.12A145.24,145.24,0,0,0,2464.3,1883.6h88.12a145.24,145.24,0,0,0,145.24-145.24v-88.12A145.24,145.24,0,0,0,2552.42,1505Z"/><rect class="cls-1" x="2392.33" y="1578.27" width="232.77" height="232.77" rx="73.25"/><path class="cls-3" d="M2551.84,1589.13a62.46,62.46,0,0,1,62.39,62.39v86.26a62.46,62.46,0,0,1-62.39,62.39h-86.26a62.46,62.46,0,0,1-62.39-62.39v-86.26a62.46,62.46,0,0,1,62.39-62.39h86.26m0-21.73h-86.26a84.12,84.12,0,0,0-84.12,84.12v86.26a84.12,84.12,0,0,0,84.12,84.12h86.26a84.12,84.12,0,0,0,84.12-84.12v-86.26a84.12,84.12,0,0,0-84.12-84.12Z"/><line class="cls-28" x1="2644.5" y1="1546" x2="2602.31" y2="1594.04"/><line class="cls-29" x1="2370.5" y1="1543" x2="2415.11" y2="1594.04"/><line class="cls-30" x1="2370.5" y1="1843" x2="2413.71" y2="1795.96"/><line class="cls-31" x1="2645.5" y1="1845" x2="2602.31" y2="1798.76"/><text class="cls-32" transform="translate(109.99 1714.61)">P</text><text class="cls-33" transform="translate(496.88 1714.42)">R</text><text class="cls-34" transform="translate(871.27 1714.61)">O</text><text class="cls-35" transform="translate(1251.27 1714.67)">G</text><text class="cls-36" transform="translate(1636.88 1714.45)">R</text><text class="cls-37" transform="translate(2023.89 1720.76)">A</text><text class="cls-38" transform="translate(2408.09 1721.04)">M</text><rect class="cls-2" x="2715.93" y="1515.87" width="356.86" height="356.86" rx="134.38"/><path class="cls-3" d="M2938.42,1526.73a123.51,123.51,0,0,1,123.5,123.51v88.12a123.49,123.49,0,0,1-123.5,123.5H2850.3a123.49,123.49,0,0,1-123.5-123.5v-88.12a123.51,123.51,0,0,1,123.5-123.51h88.12m0-21.73H2850.3a145.24,145.24,0,0,0-145.24,145.24v88.12A145.24,145.24,0,0,0,2850.3,1883.6h88.12a145.24,145.24,0,0,0,145.24-145.24v-88.12A145.24,145.24,0,0,0,2938.42,1505Z"/><rect class="cls-1" x="2778.33" y="1578.27" width="232.77" height="232.77" rx="73.25"/><path class="cls-3" d="M2937.84,1589.13a62.46,62.46,0,0,1,62.39,62.39v86.26a62.46,62.46,0,0,1-62.39,62.39h-86.26a62.46,62.46,0,0,1-62.39-62.39v-86.26a62.46,62.46,0,0,1,62.39-62.39h86.26m0-21.73h-86.26a84.12,84.12,0,0,0-84.12,84.12v86.26a84.12,84.12,0,0,0,84.12,84.12h86.26a84.12,84.12,0,0,0,84.12-84.12v-86.26a84.12,84.12,0,0,0-84.12-84.12Z"/><line class="cls-39" x1="3033.5" y1="1541" x2="2988.31" y2="1594.04"/><line class="cls-40" x1="2754.5" y1="1541" x2="2801.11" y2="1594.04"/><line class="cls-41" x1="2757.5" y1="1843" x2="2799.71" y2="1795.96"/><line class="cls-31" x1="3031.5" y1="1845" x2="2988.31" y2="1798.76"/><text class="cls-38" transform="translate(2794.09 1721.04)">M</text><rect class="cls-2" x="3100.93" y="1515.87" width="356.86" height="356.86" rx="134.38"/><path class="cls-3" d="M3323.42,1526.73a123.51,123.51,0,0,1,123.5,123.51v88.12a123.49,123.49,0,0,1-123.5,123.5H3235.3a123.49,123.49,0,0,1-123.5-123.5v-88.12a123.51,123.51,0,0,1,123.5-123.51h88.12m0-21.73H3235.3a145.24,145.24,0,0,0-145.24,145.24v88.12A145.24,145.24,0,0,0,3235.3,1883.6h88.12a145.24,145.24,0,0,0,145.24-145.24v-88.12A145.24,145.24,0,0,0,3323.42,1505Z"/><rect class="cls-1" x="3163.33" y="1578.27" width="232.77" height="232.77" rx="73.25"/><path class="cls-3" d="M3322.84,1589.13a62.46,62.46,0,0,1,62.39,62.39v86.26a62.46,62.46,0,0,1-62.39,62.39h-86.26a62.46,62.46,0,0,1-62.39-62.39v-86.26a62.46,62.46,0,0,1,62.39-62.39h86.26m0-21.73h-86.26a84.12,84.12,0,0,0-84.12,84.12v86.26a84.12,84.12,0,0,0,84.12,84.12h86.26a84.12,84.12,0,0,0,84.12-84.12v-86.26a84.12,84.12,0,0,0-84.12-84.12Z"/><line class="cls-39" x1="3418.5" y1="1541" x2="3373.31" y2="1594.04"/><line class="cls-40" x1="3139.5" y1="1541" x2="3186.11" y2="1594.04"/><line class="cls-41" x1="3142.5" y1="1843" x2="3184.71" y2="1795.96"/><line class="cls-31" x1="3416.5" y1="1845" x2="3373.31" y2="1798.76"/><text class="cls-38" transform="translate(3197.09 1730.04)">I</text><rect class="cls-2" x="3486.93" y="1516.87" width="356.86" height="356.86" rx="134.38"/><path class="cls-3" d="M3709.42,1527.73a123.51,123.51,0,0,1,123.5,123.51v88.12a123.49,123.49,0,0,1-123.5,123.5H3621.3a123.49,123.49,0,0,1-123.5-123.5v-88.12a123.51,123.51,0,0,1,123.5-123.51h88.12m0-21.73H3621.3a145.24,145.24,0,0,0-145.24,145.24v88.12A145.24,145.24,0,0,0,3621.3,1884.6h88.12a145.24,145.24,0,0,0,145.24-145.24v-88.12A145.24,145.24,0,0,0,3709.42,1506Z"/><rect class="cls-1" x="3549.33" y="1579.27" width="232.77" height="232.77" rx="73.25"/><path class="cls-3" d="M3708.84,1590.13a62.46,62.46,0,0,1,62.39,62.39v86.26a62.46,62.46,0,0,1-62.39,62.39h-86.26a62.46,62.46,0,0,1-62.39-62.39v-86.26a62.46,62.46,0,0,1,62.39-62.39h86.26m0-21.73h-86.26a84.12,84.12,0,0,0-84.12,84.12v86.26a84.12,84.12,0,0,0,84.12,84.12h86.26a84.12,84.12,0,0,0,84.12-84.12v-86.26a84.12,84.12,0,0,0-84.12-84.12Z"/><line class="cls-39" x1="3804.5" y1="1542" x2="3759.31" y2="1595.04"/><line class="cls-40" x1="3525.5" y1="1542" x2="3572.11" y2="1595.04"/><line class="cls-41" x1="3528.5" y1="1844" x2="3570.71" y2="1796.96"/><line class="cls-31" x1="3802.5" y1="1846" x2="3759.31" y2="1799.76"/><text class="cls-38" transform="translate(3580.09 1719.04)">N</text><path class="cls-2" d="M4009.3,1515.87h88.11a134.37,134.37,0,0,1,134.37,134.37v88.11a134.38,134.38,0,0,1-134.38,134.38H4009.3a134.37,134.37,0,0,1-134.37-134.37v-88.11A134.38,134.38,0,0,1,4009.3,1515.87Z"/><path class="cls-3" d="M4097.42,1526.73a123.51,123.51,0,0,1,123.5,123.51v88.12a123.49,123.49,0,0,1-123.5,123.5H4009.3a123.49,123.49,0,0,1-123.5-123.5v-88.12a123.51,123.51,0,0,1,123.5-123.51h88.12m0-21.73H4009.3a145.24,145.24,0,0,0-145.24,145.24v88.12A145.24,145.24,0,0,0,4009.3,1883.6h88.12a145.24,145.24,0,0,0,145.24-145.24v-88.12A145.24,145.24,0,0,0,4097.42,1505Z"/><rect class="cls-1" x="3937.33" y="1578.27" width="232.77" height="232.77" rx="73.25"/><path class="cls-3" d="M4096.84,1589.13a62.46,62.46,0,0,1,62.39,62.39v86.26a62.46,62.46,0,0,1-62.39,62.39h-86.26a62.46,62.46,0,0,1-62.39-62.39v-86.26a62.46,62.46,0,0,1,62.39-62.39h86.26m0-21.73h-86.26a84.12,84.12,0,0,0-84.12,84.12v86.26a84.12,84.12,0,0,0,84.12,84.12h86.26a84.12,84.12,0,0,0,84.12-84.12v-86.26a84.12,84.12,0,0,0-84.12-84.12Z"/><line class="cls-39" x1="4192.5" y1="1541" x2="4147.31" y2="1594.04"/><line class="cls-40" x1="3913.5" y1="1541" x2="3960.11" y2="1594.04"/><line class="cls-41" x1="3916.5" y1="1843" x2="3958.71" y2="1795.96"/><line class="cls-31" x1="4190.5" y1="1845" x2="4147.31" y2="1798.76"/><text class="cls-38" transform="translate(3968.09 1718.04)">G</text><rect class="cls-2" x="-172.02" y="1897.27" width="356.86" height="356.86" rx="134.38"/><path class="cls-3" d="M50.46,1908.14A123.49,123.49,0,0,1,174,2031.64v88.12A123.51,123.51,0,0,1,50.46,2243.27H-37.65A122.69,122.69,0,0,1-125,2207.09a122.69,122.69,0,0,1-36.18-87.33v-88.12A122.69,122.69,0,0,1-125,1944.31a122.68,122.68,0,0,1,87.33-36.17H50.46m0-21.74H-37.65a145.24,145.24,0,0,0-145.24,145.24v88.12A145.24,145.24,0,0,0-37.65,2265H50.46a145.25,145.25,0,0,0,145.25-145.24v-88.12A145.25,145.25,0,0,0,50.46,1886.4Z"/><rect class="cls-1" x="-109.63" y="1959.67" width="232.77" height="232.77" rx="73.25"/><path class="cls-3" d="M49.89,1970.54a62.45,62.45,0,0,1,62.39,62.38v86.26a62.46,62.46,0,0,1-62.39,62.39H-36.37a62.46,62.46,0,0,1-62.39-62.39v-86.26a62.45,62.45,0,0,1,62.39-62.38H49.89m0-21.74H-36.37a84.12,84.12,0,0,0-84.12,84.12v86.26a84.12,84.12,0,0,0,84.12,84.12H49.89A84.12,84.12,0,0,0,134,2119.18v-86.26a84.12,84.12,0,0,0-84.12-84.12Z"/><line class="cls-7" x1="142.5" y1="2224" x2="100.36" y2="2180.17"/><rect class="cls-2" x="212.88" y="1895.87" width="356.86" height="356.86" rx="134.37"/><path class="cls-3" d="M435.37,1906.73a123.51,123.51,0,0,1,123.51,123.51v88.12a123.49,123.49,0,0,1-123.51,123.5H347.26a123.51,123.51,0,0,1-123.51-123.5v-88.12a123.53,123.53,0,0,1,123.51-123.51h88.11m0-21.73H347.26A145.24,145.24,0,0,0,202,2030.24v88.12A145.24,145.24,0,0,0,347.26,2263.6h88.11a145.24,145.24,0,0,0,145.24-145.24v-88.12A145.24,145.24,0,0,0,435.37,1885Z"/><rect class="cls-1" x="275.28" y="1958.27" width="232.77" height="232.77" rx="73.25"/><path class="cls-3" d="M434.8,1969.13a62.45,62.45,0,0,1,62.38,62.39v86.26a62.45,62.45,0,0,1-62.38,62.39H348.53a62.45,62.45,0,0,1-62.38-62.39v-86.26a62.45,62.45,0,0,1,62.38-62.39H434.8m0-21.73H348.53a84.12,84.12,0,0,0-84.11,84.12v86.26a84.12,84.12,0,0,0,84.11,84.12H434.8a84.12,84.12,0,0,0,84.12-84.12v-86.26a84.12,84.12,0,0,0-84.12-84.12Z"/><line class="cls-10" x1="259.5" y1="2224" x2="296.67" y2="2175.96"/><line class="cls-11" x1="527.5" y1="2224" x2="485.26" y2="2178.76"/><path class="cls-2" d="M732.87,1896.57H821a134.38,134.38,0,0,1,134.38,134.38v88.11A134.37,134.37,0,0,1,821,2253.43H732.87a134.37,134.37,0,0,1-134.37-134.37v-88.11a134.37,134.37,0,0,1,134.37-134.37Z"/><path class="cls-3" d="M821,1907.44a123.51,123.51,0,0,1,123.51,123.5v88.12A123.51,123.51,0,0,1,821,2242.56H732.87a123.49,123.49,0,0,1-123.51-123.5v-88.12a123.49,123.49,0,0,1,123.51-123.5H821m0-21.74H732.87a145.24,145.24,0,0,0-145.24,145.24v88.12A145.24,145.24,0,0,0,732.87,2264.3H821a145.24,145.24,0,0,0,145.24-145.24v-88.12A145.24,145.24,0,0,0,821,1885.7Z"/><rect class="cls-1" x="660.89" y="1958.97" width="232.77" height="232.77" rx="73.25"/><path class="cls-3" d="M820.41,1969.83a62.45,62.45,0,0,1,62.38,62.39v86.26a62.45,62.45,0,0,1-62.38,62.39H734.14a62.45,62.45,0,0,1-62.38-62.39v-86.26a62.45,62.45,0,0,1,62.38-62.39h86.27m0-21.73H734.14A84.12,84.12,0,0,0,650,2032.22v86.26a84.12,84.12,0,0,0,84.12,84.12h86.27a84.12,84.12,0,0,0,84.12-84.12v-86.26a84.12,84.12,0,0,0-84.12-84.12Z"/><line class="cls-14" x1="641.5" y1="2224" x2="682.27" y2="2176.66"/><line class="cls-15" x1="913.5" y1="2224" x2="870.87" y2="2179.46"/><path class="cls-2" d="M1118.48,1895.87h88.11A134.38,134.38,0,0,1,1341,2030.24v88.11a134.37,134.37,0,0,1-134.37,134.37h-88.11A134.37,134.37,0,0,1,984.1,2118.36v-88.11a134.37,134.37,0,0,1,134.37-134.37Z"/><path class="cls-3" d="M1206.59,1906.73a123.53,123.53,0,0,1,123.51,123.51v88.12a123.51,123.51,0,0,1-123.51,123.5h-88.11A123.49,123.49,0,0,1,995,2118.36v-88.12a123.51,123.51,0,0,1,123.51-123.51h88.11m0-21.73h-88.11a145.25,145.25,0,0,0-145.25,145.24v88.12a145.25,145.25,0,0,0,145.25,145.24h88.11a145.24,145.24,0,0,0,145.24-145.24v-88.12A145.24,145.24,0,0,0,1206.59,1885Z"/><rect class="cls-1" x="1046.5" y="1958.27" width="232.77" height="232.77" rx="73.25"/><path class="cls-3" d="M1206,1969.13a62.45,62.45,0,0,1,62.38,62.39v86.26a62.45,62.45,0,0,1-62.38,62.39h-86.27a62.45,62.45,0,0,1-62.38-62.39v-86.26a62.45,62.45,0,0,1,62.38-62.39H1206m0-21.73h-86.27a84.12,84.12,0,0,0-84.12,84.12v86.26a84.12,84.12,0,0,0,84.12,84.12H1206a84.12,84.12,0,0,0,84.11-84.12v-86.26A84.12,84.12,0,0,0,1206,1947.4Z"/><line class="cls-18" x1="1026.5" y1="2224" x2="1067.88" y2="2175.96"/><line class="cls-19" x1="1300.5" y1="2226" x2="1256.48" y2="2178.76"/><rect class="cls-2" x="1369.71" y="1895.87" width="356.86" height="356.86" rx="134.37"/><path class="cls-3" d="M1592.2,1906.73a123.53,123.53,0,0,1,123.51,123.51v88.12a123.51,123.51,0,0,1-123.51,123.5h-88.11a123.49,123.49,0,0,1-123.51-123.5v-88.12a123.51,123.51,0,0,1,123.51-123.51h88.11m0-21.73h-88.11a145.25,145.25,0,0,0-145.25,145.24v88.12a145.25,145.25,0,0,0,145.25,145.24h88.11a145.24,145.24,0,0,0,145.24-145.24v-88.12A145.24,145.24,0,0,0,1592.2,1885Z"/><rect class="cls-1" x="1432.11" y="1958.27" width="232.77" height="232.77" rx="73.25"/><path class="cls-3" d="M1591.63,1969.13a62.46,62.46,0,0,1,62.38,62.39v86.26a62.46,62.46,0,0,1-62.38,62.39h-86.27a62.45,62.45,0,0,1-62.38-62.39v-86.26a62.45,62.45,0,0,1,62.38-62.39h86.27m0-21.73h-86.27a84.12,84.12,0,0,0-84.12,84.12v86.26a84.12,84.12,0,0,0,84.12,84.12h86.27a84.12,84.12,0,0,0,84.11-84.12v-86.26a84.12,84.12,0,0,0-84.11-84.12Z"/><line class="cls-22" x1="1412.5" y1="2224" x2="1453.49" y2="2175.96"/><line class="cls-23" x1="1686.5" y1="2226" x2="1642.09" y2="2178.76"/><path class="cls-2" d="M1889.69,1895.87h88.11a134.38,134.38,0,0,1,134.38,134.38v88.11a134.37,134.37,0,0,1-134.37,134.37h-88.11a134.37,134.37,0,0,1-134.37-134.37v-88.11a134.37,134.37,0,0,1,134.37-134.37Z"/><path class="cls-3" d="M1977.81,1906.73a123.53,123.53,0,0,1,123.51,123.51v88.12a123.51,123.51,0,0,1-123.51,123.5h-88.12a123.49,123.49,0,0,1-123.5-123.5v-88.12a123.51,123.51,0,0,1,123.5-123.51h88.12m0-21.73h-88.12a145.24,145.24,0,0,0-145.24,145.24v88.12a145.24,145.24,0,0,0,145.24,145.24h88.12a145.24,145.24,0,0,0,145.24-145.24v-88.12A145.24,145.24,0,0,0,1977.81,1885Z"/><rect class="cls-1" x="1817.72" y="1958.27" width="232.77" height="232.77" rx="73.25"/><path class="cls-3" d="M1977.23,1969.13a62.46,62.46,0,0,1,62.39,62.39v86.26a62.46,62.46,0,0,1-62.39,62.39H1891a62.46,62.46,0,0,1-62.39-62.39v-86.26a62.46,62.46,0,0,1,62.39-62.39h86.26m0-21.73H1891a84.12,84.12,0,0,0-84.12,84.12v86.26A84.12,84.12,0,0,0,1891,2201.9h86.26a84.12,84.12,0,0,0,84.12-84.12v-86.26a84.12,84.12,0,0,0-84.12-84.12Z"/><line class="cls-26" x1="1798.5" y1="2223" x2="1839.1" y2="2175.96"/><line class="cls-27" x1="2069.5" y1="2224" x2="2027.7" y2="2178.76"/><path class="cls-2" d="M2275.3,1895.87h88.11a134.38,134.38,0,0,1,134.38,134.38v88.11a134.37,134.37,0,0,1-134.37,134.37H2275.3a134.37,134.37,0,0,1-134.37-134.37v-88.11a134.37,134.37,0,0,1,134.37-134.37Z"/><path class="cls-3" d="M2363.42,1906.73a123.51,123.51,0,0,1,123.5,123.51v88.12a123.49,123.49,0,0,1-123.5,123.5H2275.3a123.49,123.49,0,0,1-123.5-123.5v-88.12a123.51,123.51,0,0,1,123.5-123.51h88.12m0-21.73H2275.3a145.24,145.24,0,0,0-145.24,145.24v88.12A145.24,145.24,0,0,0,2275.3,2263.6h88.12a145.24,145.24,0,0,0,145.24-145.24v-88.12A145.24,145.24,0,0,0,2363.42,1885Z"/><rect class="cls-1" x="2203.33" y="1958.27" width="232.77" height="232.77" rx="73.25"/><path class="cls-3" d="M2362.84,1969.13a62.46,62.46,0,0,1,62.39,62.39v86.26a62.46,62.46,0,0,1-62.39,62.39h-86.26a62.46,62.46,0,0,1-62.39-62.39v-86.26a62.46,62.46,0,0,1,62.39-62.39h86.26m0-21.73h-86.26a84.12,84.12,0,0,0-84.12,84.12v86.26a84.12,84.12,0,0,0,84.12,84.12h86.26a84.12,84.12,0,0,0,84.12-84.12v-86.26a84.12,84.12,0,0,0-84.12-84.12Z"/><line class="cls-30" x1="2181.5" y1="2223" x2="2224.71" y2="2175.96"/><line class="cls-31" x1="2456.5" y1="2225" x2="2413.31" y2="2178.76"/><text class="cls-32" transform="translate(-83.01 2139.61)"><tspan xml:space="preserve"> &lt;/</tspan></text><text class="cls-33" transform="translate(307.88 2094.42)">R</text><text class="cls-34" transform="translate(682.27 2094.61)">O</text><text class="cls-35" transform="translate(1062.27 2094.67)">G</text><text class="cls-36" transform="translate(1447.88 2094.45)">R</text><text class="cls-37" transform="translate(1834.89 2100.76)">A</text><text class="cls-38" transform="translate(2219.09 2101.04)">M</text><path class="cls-2" d="M2661.3,1895.87h88.11a134.38,134.38,0,0,1,134.38,134.38v88.11a134.37,134.37,0,0,1-134.37,134.37H2661.3a134.37,134.37,0,0,1-134.37-134.37v-88.11a134.37,134.37,0,0,1,134.37-134.37Z"/><path class="cls-3" d="M2749.42,1906.73a123.51,123.51,0,0,1,123.5,123.51v88.12a123.49,123.49,0,0,1-123.5,123.5H2661.3a123.49,123.49,0,0,1-123.5-123.5v-88.12a123.51,123.51,0,0,1,123.5-123.51h88.12m0-21.73H2661.3a145.24,145.24,0,0,0-145.24,145.24v88.12A145.24,145.24,0,0,0,2661.3,2263.6h88.12a145.24,145.24,0,0,0,145.24-145.24v-88.12A145.24,145.24,0,0,0,2749.42,1885Z"/><rect class="cls-1" x="2589.33" y="1958.27" width="232.77" height="232.77" rx="73.25"/><path class="cls-3" d="M2748.84,1969.13a62.46,62.46,0,0,1,62.39,62.39v86.26a62.46,62.46,0,0,1-62.39,62.39h-86.26a62.46,62.46,0,0,1-62.39-62.39v-86.26a62.46,62.46,0,0,1,62.39-62.39h86.26m0-21.73h-86.26a84.12,84.12,0,0,0-84.12,84.12v86.26a84.12,84.12,0,0,0,84.12,84.12h86.26a84.12,84.12,0,0,0,84.12-84.12v-86.26a84.12,84.12,0,0,0-84.12-84.12Z"/><line class="cls-41" x1="2568.5" y1="2223" x2="2610.71" y2="2175.96"/><line class="cls-31" x1="2842.5" y1="2225" x2="2799.31" y2="2178.76"/><text class="cls-38" transform="translate(2605.09 2101.04)">M</text><path class="cls-2" d="M3046.3,1895.87h88.11a134.38,134.38,0,0,1,134.38,134.38v88.11a134.38,134.38,0,0,1-134.37,134.38H3046.3a134.38,134.38,0,0,1-134.37-134.37v-88.11A134.37,134.37,0,0,1,3046.3,1895.87Z"/><path class="cls-3" d="M3134.42,1906.73a123.51,123.51,0,0,1,123.5,123.51v88.12a123.49,123.49,0,0,1-123.5,123.5H3046.3a123.49,123.49,0,0,1-123.5-123.5v-88.12a123.51,123.51,0,0,1,123.5-123.51h88.12m0-21.73H3046.3a145.24,145.24,0,0,0-145.24,145.24v88.12A145.24,145.24,0,0,0,3046.3,2263.6h88.12a145.24,145.24,0,0,0,145.24-145.24v-88.12A145.24,145.24,0,0,0,3134.42,1885Z"/><rect class="cls-1" x="2974.33" y="1958.27" width="232.77" height="232.77" rx="73.25"/><path class="cls-3" d="M3133.84,1969.13a62.46,62.46,0,0,1,62.39,62.39v86.26a62.46,62.46,0,0,1-62.39,62.39h-86.26a62.46,62.46,0,0,1-62.39-62.39v-86.26a62.46,62.46,0,0,1,62.39-62.39h86.26m0-21.73h-86.26a84.12,84.12,0,0,0-84.12,84.12v86.26a84.12,84.12,0,0,0,84.12,84.12h86.26a84.12,84.12,0,0,0,84.12-84.12v-86.26a84.12,84.12,0,0,0-84.12-84.12Z"/><line class="cls-41" x1="2953.5" y1="2223" x2="2995.71" y2="2175.96"/><line class="cls-31" x1="3227.5" y1="2225" x2="3184.31" y2="2178.76"/><text class="cls-38" transform="translate(3008.09 2110.04)">I</text><path class="cls-2" d="M3432.3,1896.87h88.11a134.38,134.38,0,0,1,134.38,134.38v88.11a134.38,134.38,0,0,1-134.37,134.38H3432.3a134.38,134.38,0,0,1-134.38-134.38v-88.11A134.37,134.37,0,0,1,3432.3,1896.87Z"/><path class="cls-3" d="M3520.42,1907.73a123.51,123.51,0,0,1,123.5,123.51v88.12a123.49,123.49,0,0,1-123.5,123.5H3432.3a123.49,123.49,0,0,1-123.5-123.5v-88.12a123.51,123.51,0,0,1,123.5-123.51h88.12m0-21.73H3432.3a145.24,145.24,0,0,0-145.24,145.24v88.12A145.24,145.24,0,0,0,3432.3,2264.6h88.12a145.24,145.24,0,0,0,145.24-145.24v-88.12A145.24,145.24,0,0,0,3520.42,1886Z"/><rect class="cls-1" x="3360.33" y="1959.27" width="232.77" height="232.77" rx="73.25"/><path class="cls-3" d="M3519.84,1970.13a62.46,62.46,0,0,1,62.39,62.39v86.26a62.46,62.46,0,0,1-62.39,62.39h-86.26a62.46,62.46,0,0,1-62.39-62.39v-86.26a62.46,62.46,0,0,1,62.39-62.39h86.26m0-21.73h-86.26a84.12,84.12,0,0,0-84.12,84.12v86.26a84.12,84.12,0,0,0,84.12,84.12h86.26a84.12,84.12,0,0,0,84.12-84.12v-86.26a84.12,84.12,0,0,0-84.12-84.12Z"/><line class="cls-41" x1="3339.5" y1="2224" x2="3381.71" y2="2176.96"/><line class="cls-31" x1="3613.5" y1="2226" x2="3570.31" y2="2179.76"/><text class="cls-38" transform="translate(3391.09 2099.04)">N</text><path class="cls-2" d="M3820.3,1895.87h88.11a134.38,134.38,0,0,1,134.38,134.38v88.11a134.37,134.37,0,0,1-134.37,134.37H3820.3a134.37,134.37,0,0,1-134.37-134.37v-88.11A134.37,134.37,0,0,1,3820.3,1895.87Z"/><path class="cls-3" d="M3908.42,1906.73a123.51,123.51,0,0,1,123.5,123.51v88.12a123.49,123.49,0,0,1-123.5,123.5H3820.3a123.49,123.49,0,0,1-123.5-123.5v-88.12a123.51,123.51,0,0,1,123.5-123.51h88.12m0-21.73H3820.3a145.24,145.24,0,0,0-145.24,145.24v88.12A145.24,145.24,0,0,0,3820.3,2263.6h88.12a145.24,145.24,0,0,0,145.24-145.24v-88.12A145.24,145.24,0,0,0,3908.42,1885Z"/><rect class="cls-1" x="3748.33" y="1958.27" width="232.77" height="232.77" rx="73.25"/><path class="cls-3" d="M3907.84,1969.13a62.46,62.46,0,0,1,62.39,62.39v86.26a62.46,62.46,0,0,1-62.39,62.39h-86.26a62.46,62.46,0,0,1-62.39-62.39v-86.26a62.46,62.46,0,0,1,62.39-62.39h86.26m0-21.73h-86.26a84.12,84.12,0,0,0-84.12,84.12v86.26a84.12,84.12,0,0,0,84.12,84.12h86.26a84.12,84.12,0,0,0,84.12-84.12v-86.26a84.12,84.12,0,0,0-84.12-84.12Z"/><line class="cls-41" x1="3727.5" y1="2223" x2="3769.71" y2="2175.96"/><line class="cls-31" x1="4001.5" y1="2225" x2="3958.31" y2="2178.76"/><text class="cls-38" transform="translate(3779.09 2098.04)">G</text><path class="cls-2" d="M4206.3,1895.87h88.11a134.38,134.38,0,0,1,134.38,134.38v88.11a134.37,134.37,0,0,1-134.37,134.37H4206.3a134.37,134.37,0,0,1-134.37-134.37v-88.11a134.38,134.38,0,0,1,134.38-134.38Z"/><path class="cls-3" d="M4294.42,1906.73a123.51,123.51,0,0,1,123.5,123.51v88.12a123.49,123.49,0,0,1-123.5,123.5H4206.3a123.49,123.49,0,0,1-123.5-123.5v-88.12a123.51,123.51,0,0,1,123.5-123.51h88.12m0-21.73H4206.3a145.24,145.24,0,0,0-145.24,145.24v88.12A145.24,145.24,0,0,0,4206.3,2263.6h88.12a145.24,145.24,0,0,0,145.24-145.24v-88.12A145.24,145.24,0,0,0,4294.42,1885Z"/><rect class="cls-1" x="4134.33" y="1958.27" width="232.77" height="232.77" rx="73.25"/><path class="cls-3" d="M4293.84,1969.13a62.46,62.46,0,0,1,62.39,62.39v86.26a62.46,62.46,0,0,1-62.39,62.39h-86.26a62.46,62.46,0,0,1-62.39-62.39v-86.26a62.46,62.46,0,0,1,62.39-62.39h86.26m0-21.73h-86.26a84.12,84.12,0,0,0-84.12,84.12v86.26a84.12,84.12,0,0,0,84.12,84.12h86.26a84.12,84.12,0,0,0,84.12-84.12v-86.26a84.12,84.12,0,0,0-84.12-84.12Z"/><line class="cls-41" x1="4113.5" y1="2223" x2="4155.71" y2="2175.96"/><text class="cls-38" transform="translate(4165.09 2098.04)">*</text><path class="cls-2" d="M154.35-69.73h88.11A134.37,134.37,0,0,1,376.84,64.64v88.11A134.38,134.38,0,0,1,242.46,287.13H154.35A134.38,134.38,0,0,1,20,152.76V64.64A134.38,134.38,0,0,1,154.35-69.73Z"/><path class="cls-3" d="M242.46-58.86A123.49,123.49,0,0,1,366,64.64v88.12A123.51,123.51,0,0,1,242.46,276.27H154.35A123.53,123.53,0,0,1,30.84,152.76V64.64A123.51,123.51,0,0,1,154.35-58.86h88.11m0-21.74H154.35A145.24,145.24,0,0,0,9.11,64.64v88.12A145.24,145.24,0,0,0,154.35,298h88.11A145.25,145.25,0,0,0,387.71,152.76V64.64A145.25,145.25,0,0,0,242.46-80.6Z"/><rect class="cls-1" x="82.37" y="-7.33" width="232.77" height="232.77" rx="73.25"/><path class="cls-3" d="M241.89,3.54a62.45,62.45,0,0,1,62.39,62.38v86.26a62.46,62.46,0,0,1-62.39,62.39H155.63a62.46,62.46,0,0,1-62.39-62.39V65.92A62.45,62.45,0,0,1,155.63,3.54h86.26m0-21.74H155.63A84.12,84.12,0,0,0,71.51,65.92v86.26a84.12,84.12,0,0,0,84.12,84.12h86.26A84.12,84.12,0,0,0,326,152.18V65.92A84.12,84.12,0,0,0,241.89-18.2Z"/><line class="cls-4" x1="334.5" y1="-41" x2="292.36" y2="8.44"/><line class="cls-5" x1="63.5" y1="-39" x2="105.16" y2="8.44"/><line class="cls-6" x1="63.5" y1="257" x2="103.76" y2="210.36"/><line class="cls-7" x1="334.5" y1="257" x2="292.36" y2="213.17"/><path class="cls-2" d="M539.26-71.13h88.11A134.38,134.38,0,0,1,761.75,63.24v88.11A134.37,134.37,0,0,1,627.37,285.73H539.26A134.37,134.37,0,0,1,404.88,151.36V63.24A134.38,134.38,0,0,1,539.26-71.13Z"/><path class="cls-3" d="M627.37-60.27A123.51,123.51,0,0,1,750.88,63.24v88.12a123.49,123.49,0,0,1-123.51,123.5H539.26a123.51,123.51,0,0,1-123.51-123.5V63.24A123.53,123.53,0,0,1,539.26-60.27h88.11m0-21.73H539.26A145.24,145.24,0,0,0,394,63.24v88.12A145.24,145.24,0,0,0,539.26,296.6h88.11A145.24,145.24,0,0,0,772.61,151.36V63.24A145.24,145.24,0,0,0,627.37-82Z"/><rect class="cls-1" x="467.28" y="-8.73" width="232.77" height="232.77" rx="73.25"/><path class="cls-3" d="M626.8,2.13a62.45,62.45,0,0,1,62.38,62.39v86.26a62.45,62.45,0,0,1-62.38,62.39H540.53a62.45,62.45,0,0,1-62.38-62.39V64.52A62.45,62.45,0,0,1,540.53,2.13H626.8m0-21.73H540.53a84.12,84.12,0,0,0-84.11,84.12v86.26a84.12,84.12,0,0,0,84.11,84.12H626.8a84.12,84.12,0,0,0,84.12-84.12V64.52A84.12,84.12,0,0,0,626.8-19.6Z"/><line class="cls-8" x1="719.5" y1="-44" x2="677.26" y2="7.04"/><line class="cls-9" x1="448.5" y1="-41" x2="490.07" y2="7.04"/><line class="cls-10" x1="451.5" y1="257" x2="488.67" y2="208.96"/><line class="cls-11" x1="719.5" y1="257" x2="677.26" y2="211.76"/><rect class="cls-2" x="790.49" y="-70.43" width="356.86" height="356.86" rx="134.38"/><path class="cls-3" d="M1013-59.56a123.51,123.51,0,0,1,123.51,123.5v88.12A123.51,123.51,0,0,1,1013,275.56H924.87a123.49,123.49,0,0,1-123.51-123.5V63.94A123.49,123.49,0,0,1,924.87-59.56H1013m0-21.74H924.87A145.24,145.24,0,0,0,779.63,63.94v88.12A145.24,145.24,0,0,0,924.87,297.3H1013a145.24,145.24,0,0,0,145.24-145.24V63.94A145.24,145.24,0,0,0,1013-81.3Z"/><rect class="cls-1" x="852.89" y="-8.03" width="232.77" height="232.77" rx="73.25"/><path class="cls-3" d="M1012.41,2.83a62.45,62.45,0,0,1,62.38,62.39v86.26a62.45,62.45,0,0,1-62.38,62.39H926.14a62.45,62.45,0,0,1-62.38-62.39V65.22A62.45,62.45,0,0,1,926.14,2.83h86.27m0-21.73H926.14A84.12,84.12,0,0,0,842,65.22v86.26a84.12,84.12,0,0,0,84.12,84.12h86.27a84.12,84.12,0,0,0,84.12-84.12V65.22a84.12,84.12,0,0,0-84.12-84.12Z"/><line class="cls-12" x1="1105.5" y1="-41" x2="1062.87" y2="7.74"/><line class="cls-13" x1="833.5" y1="-41" x2="875.68" y2="7.74"/><line class="cls-14" x1="833.5" y1="257" x2="874.27" y2="209.66"/><line class="cls-15" x1="1105.5" y1="257" x2="1062.87" y2="212.46"/><path class="cls-2" d="M1310.48-71.13h88.11A134.38,134.38,0,0,1,1533,63.24v88.11a134.38,134.38,0,0,1-134.37,134.38h-88.11A134.37,134.37,0,0,1,1176.1,151.36V63.24A134.37,134.37,0,0,1,1310.48-71.13Z"/><path class="cls-3" d="M1398.59-60.27A123.53,123.53,0,0,1,1522.1,63.24v88.12a123.51,123.51,0,0,1-123.51,123.5h-88.11A123.49,123.49,0,0,1,1187,151.36V63.24A123.51,123.51,0,0,1,1310.48-60.27h88.11m0-21.73h-88.11A145.25,145.25,0,0,0,1165.23,63.24v88.12A145.25,145.25,0,0,0,1310.48,296.6h88.11a145.24,145.24,0,0,0,145.24-145.24V63.24A145.24,145.24,0,0,0,1398.59-82Z"/><rect class="cls-1" x="1238.5" y="-8.73" width="232.77" height="232.77" rx="73.25"/><path class="cls-3" d="M1398,2.13a62.45,62.45,0,0,1,62.38,62.39v86.26A62.45,62.45,0,0,1,1398,213.17h-86.27a62.45,62.45,0,0,1-62.38-62.39V64.52a62.45,62.45,0,0,1,62.38-62.39H1398m0-21.73h-86.27a84.12,84.12,0,0,0-84.12,84.12v86.26a84.12,84.12,0,0,0,84.12,84.12H1398a84.12,84.12,0,0,0,84.11-84.12V64.52A84.12,84.12,0,0,0,1398-19.6Z"/><line class="cls-16" x1="1492.5" y1="-44" x2="1448.48" y2="7.04"/><line class="cls-17" x1="1219.5" y1="-41" x2="1261.29" y2="7.04"/><line class="cls-18" x1="1218.5" y1="257" x2="1259.88" y2="208.96"/><line class="cls-19" x1="1492.5" y1="259" x2="1448.48" y2="211.76"/><path class="cls-2" d="M1696.09-71.13h88.11A134.37,134.37,0,0,1,1918.57,63.24v88.11A134.37,134.37,0,0,1,1784.2,285.73h-88.11a134.37,134.37,0,0,1-134.37-134.37V63.24A134.38,134.38,0,0,1,1696.09-71.13Z"/><path class="cls-3" d="M1784.2-60.27A123.53,123.53,0,0,1,1907.71,63.24v88.12a123.51,123.51,0,0,1-123.51,123.5h-88.11a123.49,123.49,0,0,1-123.51-123.5V63.24A123.51,123.51,0,0,1,1696.09-60.27h88.11m0-21.73h-88.11A145.25,145.25,0,0,0,1550.84,63.24v88.12A145.25,145.25,0,0,0,1696.09,296.6h88.11a145.24,145.24,0,0,0,145.24-145.24V63.24A145.24,145.24,0,0,0,1784.2-82Z"/><rect class="cls-1" x="1624.11" y="-8.73" width="232.77" height="232.77" rx="73.25"/><path class="cls-3" d="M1783.63,2.13A62.46,62.46,0,0,1,1846,64.52v86.26a62.46,62.46,0,0,1-62.38,62.39h-86.27A62.45,62.45,0,0,1,1635,150.78V64.52a62.45,62.45,0,0,1,62.38-62.39h86.27m0-21.73h-86.27a84.12,84.12,0,0,0-84.12,84.12v86.26a84.12,84.12,0,0,0,84.12,84.12h86.27a84.12,84.12,0,0,0,84.11-84.12V64.52a84.12,84.12,0,0,0-84.11-84.12Z"/><line class="cls-20" x1="1875.5" y1="-41" x2="1834.09" y2="7.04"/><line class="cls-21" x1="1602.5" y1="-44" x2="1646.89" y2="7.04"/><line class="cls-22" x1="1604.5" y1="257" x2="1645.49" y2="208.96"/><line class="cls-23" x1="1878.5" y1="259" x2="1834.09" y2="211.76"/><path class="cls-2" d="M2081.69-71.13h88.11A134.38,134.38,0,0,1,2304.18,63.24v88.11a134.38,134.38,0,0,1-134.37,134.38h-88.11a134.37,134.37,0,0,1-134.37-134.37V63.24A134.37,134.37,0,0,1,2081.69-71.13Z"/><path class="cls-3" d="M2169.81-60.27A123.53,123.53,0,0,1,2293.32,63.24v88.12a123.51,123.51,0,0,1-123.51,123.5h-88.12a123.49,123.49,0,0,1-123.5-123.5V63.24a123.51,123.51,0,0,1,123.5-123.51h88.12m0-21.73h-88.12A145.24,145.24,0,0,0,1936.45,63.24v88.12A145.24,145.24,0,0,0,2081.69,296.6h88.12a145.24,145.24,0,0,0,145.24-145.24V63.24A145.24,145.24,0,0,0,2169.81-82Z"/><rect class="cls-1" x="2009.72" y="-8.73" width="232.77" height="232.77" rx="73.25"/><path class="cls-3" d="M2169.23,2.13a62.46,62.46,0,0,1,62.39,62.39v86.26a62.46,62.46,0,0,1-62.39,62.39H2083a62.46,62.46,0,0,1-62.39-62.39V64.52A62.46,62.46,0,0,1,2083,2.13h86.26m0-21.73H2083a84.12,84.12,0,0,0-84.12,84.12v86.26A84.12,84.12,0,0,0,2083,234.9h86.26a84.12,84.12,0,0,0,84.12-84.12V64.52a84.12,84.12,0,0,0-84.12-84.12Z"/><line class="cls-24" x1="2261.5" y1="-41" x2="2219.7" y2="7.04"/><line class="cls-25" x1="1990.5" y1="-41" x2="2032.5" y2="7.04"/><line class="cls-26" x1="1990.5" y1="256" x2="2031.1" y2="208.96"/><line class="cls-27" x1="2261.5" y1="257" x2="2219.7" y2="211.76"/><path class="cls-2" d="M2467.3-71.13h88.11A134.38,134.38,0,0,1,2689.79,63.24v88.11a134.38,134.38,0,0,1-134.37,134.38H2467.3a134.37,134.37,0,0,1-134.37-134.37V63.24A134.38,134.38,0,0,1,2467.3-71.13Z"/><path class="cls-3" d="M2555.42-60.27a123.51,123.51,0,0,1,123.5,123.51v88.12a123.49,123.49,0,0,1-123.5,123.5H2467.3a123.49,123.49,0,0,1-123.5-123.5V63.24A123.51,123.51,0,0,1,2467.3-60.27h88.12m0-21.73H2467.3A145.24,145.24,0,0,0,2322.06,63.24v88.12A145.24,145.24,0,0,0,2467.3,296.6h88.12a145.24,145.24,0,0,0,145.24-145.24V63.24A145.24,145.24,0,0,0,2555.42-82Z"/><rect class="cls-1" x="2395.33" y="-8.73" width="232.77" height="232.77" rx="73.25"/><path class="cls-3" d="M2554.84,2.13a62.46,62.46,0,0,1,62.39,62.39v86.26a62.46,62.46,0,0,1-62.39,62.39h-86.26a62.46,62.46,0,0,1-62.39-62.39V64.52a62.46,62.46,0,0,1,62.39-62.39h86.26m0-21.73h-86.26a84.12,84.12,0,0,0-84.12,84.12v86.26a84.12,84.12,0,0,0,84.12,84.12h86.26A84.12,84.12,0,0,0,2639,150.78V64.52a84.12,84.12,0,0,0-84.12-84.12Z"/><line class="cls-28" x1="2647.5" y1="-41" x2="2605.31" y2="7.04"/><line class="cls-29" x1="2373.5" y1="-44" x2="2418.11" y2="7.04"/><line class="cls-30" x1="2373.5" y1="256" x2="2416.71" y2="208.96"/><line class="cls-31" x1="2648.5" y1="258" x2="2605.31" y2="211.76"/><text class="cls-32" transform="translate(112.99 127.61)">P</text><path class="cls-3" d="M-144.54-59.86A122.7,122.7,0,0,1-57.2-23.69,122.68,122.68,0,0,1-21,63.64v88.12A122.68,122.68,0,0,1-57.2,239.09a122.71,122.71,0,0,1-87.34,36.18h-88.11A122.69,122.69,0,0,1-320,239.09a122.69,122.69,0,0,1-36.18-87.33V63.64A122.69,122.69,0,0,1-320-23.69a122.68,122.68,0,0,1,87.33-36.17h88.11m0-21.74h-88.11A145.24,145.24,0,0,0-377.89,63.64v88.12A145.24,145.24,0,0,0-232.65,297h88.11A145.25,145.25,0,0,0,.71,151.76V63.64A145.25,145.25,0,0,0-144.54-81.6Z"/><text class="cls-33" transform="translate(499.88 127.42)">R</text><text class="cls-34" transform="translate(874.27 127.61)">O</text><text class="cls-35" transform="translate(1254.27 127.67)">G</text><text class="cls-36" transform="translate(1639.88 127.45)">R</text><text class="cls-37" transform="translate(2026.89 133.76)">A</text><text class="cls-38" transform="translate(2411.09 134.04)">M</text><path class="cls-2" d="M2853.3-71.13h88.11A134.38,134.38,0,0,1,3075.79,63.24v88.11a134.38,134.38,0,0,1-134.38,134.38H2853.3a134.37,134.37,0,0,1-134.37-134.37V63.24A134.38,134.38,0,0,1,2853.3-71.13Z"/><path class="cls-3" d="M2941.42-60.27a123.51,123.51,0,0,1,123.5,123.51v88.12a123.49,123.49,0,0,1-123.5,123.5H2853.3a123.49,123.49,0,0,1-123.5-123.5V63.24A123.51,123.51,0,0,1,2853.3-60.27h88.12m0-21.73H2853.3A145.24,145.24,0,0,0,2708.06,63.24v88.12A145.24,145.24,0,0,0,2853.3,296.6h88.12a145.24,145.24,0,0,0,145.24-145.24V63.24A145.24,145.24,0,0,0,2941.42-82Z"/><rect class="cls-1" x="2781.33" y="-8.73" width="232.77" height="232.77" rx="73.25"/><path class="cls-3" d="M2940.84,2.13a62.46,62.46,0,0,1,62.39,62.39v86.26a62.46,62.46,0,0,1-62.39,62.39h-86.26a62.46,62.46,0,0,1-62.39-62.39V64.52a62.46,62.46,0,0,1,62.39-62.39h86.26m0-21.73h-86.26a84.12,84.12,0,0,0-84.12,84.12v86.26a84.12,84.12,0,0,0,84.12,84.12h86.26A84.12,84.12,0,0,0,3025,150.78V64.52a84.12,84.12,0,0,0-84.12-84.12Z"/><line class="cls-39" x1="3036.5" y1="-46" x2="2991.31" y2="7.04"/><line class="cls-40" x1="2757.5" y1="-46" x2="2804.11" y2="7.04"/><line class="cls-41" x1="2760.5" y1="256" x2="2802.71" y2="208.96"/><line class="cls-31" x1="3034.5" y1="258" x2="2991.31" y2="211.76"/><text class="cls-38" transform="translate(2797.09 134.04)">M</text><path class="cls-2" d="M3238.3-71.13h88.11A134.38,134.38,0,0,1,3460.79,63.24v88.11a134.38,134.38,0,0,1-134.37,134.38H3238.3a134.37,134.37,0,0,1-134.37-134.37V63.24A134.37,134.37,0,0,1,3238.3-71.13Z"/><path class="cls-3" d="M3326.42-60.27a123.51,123.51,0,0,1,123.5,123.51v88.12a123.49,123.49,0,0,1-123.5,123.5H3238.3a123.49,123.49,0,0,1-123.5-123.5V63.24A123.51,123.51,0,0,1,3238.3-60.27h88.12m0-21.73H3238.3A145.24,145.24,0,0,0,3093.06,63.24v88.12A145.24,145.24,0,0,0,3238.3,296.6h88.12a145.24,145.24,0,0,0,145.24-145.24V63.24A145.24,145.24,0,0,0,3326.42-82Z"/><rect class="cls-1" x="3166.33" y="-8.73" width="232.77" height="232.77" rx="73.25"/><path class="cls-3" d="M3325.84,2.13a62.46,62.46,0,0,1,62.39,62.39v86.26a62.46,62.46,0,0,1-62.39,62.39h-86.26a62.46,62.46,0,0,1-62.39-62.39V64.52a62.46,62.46,0,0,1,62.39-62.39h86.26m0-21.73h-86.26a84.12,84.12,0,0,0-84.12,84.12v86.26a84.12,84.12,0,0,0,84.12,84.12h86.26A84.12,84.12,0,0,0,3410,150.78V64.52a84.12,84.12,0,0,0-84.12-84.12Z"/><line class="cls-39" x1="3421.5" y1="-46" x2="3376.31" y2="7.04"/><line class="cls-40" x1="3142.5" y1="-46" x2="3189.11" y2="7.04"/><line class="cls-41" x1="3145.5" y1="256" x2="3187.71" y2="208.96"/><line class="cls-31" x1="3419.5" y1="258" x2="3376.31" y2="211.76"/><text class="cls-38" transform="translate(3200.09 143.04)">I</text><rect class="cls-2" x="3489.93" y="-70.13" width="356.86" height="356.86" rx="134.38"/><path class="cls-3" d="M3712.42-59.27a123.51,123.51,0,0,1,123.5,123.51v88.12a123.49,123.49,0,0,1-123.5,123.5H3624.3a123.49,123.49,0,0,1-123.5-123.5V64.24A123.51,123.51,0,0,1,3624.3-59.27h88.12m0-21.73H3624.3A145.24,145.24,0,0,0,3479.06,64.24v88.12A145.24,145.24,0,0,0,3624.3,297.6h88.12a145.24,145.24,0,0,0,145.24-145.24V64.24A145.24,145.24,0,0,0,3712.42-81Z"/><rect class="cls-1" x="3552.33" y="-7.73" width="232.77" height="232.77" rx="73.25"/><path class="cls-3" d="M3711.84,3.13a62.46,62.46,0,0,1,62.39,62.39v86.26a62.46,62.46,0,0,1-62.39,62.39h-86.26a62.46,62.46,0,0,1-62.39-62.39V65.52a62.46,62.46,0,0,1,62.39-62.39h86.26m0-21.73h-86.26a84.12,84.12,0,0,0-84.12,84.12v86.26a84.12,84.12,0,0,0,84.12,84.12h86.26A84.12,84.12,0,0,0,3796,151.78V65.52a84.12,84.12,0,0,0-84.12-84.12Z"/><line class="cls-39" x1="3807.5" y1="-45" x2="3762.31" y2="8.04"/><line class="cls-40" x1="3528.5" y1="-45" x2="3575.11" y2="8.04"/><line class="cls-41" x1="3531.5" y1="257" x2="3573.71" y2="209.96"/><line class="cls-31" x1="3805.5" y1="259" x2="3762.31" y2="212.76"/><text class="cls-38" transform="translate(3583.09 132.04)">N</text><path class="cls-2" d="M4012.3-71.13h88.11A134.38,134.38,0,0,1,4234.79,63.24v88.11a134.38,134.38,0,0,1-134.37,134.38H4012.3a134.37,134.37,0,0,1-134.37-134.37V63.24A134.38,134.38,0,0,1,4012.3-71.13Z"/><path class="cls-3" d="M4100.42-60.27a123.51,123.51,0,0,1,123.5,123.51v88.12a123.49,123.49,0,0,1-123.5,123.5H4012.3a123.49,123.49,0,0,1-123.5-123.5V63.24A123.51,123.51,0,0,1,4012.3-60.27h88.12m0-21.73H4012.3A145.24,145.24,0,0,0,3867.06,63.24v88.12A145.24,145.24,0,0,0,4012.3,296.6h88.12a145.24,145.24,0,0,0,145.24-145.24V63.24A145.24,145.24,0,0,0,4100.42-82Z"/><rect class="cls-1" x="3940.33" y="-8.73" width="232.77" height="232.77" rx="73.25"/><path class="cls-3" d="M4099.84,2.13a62.46,62.46,0,0,1,62.39,62.39v86.26a62.46,62.46,0,0,1-62.39,62.39h-86.26a62.46,62.46,0,0,1-62.39-62.39V64.52a62.46,62.46,0,0,1,62.39-62.39h86.26m0-21.73h-86.26a84.12,84.12,0,0,0-84.12,84.12v86.26a84.12,84.12,0,0,0,84.12,84.12h86.26A84.12,84.12,0,0,0,4184,150.78V64.52a84.12,84.12,0,0,0-84.12-84.12Z"/><line class="cls-39" x1="4195.5" y1="-46" x2="4150.31" y2="7.04"/><line class="cls-40" x1="3916.5" y1="-46" x2="3963.11" y2="7.04"/><line class="cls-41" x1="3919.5" y1="256" x2="3961.71" y2="208.96"/><line class="cls-31" x1="4193.5" y1="258" x2="4150.31" y2="211.76"/><text class="cls-38" transform="translate(3971.09 131.04)">G</text><path class="cls-2" d="M-46.65,1117.27H41.46a134.38,134.38,0,0,1,134.38,134.38v88.11A134.37,134.37,0,0,1,41.46,1474.13H-46.65A134.37,134.37,0,0,1-181,1339.76v-88.11A134.37,134.37,0,0,1-46.65,1117.27Z"/><path class="cls-3" d="M41.46,1128.14a122.7,122.7,0,0,1,87.34,36.17A122.68,122.68,0,0,1,165,1251.64v88.12a122.68,122.68,0,0,1-36.17,87.33,122.71,122.71,0,0,1-87.34,36.18H-46.65A122.69,122.69,0,0,1-134,1427.09a122.69,122.69,0,0,1-36.18-87.33v-88.12A122.69,122.69,0,0,1-134,1164.31a122.68,122.68,0,0,1,87.33-36.17H41.46m0-21.74H-46.65a145.24,145.24,0,0,0-145.24,145.24v88.12A145.24,145.24,0,0,0-46.65,1485H41.46a145.25,145.25,0,0,0,145.25-145.24v-88.12A145.25,145.25,0,0,0,41.46,1106.4Z"/><rect class="cls-1" x="-118.63" y="1179.67" width="232.77" height="232.77" rx="73.25"/><path class="cls-3" d="M40.89,1190.54a62.45,62.45,0,0,1,62.39,62.38v86.26a62.46,62.46,0,0,1-62.39,62.39H-45.37a62.46,62.46,0,0,1-62.39-62.39v-86.26a62.45,62.45,0,0,1,62.39-62.38H40.89m0-21.74H-45.37a84.12,84.12,0,0,0-84.12,84.12v86.26a84.12,84.12,0,0,0,84.12,84.12H40.89A84.12,84.12,0,0,0,125,1339.18v-86.26a84.12,84.12,0,0,0-84.12-84.12Z"/><line class="cls-4" x1="133.5" y1="1146" x2="91.36" y2="1195.44"/><line class="cls-7" x1="133.5" y1="1444" x2="91.36" y2="1400.17"/><rect class="cls-2" x="203.88" y="1115.87" width="356.86" height="356.86" rx="134.38"/><path class="cls-3" d="M426.37,1126.73a123.51,123.51,0,0,1,123.51,123.51v88.12a123.49,123.49,0,0,1-123.51,123.5H338.26a123.51,123.51,0,0,1-123.51-123.5v-88.12a123.53,123.53,0,0,1,123.51-123.51h88.11m0-21.73H338.26A145.24,145.24,0,0,0,193,1250.24v88.12A145.24,145.24,0,0,0,338.26,1483.6h88.11a145.24,145.24,0,0,0,145.24-145.24v-88.12A145.24,145.24,0,0,0,426.37,1105Z"/><rect class="cls-1" x="266.28" y="1178.27" width="232.77" height="232.77" rx="73.25"/><path class="cls-3" d="M425.8,1189.13a62.45,62.45,0,0,1,62.38,62.39v86.26a62.45,62.45,0,0,1-62.38,62.39H339.53a62.45,62.45,0,0,1-62.38-62.39v-86.26a62.45,62.45,0,0,1,62.38-62.39H425.8m0-21.73H339.53a84.12,84.12,0,0,0-84.11,84.12v86.26a84.12,84.12,0,0,0,84.11,84.12H425.8a84.12,84.12,0,0,0,84.12-84.12v-86.26a84.12,84.12,0,0,0-84.12-84.12Z"/><line class="cls-8" x1="518.5" y1="1143" x2="476.26" y2="1194.04"/><line class="cls-9" x1="247.5" y1="1146" x2="289.07" y2="1194.04"/><line class="cls-10" x1="250.5" y1="1444" x2="287.67" y2="1395.96"/><line class="cls-11" x1="518.5" y1="1444" x2="476.26" y2="1398.76"/><path class="cls-2" d="M723.87,1116.57H812a134.37,134.37,0,0,1,134.37,134.37v88.11A134.38,134.38,0,0,1,812,1473.43H723.87a134.37,134.37,0,0,1-134.37-134.37v-88.11A134.38,134.38,0,0,1,723.87,1116.57Z"/><path class="cls-3" d="M812,1127.44a123.51,123.51,0,0,1,123.51,123.5v88.12A123.51,123.51,0,0,1,812,1462.56H723.87a123.49,123.49,0,0,1-123.51-123.5v-88.12a123.49,123.49,0,0,1,123.51-123.5H812m0-21.74H723.87a145.24,145.24,0,0,0-145.24,145.24v88.12A145.24,145.24,0,0,0,723.87,1484.3H812a145.24,145.24,0,0,0,145.24-145.24v-88.12A145.24,145.24,0,0,0,812,1105.7Z"/><rect class="cls-1" x="651.89" y="1178.97" width="232.77" height="232.77" rx="73.25"/><path class="cls-3" d="M811.41,1189.83a62.45,62.45,0,0,1,62.38,62.39v86.26a62.45,62.45,0,0,1-62.38,62.39H725.14a62.45,62.45,0,0,1-62.38-62.39v-86.26a62.45,62.45,0,0,1,62.38-62.39h86.27m0-21.73H725.14A84.12,84.12,0,0,0,641,1252.22v86.26a84.12,84.12,0,0,0,84.12,84.12h86.27a84.12,84.12,0,0,0,84.12-84.12v-86.26a84.12,84.12,0,0,0-84.12-84.12Z"/><line class="cls-12" x1="904.5" y1="1146" x2="861.87" y2="1194.74"/><line class="cls-13" x1="632.5" y1="1146" x2="674.68" y2="1194.74"/><line class="cls-14" x1="632.5" y1="1444" x2="673.27" y2="1396.66"/><line class="cls-15" x1="904.5" y1="1444" x2="861.87" y2="1399.46"/><path class="cls-2" d="M1109.48,1115.87h88.11A134.37,134.37,0,0,1,1332,1250.24v88.11a134.38,134.38,0,0,1-134.37,134.38h-88.11A134.38,134.38,0,0,1,975.1,1338.36v-88.11A134.38,134.38,0,0,1,1109.48,1115.87Z"/><path class="cls-3" d="M1197.59,1126.73a123.53,123.53,0,0,1,123.51,123.51v88.12a123.51,123.51,0,0,1-123.51,123.5h-88.11A123.49,123.49,0,0,1,986,1338.36v-88.12a123.51,123.51,0,0,1,123.51-123.51h88.11m0-21.73h-88.11a145.25,145.25,0,0,0-145.25,145.24v88.12a145.25,145.25,0,0,0,145.25,145.24h88.11a145.24,145.24,0,0,0,145.24-145.24v-88.12A145.24,145.24,0,0,0,1197.59,1105Z"/><rect class="cls-1" x="1037.5" y="1178.27" width="232.77" height="232.77" rx="73.25"/><path class="cls-3" d="M1197,1189.13a62.45,62.45,0,0,1,62.38,62.39v86.26a62.45,62.45,0,0,1-62.38,62.39h-86.27a62.45,62.45,0,0,1-62.38-62.39v-86.26a62.45,62.45,0,0,1,62.38-62.39H1197m0-21.73h-86.27a84.12,84.12,0,0,0-84.12,84.12v86.26a84.12,84.12,0,0,0,84.12,84.12H1197a84.12,84.12,0,0,0,84.11-84.12v-86.26A84.12,84.12,0,0,0,1197,1167.4Z"/><line class="cls-16" x1="1291.5" y1="1143" x2="1247.48" y2="1194.04"/><line class="cls-17" x1="1018.5" y1="1146" x2="1060.29" y2="1194.04"/><line class="cls-18" x1="1017.5" y1="1444" x2="1058.88" y2="1395.96"/><line class="cls-19" x1="1291.5" y1="1446" x2="1247.48" y2="1398.76"/><path class="cls-2" d="M1495.09,1115.87h88.11a134.37,134.37,0,0,1,134.37,134.37v88.11a134.37,134.37,0,0,1-134.37,134.37h-88.11a134.37,134.37,0,0,1-134.37-134.37v-88.11A134.38,134.38,0,0,1,1495.09,1115.87Z"/><path class="cls-3" d="M1583.2,1126.73a123.53,123.53,0,0,1,123.51,123.51v88.12a123.51,123.51,0,0,1-123.51,123.5h-88.11a123.49,123.49,0,0,1-123.51-123.5v-88.12a123.51,123.51,0,0,1,123.51-123.51h88.11m0-21.73h-88.11a145.25,145.25,0,0,0-145.25,145.24v88.12a145.25,145.25,0,0,0,145.25,145.24h88.11a145.24,145.24,0,0,0,145.24-145.24v-88.12A145.24,145.24,0,0,0,1583.2,1105Z"/><rect class="cls-1" x="1423.11" y="1178.27" width="232.77" height="232.77" rx="73.25"/><path class="cls-3" d="M1582.63,1189.13a62.46,62.46,0,0,1,62.38,62.39v86.26a62.46,62.46,0,0,1-62.38,62.39h-86.27a62.45,62.45,0,0,1-62.38-62.39v-86.26a62.45,62.45,0,0,1,62.38-62.39h86.27m0-21.73h-86.27a84.12,84.12,0,0,0-84.12,84.12v86.26a84.12,84.12,0,0,0,84.12,84.12h86.27a84.12,84.12,0,0,0,84.11-84.12v-86.26a84.12,84.12,0,0,0-84.11-84.12Z"/><line class="cls-20" x1="1674.5" y1="1146" x2="1633.09" y2="1194.04"/><line class="cls-21" x1="1401.5" y1="1143" x2="1445.89" y2="1194.04"/><line class="cls-22" x1="1403.5" y1="1444" x2="1444.49" y2="1395.96"/><line class="cls-23" x1="1677.5" y1="1446" x2="1633.09" y2="1398.76"/><rect class="cls-2" x="1746.32" y="1115.87" width="356.86" height="356.86" rx="134.38"/><path class="cls-3" d="M1968.81,1126.73a123.53,123.53,0,0,1,123.51,123.51v88.12a123.51,123.51,0,0,1-123.51,123.5h-88.12a123.49,123.49,0,0,1-123.5-123.5v-88.12a123.51,123.51,0,0,1,123.5-123.51h88.12m0-21.73h-88.12a145.24,145.24,0,0,0-145.24,145.24v88.12a145.24,145.24,0,0,0,145.24,145.24h88.12a145.24,145.24,0,0,0,145.24-145.24v-88.12A145.24,145.24,0,0,0,1968.81,1105Z"/><rect class="cls-1" x="1808.72" y="1178.27" width="232.77" height="232.77" rx="73.25"/><path class="cls-3" d="M1968.23,1189.13a62.46,62.46,0,0,1,62.39,62.39v86.26a62.46,62.46,0,0,1-62.39,62.39H1882a62.46,62.46,0,0,1-62.39-62.39v-86.26a62.46,62.46,0,0,1,62.39-62.39h86.26m0-21.73H1882a84.12,84.12,0,0,0-84.12,84.12v86.26A84.12,84.12,0,0,0,1882,1421.9h86.26a84.12,84.12,0,0,0,84.12-84.12v-86.26a84.12,84.12,0,0,0-84.12-84.12Z"/><line class="cls-24" x1="2060.5" y1="1146" x2="2018.7" y2="1194.04"/><line class="cls-25" x1="1789.5" y1="1146" x2="1831.5" y2="1194.04"/><line class="cls-26" x1="1789.5" y1="1443" x2="1830.1" y2="1395.96"/><line class="cls-27" x1="2060.5" y1="1444" x2="2018.7" y2="1398.76"/><path class="cls-2" d="M2266.3,1115.87h88.11a134.37,134.37,0,0,1,134.37,134.37v88.11a134.38,134.38,0,0,1-134.37,134.38H2266.3a134.38,134.38,0,0,1-134.38-134.38v-88.11A134.38,134.38,0,0,1,2266.3,1115.87Z"/><path class="cls-3" d="M2354.42,1126.73a123.51,123.51,0,0,1,123.5,123.51v88.12a123.49,123.49,0,0,1-123.5,123.5H2266.3a123.49,123.49,0,0,1-123.5-123.5v-88.12a123.51,123.51,0,0,1,123.5-123.51h88.12m0-21.73H2266.3a145.24,145.24,0,0,0-145.24,145.24v88.12A145.24,145.24,0,0,0,2266.3,1483.6h88.12a145.24,145.24,0,0,0,145.24-145.24v-88.12A145.24,145.24,0,0,0,2354.42,1105Z"/><rect class="cls-1" x="2194.33" y="1178.27" width="232.77" height="232.77" rx="73.25"/><path class="cls-3" d="M2353.84,1189.13a62.46,62.46,0,0,1,62.39,62.39v86.26a62.46,62.46,0,0,1-62.39,62.39h-86.26a62.46,62.46,0,0,1-62.39-62.39v-86.26a62.46,62.46,0,0,1,62.39-62.39h86.26m0-21.73h-86.26a84.12,84.12,0,0,0-84.12,84.12v86.26a84.12,84.12,0,0,0,84.12,84.12h86.26a84.12,84.12,0,0,0,84.12-84.12v-86.26a84.12,84.12,0,0,0-84.12-84.12Z"/><line class="cls-28" x1="2446.5" y1="1146" x2="2404.31" y2="1194.04"/><line class="cls-29" x1="2172.5" y1="1143" x2="2217.11" y2="1194.04"/><line class="cls-30" x1="2172.5" y1="1443" x2="2215.71" y2="1395.96"/><line class="cls-31" x1="2447.5" y1="1445" x2="2404.31" y2="1398.76"/><text class="cls-33" transform="translate(298.88 1314.42)">R</text><text class="cls-34" transform="translate(673.27 1314.61)">O</text><text class="cls-35" transform="translate(1053.27 1314.67)">G</text><text class="cls-36" transform="translate(1438.88 1314.45)">R</text><text class="cls-37" transform="translate(1825.89 1320.76)">A</text><text class="cls-38" transform="translate(2210.09 1321.04)">M</text><path class="cls-2" d="M2652.3,1115.87h88.11a134.37,134.37,0,0,1,134.37,134.37v88.11a134.37,134.37,0,0,1-134.37,134.37H2652.3a134.38,134.38,0,0,1-134.38-134.38v-88.11A134.38,134.38,0,0,1,2652.3,1115.87Z"/><path class="cls-3" d="M2740.42,1126.73a123.51,123.51,0,0,1,123.5,123.51v88.12a123.49,123.49,0,0,1-123.5,123.5H2652.3a123.49,123.49,0,0,1-123.5-123.5v-88.12a123.51,123.51,0,0,1,123.5-123.51h88.12m0-21.73H2652.3a145.24,145.24,0,0,0-145.24,145.24v88.12A145.24,145.24,0,0,0,2652.3,1483.6h88.12a145.24,145.24,0,0,0,145.24-145.24v-88.12A145.24,145.24,0,0,0,2740.42,1105Z"/><rect class="cls-1" x="2580.33" y="1178.27" width="232.77" height="232.77" rx="73.25"/><path class="cls-3" d="M2739.84,1189.13a62.46,62.46,0,0,1,62.39,62.39v86.26a62.46,62.46,0,0,1-62.39,62.39h-86.26a62.46,62.46,0,0,1-62.39-62.39v-86.26a62.46,62.46,0,0,1,62.39-62.39h86.26m0-21.73h-86.26a84.12,84.12,0,0,0-84.12,84.12v86.26a84.12,84.12,0,0,0,84.12,84.12h86.26a84.12,84.12,0,0,0,84.12-84.12v-86.26a84.12,84.12,0,0,0-84.12-84.12Z"/><line class="cls-39" x1="2835.5" y1="1141" x2="2790.31" y2="1194.04"/><line class="cls-40" x1="2556.5" y1="1141" x2="2603.11" y2="1194.04"/><line class="cls-41" x1="2559.5" y1="1443" x2="2601.71" y2="1395.96"/><line class="cls-31" x1="2833.5" y1="1445" x2="2790.31" y2="1398.76"/><text class="cls-38" transform="translate(2596.09 1321.04)">M</text><path class="cls-2" d="M3037.3,1115.87h88.11a134.37,134.37,0,0,1,134.37,134.37v88.11a134.38,134.38,0,0,1-134.38,134.38H3037.3a134.38,134.38,0,0,1-134.38-134.38v-88.11a134.37,134.37,0,0,1,134.37-134.37Z"/><path class="cls-3" d="M3125.42,1126.73a123.51,123.51,0,0,1,123.5,123.51v88.12a123.49,123.49,0,0,1-123.5,123.5H3037.3a123.49,123.49,0,0,1-123.5-123.5v-88.12a123.51,123.51,0,0,1,123.5-123.51h88.12m0-21.73H3037.3a145.24,145.24,0,0,0-145.24,145.24v88.12A145.24,145.24,0,0,0,3037.3,1483.6h88.12a145.24,145.24,0,0,0,145.24-145.24v-88.12A145.24,145.24,0,0,0,3125.42,1105Z"/><rect class="cls-1" x="2965.33" y="1178.27" width="232.77" height="232.77" rx="73.25"/><path class="cls-3" d="M3124.84,1189.13a62.46,62.46,0,0,1,62.39,62.39v86.26a62.46,62.46,0,0,1-62.39,62.39h-86.26a62.46,62.46,0,0,1-62.39-62.39v-86.26a62.46,62.46,0,0,1,62.39-62.39h86.26m0-21.73h-86.26a84.12,84.12,0,0,0-84.12,84.12v86.26a84.12,84.12,0,0,0,84.12,84.12h86.26a84.12,84.12,0,0,0,84.12-84.12v-86.26a84.12,84.12,0,0,0-84.12-84.12Z"/><line class="cls-39" x1="3220.5" y1="1141" x2="3175.31" y2="1194.04"/><line class="cls-40" x1="2941.5" y1="1141" x2="2988.11" y2="1194.04"/><line class="cls-41" x1="2944.5" y1="1443" x2="2986.71" y2="1395.96"/><line class="cls-31" x1="3218.5" y1="1445" x2="3175.31" y2="1398.76"/><text class="cls-38" transform="translate(2999.09 1330.04)">I</text><path class="cls-2" d="M3423.3,1116.87h88.11a134.37,134.37,0,0,1,134.37,134.37v88.11a134.38,134.38,0,0,1-134.38,134.38H3423.3a134.38,134.38,0,0,1-134.37-134.37v-88.11a134.38,134.38,0,0,1,134.38-134.37Z"/><path class="cls-3" d="M3511.42,1127.73a123.51,123.51,0,0,1,123.5,123.51v88.12a123.49,123.49,0,0,1-123.5,123.5H3423.3a123.49,123.49,0,0,1-123.5-123.5v-88.12a123.51,123.51,0,0,1,123.5-123.51h88.12m0-21.73H3423.3a145.24,145.24,0,0,0-145.24,145.24v88.12A145.24,145.24,0,0,0,3423.3,1484.6h88.12a145.24,145.24,0,0,0,145.24-145.24v-88.12A145.24,145.24,0,0,0,3511.42,1106Z"/><rect class="cls-1" x="3351.33" y="1179.27" width="232.77" height="232.77" rx="73.25"/><path class="cls-3" d="M3510.84,1190.13a62.46,62.46,0,0,1,62.39,62.39v86.26a62.46,62.46,0,0,1-62.39,62.39h-86.26a62.46,62.46,0,0,1-62.39-62.39v-86.26a62.46,62.46,0,0,1,62.39-62.39h86.26m0-21.73h-86.26a84.12,84.12,0,0,0-84.12,84.12v86.26a84.12,84.12,0,0,0,84.12,84.12h86.26a84.12,84.12,0,0,0,84.12-84.12v-86.26a84.12,84.12,0,0,0-84.12-84.12Z"/><line class="cls-39" x1="3606.5" y1="1142" x2="3561.31" y2="1195.04"/><line class="cls-40" x1="3327.5" y1="1142" x2="3374.11" y2="1195.04"/><line class="cls-41" x1="3330.5" y1="1444" x2="3372.71" y2="1396.96"/><line class="cls-31" x1="3604.5" y1="1446" x2="3561.31" y2="1399.76"/><text class="cls-38" transform="translate(3382.09 1319.04)">N</text><path class="cls-2" d="M3811.3,1115.87h88.11a134.38,134.38,0,0,1,134.38,134.38v88.11a134.38,134.38,0,0,1-134.37,134.38H3811.3a134.37,134.37,0,0,1-134.37-134.37v-88.11A134.38,134.38,0,0,1,3811.3,1115.87Z"/><path class="cls-3" d="M3899.42,1126.73a123.51,123.51,0,0,1,123.5,123.51v88.12a123.49,123.49,0,0,1-123.5,123.5H3811.3a123.49,123.49,0,0,1-123.5-123.5v-88.12a123.51,123.51,0,0,1,123.5-123.51h88.12m0-21.73H3811.3a145.24,145.24,0,0,0-145.24,145.24v88.12A145.24,145.24,0,0,0,3811.3,1483.6h88.12a145.24,145.24,0,0,0,145.24-145.24v-88.12A145.24,145.24,0,0,0,3899.42,1105Z"/><rect class="cls-1" x="3739.33" y="1178.27" width="232.77" height="232.77" rx="73.25"/><path class="cls-3" d="M3898.84,1189.13a62.46,62.46,0,0,1,62.39,62.39v86.26a62.46,62.46,0,0,1-62.39,62.39h-86.26a62.46,62.46,0,0,1-62.39-62.39v-86.26a62.46,62.46,0,0,1,62.39-62.39h86.26m0-21.73h-86.26a84.12,84.12,0,0,0-84.12,84.12v86.26a84.12,84.12,0,0,0,84.12,84.12h86.26a84.12,84.12,0,0,0,84.12-84.12v-86.26a84.12,84.12,0,0,0-84.12-84.12Z"/><line class="cls-39" x1="3994.5" y1="1141" x2="3949.31" y2="1194.04"/><line class="cls-40" x1="3715.5" y1="1141" x2="3762.11" y2="1194.04"/><line class="cls-41" x1="3718.5" y1="1443" x2="3760.71" y2="1395.96"/><line class="cls-31" x1="3992.5" y1="1445" x2="3949.31" y2="1398.76"/><text class="cls-38" transform="translate(3770.09 1318.04)">G</text><path class="cls-2" d="M4198.3,1102.87h88.11a134.38,134.38,0,0,1,134.38,134.38v88.11a134.37,134.37,0,0,1-134.37,134.37H4198.3a134.37,134.37,0,0,1-134.37-134.37v-88.11a134.38,134.38,0,0,1,134.38-134.38Z"/><path class="cls-3" d="M4286.42,1113.73a123.51,123.51,0,0,1,123.5,123.51v88.12a123.49,123.49,0,0,1-123.5,123.5H4198.3a123.49,123.49,0,0,1-123.5-123.5v-88.12a123.51,123.51,0,0,1,123.5-123.51h88.12m0-21.73H4198.3a145.24,145.24,0,0,0-145.24,145.24v88.12A145.24,145.24,0,0,0,4198.3,1470.6h88.12a145.24,145.24,0,0,0,145.24-145.24v-88.12A145.24,145.24,0,0,0,4286.42,1092Z"/><rect class="cls-1" x="4126.33" y="1165.27" width="232.77" height="232.77" rx="73.25"/><path class="cls-3" d="M4285.84,1176.13a62.46,62.46,0,0,1,62.39,62.39v86.26a62.46,62.46,0,0,1-62.39,62.39h-86.26a62.46,62.46,0,0,1-62.39-62.39v-86.26a62.46,62.46,0,0,1,62.39-62.39h86.26m0-21.73h-86.26a84.12,84.12,0,0,0-84.12,84.12v86.26a84.12,84.12,0,0,0,84.12,84.12h86.26a84.12,84.12,0,0,0,84.12-84.12v-86.26a84.12,84.12,0,0,0-84.12-84.12Z"/><line class="cls-40" x1="4102.5" y1="1128" x2="4149.11" y2="1181.04"/><line class="cls-41" x1="4105.5" y1="1430" x2="4147.71" y2="1382.96"/><text class="cls-38" transform="translate(3707.5 1304.04) scale(0.95 1)"><tspan xml:space="preserve">            ;</tspan></text><rect class="cls-2" x="6.98" y="717.27" width="356.86" height="356.86" rx="134.38"/><path class="cls-3" d="M229.46,728.14A123.49,123.49,0,0,1,353,851.64v88.12a123.51,123.51,0,0,1-123.51,123.51H141.35A123.53,123.53,0,0,1,17.84,939.76V851.64a123.51,123.51,0,0,1,123.51-123.5h88.11m0-21.74H141.35A145.24,145.24,0,0,0-3.89,851.64v88.12A145.24,145.24,0,0,0,141.35,1085h88.11A145.25,145.25,0,0,0,374.71,939.76V851.64A145.25,145.25,0,0,0,229.46,706.4Z"/><rect class="cls-1" x="69.37" y="779.67" width="232.77" height="232.77" rx="73.25"/><path class="cls-3" d="M228.89,790.54a62.45,62.45,0,0,1,62.39,62.38v86.26a62.46,62.46,0,0,1-62.39,62.39H142.63a62.46,62.46,0,0,1-62.39-62.39V852.92a62.45,62.45,0,0,1,62.39-62.38h86.26m0-21.74H142.63a84.12,84.12,0,0,0-84.12,84.12v86.26a84.12,84.12,0,0,0,84.12,84.12h86.26A84.12,84.12,0,0,0,313,939.18V852.92a84.12,84.12,0,0,0-84.12-84.12Z"/><line class="cls-4" x1="321.5" y1="746" x2="279.36" y2="795.44"/><line class="cls-5" x1="50.5" y1="748" x2="92.16" y2="795.44"/><line class="cls-6" x1="50.5" y1="1044" x2="90.76" y2="997.36"/><line class="cls-7" x1="321.5" y1="1044" x2="279.36" y2="1000.17"/><path class="cls-2" d="M526.26,715.87h88.11A134.37,134.37,0,0,1,748.75,850.24v88.11a134.38,134.38,0,0,1-134.38,134.38H526.26A134.38,134.38,0,0,1,391.88,938.36V850.24A134.37,134.37,0,0,1,526.26,715.87Z"/><path class="cls-3" d="M614.37,726.73A123.51,123.51,0,0,1,737.88,850.24v88.12a123.49,123.49,0,0,1-123.51,123.5H526.26a123.51,123.51,0,0,1-123.51-123.5V850.24A123.53,123.53,0,0,1,526.26,726.73h88.11m0-21.73H526.26A145.24,145.24,0,0,0,381,850.24v88.12A145.24,145.24,0,0,0,526.26,1083.6h88.11A145.24,145.24,0,0,0,759.61,938.36V850.24A145.24,145.24,0,0,0,614.37,705Z"/><rect class="cls-1" x="454.28" y="778.27" width="232.77" height="232.77" rx="73.25"/><path class="cls-3" d="M613.8,789.13a62.45,62.45,0,0,1,62.38,62.39v86.26a62.45,62.45,0,0,1-62.38,62.39H527.53a62.45,62.45,0,0,1-62.38-62.39V851.52a62.45,62.45,0,0,1,62.38-62.39H613.8m0-21.73H527.53a84.12,84.12,0,0,0-84.11,84.12v86.26a84.12,84.12,0,0,0,84.11,84.12H613.8a84.12,84.12,0,0,0,84.12-84.12V851.52A84.12,84.12,0,0,0,613.8,767.4Z"/><line class="cls-8" x1="706.5" y1="743" x2="664.26" y2="794.04"/><line class="cls-9" x1="435.5" y1="746" x2="477.07" y2="794.04"/><line class="cls-10" x1="438.5" y1="1044" x2="475.67" y2="995.96"/><line class="cls-11" x1="706.5" y1="1044" x2="664.26" y2="998.76"/><path class="cls-2" d="M911.87,716.57H1000a134.37,134.37,0,0,1,134.37,134.37v88.11A134.38,134.38,0,0,1,1000,1073.43H911.87A134.38,134.38,0,0,1,777.49,939.06V850.94A134.38,134.38,0,0,1,911.87,716.57Z"/><path class="cls-3" d="M1000,727.44a123.51,123.51,0,0,1,123.51,123.5v88.12A123.51,123.51,0,0,1,1000,1062.56H911.87a123.49,123.49,0,0,1-123.51-123.5V850.94a123.49,123.49,0,0,1,123.51-123.5H1000m0-21.74H911.87A145.24,145.24,0,0,0,766.63,850.94v88.12A145.24,145.24,0,0,0,911.87,1084.3H1000a145.24,145.24,0,0,0,145.24-145.24V850.94A145.24,145.24,0,0,0,1000,705.7Z"/><rect class="cls-1" x="839.89" y="778.97" width="232.77" height="232.77" rx="73.25"/><path class="cls-3" d="M999.41,789.83a62.45,62.45,0,0,1,62.38,62.39v86.26a62.45,62.45,0,0,1-62.38,62.39H913.14a62.45,62.45,0,0,1-62.38-62.39V852.22a62.45,62.45,0,0,1,62.38-62.39h86.27m0-21.73H913.14A84.12,84.12,0,0,0,829,852.22v86.26a84.12,84.12,0,0,0,84.12,84.12h86.27a84.12,84.12,0,0,0,84.12-84.12V852.22a84.12,84.12,0,0,0-84.12-84.12Z"/><line class="cls-12" x1="1092.5" y1="746" x2="1049.87" y2="794.74"/><line class="cls-13" x1="820.5" y1="746" x2="862.68" y2="794.74"/><line class="cls-14" x1="820.5" y1="1044" x2="861.27" y2="996.66"/><line class="cls-15" x1="1092.5" y1="1044" x2="1049.87" y2="999.46"/><path class="cls-2" d="M1297.48,715.87h88.11A134.37,134.37,0,0,1,1520,850.24v88.11a134.38,134.38,0,0,1-134.38,134.38h-88.11A134.38,134.38,0,0,1,1163.1,938.36V850.24A134.37,134.37,0,0,1,1297.48,715.87Z"/><path class="cls-3" d="M1385.59,726.73A123.53,123.53,0,0,1,1509.1,850.24v88.12a123.51,123.51,0,0,1-123.51,123.5h-88.11A123.49,123.49,0,0,1,1174,938.36V850.24a123.51,123.51,0,0,1,123.51-123.51h88.11m0-21.73h-88.11a145.25,145.25,0,0,0-145.25,145.24v88.12a145.25,145.25,0,0,0,145.25,145.24h88.11a145.24,145.24,0,0,0,145.24-145.24V850.24A145.24,145.24,0,0,0,1385.59,705Z"/><rect class="cls-1" x="1225.5" y="778.27" width="232.77" height="232.77" rx="73.25"/><path class="cls-3" d="M1385,789.13a62.45,62.45,0,0,1,62.38,62.39v86.26a62.45,62.45,0,0,1-62.38,62.39h-86.27a62.45,62.45,0,0,1-62.38-62.39V851.52a62.45,62.45,0,0,1,62.38-62.39H1385m0-21.73h-86.27a84.12,84.12,0,0,0-84.12,84.12v86.26a84.12,84.12,0,0,0,84.12,84.12H1385a84.12,84.12,0,0,0,84.11-84.12V851.52A84.12,84.12,0,0,0,1385,767.4Z"/><line class="cls-16" x1="1479.5" y1="743" x2="1435.48" y2="794.04"/><line class="cls-17" x1="1206.5" y1="746" x2="1248.29" y2="794.04"/><line class="cls-18" x1="1205.5" y1="1044" x2="1246.88" y2="995.96"/><line class="cls-19" x1="1479.5" y1="1046" x2="1435.48" y2="998.76"/><rect class="cls-2" x="1548.71" y="715.87" width="356.86" height="356.86" rx="134.37"/><path class="cls-3" d="M1771.2,726.73a123.53,123.53,0,0,1,123.51,123.51v88.12a123.51,123.51,0,0,1-123.51,123.5h-88.11a123.49,123.49,0,0,1-123.51-123.5V850.24a123.51,123.51,0,0,1,123.51-123.51h88.11m0-21.73h-88.11a145.25,145.25,0,0,0-145.25,145.24v88.12a145.25,145.25,0,0,0,145.25,145.24h88.11a145.24,145.24,0,0,0,145.24-145.24V850.24A145.24,145.24,0,0,0,1771.2,705Z"/><rect class="cls-1" x="1611.11" y="778.27" width="232.77" height="232.77" rx="73.25"/><path class="cls-3" d="M1770.63,789.13A62.46,62.46,0,0,1,1833,851.52v86.26a62.46,62.46,0,0,1-62.38,62.39h-86.27A62.45,62.45,0,0,1,1622,937.78V851.52a62.45,62.45,0,0,1,62.38-62.39h86.27m0-21.73h-86.27a84.12,84.12,0,0,0-84.12,84.12v86.26a84.12,84.12,0,0,0,84.12,84.12h86.27a84.12,84.12,0,0,0,84.11-84.12V851.52a84.12,84.12,0,0,0-84.11-84.12Z"/><line class="cls-20" x1="1862.5" y1="746" x2="1821.09" y2="794.04"/><line class="cls-21" x1="1589.5" y1="743" x2="1633.89" y2="794.04"/><line class="cls-22" x1="1591.5" y1="1044" x2="1632.49" y2="995.96"/><line class="cls-23" x1="1865.5" y1="1046" x2="1821.09" y2="998.76"/><path class="cls-2" d="M2068.69,715.87h88.11a134.37,134.37,0,0,1,134.37,134.37v88.11a134.38,134.38,0,0,1-134.38,134.38h-88.11a134.38,134.38,0,0,1-134.37-134.37V850.24A134.38,134.38,0,0,1,2068.69,715.87Z"/><path class="cls-3" d="M2156.81,726.73a123.53,123.53,0,0,1,123.51,123.51v88.12a123.51,123.51,0,0,1-123.51,123.5h-88.12a123.49,123.49,0,0,1-123.5-123.5V850.24a123.51,123.51,0,0,1,123.5-123.51h88.12m0-21.73h-88.12a145.24,145.24,0,0,0-145.24,145.24v88.12a145.24,145.24,0,0,0,145.24,145.24h88.12a145.24,145.24,0,0,0,145.24-145.24V850.24A145.24,145.24,0,0,0,2156.81,705Z"/><rect class="cls-1" x="1996.72" y="778.27" width="232.77" height="232.77" rx="73.25"/><path class="cls-3" d="M2156.23,789.13a62.46,62.46,0,0,1,62.39,62.39v86.26a62.46,62.46,0,0,1-62.39,62.39H2070a62.46,62.46,0,0,1-62.39-62.39V851.52A62.46,62.46,0,0,1,2070,789.13h86.26m0-21.73H2070a84.12,84.12,0,0,0-84.12,84.12v86.26A84.12,84.12,0,0,0,2070,1021.9h86.26a84.12,84.12,0,0,0,84.12-84.12V851.52a84.12,84.12,0,0,0-84.12-84.12Z"/><line class="cls-24" x1="2248.5" y1="746" x2="2206.7" y2="794.04"/><line class="cls-25" x1="1977.5" y1="746" x2="2019.5" y2="794.04"/><line class="cls-26" x1="1977.5" y1="1043" x2="2018.1" y2="995.96"/><line class="cls-27" x1="2248.5" y1="1044" x2="2206.7" y2="998.76"/><path class="cls-2" d="M2454.3,715.87h88.11a134.37,134.37,0,0,1,134.37,134.37v88.11a134.38,134.38,0,0,1-134.38,134.38H2454.3a134.38,134.38,0,0,1-134.37-134.37V850.24A134.37,134.37,0,0,1,2454.3,715.87Z"/><path class="cls-3" d="M2542.42,726.73a123.51,123.51,0,0,1,123.5,123.51v88.12a123.49,123.49,0,0,1-123.5,123.5H2454.3a123.49,123.49,0,0,1-123.5-123.5V850.24a123.51,123.51,0,0,1,123.5-123.51h88.12m0-21.73H2454.3a145.24,145.24,0,0,0-145.24,145.24v88.12A145.24,145.24,0,0,0,2454.3,1083.6h88.12a145.24,145.24,0,0,0,145.24-145.24V850.24A145.24,145.24,0,0,0,2542.42,705Z"/><rect class="cls-1" x="2382.33" y="778.27" width="232.77" height="232.77" rx="73.25"/><path class="cls-3" d="M2541.84,789.13a62.46,62.46,0,0,1,62.39,62.39v86.26a62.46,62.46,0,0,1-62.39,62.39h-86.26a62.46,62.46,0,0,1-62.39-62.39V851.52a62.46,62.46,0,0,1,62.39-62.39h86.26m0-21.73h-86.26a84.12,84.12,0,0,0-84.12,84.12v86.26a84.12,84.12,0,0,0,84.12,84.12h86.26A84.12,84.12,0,0,0,2626,937.78V851.52a84.12,84.12,0,0,0-84.12-84.12Z"/><line class="cls-28" x1="2634.5" y1="746" x2="2592.31" y2="794.04"/><line class="cls-29" x1="2360.5" y1="743" x2="2405.11" y2="794.04"/><line class="cls-30" x1="2360.5" y1="1043" x2="2403.71" y2="995.96"/><line class="cls-31" x1="2635.5" y1="1045" x2="2592.31" y2="998.76"/><text class="cls-32" transform="translate(99.99 914.61)">P</text><text class="cls-33" transform="translate(486.88 914.42)">R</text><text class="cls-34" transform="translate(861.27 914.61)">O</text><text class="cls-35" transform="translate(1241.27 914.67)">G</text><text class="cls-36" transform="translate(1626.88 914.45)">R</text><text class="cls-37" transform="translate(2013.89 920.76)">A</text><text class="cls-38" transform="translate(2398.09 921.04)">M</text><path class="cls-2" d="M2840.3,715.87h88.11a134.38,134.38,0,0,1,134.38,134.38v88.11a134.37,134.37,0,0,1-134.37,134.37H2840.3a134.38,134.38,0,0,1-134.37-134.37V850.24A134.37,134.37,0,0,1,2840.3,715.87Z"/><path class="cls-3" d="M2928.42,726.73a123.51,123.51,0,0,1,123.5,123.51v88.12a123.49,123.49,0,0,1-123.5,123.5H2840.3a123.49,123.49,0,0,1-123.5-123.5V850.24a123.51,123.51,0,0,1,123.5-123.51h88.12m0-21.73H2840.3a145.24,145.24,0,0,0-145.24,145.24v88.12A145.24,145.24,0,0,0,2840.3,1083.6h88.12a145.24,145.24,0,0,0,145.24-145.24V850.24A145.24,145.24,0,0,0,2928.42,705Z"/><rect class="cls-1" x="2768.33" y="778.27" width="232.77" height="232.77" rx="73.25"/><path class="cls-3" d="M2927.84,789.13a62.46,62.46,0,0,1,62.39,62.39v86.26a62.46,62.46,0,0,1-62.39,62.39h-86.26a62.46,62.46,0,0,1-62.39-62.39V851.52a62.46,62.46,0,0,1,62.39-62.39h86.26m0-21.73h-86.26a84.12,84.12,0,0,0-84.12,84.12v86.26a84.12,84.12,0,0,0,84.12,84.12h86.26A84.12,84.12,0,0,0,3012,937.78V851.52a84.12,84.12,0,0,0-84.12-84.12Z"/><line class="cls-39" x1="3023.5" y1="741" x2="2978.31" y2="794.04"/><line class="cls-40" x1="2744.5" y1="741" x2="2791.11" y2="794.04"/><line class="cls-41" x1="2747.5" y1="1043" x2="2789.71" y2="995.96"/><line class="cls-31" x1="3021.5" y1="1045" x2="2978.31" y2="998.76"/><text class="cls-38" transform="translate(2784.09 921.04)">M</text><rect class="cls-2" x="3090.93" y="715.87" width="356.86" height="356.86" rx="134.37"/><path class="cls-3" d="M3313.42,726.73a123.51,123.51,0,0,1,123.5,123.51v88.12a123.49,123.49,0,0,1-123.5,123.5H3225.3a123.49,123.49,0,0,1-123.5-123.5V850.24a123.51,123.51,0,0,1,123.5-123.51h88.12m0-21.73H3225.3a145.24,145.24,0,0,0-145.24,145.24v88.12A145.24,145.24,0,0,0,3225.3,1083.6h88.12a145.24,145.24,0,0,0,145.24-145.24V850.24A145.24,145.24,0,0,0,3313.42,705Z"/><rect class="cls-1" x="3153.33" y="778.27" width="232.77" height="232.77" rx="73.25"/><path class="cls-3" d="M3312.84,789.13a62.46,62.46,0,0,1,62.39,62.39v86.26a62.46,62.46,0,0,1-62.39,62.39h-86.26a62.46,62.46,0,0,1-62.39-62.39V851.52a62.46,62.46,0,0,1,62.39-62.39h86.26m0-21.73h-86.26a84.12,84.12,0,0,0-84.12,84.12v86.26a84.12,84.12,0,0,0,84.12,84.12h86.26A84.12,84.12,0,0,0,3397,937.78V851.52a84.12,84.12,0,0,0-84.12-84.12Z"/><line class="cls-39" x1="3408.5" y1="741" x2="3363.31" y2="794.04"/><line class="cls-40" x1="3129.5" y1="741" x2="3176.11" y2="794.04"/><line class="cls-41" x1="3132.5" y1="1043" x2="3174.71" y2="995.96"/><line class="cls-31" x1="3406.5" y1="1045" x2="3363.31" y2="998.76"/><text class="cls-38" transform="translate(3187.09 930.04)">I</text><rect class="cls-2" x="3476.93" y="716.87" width="356.86" height="356.86" rx="134.38"/><path class="cls-3" d="M3699.42,727.73a123.51,123.51,0,0,1,123.5,123.51v88.12a123.49,123.49,0,0,1-123.5,123.5H3611.3a123.49,123.49,0,0,1-123.5-123.5V851.24a123.51,123.51,0,0,1,123.5-123.51h88.12m0-21.73H3611.3a145.24,145.24,0,0,0-145.24,145.24v88.12A145.24,145.24,0,0,0,3611.3,1084.6h88.12a145.24,145.24,0,0,0,145.24-145.24V851.24A145.24,145.24,0,0,0,3699.42,706Z"/><rect class="cls-1" x="3539.33" y="779.27" width="232.77" height="232.77" rx="73.25"/><path class="cls-3" d="M3698.84,790.13a62.46,62.46,0,0,1,62.39,62.39v86.26a62.46,62.46,0,0,1-62.39,62.39h-86.26a62.46,62.46,0,0,1-62.39-62.39V852.52a62.46,62.46,0,0,1,62.39-62.39h86.26m0-21.73h-86.26a84.12,84.12,0,0,0-84.12,84.12v86.26a84.12,84.12,0,0,0,84.12,84.12h86.26A84.12,84.12,0,0,0,3783,938.78V852.52a84.12,84.12,0,0,0-84.12-84.12Z"/><line class="cls-39" x1="3794.5" y1="742" x2="3749.31" y2="795.04"/><line class="cls-40" x1="3515.5" y1="742" x2="3562.11" y2="795.04"/><line class="cls-41" x1="3518.5" y1="1044" x2="3560.71" y2="996.96"/><line class="cls-31" x1="3792.5" y1="1046" x2="3749.31" y2="999.76"/><text class="cls-38" transform="translate(3570.09 919.04)">N</text><path class="cls-2" d="M3999.3,715.87h88.11a134.37,134.37,0,0,1,134.37,134.37v88.11a134.37,134.37,0,0,1-134.37,134.37H3999.3a134.38,134.38,0,0,1-134.38-134.38V850.24A134.37,134.37,0,0,1,3999.3,715.87Z"/><path class="cls-3" d="M4087.42,726.73a123.51,123.51,0,0,1,123.5,123.51v88.12a123.49,123.49,0,0,1-123.5,123.5H3999.3a123.49,123.49,0,0,1-123.5-123.5V850.24a123.51,123.51,0,0,1,123.5-123.51h88.12m0-21.73H3999.3a145.24,145.24,0,0,0-145.24,145.24v88.12A145.24,145.24,0,0,0,3999.3,1083.6h88.12a145.24,145.24,0,0,0,145.24-145.24V850.24A145.24,145.24,0,0,0,4087.42,705Z"/><rect class="cls-1" x="3927.33" y="778.27" width="232.77" height="232.77" rx="73.25"/><path class="cls-3" d="M4086.84,789.13a62.46,62.46,0,0,1,62.39,62.39v86.26a62.46,62.46,0,0,1-62.39,62.39h-86.26a62.46,62.46,0,0,1-62.39-62.39V851.52a62.46,62.46,0,0,1,62.39-62.39h86.26m0-21.73h-86.26a84.12,84.12,0,0,0-84.12,84.12v86.26a84.12,84.12,0,0,0,84.12,84.12h86.26A84.12,84.12,0,0,0,4171,937.78V851.52a84.12,84.12,0,0,0-84.12-84.12Z"/><line class="cls-39" x1="4182.5" y1="741" x2="4137.31" y2="794.04"/><line class="cls-40" x1="3903.5" y1="741" x2="3950.11" y2="794.04"/><line class="cls-41" x1="3906.5" y1="1043" x2="3948.71" y2="995.96"/><line class="cls-31" x1="4180.5" y1="1045" x2="4137.31" y2="998.76"/><text class="cls-38" transform="translate(3958.09 918.04)">G</text><path class="cls-2" d="M-46.65,319.27H41.46A134.38,134.38,0,0,1,175.84,453.64v88.11A134.37,134.37,0,0,1,41.46,676.13H-46.65A134.37,134.37,0,0,1-181,541.76V453.64A134.38,134.38,0,0,1-46.65,319.27Z"/><path class="cls-3" d="M41.46,330.14a122.7,122.7,0,0,1,87.34,36.17A122.68,122.68,0,0,1,165,453.64v88.12a122.68,122.68,0,0,1-36.17,87.33,122.71,122.71,0,0,1-87.34,36.18H-46.65A122.69,122.69,0,0,1-134,629.09a122.69,122.69,0,0,1-36.18-87.33V453.64A122.69,122.69,0,0,1-134,366.31a122.68,122.68,0,0,1,87.33-36.17H41.46m0-21.74H-46.65A145.24,145.24,0,0,0-191.89,453.64v88.12A145.24,145.24,0,0,0-46.65,687H41.46A145.25,145.25,0,0,0,186.71,541.76V453.64A145.25,145.25,0,0,0,41.46,308.4Z"/><rect class="cls-1" x="-118.63" y="381.67" width="232.77" height="232.77" rx="73.25"/><path class="cls-3" d="M40.89,392.54a62.45,62.45,0,0,1,62.39,62.38v86.26a62.46,62.46,0,0,1-62.39,62.39H-45.37a62.46,62.46,0,0,1-62.39-62.39V454.92a62.45,62.45,0,0,1,62.39-62.38H40.89m0-21.74H-45.37a84.12,84.12,0,0,0-84.12,84.12v86.26A84.12,84.12,0,0,0-45.37,625.3H40.89A84.12,84.12,0,0,0,125,541.18V454.92A84.12,84.12,0,0,0,40.89,370.8Z"/><line class="cls-4" x1="133.5" y1="348" x2="91.36" y2="397.44"/><line class="cls-7" x1="133.5" y1="646" x2="91.36" y2="602.17"/><path class="cls-2" d="M338.26,317.87h88.11A134.38,134.38,0,0,1,560.75,452.24v88.11A134.38,134.38,0,0,1,426.37,674.73H338.26A134.37,134.37,0,0,1,203.88,540.36V452.24A134.38,134.38,0,0,1,338.26,317.87Z"/><path class="cls-3" d="M426.37,328.73A123.51,123.51,0,0,1,549.88,452.24v88.12a123.49,123.49,0,0,1-123.51,123.5H338.26a123.51,123.51,0,0,1-123.51-123.5V452.24A123.53,123.53,0,0,1,338.26,328.73h88.11m0-21.73H338.26A145.24,145.24,0,0,0,193,452.24v88.12A145.24,145.24,0,0,0,338.26,685.6h88.11A145.24,145.24,0,0,0,571.61,540.36V452.24A145.24,145.24,0,0,0,426.37,307Z"/><rect class="cls-1" x="266.28" y="380.27" width="232.77" height="232.77" rx="73.25"/><path class="cls-3" d="M425.8,391.13a62.45,62.45,0,0,1,62.38,62.39v86.26a62.45,62.45,0,0,1-62.38,62.39H339.53a62.45,62.45,0,0,1-62.38-62.39V453.52a62.45,62.45,0,0,1,62.38-62.39H425.8m0-21.73H339.53a84.12,84.12,0,0,0-84.11,84.12v86.26a84.12,84.12,0,0,0,84.11,84.12H425.8a84.12,84.12,0,0,0,84.12-84.12V453.52A84.12,84.12,0,0,0,425.8,369.4Z"/><line class="cls-8" x1="518.5" y1="345" x2="476.26" y2="396.04"/><line class="cls-9" x1="247.5" y1="348" x2="289.07" y2="396.04"/><line class="cls-10" x1="250.5" y1="646" x2="287.67" y2="597.96"/><line class="cls-11" x1="518.5" y1="646" x2="476.26" y2="600.76"/><path class="cls-2" d="M723.87,318.57H812A134.38,134.38,0,0,1,946.36,452.94v88.11A134.38,134.38,0,0,1,812,675.43H723.87A134.37,134.37,0,0,1,589.49,541.06V452.94A134.38,134.38,0,0,1,723.87,318.57Z"/><path class="cls-3" d="M812,329.44a123.51,123.51,0,0,1,123.51,123.5v88.12A123.51,123.51,0,0,1,812,664.56H723.87a123.49,123.49,0,0,1-123.51-123.5V452.94a123.49,123.49,0,0,1,123.51-123.5H812m0-21.74H723.87A145.24,145.24,0,0,0,578.63,452.94v88.12A145.24,145.24,0,0,0,723.87,686.3H812A145.24,145.24,0,0,0,957.22,541.06V452.94A145.24,145.24,0,0,0,812,307.7Z"/><rect class="cls-1" x="651.89" y="380.97" width="232.77" height="232.77" rx="73.25"/><path class="cls-3" d="M811.41,391.83a62.45,62.45,0,0,1,62.38,62.39v86.26a62.45,62.45,0,0,1-62.38,62.39H725.14a62.45,62.45,0,0,1-62.38-62.39V454.22a62.45,62.45,0,0,1,62.38-62.39h86.27m0-21.73H725.14A84.12,84.12,0,0,0,641,454.22v86.26a84.12,84.12,0,0,0,84.12,84.12h86.27a84.12,84.12,0,0,0,84.12-84.12V454.22a84.12,84.12,0,0,0-84.12-84.12Z"/><line class="cls-12" x1="904.5" y1="348" x2="861.87" y2="396.74"/><line class="cls-13" x1="632.5" y1="348" x2="674.68" y2="396.74"/><line class="cls-14" x1="632.5" y1="646" x2="673.27" y2="598.66"/><line class="cls-15" x1="904.5" y1="646" x2="861.87" y2="601.46"/><rect class="cls-2" x="975.1" y="317.87" width="356.86" height="356.86" rx="134.38"/><path class="cls-3" d="M1197.59,328.73A123.53,123.53,0,0,1,1321.1,452.24v88.12a123.51,123.51,0,0,1-123.51,123.5h-88.11A123.49,123.49,0,0,1,986,540.36V452.24a123.51,123.51,0,0,1,123.51-123.51h88.11m0-21.73h-88.11A145.25,145.25,0,0,0,964.23,452.24v88.12A145.25,145.25,0,0,0,1109.48,685.6h88.11a145.24,145.24,0,0,0,145.24-145.24V452.24A145.24,145.24,0,0,0,1197.59,307Z"/><rect class="cls-1" x="1037.5" y="380.27" width="232.77" height="232.77" rx="73.25"/><path class="cls-3" d="M1197,391.13a62.45,62.45,0,0,1,62.38,62.39v86.26A62.45,62.45,0,0,1,1197,602.17h-86.27a62.45,62.45,0,0,1-62.38-62.39V453.52a62.45,62.45,0,0,1,62.38-62.39H1197m0-21.73h-86.27a84.12,84.12,0,0,0-84.12,84.12v86.26a84.12,84.12,0,0,0,84.12,84.12H1197a84.12,84.12,0,0,0,84.11-84.12V453.52A84.12,84.12,0,0,0,1197,369.4Z"/><line class="cls-16" x1="1291.5" y1="345" x2="1247.48" y2="396.04"/><line class="cls-17" x1="1018.5" y1="348" x2="1060.29" y2="396.04"/><line class="cls-18" x1="1017.5" y1="646" x2="1058.88" y2="597.96"/><line class="cls-19" x1="1291.5" y1="648" x2="1247.48" y2="600.76"/><path class="cls-2" d="M1495.09,317.87h88.11a134.37,134.37,0,0,1,134.37,134.37v88.11A134.37,134.37,0,0,1,1583.2,674.73h-88.11a134.37,134.37,0,0,1-134.37-134.37V452.24A134.38,134.38,0,0,1,1495.09,317.87Z"/><path class="cls-3" d="M1583.2,328.73a123.53,123.53,0,0,1,123.51,123.51v88.12a123.51,123.51,0,0,1-123.51,123.5h-88.11a123.49,123.49,0,0,1-123.51-123.5V452.24a123.51,123.51,0,0,1,123.51-123.51h88.11m0-21.73h-88.11a145.25,145.25,0,0,0-145.25,145.24v88.12A145.25,145.25,0,0,0,1495.09,685.6h88.11a145.24,145.24,0,0,0,145.24-145.24V452.24A145.24,145.24,0,0,0,1583.2,307Z"/><rect class="cls-1" x="1423.11" y="380.27" width="232.77" height="232.77" rx="73.25"/><path class="cls-3" d="M1582.63,391.13A62.46,62.46,0,0,1,1645,453.52v86.26a62.46,62.46,0,0,1-62.38,62.39h-86.27A62.45,62.45,0,0,1,1434,539.78V453.52a62.45,62.45,0,0,1,62.38-62.39h86.27m0-21.73h-86.27a84.12,84.12,0,0,0-84.12,84.12v86.26a84.12,84.12,0,0,0,84.12,84.12h86.27a84.12,84.12,0,0,0,84.11-84.12V453.52a84.12,84.12,0,0,0-84.11-84.12Z"/><line class="cls-20" x1="1674.5" y1="348" x2="1633.09" y2="396.04"/><line class="cls-21" x1="1401.5" y1="345" x2="1445.89" y2="396.04"/><line class="cls-22" x1="1403.5" y1="646" x2="1444.49" y2="597.96"/><line class="cls-23" x1="1677.5" y1="648" x2="1633.09" y2="600.76"/><rect class="cls-2" x="1746.32" y="317.87" width="356.86" height="356.86" rx="134.38"/><path class="cls-3" d="M1968.81,328.73a123.53,123.53,0,0,1,123.51,123.51v88.12a123.51,123.51,0,0,1-123.51,123.5h-88.12a123.49,123.49,0,0,1-123.5-123.5V452.24a123.51,123.51,0,0,1,123.5-123.51h88.12m0-21.73h-88.12a145.24,145.24,0,0,0-145.24,145.24v88.12A145.24,145.24,0,0,0,1880.69,685.6h88.12a145.24,145.24,0,0,0,145.24-145.24V452.24A145.24,145.24,0,0,0,1968.81,307Z"/><rect class="cls-1" x="1808.72" y="380.27" width="232.77" height="232.77" rx="73.25"/><path class="cls-3" d="M1968.23,391.13a62.46,62.46,0,0,1,62.39,62.39v86.26a62.46,62.46,0,0,1-62.39,62.39H1882a62.46,62.46,0,0,1-62.39-62.39V453.52A62.46,62.46,0,0,1,1882,391.13h86.26m0-21.73H1882a84.12,84.12,0,0,0-84.12,84.12v86.26A84.12,84.12,0,0,0,1882,623.9h86.26a84.12,84.12,0,0,0,84.12-84.12V453.52a84.12,84.12,0,0,0-84.12-84.12Z"/><line class="cls-24" x1="2060.5" y1="348" x2="2018.7" y2="396.04"/><line class="cls-25" x1="1789.5" y1="348" x2="1831.5" y2="396.04"/><line class="cls-26" x1="1789.5" y1="645" x2="1830.1" y2="597.96"/><line class="cls-27" x1="2060.5" y1="646" x2="2018.7" y2="600.76"/><rect class="cls-2" x="2131.93" y="317.87" width="356.86" height="356.86" rx="134.38"/><path class="cls-3" d="M2354.42,328.73a123.51,123.51,0,0,1,123.5,123.51v88.12a123.49,123.49,0,0,1-123.5,123.5H2266.3a123.49,123.49,0,0,1-123.5-123.5V452.24a123.51,123.51,0,0,1,123.5-123.51h88.12m0-21.73H2266.3a145.24,145.24,0,0,0-145.24,145.24v88.12A145.24,145.24,0,0,0,2266.3,685.6h88.12a145.24,145.24,0,0,0,145.24-145.24V452.24A145.24,145.24,0,0,0,2354.42,307Z"/><rect class="cls-1" x="2194.33" y="380.27" width="232.77" height="232.77" rx="73.25"/><path class="cls-3" d="M2353.84,391.13a62.46,62.46,0,0,1,62.39,62.39v86.26a62.46,62.46,0,0,1-62.39,62.39h-86.26a62.46,62.46,0,0,1-62.39-62.39V453.52a62.46,62.46,0,0,1,62.39-62.39h86.26m0-21.73h-86.26a84.12,84.12,0,0,0-84.12,84.12v86.26a84.12,84.12,0,0,0,84.12,84.12h86.26A84.12,84.12,0,0,0,2438,539.78V453.52a84.12,84.12,0,0,0-84.12-84.12Z"/><line class="cls-28" x1="2446.5" y1="348" x2="2404.31" y2="396.04"/><line class="cls-29" x1="2172.5" y1="345" x2="2217.11" y2="396.04"/><line class="cls-30" x1="2172.5" y1="645" x2="2215.71" y2="597.96"/><line class="cls-31" x1="2447.5" y1="647" x2="2404.31" y2="600.76"/><text class="cls-33" transform="translate(298.88 516.42)">R</text><text class="cls-34" transform="translate(673.27 516.61)">O</text><text class="cls-35" transform="translate(1053.27 516.67)">G</text><text class="cls-36" transform="translate(1438.88 516.45)">R</text><text class="cls-37" transform="translate(1825.89 522.76)">A</text><text class="cls-38" transform="translate(2210.09 523.04)">M</text><path class="cls-2" d="M2652.3,317.87h88.11a134.38,134.38,0,0,1,134.38,134.38v88.11a134.37,134.37,0,0,1-134.37,134.37H2652.3a134.38,134.38,0,0,1-134.38-134.38V452.24A134.38,134.38,0,0,1,2652.3,317.87Z"/><path class="cls-3" d="M2740.42,328.73a123.51,123.51,0,0,1,123.5,123.51v88.12a123.49,123.49,0,0,1-123.5,123.5H2652.3a123.49,123.49,0,0,1-123.5-123.5V452.24a123.51,123.51,0,0,1,123.5-123.51h88.12m0-21.73H2652.3a145.24,145.24,0,0,0-145.24,145.24v88.12A145.24,145.24,0,0,0,2652.3,685.6h88.12a145.24,145.24,0,0,0,145.24-145.24V452.24A145.24,145.24,0,0,0,2740.42,307Z"/><rect class="cls-1" x="2580.33" y="380.27" width="232.77" height="232.77" rx="73.25"/><path class="cls-3" d="M2739.84,391.13a62.46,62.46,0,0,1,62.39,62.39v86.26a62.46,62.46,0,0,1-62.39,62.39h-86.26a62.46,62.46,0,0,1-62.39-62.39V453.52a62.46,62.46,0,0,1,62.39-62.39h86.26m0-21.73h-86.26a84.12,84.12,0,0,0-84.12,84.12v86.26a84.12,84.12,0,0,0,84.12,84.12h86.26A84.12,84.12,0,0,0,2824,539.78V453.52a84.12,84.12,0,0,0-84.12-84.12Z"/><line class="cls-39" x1="2835.5" y1="343" x2="2790.31" y2="396.04"/><line class="cls-40" x1="2556.5" y1="343" x2="2603.11" y2="396.04"/><line class="cls-41" x1="2559.5" y1="645" x2="2601.71" y2="597.96"/><line class="cls-31" x1="2833.5" y1="647" x2="2790.31" y2="600.76"/><text class="cls-38" transform="translate(2596.09 523.04)">M</text><path class="cls-2" d="M3037.3,317.87h88.11a134.37,134.37,0,0,1,134.37,134.37v88.11a134.38,134.38,0,0,1-134.38,134.38H3037.3a134.38,134.38,0,0,1-134.38-134.38V452.24A134.37,134.37,0,0,1,3037.3,317.87Z"/><path class="cls-3" d="M3125.42,328.73a123.51,123.51,0,0,1,123.5,123.51v88.12a123.49,123.49,0,0,1-123.5,123.5H3037.3a123.49,123.49,0,0,1-123.5-123.5V452.24a123.51,123.51,0,0,1,123.5-123.51h88.12m0-21.73H3037.3a145.24,145.24,0,0,0-145.24,145.24v88.12A145.24,145.24,0,0,0,3037.3,685.6h88.12a145.24,145.24,0,0,0,145.24-145.24V452.24A145.24,145.24,0,0,0,3125.42,307Z"/><rect class="cls-1" x="2965.33" y="380.27" width="232.77" height="232.77" rx="73.25"/><path class="cls-3" d="M3124.84,391.13a62.46,62.46,0,0,1,62.39,62.39v86.26a62.46,62.46,0,0,1-62.39,62.39h-86.26a62.46,62.46,0,0,1-62.39-62.39V453.52a62.46,62.46,0,0,1,62.39-62.39h86.26m0-21.73h-86.26a84.12,84.12,0,0,0-84.12,84.12v86.26a84.12,84.12,0,0,0,84.12,84.12h86.26A84.12,84.12,0,0,0,3209,539.78V453.52a84.12,84.12,0,0,0-84.12-84.12Z"/><line class="cls-39" x1="3220.5" y1="343" x2="3175.31" y2="396.04"/><line class="cls-40" x1="2941.5" y1="343" x2="2988.11" y2="396.04"/><line class="cls-41" x1="2944.5" y1="645" x2="2986.71" y2="597.96"/><line class="cls-31" x1="3218.5" y1="647" x2="3175.31" y2="600.76"/><text class="cls-38" transform="translate(2999.09 532.04)">I</text><path class="cls-2" d="M3423.3,318.87h88.11a134.37,134.37,0,0,1,134.37,134.37v88.11a134.38,134.38,0,0,1-134.37,134.38H3423.3a134.38,134.38,0,0,1-134.38-134.38V453.24A134.38,134.38,0,0,1,3423.3,318.87Z"/><path class="cls-3" d="M3511.42,329.73a123.51,123.51,0,0,1,123.5,123.51v88.12a123.49,123.49,0,0,1-123.5,123.5H3423.3a123.49,123.49,0,0,1-123.5-123.5V453.24a123.51,123.51,0,0,1,123.5-123.51h88.12m0-21.73H3423.3a145.24,145.24,0,0,0-145.24,145.24v88.12A145.24,145.24,0,0,0,3423.3,686.6h88.12a145.24,145.24,0,0,0,145.24-145.24V453.24A145.24,145.24,0,0,0,3511.42,308Z"/><rect class="cls-1" x="3351.33" y="381.27" width="232.77" height="232.77" rx="73.25"/><path class="cls-3" d="M3510.84,392.13a62.46,62.46,0,0,1,62.39,62.39v86.26a62.46,62.46,0,0,1-62.39,62.39h-86.26a62.46,62.46,0,0,1-62.39-62.39V454.52a62.46,62.46,0,0,1,62.39-62.39h86.26m0-21.73h-86.26a84.12,84.12,0,0,0-84.12,84.12v86.26a84.12,84.12,0,0,0,84.12,84.12h86.26A84.12,84.12,0,0,0,3595,540.78V454.52a84.12,84.12,0,0,0-84.12-84.12Z"/><line class="cls-39" x1="3606.5" y1="344" x2="3561.31" y2="397.04"/><line class="cls-40" x1="3327.5" y1="344" x2="3374.11" y2="397.04"/><line class="cls-41" x1="3330.5" y1="646" x2="3372.71" y2="598.96"/><line class="cls-31" x1="3604.5" y1="648" x2="3561.31" y2="601.76"/><text class="cls-38" transform="translate(3382.09 521.04)">N</text><rect class="cls-2" x="3676.93" y="317.87" width="356.86" height="356.86" rx="134.38"/><path class="cls-3" d="M3899.42,328.73a123.51,123.51,0,0,1,123.5,123.51v88.12a123.49,123.49,0,0,1-123.5,123.5H3811.3a123.49,123.49,0,0,1-123.5-123.5V452.24a123.51,123.51,0,0,1,123.5-123.51h88.12m0-21.73H3811.3a145.24,145.24,0,0,0-145.24,145.24v88.12A145.24,145.24,0,0,0,3811.3,685.6h88.12a145.24,145.24,0,0,0,145.24-145.24V452.24A145.24,145.24,0,0,0,3899.42,307Z"/><rect class="cls-1" x="3739.33" y="380.27" width="232.77" height="232.77" rx="73.25"/><path class="cls-3" d="M3898.84,391.13a62.46,62.46,0,0,1,62.39,62.39v86.26a62.46,62.46,0,0,1-62.39,62.39h-86.26a62.46,62.46,0,0,1-62.39-62.39V453.52a62.46,62.46,0,0,1,62.39-62.39h86.26m0-21.73h-86.26a84.12,84.12,0,0,0-84.12,84.12v86.26a84.12,84.12,0,0,0,84.12,84.12h86.26A84.12,84.12,0,0,0,3983,539.78V453.52a84.12,84.12,0,0,0-84.12-84.12Z"/><line class="cls-39" x1="3994.5" y1="343" x2="3949.31" y2="396.04"/><line class="cls-40" x1="3715.5" y1="343" x2="3762.11" y2="396.04"/><line class="cls-41" x1="3718.5" y1="645" x2="3760.71" y2="597.96"/><line class="cls-31" x1="3992.5" y1="647" x2="3949.31" y2="600.76"/><text class="cls-38" transform="translate(3770.09 520.04)">G</text><path class="cls-2" d="M4198.3,315.87h88.11a134.38,134.38,0,0,1,134.38,134.38v88.11a134.37,134.37,0,0,1-134.37,134.37H4198.3a134.37,134.37,0,0,1-134.37-134.37V450.24A134.38,134.38,0,0,1,4198.3,315.87Z"/><path class="cls-3" d="M4286.42,326.73a123.51,123.51,0,0,1,123.5,123.51v88.12a123.49,123.49,0,0,1-123.5,123.5H4198.3a123.49,123.49,0,0,1-123.5-123.5V450.24a123.51,123.51,0,0,1,123.5-123.51h88.12m0-21.73H4198.3a145.24,145.24,0,0,0-145.24,145.24v88.12A145.24,145.24,0,0,0,4198.3,683.6h88.12a145.24,145.24,0,0,0,145.24-145.24V450.24A145.24,145.24,0,0,0,4286.42,305Z"/><rect class="cls-1" x="4126.33" y="378.27" width="232.77" height="232.77" rx="73.25"/><path class="cls-3" d="M4285.84,389.13a62.46,62.46,0,0,1,62.39,62.39v86.26a62.46,62.46,0,0,1-62.39,62.39h-86.26a62.46,62.46,0,0,1-62.39-62.39V451.52a62.46,62.46,0,0,1,62.39-62.39h86.26m0-21.73h-86.26a84.12,84.12,0,0,0-84.12,84.12v86.26a84.12,84.12,0,0,0,84.12,84.12h86.26A84.12,84.12,0,0,0,4370,537.78V451.52a84.12,84.12,0,0,0-84.12-84.12Z"/><line class="cls-40" x1="4102.5" y1="341" x2="4149.11" y2="394.04"/><line class="cls-41" x1="4105.5" y1="643" x2="4147.71" y2="595.96"/><text class="cls-38" transform="translate(4157.09 518.04)">*</text></g><g id="texto"><rect class="cls-42" x="580.5" y="395" width="969" height="944" rx="218.62"/><rect class="cls-43" x="670.11" y="482.29" width="789.79" height="769.41" rx="218.62"/><line class="cls-44" x1="658.03" y1="446.61" x2="739.13" y2="541.5"/><line class="cls-44" x1="1463.97" y1="446.61" x2="1382.87" y2="541.5"/><line class="cls-44" x1="622.61" y1="1271.97" x2="717.5" y2="1190.87"/><line class="cls-44" x1="1507.39" y1="1271.97" x2="1412.5" y2="1190.87"/><rect class="cls-42" x="1634.5" y="395" width="969" height="944" rx="218.62"/><rect class="cls-43" x="1724.11" y="482.29" width="789.79" height="769.41" rx="218.62"/><line class="cls-44" x1="1712.03" y1="446.61" x2="1793.13" y2="541.5"/><line class="cls-44" x1="2517.97" y1="446.61" x2="2436.87" y2="541.5"/><line class="cls-44" x1="1676.61" y1="1271.97" x2="1771.5" y2="1190.87"/><line class="cls-44" x1="2561.39" y1="1271.97" x2="2466.5" y2="1190.87"/><rect class="cls-42" x="2688.5" y="384" width="969" height="944" rx="218.62"/><rect class="cls-43" x="2778.11" y="471.29" width="789.79" height="769.41" rx="218.62"/><line class="cls-44" x1="2766.03" y1="435.61" x2="2847.13" y2="530.5"/><line class="cls-44" x1="3571.97" y1="435.61" x2="3490.87" y2="530.5"/><line class="cls-44" x1="2730.61" y1="1260.97" x2="2825.5" y2="1179.87"/><line class="cls-44" x1="3615.39" y1="1260.97" x2="3520.5" y2="1179.87"/><text class="cls-45" transform="translate(739.22 872.82) scale(0.99 1)">W</text><text class="cls-45" transform="translate(1793.22 872.82) scale(0.99 1)">E</text><text class="cls-45" transform="translate(2847.22 861.82) scale(0.99 1)">B</text></g></svg>