<svg xmlns="http://www.w3.org/2000/svg" viewBox="0 0 4371 1580"><defs><style>.cls-1,.cls-10,.cls-11,.cls-12,.cls-13,.cls-14,.cls-15,.cls-16,.cls-17,.cls-18,.cls-19,.cls-20,.cls-21,.cls-22,.cls-23,.cls-24,.cls-25,.cls-26,.cls-27,.cls-28,.cls-29,.cls-30,.cls-31,.cls-39,.cls-4,.cls-40,.cls-41,.cls-43,.cls-5,.cls-6,.cls-7,.cls-8,.cls-9{fill:#c2d9f3;}.cls-2{fill:#9ac8e8;}.cls-3{fill:#090a0a;}.cls-10,.cls-11,.cls-12,.cls-13,.cls-14,.cls-15,.cls-16,.cls-17,.cls-18,.cls-19,.cls-20,.cls-21,.cls-22,.cls-23,.cls-24,.cls-25,.cls-26,.cls-27,.cls-28,.cls-29,.cls-30,.cls-31,.cls-39,.cls-4,.cls-40,.cls-41,.cls-5,.cls-6,.cls-7,.cls-8,.cls-9{stroke:#090a0a;}.cls-10,.cls-11,.cls-12,.cls-13,.cls-14,.cls-15,.cls-16,.cls-17,.cls-18,.cls-19,.cls-20,.cls-21,.cls-22,.cls-23,.cls-24,.cls-25,.cls-26,.cls-27,.cls-28,.cls-29,.cls-30,.cls-31,.cls-39,.cls-4,.cls-40,.cls-41,.cls-42,.cls-43,.cls-44,.cls-5,.cls-6,.cls-7,.cls-8,.cls-9{stroke-miterlimit:10;}.cls-4{stroke-width:17.09px;}.cls-5{stroke-width:16.65px;}.cls-6{stroke-width:16.23px;}.cls-7{stroke-width:16.1px;}.cls-8{stroke-width:17.39px;}.cls-9{stroke-width:16.73px;}.cls-10{stroke-width:15.82px;}.cls-11{stroke-width:16.37px;}.cls-12{stroke-width:17.07px;}.cls-13{stroke-width:16.98px;}.cls-14{stroke-width:16.45px;}.cls-15{stroke-width:16.32px;}.cls-16{stroke-width:17.75px;}.cls-17{stroke-width:16.78px;}.cls-18{stroke-width:16.7px;}.cls-19{stroke-width:17.08px;}.cls-20{stroke-width:16.7px;}.cls-21{stroke-width:17.83px;}.cls-22{stroke-width:16.62px;}.cls-23{stroke-width:17.15px;}.cls-24{stroke-width:16.78px;}.cls-25{stroke-width:16.82px;}.cls-26{stroke-width:16.37px;}.cls-27{stroke-width:16.28px;}.cls-28{stroke-width:16.86px;}.cls-29{stroke-width:17.87px;}.cls-30{stroke-width:16.88px;}.cls-31{stroke-width:16.73px;}.cls-32{font-size:163.19px;}.cls-32,.cls-33,.cls-34,.cls-35,.cls-36,.cls-37,.cls-38,.cls-45{font-family:MyriadPro-Regular, Myriad Pro;}.cls-33{font-size:182.46px;}.cls-34{font-size:164.86px;}.cls-35{font-size:175.83px;}.cls-36{font-size:165.52px;}.cls-37{font-size:162.69px;}.cls-38{font-size:184.01px;}.cls-39{stroke-width:18.33px;}.cls-40{stroke-width:18.62px;}.cls-41{stroke-width:16.69px;}.cls-42{fill:#c2edf3;stroke-width:40px;}.cls-42,.cls-43{stroke:#050505;}.cls-43{stroke-width:45.13px;}.cls-44{fill:none;stroke:#000;stroke-width:30px;}.cls-45{font-size:400px;}</style></defs><title>programing-web-programing</title><g id="fondo"><rect class="cls-1" x="-79" width="4451" height="1620.02"/></g><g id="fondo-teclas-web"><rect class="cls-2" x="100.48" y="1212.27" width="356.86" height="356.86" rx="134.38"/><path class="cls-3" d="M323,1223.14a123.49,123.49,0,0,1,123.51,123.5v88.12A123.51,123.51,0,0,1,323,1558.27H234.85a123.53,123.53,0,0,1-123.51-123.51v-88.12a123.51,123.51,0,0,1,123.51-123.5H323m0-21.74H234.85A145.24,145.24,0,0,0,89.61,1346.64v88.12A145.24,145.24,0,0,0,234.85,1580H323a145.25,145.25,0,0,0,145.25-145.24v-88.12A145.25,145.25,0,0,0,323,1201.4Z"/><rect class="cls-1" x="162.87" y="1274.67" width="232.77" height="232.77" rx="73.25"/><path class="cls-3" d="M322.39,1285.54a62.45,62.45,0,0,1,62.39,62.38v86.26a62.46,62.46,0,0,1-62.39,62.39H236.13a62.46,62.46,0,0,1-62.39-62.39v-86.26a62.45,62.45,0,0,1,62.39-62.38h86.26m0-21.74H236.13A84.12,84.12,0,0,0,152,1347.92v86.26a84.12,84.12,0,0,0,84.12,84.12h86.26a84.12,84.12,0,0,0,84.12-84.12v-86.26a84.12,84.12,0,0,0-84.12-84.12Z"/><line class="cls-4" x1="415" y1="1241" x2="372.86" y2="1290.44"/><line class="cls-5" x1="144" y1="1243" x2="185.66" y2="1290.44"/><line class="cls-6" x1="144" y1="1539" x2="184.26" y2="1492.36"/><line class="cls-7" x1="415" y1="1539" x2="372.86" y2="1495.17"/><path class="cls-2" d="M619.76,1210.87h88.11a134.38,134.38,0,0,1,134.38,134.38v88.11a134.38,134.38,0,0,1-134.37,134.38H619.76a134.37,134.37,0,0,1-134.37-134.37v-88.11a134.38,134.38,0,0,1,134.38-134.37Z"/><path class="cls-3" d="M707.87,1221.73a123.51,123.51,0,0,1,123.51,123.51v88.12a123.49,123.49,0,0,1-123.51,123.5H619.76a123.51,123.51,0,0,1-123.51-123.5v-88.12a123.53,123.53,0,0,1,123.51-123.51h88.11m0-21.73H619.76a145.24,145.24,0,0,0-145.24,145.24v88.12A145.24,145.24,0,0,0,619.76,1578.6h88.11a145.24,145.24,0,0,0,145.24-145.24v-88.12A145.24,145.24,0,0,0,707.87,1200Z"/><rect class="cls-1" x="547.78" y="1273.27" width="232.77" height="232.77" rx="73.25"/><path class="cls-3" d="M707.3,1284.13a62.45,62.45,0,0,1,62.38,62.39v86.26a62.45,62.45,0,0,1-62.38,62.39H621a62.45,62.45,0,0,1-62.38-62.39v-86.26A62.45,62.45,0,0,1,621,1284.13H707.3m0-21.73H621a84.12,84.12,0,0,0-84.11,84.12v86.26A84.12,84.12,0,0,0,621,1516.9H707.3a84.12,84.12,0,0,0,84.12-84.12v-86.26a84.12,84.12,0,0,0-84.12-84.12Z"/><line class="cls-8" x1="800" y1="1238" x2="757.76" y2="1289.04"/><line class="cls-9" x1="529" y1="1241" x2="570.57" y2="1289.04"/><line class="cls-10" x1="532" y1="1539" x2="569.17" y2="1490.96"/><line class="cls-11" x1="800" y1="1539" x2="757.76" y2="1493.76"/><rect class="cls-2" x="870.99" y="1211.57" width="356.86" height="356.86" rx="134.38"/><path class="cls-3" d="M1093.48,1222.44A123.51,123.51,0,0,1,1217,1345.94v88.12a123.51,123.51,0,0,1-123.51,123.5h-88.11a123.49,123.49,0,0,1-123.51-123.5v-88.12a123.49,123.49,0,0,1,123.51-123.5h88.11m0-21.74h-88.11a145.24,145.24,0,0,0-145.24,145.24v88.12a145.24,145.24,0,0,0,145.24,145.24h88.11a145.24,145.24,0,0,0,145.24-145.24v-88.12a145.24,145.24,0,0,0-145.24-145.24Z"/><rect class="cls-1" x="933.39" y="1273.97" width="232.77" height="232.77" rx="73.25"/><path class="cls-3" d="M1092.91,1284.83a62.45,62.45,0,0,1,62.38,62.39v86.26a62.45,62.45,0,0,1-62.38,62.39h-86.27a62.45,62.45,0,0,1-62.38-62.39v-86.26a62.45,62.45,0,0,1,62.38-62.39h86.27m0-21.73h-86.27a84.12,84.12,0,0,0-84.12,84.12v86.26a84.12,84.12,0,0,0,84.12,84.12h86.27a84.12,84.12,0,0,0,84.12-84.12v-86.26a84.12,84.12,0,0,0-84.12-84.12Z"/><line class="cls-12" x1="1186" y1="1241" x2="1143.37" y2="1289.74"/><line class="cls-13" x1="914" y1="1241" x2="956.18" y2="1289.74"/><line class="cls-14" x1="914" y1="1539" x2="954.77" y2="1491.66"/><line class="cls-15" x1="1186" y1="1539" x2="1143.37" y2="1494.46"/><path class="cls-2" d="M1391,1210.87h88.11a134.38,134.38,0,0,1,134.38,134.38v88.11a134.38,134.38,0,0,1-134.37,134.38H1391a134.37,134.37,0,0,1-134.37-134.37v-88.11A134.37,134.37,0,0,1,1391,1210.87Z"/><path class="cls-3" d="M1479.09,1221.73a123.53,123.53,0,0,1,123.51,123.51v88.12a123.51,123.51,0,0,1-123.51,123.5H1391a123.49,123.49,0,0,1-123.51-123.5v-88.12A123.51,123.51,0,0,1,1391,1221.73h88.11m0-21.73H1391a145.25,145.25,0,0,0-145.25,145.24v88.12A145.25,145.25,0,0,0,1391,1578.6h88.11a145.24,145.24,0,0,0,145.24-145.24v-88.12A145.24,145.24,0,0,0,1479.09,1200Z"/><rect class="cls-1" x="1319" y="1273.27" width="232.77" height="232.77" rx="73.25"/><path class="cls-3" d="M1478.52,1284.13a62.45,62.45,0,0,1,62.38,62.39v86.26a62.45,62.45,0,0,1-62.38,62.39h-86.27a62.45,62.45,0,0,1-62.38-62.39v-86.26a62.45,62.45,0,0,1,62.38-62.39h86.27m0-21.73h-86.27a84.12,84.12,0,0,0-84.12,84.12v86.26a84.12,84.12,0,0,0,84.12,84.12h86.27a84.12,84.12,0,0,0,84.11-84.12v-86.26a84.12,84.12,0,0,0-84.11-84.12Z"/><line class="cls-16" x1="1573" y1="1238" x2="1528.98" y2="1289.04"/><line class="cls-17" x1="1300" y1="1241" x2="1341.79" y2="1289.04"/><line class="cls-18" x1="1299" y1="1539" x2="1340.38" y2="1490.96"/><line class="cls-19" x1="1573" y1="1541" x2="1528.98" y2="1493.76"/><path class="cls-2" d="M1776.59,1210.87h88.11a134.37,134.37,0,0,1,134.37,134.37v88.11a134.37,134.37,0,0,1-134.37,134.37h-88.11a134.37,134.37,0,0,1-134.37-134.37v-88.11A134.38,134.38,0,0,1,1776.59,1210.87Z"/><path class="cls-3" d="M1864.7,1221.73a123.53,123.53,0,0,1,123.51,123.51v88.12a123.51,123.51,0,0,1-123.51,123.5h-88.11a123.49,123.49,0,0,1-123.51-123.5v-88.12a123.51,123.51,0,0,1,123.51-123.51h88.11m0-21.73h-88.11a145.25,145.25,0,0,0-145.25,145.24v88.12a145.25,145.25,0,0,0,145.25,145.24h88.11a145.24,145.24,0,0,0,145.24-145.24v-88.12A145.24,145.24,0,0,0,1864.7,1200Z"/><rect class="cls-1" x="1704.61" y="1273.27" width="232.77" height="232.77" rx="73.25"/><path class="cls-3" d="M1864.13,1284.13a62.46,62.46,0,0,1,62.38,62.39v86.26a62.46,62.46,0,0,1-62.38,62.39h-86.27a62.45,62.45,0,0,1-62.38-62.39v-86.26a62.45,62.45,0,0,1,62.38-62.39h86.27m0-21.73h-86.27a84.12,84.12,0,0,0-84.12,84.12v86.26a84.12,84.12,0,0,0,84.12,84.12h86.27a84.12,84.12,0,0,0,84.11-84.12v-86.26a84.12,84.12,0,0,0-84.11-84.12Z"/><line class="cls-20" x1="1956" y1="1241" x2="1914.59" y2="1289.04"/><line class="cls-21" x1="1683" y1="1238" x2="1727.39" y2="1289.04"/><line class="cls-22" x1="1685" y1="1539" x2="1725.99" y2="1490.96"/><line class="cls-23" x1="1959" y1="1541" x2="1914.59" y2="1493.76"/><path class="cls-2" d="M2162.19,1210.87h88.11a134.37,134.37,0,0,1,134.37,134.37v88.11a134.37,134.37,0,0,1-134.37,134.37h-88.11a134.38,134.38,0,0,1-134.37-134.37v-88.11a134.38,134.38,0,0,1,134.38-134.37Z"/><path class="cls-3" d="M2250.31,1221.73a123.53,123.53,0,0,1,123.51,123.51v88.12a123.51,123.51,0,0,1-123.51,123.5h-88.12a123.49,123.49,0,0,1-123.5-123.5v-88.12a123.51,123.51,0,0,1,123.5-123.51h88.12m0-21.73h-88.12A145.24,145.24,0,0,0,2017,1345.24v88.12a145.24,145.24,0,0,0,145.24,145.24h88.12a145.24,145.24,0,0,0,145.24-145.24v-88.12A145.24,145.24,0,0,0,2250.31,1200Z"/><rect class="cls-1" x="2090.22" y="1273.27" width="232.77" height="232.77" rx="73.25"/><path class="cls-3" d="M2249.73,1284.13a62.46,62.46,0,0,1,62.39,62.39v86.26a62.46,62.46,0,0,1-62.39,62.39h-86.26a62.46,62.46,0,0,1-62.39-62.39v-86.26a62.46,62.46,0,0,1,62.39-62.39h86.26m0-21.73h-86.26a84.12,84.12,0,0,0-84.12,84.12v86.26a84.12,84.12,0,0,0,84.12,84.12h86.26a84.12,84.12,0,0,0,84.12-84.12v-86.26a84.12,84.12,0,0,0-84.12-84.12Z"/><line class="cls-24" x1="2342" y1="1241" x2="2300.2" y2="1289.04"/><line class="cls-25" x1="2071" y1="1241" x2="2113" y2="1289.04"/><line class="cls-26" x1="2071" y1="1538" x2="2111.6" y2="1490.96"/><line class="cls-27" x1="2342" y1="1539" x2="2300.2" y2="1493.76"/><path class="cls-2" d="M2547.8,1210.87h88.11a134.38,134.38,0,0,1,134.38,134.38v88.11a134.37,134.37,0,0,1-134.37,134.37H2547.8a134.37,134.37,0,0,1-134.37-134.37v-88.11A134.38,134.38,0,0,1,2547.8,1210.87Z"/><path class="cls-3" d="M2635.92,1221.73a123.51,123.51,0,0,1,123.5,123.51v88.12a123.49,123.49,0,0,1-123.5,123.5H2547.8a123.49,123.49,0,0,1-123.5-123.5v-88.12a123.51,123.51,0,0,1,123.5-123.51h88.12m0-21.73H2547.8a145.24,145.24,0,0,0-145.24,145.24v88.12A145.24,145.24,0,0,0,2547.8,1578.6h88.12a145.24,145.24,0,0,0,145.24-145.24v-88.12A145.24,145.24,0,0,0,2635.92,1200Z"/><rect class="cls-1" x="2475.83" y="1273.27" width="232.77" height="232.77" rx="73.25"/><path class="cls-3" d="M2635.34,1284.13a62.46,62.46,0,0,1,62.39,62.39v86.26a62.46,62.46,0,0,1-62.39,62.39h-86.26a62.46,62.46,0,0,1-62.39-62.39v-86.26a62.46,62.46,0,0,1,62.39-62.39h86.26m0-21.73h-86.26a84.12,84.12,0,0,0-84.12,84.12v86.26a84.12,84.12,0,0,0,84.12,84.12h86.26a84.12,84.12,0,0,0,84.12-84.12v-86.26a84.12,84.12,0,0,0-84.12-84.12Z"/><line class="cls-28" x1="2728" y1="1241" x2="2685.81" y2="1289.04"/><line class="cls-29" x1="2454" y1="1238" x2="2498.61" y2="1289.04"/><line class="cls-30" x1="2454" y1="1538" x2="2497.21" y2="1490.96"/><line class="cls-31" x1="2729" y1="1540" x2="2685.81" y2="1493.76"/><text class="cls-32" transform="translate(193.49 1409.61)">P</text><rect class="cls-2" x="-286.52" y="1211.27" width="356.86" height="356.86" rx="134.38"/><path class="cls-3" d="M-64,1222.14a122.7,122.7,0,0,1,87.34,36.17,122.68,122.68,0,0,1,36.17,87.33v88.12a122.68,122.68,0,0,1-36.17,87.33A122.71,122.71,0,0,1-64,1557.27h-88.11a122.69,122.69,0,0,1-87.33-36.18,122.69,122.69,0,0,1-36.18-87.33v-88.12a122.69,122.69,0,0,1,36.18-87.33,122.68,122.68,0,0,1,87.33-36.17H-64m0-21.74h-88.11a145.24,145.24,0,0,0-145.24,145.24v88.12A145.24,145.24,0,0,0-152.15,1579H-64A145.25,145.25,0,0,0,81.21,1433.76v-88.12A145.25,145.25,0,0,0-64,1200.4Z"/><rect class="cls-1" x="-224.13" y="1273.67" width="232.77" height="232.77" rx="73.25"/><path class="cls-3" d="M-64.61,1284.54a62.45,62.45,0,0,1,62.39,62.38v86.26a62.46,62.46,0,0,1-62.39,62.39h-86.26a62.46,62.46,0,0,1-62.39-62.39v-86.26a62.45,62.45,0,0,1,62.39-62.38h86.26m0-21.74h-86.26A84.12,84.12,0,0,0-235,1346.92v86.26a84.12,84.12,0,0,0,84.12,84.12h86.26a84.12,84.12,0,0,0,84.12-84.12v-86.26a84.12,84.12,0,0,0-84.12-84.12Z"/><line class="cls-4" x1="28" y1="1240" x2="-14.14" y2="1289.44"/><line class="cls-7" x1="28" y1="1538" x2="-14.14" y2="1494.17"/><text class="cls-33" transform="translate(580.38 1409.42)">R</text><text class="cls-34" transform="translate(954.77 1409.61)">O</text><text class="cls-35" transform="translate(1334.77 1409.67)">G</text><text class="cls-36" transform="translate(1720.38 1409.45)">R</text><text class="cls-37" transform="translate(2107.39 1415.76)">A</text><text class="cls-38" transform="translate(2491.59 1416.04)">M</text><rect class="cls-2" x="2799.43" y="1210.87" width="356.86" height="356.86" rx="134.38"/><path class="cls-3" d="M3021.92,1221.73a123.51,123.51,0,0,1,123.5,123.51v88.12a123.49,123.49,0,0,1-123.5,123.5H2933.8a123.49,123.49,0,0,1-123.5-123.5v-88.12a123.51,123.51,0,0,1,123.5-123.51h88.12m0-21.73H2933.8a145.24,145.24,0,0,0-145.24,145.24v88.12A145.24,145.24,0,0,0,2933.8,1578.6h88.12a145.24,145.24,0,0,0,145.24-145.24v-88.12A145.24,145.24,0,0,0,3021.92,1200Z"/><rect class="cls-1" x="2861.83" y="1273.27" width="232.77" height="232.77" rx="73.25"/><path class="cls-3" d="M3021.34,1284.13a62.46,62.46,0,0,1,62.39,62.39v86.26a62.46,62.46,0,0,1-62.39,62.39h-86.26a62.46,62.46,0,0,1-62.39-62.39v-86.26a62.46,62.46,0,0,1,62.39-62.39h86.26m0-21.73h-86.26a84.12,84.12,0,0,0-84.12,84.12v86.26a84.12,84.12,0,0,0,84.12,84.12h86.26a84.12,84.12,0,0,0,84.12-84.12v-86.26a84.12,84.12,0,0,0-84.12-84.12Z"/><line class="cls-39" x1="3117" y1="1236" x2="3071.81" y2="1289.04"/><line class="cls-40" x1="2838" y1="1236" x2="2884.61" y2="1289.04"/><line class="cls-41" x1="2841" y1="1538" x2="2883.21" y2="1490.96"/><line class="cls-31" x1="3115" y1="1540" x2="3071.81" y2="1493.76"/><text class="cls-38" transform="translate(2877.59 1416.04)">M</text><rect class="cls-2" x="3184.43" y="1210.87" width="356.86" height="356.86" rx="134.38"/><path class="cls-3" d="M3406.92,1221.73a123.51,123.51,0,0,1,123.5,123.51v88.12a123.49,123.49,0,0,1-123.5,123.5H3318.8a123.49,123.49,0,0,1-123.5-123.5v-88.12a123.51,123.51,0,0,1,123.5-123.51h88.12m0-21.73H3318.8a145.24,145.24,0,0,0-145.24,145.24v88.12A145.24,145.24,0,0,0,3318.8,1578.6h88.12a145.24,145.24,0,0,0,145.24-145.24v-88.12A145.24,145.24,0,0,0,3406.92,1200Z"/><rect class="cls-1" x="3246.83" y="1273.27" width="232.77" height="232.77" rx="73.25"/><path class="cls-3" d="M3406.34,1284.13a62.46,62.46,0,0,1,62.39,62.39v86.26a62.46,62.46,0,0,1-62.39,62.39h-86.26a62.46,62.46,0,0,1-62.39-62.39v-86.26a62.46,62.46,0,0,1,62.39-62.39h86.26m0-21.73h-86.26a84.12,84.12,0,0,0-84.12,84.12v86.26a84.12,84.12,0,0,0,84.12,84.12h86.26a84.12,84.12,0,0,0,84.12-84.12v-86.26a84.12,84.12,0,0,0-84.12-84.12Z"/><line class="cls-39" x1="3502" y1="1236" x2="3456.81" y2="1289.04"/><line class="cls-40" x1="3223" y1="1236" x2="3269.61" y2="1289.04"/><line class="cls-41" x1="3226" y1="1538" x2="3268.21" y2="1490.96"/><line class="cls-31" x1="3500" y1="1540" x2="3456.81" y2="1493.76"/><text class="cls-38" transform="translate(3280.59 1425.04)">I</text><rect class="cls-2" x="3570.43" y="1211.87" width="356.86" height="356.86" rx="134.38"/><path class="cls-3" d="M3792.92,1222.73a123.51,123.51,0,0,1,123.5,123.51v88.12a123.49,123.49,0,0,1-123.5,123.5H3704.8a123.49,123.49,0,0,1-123.5-123.5v-88.12a123.51,123.51,0,0,1,123.5-123.51h88.12m0-21.73H3704.8a145.24,145.24,0,0,0-145.24,145.24v88.12A145.24,145.24,0,0,0,3704.8,1579.6h88.12a145.24,145.24,0,0,0,145.24-145.24v-88.12A145.24,145.24,0,0,0,3792.92,1201Z"/><rect class="cls-1" x="3632.83" y="1274.27" width="232.77" height="232.77" rx="73.25"/><path class="cls-3" d="M3792.34,1285.13a62.46,62.46,0,0,1,62.39,62.39v86.26a62.46,62.46,0,0,1-62.39,62.39h-86.26a62.46,62.46,0,0,1-62.39-62.39v-86.26a62.46,62.46,0,0,1,62.39-62.39h86.26m0-21.73h-86.26a84.12,84.12,0,0,0-84.12,84.12v86.26a84.12,84.12,0,0,0,84.12,84.12h86.26a84.12,84.12,0,0,0,84.12-84.12v-86.26a84.12,84.12,0,0,0-84.12-84.12Z"/><line class="cls-39" x1="3888" y1="1237" x2="3842.81" y2="1290.04"/><line class="cls-40" x1="3609" y1="1237" x2="3655.61" y2="1290.04"/><line class="cls-41" x1="3612" y1="1539" x2="3654.21" y2="1491.96"/><line class="cls-31" x1="3886" y1="1541" x2="3842.81" y2="1494.76"/><text class="cls-38" transform="translate(3663.59 1414.04)">N</text><path class="cls-2" d="M4092.8,1210.87h88.11a134.37,134.37,0,0,1,134.37,134.37v88.11a134.38,134.38,0,0,1-134.38,134.38H4092.8a134.37,134.37,0,0,1-134.37-134.37v-88.11A134.38,134.38,0,0,1,4092.8,1210.87Z"/><path class="cls-3" d="M4180.92,1221.73a123.51,123.51,0,0,1,123.5,123.51v88.12a123.49,123.49,0,0,1-123.5,123.5H4092.8a123.49,123.49,0,0,1-123.5-123.5v-88.12a123.51,123.51,0,0,1,123.5-123.51h88.12m0-21.73H4092.8a145.24,145.24,0,0,0-145.24,145.24v88.12A145.24,145.24,0,0,0,4092.8,1578.6h88.12a145.24,145.24,0,0,0,145.24-145.24v-88.12A145.24,145.24,0,0,0,4180.92,1200Z"/><rect class="cls-1" x="4020.83" y="1273.27" width="232.77" height="232.77" rx="73.25"/><path class="cls-3" d="M4180.34,1284.13a62.46,62.46,0,0,1,62.39,62.39v86.26a62.46,62.46,0,0,1-62.39,62.39h-86.26a62.46,62.46,0,0,1-62.39-62.39v-86.26a62.46,62.46,0,0,1,62.39-62.39h86.26m0-21.73h-86.26a84.12,84.12,0,0,0-84.12,84.12v86.26a84.12,84.12,0,0,0,84.12,84.12h86.26a84.12,84.12,0,0,0,84.12-84.12v-86.26a84.12,84.12,0,0,0-84.12-84.12Z"/><line class="cls-39" x1="4276" y1="1236" x2="4230.81" y2="1289.04"/><line class="cls-40" x1="3997" y1="1236" x2="4043.61" y2="1289.04"/><line class="cls-41" x1="4000" y1="1538" x2="4042.21" y2="1490.96"/><line class="cls-31" x1="4274" y1="1540" x2="4230.81" y2="1493.76"/><text class="cls-38" transform="translate(4051.59 1413.04)">G</text><rect class="cls-2" x="-97.52" y="812.27" width="356.86" height="356.86" rx="134.38"/><path class="cls-3" d="M125,823.14a123.49,123.49,0,0,1,123.51,123.5v88.12A123.51,123.51,0,0,1,125,1158.27H36.85a122.69,122.69,0,0,1-87.33-36.18,122.69,122.69,0,0,1-36.18-87.33V946.64a122.69,122.69,0,0,1,36.18-87.33,122.68,122.68,0,0,1,87.33-36.17H125m0-21.74H36.85A145.24,145.24,0,0,0-108.39,946.64v88.12A145.24,145.24,0,0,0,36.85,1180H125a145.25,145.25,0,0,0,145.25-145.24V946.64A145.25,145.25,0,0,0,125,801.4Z"/><rect class="cls-1" x="-35.13" y="874.67" width="232.77" height="232.77" rx="73.25"/><path class="cls-3" d="M124.39,885.54a62.45,62.45,0,0,1,62.39,62.38v86.26a62.46,62.46,0,0,1-62.39,62.39H38.13a62.46,62.46,0,0,1-62.39-62.39V947.92a62.45,62.45,0,0,1,62.39-62.38h86.26m0-21.74H38.13A84.12,84.12,0,0,0-46,947.92v86.26a84.12,84.12,0,0,0,84.12,84.12h86.26a84.12,84.12,0,0,0,84.12-84.12V947.92a84.12,84.12,0,0,0-84.12-84.12Z"/><line class="cls-4" x1="217" y1="841" x2="174.86" y2="890.44"/><line class="cls-7" x1="217" y1="1139" x2="174.86" y2="1095.17"/><rect class="cls-2" x="287.38" y="810.87" width="356.86" height="356.86" rx="134.38"/><path class="cls-3" d="M509.87,821.73A123.51,123.51,0,0,1,633.38,945.24v88.12a123.49,123.49,0,0,1-123.51,123.5H421.76a123.51,123.51,0,0,1-123.51-123.5V945.24A123.53,123.53,0,0,1,421.76,821.73h88.11m0-21.73H421.76A145.24,145.24,0,0,0,276.52,945.24v88.12A145.24,145.24,0,0,0,421.76,1178.6h88.11a145.24,145.24,0,0,0,145.24-145.24V945.24A145.24,145.24,0,0,0,509.87,800Z"/><rect class="cls-1" x="349.78" y="873.27" width="232.77" height="232.77" rx="73.25"/><path class="cls-3" d="M509.3,884.13a62.45,62.45,0,0,1,62.38,62.39v86.26a62.45,62.45,0,0,1-62.38,62.39H423a62.45,62.45,0,0,1-62.38-62.39V946.52A62.45,62.45,0,0,1,423,884.13H509.3m0-21.73H423a84.12,84.12,0,0,0-84.11,84.12v86.26A84.12,84.12,0,0,0,423,1116.9H509.3a84.12,84.12,0,0,0,84.12-84.12V946.52A84.12,84.12,0,0,0,509.3,862.4Z"/><line class="cls-8" x1="602" y1="838" x2="559.76" y2="889.04"/><line class="cls-9" x1="331" y1="841" x2="372.57" y2="889.04"/><line class="cls-10" x1="334" y1="1139" x2="371.17" y2="1090.96"/><line class="cls-11" x1="602" y1="1139" x2="559.76" y2="1093.76"/><path class="cls-2" d="M807.37,811.57h88.11a134.37,134.37,0,0,1,134.37,134.37v88.11a134.38,134.38,0,0,1-134.37,134.38H807.37A134.37,134.37,0,0,1,673,1034.06V945.94A134.38,134.38,0,0,1,807.37,811.57Z"/><path class="cls-3" d="M895.48,822.44A123.51,123.51,0,0,1,1019,945.94v88.12a123.51,123.51,0,0,1-123.51,123.5H807.37a123.49,123.49,0,0,1-123.51-123.5V945.94a123.49,123.49,0,0,1,123.51-123.5h88.11m0-21.74H807.37A145.24,145.24,0,0,0,662.13,945.94v88.12A145.24,145.24,0,0,0,807.37,1179.3h88.11a145.24,145.24,0,0,0,145.24-145.24V945.94A145.24,145.24,0,0,0,895.48,800.7Z"/><rect class="cls-1" x="735.39" y="873.97" width="232.77" height="232.77" rx="73.25"/><path class="cls-3" d="M894.91,884.83a62.45,62.45,0,0,1,62.38,62.39v86.26a62.45,62.45,0,0,1-62.38,62.39H808.64a62.45,62.45,0,0,1-62.38-62.39V947.22a62.45,62.45,0,0,1,62.38-62.39h86.27m0-21.73H808.64a84.12,84.12,0,0,0-84.12,84.12v86.26a84.12,84.12,0,0,0,84.12,84.12h86.27A84.12,84.12,0,0,0,979,1033.48V947.22a84.12,84.12,0,0,0-84.12-84.12Z"/><line class="cls-12" x1="988" y1="841" x2="945.37" y2="889.74"/><line class="cls-13" x1="716" y1="841" x2="758.18" y2="889.74"/><line class="cls-14" x1="716" y1="1139" x2="756.77" y2="1091.66"/><line class="cls-15" x1="988" y1="1139" x2="945.37" y2="1094.46"/><path class="cls-2" d="M1193,810.87h88.11a134.37,134.37,0,0,1,134.37,134.37v88.11a134.38,134.38,0,0,1-134.37,134.38H1193a134.38,134.38,0,0,1-134.38-134.38V945.24A134.38,134.38,0,0,1,1193,810.87Z"/><path class="cls-3" d="M1281.09,821.73A123.53,123.53,0,0,1,1404.6,945.24v88.12a123.51,123.51,0,0,1-123.51,123.5H1193a123.49,123.49,0,0,1-123.51-123.5V945.24A123.51,123.51,0,0,1,1193,821.73h88.11m0-21.73H1193a145.25,145.25,0,0,0-145.25,145.24v88.12A145.25,145.25,0,0,0,1193,1178.6h88.11a145.24,145.24,0,0,0,145.24-145.24V945.24A145.24,145.24,0,0,0,1281.09,800Z"/><rect class="cls-1" x="1121" y="873.27" width="232.77" height="232.77" rx="73.25"/><path class="cls-3" d="M1280.52,884.13a62.45,62.45,0,0,1,62.38,62.39v86.26a62.45,62.45,0,0,1-62.38,62.39h-86.27a62.45,62.45,0,0,1-62.38-62.39V946.52a62.45,62.45,0,0,1,62.38-62.39h86.27m0-21.73h-86.27a84.12,84.12,0,0,0-84.12,84.12v86.26a84.12,84.12,0,0,0,84.12,84.12h86.27a84.12,84.12,0,0,0,84.11-84.12V946.52a84.12,84.12,0,0,0-84.11-84.12Z"/><line class="cls-16" x1="1375" y1="838" x2="1330.98" y2="889.04"/><line class="cls-17" x1="1102" y1="841" x2="1143.79" y2="889.04"/><line class="cls-18" x1="1101" y1="1139" x2="1142.38" y2="1090.96"/><line class="cls-19" x1="1375" y1="1141" x2="1330.98" y2="1093.76"/><path class="cls-2" d="M1578.59,810.87h88.11a134.37,134.37,0,0,1,134.37,134.37v88.11a134.37,134.37,0,0,1-134.37,134.37h-88.11a134.37,134.37,0,0,1-134.37-134.37V945.24A134.38,134.38,0,0,1,1578.59,810.87Z"/><path class="cls-3" d="M1666.7,821.73a123.53,123.53,0,0,1,123.51,123.51v88.12a123.51,123.51,0,0,1-123.51,123.5h-88.11a123.49,123.49,0,0,1-123.51-123.5V945.24a123.51,123.51,0,0,1,123.51-123.51h88.11m0-21.73h-88.11a145.25,145.25,0,0,0-145.25,145.24v88.12a145.25,145.25,0,0,0,145.25,145.24h88.11a145.24,145.24,0,0,0,145.24-145.24V945.24A145.24,145.24,0,0,0,1666.7,800Z"/><rect class="cls-1" x="1506.61" y="873.27" width="232.77" height="232.77" rx="73.25"/><path class="cls-3" d="M1666.13,884.13a62.46,62.46,0,0,1,62.38,62.39v86.26a62.46,62.46,0,0,1-62.38,62.39h-86.27a62.45,62.45,0,0,1-62.38-62.39V946.52a62.45,62.45,0,0,1,62.38-62.39h86.27m0-21.73h-86.27a84.12,84.12,0,0,0-84.12,84.12v86.26a84.12,84.12,0,0,0,84.12,84.12h86.27a84.12,84.12,0,0,0,84.11-84.12V946.52a84.12,84.12,0,0,0-84.11-84.12Z"/><line class="cls-20" x1="1758" y1="841" x2="1716.59" y2="889.04"/><line class="cls-21" x1="1485" y1="838" x2="1529.39" y2="889.04"/><line class="cls-22" x1="1487" y1="1139" x2="1527.99" y2="1090.96"/><line class="cls-23" x1="1761" y1="1141" x2="1716.59" y2="1093.76"/><rect class="cls-2" x="1829.82" y="810.87" width="356.86" height="356.86" rx="134.38"/><path class="cls-3" d="M2052.31,821.73a123.53,123.53,0,0,1,123.51,123.51v88.12a123.51,123.51,0,0,1-123.51,123.5h-88.12a123.49,123.49,0,0,1-123.5-123.5V945.24a123.51,123.51,0,0,1,123.5-123.51h88.12m0-21.73h-88.12A145.24,145.24,0,0,0,1819,945.24v88.12a145.24,145.24,0,0,0,145.24,145.24h88.12a145.24,145.24,0,0,0,145.24-145.24V945.24A145.24,145.24,0,0,0,2052.31,800Z"/><rect class="cls-1" x="1892.22" y="873.27" width="232.77" height="232.77" rx="73.25"/><path class="cls-3" d="M2051.73,884.13a62.46,62.46,0,0,1,62.39,62.39v86.26a62.46,62.46,0,0,1-62.39,62.39h-86.26a62.46,62.46,0,0,1-62.39-62.39V946.52a62.46,62.46,0,0,1,62.39-62.39h86.26m0-21.73h-86.26a84.12,84.12,0,0,0-84.12,84.12v86.26a84.12,84.12,0,0,0,84.12,84.12h86.26a84.12,84.12,0,0,0,84.12-84.12V946.52a84.12,84.12,0,0,0-84.12-84.12Z"/><line class="cls-24" x1="2144" y1="841" x2="2102.2" y2="889.04"/><line class="cls-25" x1="1873" y1="841" x2="1915" y2="889.04"/><line class="cls-26" x1="1873" y1="1138" x2="1913.6" y2="1090.96"/><line class="cls-27" x1="2144" y1="1139" x2="2102.2" y2="1093.76"/><path class="cls-2" d="M2349.8,810.87h88.11a134.37,134.37,0,0,1,134.37,134.37v88.11a134.38,134.38,0,0,1-134.37,134.38H2349.8a134.38,134.38,0,0,1-134.38-134.38V945.24A134.38,134.38,0,0,1,2349.8,810.87Z"/><path class="cls-3" d="M2437.92,821.73a123.51,123.51,0,0,1,123.5,123.51v88.12a123.49,123.49,0,0,1-123.5,123.5H2349.8a123.49,123.49,0,0,1-123.5-123.5V945.24a123.51,123.51,0,0,1,123.5-123.51h88.12m0-21.73H2349.8a145.24,145.24,0,0,0-145.24,145.24v88.12A145.24,145.24,0,0,0,2349.8,1178.6h88.12a145.24,145.24,0,0,0,145.24-145.24V945.24A145.24,145.24,0,0,0,2437.92,800Z"/><rect class="cls-1" x="2277.83" y="873.27" width="232.77" height="232.77" rx="73.25"/><path class="cls-3" d="M2437.34,884.13a62.46,62.46,0,0,1,62.39,62.39v86.26a62.46,62.46,0,0,1-62.39,62.39h-86.26a62.46,62.46,0,0,1-62.39-62.39V946.52a62.46,62.46,0,0,1,62.39-62.39h86.26m0-21.73h-86.26A84.12,84.12,0,0,0,2267,946.52v86.26a84.12,84.12,0,0,0,84.12,84.12h86.26a84.12,84.12,0,0,0,84.12-84.12V946.52a84.12,84.12,0,0,0-84.12-84.12Z"/><line class="cls-28" x1="2530" y1="841" x2="2487.81" y2="889.04"/><line class="cls-29" x1="2256" y1="838" x2="2300.61" y2="889.04"/><line class="cls-30" x1="2256" y1="1138" x2="2299.21" y2="1090.96"/><line class="cls-31" x1="2531" y1="1140" x2="2487.81" y2="1093.76"/><text class="cls-32" transform="translate(-4.51 1009.61)">P</text><text class="cls-33" transform="translate(382.38 1009.42)">R</text><text class="cls-34" transform="translate(756.77 1009.61)">O</text><text class="cls-35" transform="translate(1136.77 1009.67)">G</text><text class="cls-36" transform="translate(1522.38 1009.45)">R</text><text class="cls-37" transform="translate(1909.39 1015.76)">A</text><text class="cls-38" transform="translate(2293.59 1016.04)">M</text><path class="cls-2" d="M2735.8,810.87h88.11a134.37,134.37,0,0,1,134.37,134.37v88.11a134.37,134.37,0,0,1-134.37,134.37H2735.8a134.38,134.38,0,0,1-134.38-134.38V945.24A134.38,134.38,0,0,1,2735.8,810.87Z"/><path class="cls-3" d="M2823.92,821.73a123.51,123.51,0,0,1,123.5,123.51v88.12a123.49,123.49,0,0,1-123.5,123.5H2735.8a123.49,123.49,0,0,1-123.5-123.5V945.24a123.51,123.51,0,0,1,123.5-123.51h88.12m0-21.73H2735.8a145.24,145.24,0,0,0-145.24,145.24v88.12A145.24,145.24,0,0,0,2735.8,1178.6h88.12a145.24,145.24,0,0,0,145.24-145.24V945.24A145.24,145.24,0,0,0,2823.92,800Z"/><rect class="cls-1" x="2663.83" y="873.27" width="232.77" height="232.77" rx="73.25"/><path class="cls-3" d="M2823.34,884.13a62.46,62.46,0,0,1,62.39,62.39v86.26a62.46,62.46,0,0,1-62.39,62.39h-86.26a62.46,62.46,0,0,1-62.39-62.39V946.52a62.46,62.46,0,0,1,62.39-62.39h86.26m0-21.73h-86.26A84.12,84.12,0,0,0,2653,946.52v86.26a84.12,84.12,0,0,0,84.12,84.12h86.26a84.12,84.12,0,0,0,84.12-84.12V946.52a84.12,84.12,0,0,0-84.12-84.12Z"/><line class="cls-39" x1="2919" y1="836" x2="2873.81" y2="889.04"/><line class="cls-40" x1="2640" y1="836" x2="2686.61" y2="889.04"/><line class="cls-41" x1="2643" y1="1138" x2="2685.21" y2="1090.96"/><line class="cls-31" x1="2917" y1="1140" x2="2873.81" y2="1093.76"/><text class="cls-38" transform="translate(2679.59 1016.04)">M</text><path class="cls-2" d="M3120.8,810.87h88.11a134.37,134.37,0,0,1,134.37,134.37v88.11a134.38,134.38,0,0,1-134.38,134.38H3120.8a134.38,134.38,0,0,1-134.38-134.38V945.24A134.37,134.37,0,0,1,3120.8,810.87Z"/><path class="cls-3" d="M3208.92,821.73a123.51,123.51,0,0,1,123.5,123.51v88.12a123.49,123.49,0,0,1-123.5,123.5H3120.8a123.49,123.49,0,0,1-123.5-123.5V945.24a123.51,123.51,0,0,1,123.5-123.51h88.12m0-21.73H3120.8a145.24,145.24,0,0,0-145.24,145.24v88.12A145.24,145.24,0,0,0,3120.8,1178.6h88.12a145.24,145.24,0,0,0,145.24-145.24V945.24A145.24,145.24,0,0,0,3208.92,800Z"/><rect class="cls-1" x="3048.83" y="873.27" width="232.77" height="232.77" rx="73.25"/><path class="cls-3" d="M3208.34,884.13a62.46,62.46,0,0,1,62.39,62.39v86.26a62.46,62.46,0,0,1-62.39,62.39h-86.26a62.46,62.46,0,0,1-62.39-62.39V946.52a62.46,62.46,0,0,1,62.39-62.39h86.26m0-21.73h-86.26A84.12,84.12,0,0,0,3038,946.52v86.26a84.12,84.12,0,0,0,84.12,84.12h86.26a84.12,84.12,0,0,0,84.12-84.12V946.52a84.12,84.12,0,0,0-84.12-84.12Z"/><line class="cls-39" x1="3304" y1="836" x2="3258.81" y2="889.04"/><line class="cls-40" x1="3025" y1="836" x2="3071.61" y2="889.04"/><line class="cls-41" x1="3028" y1="1138" x2="3070.21" y2="1090.96"/><line class="cls-31" x1="3302" y1="1140" x2="3258.81" y2="1093.76"/><text class="cls-38" transform="translate(3082.59 1025.04)">I</text><path class="cls-2" d="M3506.8,811.87h88.11a134.37,134.37,0,0,1,134.37,134.37v88.11a134.38,134.38,0,0,1-134.38,134.38H3506.8a134.38,134.38,0,0,1-134.37-134.37V946.24A134.38,134.38,0,0,1,3506.8,811.87Z"/><path class="cls-3" d="M3594.92,822.73a123.51,123.51,0,0,1,123.5,123.51v88.12a123.49,123.49,0,0,1-123.5,123.5H3506.8a123.49,123.49,0,0,1-123.5-123.5V946.24a123.51,123.51,0,0,1,123.5-123.51h88.12m0-21.73H3506.8a145.24,145.24,0,0,0-145.24,145.24v88.12A145.24,145.24,0,0,0,3506.8,1179.6h88.12a145.24,145.24,0,0,0,145.24-145.24V946.24A145.24,145.24,0,0,0,3594.92,801Z"/><rect class="cls-1" x="3434.83" y="874.27" width="232.77" height="232.77" rx="73.25"/><path class="cls-3" d="M3594.34,885.13a62.46,62.46,0,0,1,62.39,62.39v86.26a62.46,62.46,0,0,1-62.39,62.39h-86.26a62.46,62.46,0,0,1-62.39-62.39V947.52a62.46,62.46,0,0,1,62.39-62.39h86.26m0-21.73h-86.26A84.12,84.12,0,0,0,3424,947.52v86.26a84.12,84.12,0,0,0,84.12,84.12h86.26a84.12,84.12,0,0,0,84.12-84.12V947.52a84.12,84.12,0,0,0-84.12-84.12Z"/><line class="cls-39" x1="3690" y1="837" x2="3644.81" y2="890.04"/><line class="cls-40" x1="3411" y1="837" x2="3457.61" y2="890.04"/><line class="cls-41" x1="3414" y1="1139" x2="3456.21" y2="1091.96"/><line class="cls-31" x1="3688" y1="1141" x2="3644.81" y2="1094.76"/><text class="cls-38" transform="translate(3465.59 1014.04)">N</text><path class="cls-2" d="M3894.8,810.87h88.11a134.38,134.38,0,0,1,134.38,134.38v88.11a134.38,134.38,0,0,1-134.37,134.38H3894.8a134.37,134.37,0,0,1-134.37-134.37V945.24A134.38,134.38,0,0,1,3894.8,810.87Z"/><path class="cls-3" d="M3982.92,821.73a123.51,123.51,0,0,1,123.5,123.51v88.12a123.49,123.49,0,0,1-123.5,123.5H3894.8a123.49,123.49,0,0,1-123.5-123.5V945.24a123.51,123.51,0,0,1,123.5-123.51h88.12m0-21.73H3894.8a145.24,145.24,0,0,0-145.24,145.24v88.12A145.24,145.24,0,0,0,3894.8,1178.6h88.12a145.24,145.24,0,0,0,145.24-145.24V945.24A145.24,145.24,0,0,0,3982.92,800Z"/><rect class="cls-1" x="3822.83" y="873.27" width="232.77" height="232.77" rx="73.25"/><path class="cls-3" d="M3982.34,884.13a62.46,62.46,0,0,1,62.39,62.39v86.26a62.46,62.46,0,0,1-62.39,62.39h-86.26a62.46,62.46,0,0,1-62.39-62.39V946.52a62.46,62.46,0,0,1,62.39-62.39h86.26m0-21.73h-86.26A84.12,84.12,0,0,0,3812,946.52v86.26a84.12,84.12,0,0,0,84.12,84.12h86.26a84.12,84.12,0,0,0,84.12-84.12V946.52a84.12,84.12,0,0,0-84.12-84.12Z"/><line class="cls-39" x1="4078" y1="836" x2="4032.81" y2="889.04"/><line class="cls-40" x1="3799" y1="836" x2="3845.61" y2="889.04"/><line class="cls-41" x1="3802" y1="1138" x2="3844.21" y2="1090.96"/><line class="cls-31" x1="4076" y1="1140" x2="4032.81" y2="1093.76"/><text class="cls-38" transform="translate(3853.59 1013.04)">G</text><path class="cls-2" d="M4281.8,797.87h88.11a134.38,134.38,0,0,1,134.38,134.38v88.11a134.37,134.37,0,0,1-134.37,134.37H4281.8a134.37,134.37,0,0,1-134.37-134.37V932.24A134.38,134.38,0,0,1,4281.8,797.87Z"/><path class="cls-3" d="M4369.92,808.73a123.51,123.51,0,0,1,123.5,123.51v88.12a123.49,123.49,0,0,1-123.5,123.5H4281.8a123.49,123.49,0,0,1-123.5-123.5V932.24a123.51,123.51,0,0,1,123.5-123.51h88.12m0-21.73H4281.8a145.24,145.24,0,0,0-145.24,145.24v88.12A145.24,145.24,0,0,0,4281.8,1165.6h88.12a145.24,145.24,0,0,0,145.24-145.24V932.24A145.24,145.24,0,0,0,4369.92,787Z"/><rect class="cls-1" x="4209.83" y="860.27" width="232.77" height="232.77" rx="73.25"/><path class="cls-3" d="M4369.34,871.13a62.46,62.46,0,0,1,62.39,62.39v86.26a62.46,62.46,0,0,1-62.39,62.39h-86.26a62.46,62.46,0,0,1-62.39-62.39V933.52a62.46,62.46,0,0,1,62.39-62.39h86.26m0-21.73h-86.26A84.12,84.12,0,0,0,4199,933.52v86.26a84.12,84.12,0,0,0,84.12,84.12h86.26a84.12,84.12,0,0,0,84.12-84.12V933.52a84.12,84.12,0,0,0-84.12-84.12Z"/><line class="cls-40" x1="4186" y1="823" x2="4232.61" y2="876.04"/><line class="cls-41" x1="4189" y1="1125" x2="4231.21" y2="1077.96"/><text class="cls-38" transform="translate(3823 1010.04) scale(0.95 1)"><tspan xml:space="preserve">            ;</tspan></text><rect class="cls-2" x="90.48" y="412.27" width="356.86" height="356.86" rx="134.38"/><path class="cls-3" d="M313,423.14a123.49,123.49,0,0,1,123.51,123.5v88.12A123.51,123.51,0,0,1,313,758.27H224.85A123.53,123.53,0,0,1,101.34,634.76V546.64a123.51,123.51,0,0,1,123.51-123.5H313m0-21.74H224.85A145.24,145.24,0,0,0,79.61,546.64v88.12A145.24,145.24,0,0,0,224.85,780H313A145.25,145.25,0,0,0,458.21,634.76V546.64A145.25,145.25,0,0,0,313,401.4Z"/><rect class="cls-1" x="152.87" y="474.67" width="232.77" height="232.77" rx="73.25"/><path class="cls-3" d="M312.39,485.54a62.45,62.45,0,0,1,62.39,62.38v86.26a62.46,62.46,0,0,1-62.39,62.39H226.13a62.46,62.46,0,0,1-62.39-62.39V547.92a62.45,62.45,0,0,1,62.39-62.38h86.26m0-21.74H226.13A84.12,84.12,0,0,0,142,547.92v86.26a84.12,84.12,0,0,0,84.12,84.12h86.26a84.12,84.12,0,0,0,84.12-84.12V547.92a84.12,84.12,0,0,0-84.12-84.12Z"/><line class="cls-4" x1="405" y1="441" x2="362.86" y2="490.44"/><line class="cls-5" x1="134" y1="443" x2="175.66" y2="490.44"/><line class="cls-6" x1="134" y1="739" x2="174.26" y2="692.36"/><line class="cls-7" x1="405" y1="739" x2="362.86" y2="695.17"/><path class="cls-2" d="M609.76,410.87h88.11A134.37,134.37,0,0,1,832.25,545.24v88.11A134.38,134.38,0,0,1,697.87,767.73H609.76A134.38,134.38,0,0,1,475.38,633.36V545.24A134.37,134.37,0,0,1,609.76,410.87Z"/><path class="cls-3" d="M697.87,421.73A123.51,123.51,0,0,1,821.38,545.24v88.12a123.49,123.49,0,0,1-123.51,123.5H609.76a123.51,123.51,0,0,1-123.51-123.5V545.24A123.53,123.53,0,0,1,609.76,421.73h88.11m0-21.73H609.76A145.24,145.24,0,0,0,464.52,545.24v88.12A145.24,145.24,0,0,0,609.76,778.6h88.11A145.24,145.24,0,0,0,843.11,633.36V545.24A145.24,145.24,0,0,0,697.87,400Z"/><rect class="cls-1" x="537.78" y="473.27" width="232.77" height="232.77" rx="73.25"/><path class="cls-3" d="M697.3,484.13a62.45,62.45,0,0,1,62.38,62.39v86.26a62.45,62.45,0,0,1-62.38,62.39H611a62.45,62.45,0,0,1-62.38-62.39V546.52A62.45,62.45,0,0,1,611,484.13H697.3m0-21.73H611a84.12,84.12,0,0,0-84.11,84.12v86.26A84.12,84.12,0,0,0,611,716.9H697.3a84.12,84.12,0,0,0,84.12-84.12V546.52A84.12,84.12,0,0,0,697.3,462.4Z"/><line class="cls-8" x1="790" y1="438" x2="747.76" y2="489.04"/><line class="cls-9" x1="519" y1="441" x2="560.57" y2="489.04"/><line class="cls-10" x1="522" y1="739" x2="559.17" y2="690.96"/><line class="cls-11" x1="790" y1="739" x2="747.76" y2="693.76"/><path class="cls-2" d="M995.37,411.57h88.11a134.37,134.37,0,0,1,134.37,134.37v88.11a134.38,134.38,0,0,1-134.37,134.38H995.37A134.38,134.38,0,0,1,861,634.06V545.94A134.38,134.38,0,0,1,995.37,411.57Z"/><path class="cls-3" d="M1083.48,422.44A123.51,123.51,0,0,1,1207,545.94v88.12a123.51,123.51,0,0,1-123.51,123.5H995.37a123.49,123.49,0,0,1-123.51-123.5V545.94a123.49,123.49,0,0,1,123.51-123.5h88.11m0-21.74H995.37A145.24,145.24,0,0,0,850.13,545.94v88.12A145.24,145.24,0,0,0,995.37,779.3h88.11a145.24,145.24,0,0,0,145.24-145.24V545.94A145.24,145.24,0,0,0,1083.48,400.7Z"/><rect class="cls-1" x="923.39" y="473.97" width="232.77" height="232.77" rx="73.25"/><path class="cls-3" d="M1082.91,484.83a62.45,62.45,0,0,1,62.38,62.39v86.26a62.45,62.45,0,0,1-62.38,62.39H996.64a62.45,62.45,0,0,1-62.38-62.39V547.22a62.45,62.45,0,0,1,62.38-62.39h86.27m0-21.73H996.64a84.12,84.12,0,0,0-84.12,84.12v86.26a84.12,84.12,0,0,0,84.12,84.12h86.27A84.12,84.12,0,0,0,1167,633.48V547.22a84.12,84.12,0,0,0-84.12-84.12Z"/><line class="cls-12" x1="1176" y1="441" x2="1133.37" y2="489.74"/><line class="cls-13" x1="904" y1="441" x2="946.18" y2="489.74"/><line class="cls-14" x1="904" y1="739" x2="944.77" y2="691.66"/><line class="cls-15" x1="1176" y1="739" x2="1133.37" y2="694.46"/><path class="cls-2" d="M1381,410.87h88.11a134.37,134.37,0,0,1,134.37,134.37v88.11a134.38,134.38,0,0,1-134.38,134.38H1381A134.38,134.38,0,0,1,1246.6,633.36V545.24A134.37,134.37,0,0,1,1381,410.87Z"/><path class="cls-3" d="M1469.09,421.73A123.53,123.53,0,0,1,1592.6,545.24v88.12a123.51,123.51,0,0,1-123.51,123.5H1381a123.49,123.49,0,0,1-123.51-123.5V545.24A123.51,123.51,0,0,1,1381,421.73h88.11m0-21.73H1381a145.25,145.25,0,0,0-145.25,145.24v88.12A145.25,145.25,0,0,0,1381,778.6h88.11a145.24,145.24,0,0,0,145.24-145.24V545.24A145.24,145.24,0,0,0,1469.09,400Z"/><rect class="cls-1" x="1309" y="473.27" width="232.77" height="232.77" rx="73.25"/><path class="cls-3" d="M1468.52,484.13a62.45,62.45,0,0,1,62.38,62.39v86.26a62.45,62.45,0,0,1-62.38,62.39h-86.27a62.45,62.45,0,0,1-62.38-62.39V546.52a62.45,62.45,0,0,1,62.38-62.39h86.27m0-21.73h-86.27a84.12,84.12,0,0,0-84.12,84.12v86.26a84.12,84.12,0,0,0,84.12,84.12h86.27a84.12,84.12,0,0,0,84.11-84.12V546.52a84.12,84.12,0,0,0-84.11-84.12Z"/><line class="cls-16" x1="1563" y1="438" x2="1518.98" y2="489.04"/><line class="cls-17" x1="1290" y1="441" x2="1331.79" y2="489.04"/><line class="cls-18" x1="1289" y1="739" x2="1330.38" y2="690.96"/><line class="cls-19" x1="1563" y1="741" x2="1518.98" y2="693.76"/><rect class="cls-2" x="1632.21" y="410.87" width="356.86" height="356.86" rx="134.37"/><path class="cls-3" d="M1854.7,421.73a123.53,123.53,0,0,1,123.51,123.51v88.12a123.51,123.51,0,0,1-123.51,123.5h-88.11a123.49,123.49,0,0,1-123.51-123.5V545.24a123.51,123.51,0,0,1,123.51-123.51h88.11m0-21.73h-88.11a145.25,145.25,0,0,0-145.25,145.24v88.12A145.25,145.25,0,0,0,1766.59,778.6h88.11a145.24,145.24,0,0,0,145.24-145.24V545.24A145.24,145.24,0,0,0,1854.7,400Z"/><rect class="cls-1" x="1694.61" y="473.27" width="232.77" height="232.77" rx="73.25"/><path class="cls-3" d="M1854.13,484.13a62.46,62.46,0,0,1,62.38,62.39v86.26a62.46,62.46,0,0,1-62.38,62.39h-86.27a62.45,62.45,0,0,1-62.38-62.39V546.52a62.45,62.45,0,0,1,62.38-62.39h86.27m0-21.73h-86.27a84.12,84.12,0,0,0-84.12,84.12v86.26a84.12,84.12,0,0,0,84.12,84.12h86.27a84.12,84.12,0,0,0,84.11-84.12V546.52a84.12,84.12,0,0,0-84.11-84.12Z"/><line class="cls-20" x1="1946" y1="441" x2="1904.59" y2="489.04"/><line class="cls-21" x1="1673" y1="438" x2="1717.39" y2="489.04"/><line class="cls-22" x1="1675" y1="739" x2="1715.99" y2="690.96"/><line class="cls-23" x1="1949" y1="741" x2="1904.59" y2="693.76"/><path class="cls-2" d="M2152.19,410.87h88.11a134.37,134.37,0,0,1,134.37,134.37v88.11a134.38,134.38,0,0,1-134.38,134.38h-88.11a134.38,134.38,0,0,1-134.37-134.37V545.24a134.38,134.38,0,0,1,134.38-134.38Z"/><path class="cls-3" d="M2240.31,421.73a123.53,123.53,0,0,1,123.51,123.51v88.12a123.51,123.51,0,0,1-123.51,123.5h-88.12a123.49,123.49,0,0,1-123.5-123.5V545.24a123.51,123.51,0,0,1,123.5-123.51h88.12m0-21.73h-88.12A145.24,145.24,0,0,0,2007,545.24v88.12A145.24,145.24,0,0,0,2152.19,778.6h88.12a145.24,145.24,0,0,0,145.24-145.24V545.24A145.24,145.24,0,0,0,2240.31,400Z"/><rect class="cls-1" x="2080.22" y="473.27" width="232.77" height="232.77" rx="73.25"/><path class="cls-3" d="M2239.73,484.13a62.46,62.46,0,0,1,62.39,62.39v86.26a62.46,62.46,0,0,1-62.39,62.39h-86.26a62.46,62.46,0,0,1-62.39-62.39V546.52a62.46,62.46,0,0,1,62.39-62.39h86.26m0-21.73h-86.26a84.12,84.12,0,0,0-84.12,84.12v86.26a84.12,84.12,0,0,0,84.12,84.12h86.26a84.12,84.12,0,0,0,84.12-84.12V546.52a84.12,84.12,0,0,0-84.12-84.12Z"/><line class="cls-24" x1="2332" y1="441" x2="2290.2" y2="489.04"/><line class="cls-25" x1="2061" y1="441" x2="2103" y2="489.04"/><line class="cls-26" x1="2061" y1="738" x2="2101.6" y2="690.96"/><line class="cls-27" x1="2332" y1="739" x2="2290.2" y2="693.76"/><path class="cls-2" d="M2537.8,410.87h88.11a134.37,134.37,0,0,1,134.37,134.37v88.11a134.38,134.38,0,0,1-134.38,134.38H2537.8a134.38,134.38,0,0,1-134.37-134.37V545.24A134.37,134.37,0,0,1,2537.8,410.87Z"/><path class="cls-3" d="M2625.92,421.73a123.51,123.51,0,0,1,123.5,123.51v88.12a123.49,123.49,0,0,1-123.5,123.5H2537.8a123.49,123.49,0,0,1-123.5-123.5V545.24a123.51,123.51,0,0,1,123.5-123.51h88.12m0-21.73H2537.8a145.24,145.24,0,0,0-145.24,145.24v88.12A145.24,145.24,0,0,0,2537.8,778.6h88.12a145.24,145.24,0,0,0,145.24-145.24V545.24A145.24,145.24,0,0,0,2625.92,400Z"/><rect class="cls-1" x="2465.83" y="473.27" width="232.77" height="232.77" rx="73.25"/><path class="cls-3" d="M2625.34,484.13a62.46,62.46,0,0,1,62.39,62.39v86.26a62.46,62.46,0,0,1-62.39,62.39h-86.26a62.46,62.46,0,0,1-62.39-62.39V546.52a62.46,62.46,0,0,1,62.39-62.39h86.26m0-21.73h-86.26A84.12,84.12,0,0,0,2455,546.52v86.26a84.12,84.12,0,0,0,84.12,84.12h86.26a84.12,84.12,0,0,0,84.12-84.12V546.52a84.12,84.12,0,0,0-84.12-84.12Z"/><line class="cls-28" x1="2718" y1="441" x2="2675.81" y2="489.04"/><line class="cls-29" x1="2444" y1="438" x2="2488.61" y2="489.04"/><line class="cls-30" x1="2444" y1="738" x2="2487.21" y2="690.96"/><line class="cls-31" x1="2719" y1="740" x2="2675.81" y2="693.76"/><text class="cls-32" transform="translate(183.49 609.61)">P</text><rect class="cls-2" x="-301.52" y="403.27" width="356.86" height="356.86" rx="134.38"/><path class="cls-3" d="M-79,414.14A122.7,122.7,0,0,1,8.3,450.31a122.68,122.68,0,0,1,36.17,87.33v88.12A122.68,122.68,0,0,1,8.3,713.09,122.71,122.71,0,0,1-79,749.27h-88.11a122.69,122.69,0,0,1-87.33-36.18,122.69,122.69,0,0,1-36.18-87.33V537.64a122.69,122.69,0,0,1,36.18-87.33,122.68,122.68,0,0,1,87.33-36.17H-79m0-21.74h-88.11A145.24,145.24,0,0,0-312.39,537.64v88.12A145.24,145.24,0,0,0-167.15,771H-79A145.25,145.25,0,0,0,66.21,625.76V537.64A145.25,145.25,0,0,0-79,392.4Z"/><path class="cls-3" d="M-79.61,476.54a62.45,62.45,0,0,1,62.39,62.38v86.26a62.46,62.46,0,0,1-62.39,62.39h-86.26a62.46,62.46,0,0,1-62.39-62.39V538.92a62.45,62.45,0,0,1,62.39-62.38h86.26m0-21.74h-86.26A84.12,84.12,0,0,0-250,538.92v86.26a84.12,84.12,0,0,0,84.12,84.12h86.26A84.12,84.12,0,0,0,4.51,625.18V538.92A84.12,84.12,0,0,0-79.61,454.8Z"/><line class="cls-4" x1="13" y1="432" x2="-29.14" y2="481.44"/><line class="cls-7" x1="13" y1="730" x2="-29.14" y2="686.17"/><rect class="cls-2" x="-286.52" y="403.27" width="356.86" height="356.86" rx="134.38"/><path class="cls-3" d="M-64,414.14A122.7,122.7,0,0,1,23.3,450.31a122.68,122.68,0,0,1,36.17,87.33v88.12A122.68,122.68,0,0,1,23.3,713.09,122.71,122.71,0,0,1-64,749.27h-88.11a122.69,122.69,0,0,1-87.33-36.18,122.69,122.69,0,0,1-36.18-87.33V537.64a122.69,122.69,0,0,1,36.18-87.33,122.68,122.68,0,0,1,87.33-36.17H-64m0-21.74h-88.11A145.24,145.24,0,0,0-297.39,537.64v88.12A145.24,145.24,0,0,0-152.15,771H-64A145.25,145.25,0,0,0,81.21,625.76V537.64A145.25,145.25,0,0,0-64,392.4Z"/><rect class="cls-1" x="-224.13" y="465.67" width="232.77" height="232.77" rx="73.25"/><path class="cls-3" d="M-64.61,476.54A62.45,62.45,0,0,1-2.22,538.92v86.26a62.46,62.46,0,0,1-62.39,62.39h-86.26a62.46,62.46,0,0,1-62.39-62.39V538.92a62.45,62.45,0,0,1,62.39-62.38h86.26m0-21.74h-86.26A84.12,84.12,0,0,0-235,538.92v86.26a84.12,84.12,0,0,0,84.12,84.12h86.26a84.12,84.12,0,0,0,84.12-84.12V538.92A84.12,84.12,0,0,0-64.61,454.8Z"/><line class="cls-4" x1="28" y1="432" x2="-14.14" y2="481.44"/><line class="cls-7" x1="28" y1="730" x2="-14.14" y2="686.17"/><text class="cls-33" transform="translate(570.38 609.42)">R</text><text class="cls-34" transform="translate(944.77 609.61)">O</text><text class="cls-35" transform="translate(1324.77 609.67)">G</text><text class="cls-36" transform="translate(1710.38 609.45)">R</text><text class="cls-37" transform="translate(2097.39 615.76)">A</text><text class="cls-38" transform="translate(2481.59 616.04)">M</text><path class="cls-2" d="M2923.8,410.87h88.11a134.38,134.38,0,0,1,134.38,134.38v88.11a134.37,134.37,0,0,1-134.37,134.37H2923.8a134.38,134.38,0,0,1-134.37-134.37V545.24A134.37,134.37,0,0,1,2923.8,410.87Z"/><path class="cls-3" d="M3011.92,421.73a123.51,123.51,0,0,1,123.5,123.51v88.12a123.49,123.49,0,0,1-123.5,123.5H2923.8a123.49,123.49,0,0,1-123.5-123.5V545.24a123.51,123.51,0,0,1,123.5-123.51h88.12m0-21.73H2923.8a145.24,145.24,0,0,0-145.24,145.24v88.12A145.24,145.24,0,0,0,2923.8,778.6h88.12a145.24,145.24,0,0,0,145.24-145.24V545.24A145.24,145.24,0,0,0,3011.92,400Z"/><rect class="cls-1" x="2851.83" y="473.27" width="232.77" height="232.77" rx="73.25"/><path class="cls-3" d="M3011.34,484.13a62.46,62.46,0,0,1,62.39,62.39v86.26a62.46,62.46,0,0,1-62.39,62.39h-86.26a62.46,62.46,0,0,1-62.39-62.39V546.52a62.46,62.46,0,0,1,62.39-62.39h86.26m0-21.73h-86.26A84.12,84.12,0,0,0,2841,546.52v86.26a84.12,84.12,0,0,0,84.12,84.12h86.26a84.12,84.12,0,0,0,84.12-84.12V546.52a84.12,84.12,0,0,0-84.12-84.12Z"/><line class="cls-39" x1="3107" y1="436" x2="3061.81" y2="489.04"/><line class="cls-40" x1="2828" y1="436" x2="2874.61" y2="489.04"/><line class="cls-41" x1="2831" y1="738" x2="2873.21" y2="690.96"/><line class="cls-31" x1="3105" y1="740" x2="3061.81" y2="693.76"/><text class="cls-38" transform="translate(2867.59 616.04)">M</text><rect class="cls-2" x="3174.43" y="410.87" width="356.86" height="356.86" rx="134.37"/><path class="cls-3" d="M3396.92,421.73a123.51,123.51,0,0,1,123.5,123.51v88.12a123.49,123.49,0,0,1-123.5,123.5H3308.8a123.49,123.49,0,0,1-123.5-123.5V545.24a123.51,123.51,0,0,1,123.5-123.51h88.12m0-21.73H3308.8a145.24,145.24,0,0,0-145.24,145.24v88.12A145.24,145.24,0,0,0,3308.8,778.6h88.12a145.24,145.24,0,0,0,145.24-145.24V545.24A145.24,145.24,0,0,0,3396.92,400Z"/><rect class="cls-1" x="3236.83" y="473.27" width="232.77" height="232.77" rx="73.25"/><path class="cls-3" d="M3396.34,484.13a62.46,62.46,0,0,1,62.39,62.39v86.26a62.46,62.46,0,0,1-62.39,62.39h-86.26a62.46,62.46,0,0,1-62.39-62.39V546.52a62.46,62.46,0,0,1,62.39-62.39h86.26m0-21.73h-86.26A84.12,84.12,0,0,0,3226,546.52v86.26a84.12,84.12,0,0,0,84.12,84.12h86.26a84.12,84.12,0,0,0,84.12-84.12V546.52a84.12,84.12,0,0,0-84.12-84.12Z"/><line class="cls-39" x1="3492" y1="436" x2="3446.81" y2="489.04"/><line class="cls-40" x1="3213" y1="436" x2="3259.61" y2="489.04"/><line class="cls-41" x1="3216" y1="738" x2="3258.21" y2="690.96"/><line class="cls-31" x1="3490" y1="740" x2="3446.81" y2="693.76"/><text class="cls-38" transform="translate(3270.59 625.04)">I</text><rect class="cls-2" x="3560.43" y="411.87" width="356.86" height="356.86" rx="134.38"/><path class="cls-3" d="M3782.92,422.73a123.51,123.51,0,0,1,123.5,123.51v88.12a123.49,123.49,0,0,1-123.5,123.5H3694.8a123.49,123.49,0,0,1-123.5-123.5V546.24a123.51,123.51,0,0,1,123.5-123.51h88.12m0-21.73H3694.8a145.24,145.24,0,0,0-145.24,145.24v88.12A145.24,145.24,0,0,0,3694.8,779.6h88.12a145.24,145.24,0,0,0,145.24-145.24V546.24A145.24,145.24,0,0,0,3782.92,401Z"/><rect class="cls-1" x="3622.83" y="474.27" width="232.77" height="232.77" rx="73.25"/><path class="cls-3" d="M3782.34,485.13a62.46,62.46,0,0,1,62.39,62.39v86.26a62.46,62.46,0,0,1-62.39,62.39h-86.26a62.46,62.46,0,0,1-62.39-62.39V547.52a62.46,62.46,0,0,1,62.39-62.39h86.26m0-21.73h-86.26A84.12,84.12,0,0,0,3612,547.52v86.26a84.12,84.12,0,0,0,84.12,84.12h86.26a84.12,84.12,0,0,0,84.12-84.12V547.52a84.12,84.12,0,0,0-84.12-84.12Z"/><line class="cls-39" x1="3878" y1="437" x2="3832.81" y2="490.04"/><line class="cls-40" x1="3599" y1="437" x2="3645.61" y2="490.04"/><line class="cls-41" x1="3602" y1="739" x2="3644.21" y2="691.96"/><line class="cls-31" x1="3876" y1="741" x2="3832.81" y2="694.76"/><text class="cls-38" transform="translate(3653.59 614.04)">N</text><path class="cls-2" d="M4082.8,410.87h88.11a134.37,134.37,0,0,1,134.37,134.37v88.11a134.37,134.37,0,0,1-134.37,134.37H4082.8a134.38,134.38,0,0,1-134.38-134.38V545.24A134.37,134.37,0,0,1,4082.8,410.87Z"/><path class="cls-3" d="M4170.92,421.73a123.51,123.51,0,0,1,123.5,123.51v88.12a123.49,123.49,0,0,1-123.5,123.5H4082.8a123.49,123.49,0,0,1-123.5-123.5V545.24a123.51,123.51,0,0,1,123.5-123.51h88.12m0-21.73H4082.8a145.24,145.24,0,0,0-145.24,145.24v88.12A145.24,145.24,0,0,0,4082.8,778.6h88.12a145.24,145.24,0,0,0,145.24-145.24V545.24A145.24,145.24,0,0,0,4170.92,400Z"/><rect class="cls-1" x="4010.83" y="473.27" width="232.77" height="232.77" rx="73.25"/><path class="cls-3" d="M4170.34,484.13a62.46,62.46,0,0,1,62.39,62.39v86.26a62.46,62.46,0,0,1-62.39,62.39h-86.26a62.46,62.46,0,0,1-62.39-62.39V546.52a62.46,62.46,0,0,1,62.39-62.39h86.26m0-21.73h-86.26A84.12,84.12,0,0,0,4000,546.52v86.26a84.12,84.12,0,0,0,84.12,84.12h86.26a84.12,84.12,0,0,0,84.12-84.12V546.52a84.12,84.12,0,0,0-84.12-84.12Z"/><line class="cls-39" x1="4266" y1="436" x2="4220.81" y2="489.04"/><line class="cls-40" x1="3987" y1="436" x2="4033.61" y2="489.04"/><line class="cls-41" x1="3990" y1="738" x2="4032.21" y2="690.96"/><line class="cls-31" x1="4264" y1="740" x2="4220.81" y2="693.76"/><text class="cls-38" transform="translate(4041.59 613.04)">G</text><rect class="cls-2" x="-97.52" y="14.27" width="356.86" height="356.86" rx="134.38"/><path class="cls-3" d="M125,25.14a123.49,123.49,0,0,1,123.51,123.5v88.12A123.51,123.51,0,0,1,125,360.27H36.85a122.69,122.69,0,0,1-87.33-36.18,122.69,122.69,0,0,1-36.18-87.33V148.64A122.69,122.69,0,0,1-50.48,61.31,122.68,122.68,0,0,1,36.85,25.14H125M125,3.4H36.85A145.24,145.24,0,0,0-108.39,148.64v88.12A145.24,145.24,0,0,0,36.85,382H125A145.25,145.25,0,0,0,270.21,236.76V148.64A145.25,145.25,0,0,0,125,3.4Z"/><rect class="cls-1" x="-35.13" y="76.67" width="232.77" height="232.77" rx="73.25"/><path class="cls-3" d="M124.39,87.54a62.45,62.45,0,0,1,62.39,62.38v86.26a62.46,62.46,0,0,1-62.39,62.39H38.13a62.46,62.46,0,0,1-62.39-62.39V149.92A62.45,62.45,0,0,1,38.13,87.54h86.26m0-21.74H38.13A84.12,84.12,0,0,0-46,149.92v86.26A84.12,84.12,0,0,0,38.13,320.3h86.26a84.12,84.12,0,0,0,84.12-84.12V149.92A84.12,84.12,0,0,0,124.39,65.8Z"/><line class="cls-4" x1="217" y1="43" x2="174.86" y2="92.44"/><line class="cls-7" x1="217" y1="341" x2="174.86" y2="297.17"/><path class="cls-2" d="M421.76,12.87h88.11A134.38,134.38,0,0,1,644.25,147.24v88.11A134.38,134.38,0,0,1,509.87,369.73H421.76A134.37,134.37,0,0,1,287.38,235.36V147.24A134.38,134.38,0,0,1,421.76,12.87Z"/><path class="cls-3" d="M509.87,23.73A123.51,123.51,0,0,1,633.38,147.24v88.12a123.49,123.49,0,0,1-123.51,123.5H421.76a123.51,123.51,0,0,1-123.51-123.5V147.24A123.53,123.53,0,0,1,421.76,23.73h88.11m0-21.73H421.76A145.24,145.24,0,0,0,276.52,147.24v88.12A145.24,145.24,0,0,0,421.76,380.6h88.11A145.24,145.24,0,0,0,655.11,235.36V147.24A145.24,145.24,0,0,0,509.87,2Z"/><rect class="cls-1" x="349.78" y="75.27" width="232.77" height="232.77" rx="73.25"/><path class="cls-3" d="M509.3,86.13a62.45,62.45,0,0,1,62.38,62.39v86.26a62.45,62.45,0,0,1-62.38,62.39H423a62.45,62.45,0,0,1-62.38-62.39V148.52A62.45,62.45,0,0,1,423,86.13H509.3m0-21.73H423a84.12,84.12,0,0,0-84.11,84.12v86.26A84.12,84.12,0,0,0,423,318.9H509.3a84.12,84.12,0,0,0,84.12-84.12V148.52A84.12,84.12,0,0,0,509.3,64.4Z"/><line class="cls-8" x1="602" y1="40" x2="559.76" y2="91.04"/><line class="cls-9" x1="331" y1="43" x2="372.57" y2="91.04"/><line class="cls-10" x1="334" y1="341" x2="371.17" y2="292.96"/><line class="cls-11" x1="602" y1="341" x2="559.76" y2="295.76"/><path class="cls-2" d="M807.37,13.57h88.11a134.38,134.38,0,0,1,134.38,134.38v88.11A134.38,134.38,0,0,1,895.48,370.43H807.37A134.37,134.37,0,0,1,673,236.06V147.94A134.38,134.38,0,0,1,807.37,13.57Z"/><path class="cls-3" d="M895.48,24.44A123.51,123.51,0,0,1,1019,147.94v88.12a123.51,123.51,0,0,1-123.51,123.5H807.37a123.49,123.49,0,0,1-123.51-123.5V147.94A123.49,123.49,0,0,1,807.37,24.44h88.11m0-21.74H807.37A145.24,145.24,0,0,0,662.13,147.94v88.12A145.24,145.24,0,0,0,807.37,381.3h88.11a145.24,145.24,0,0,0,145.24-145.24V147.94A145.24,145.24,0,0,0,895.48,2.7Z"/><rect class="cls-1" x="735.39" y="75.97" width="232.77" height="232.77" rx="73.25"/><path class="cls-3" d="M894.91,86.83a62.45,62.45,0,0,1,62.38,62.39v86.26a62.45,62.45,0,0,1-62.38,62.39H808.64a62.45,62.45,0,0,1-62.38-62.39V149.22a62.45,62.45,0,0,1,62.38-62.39h86.27m0-21.73H808.64a84.12,84.12,0,0,0-84.12,84.12v86.26a84.12,84.12,0,0,0,84.12,84.12h86.27A84.12,84.12,0,0,0,979,235.48V149.22A84.12,84.12,0,0,0,894.91,65.1Z"/><line class="cls-12" x1="988" y1="43" x2="945.37" y2="91.74"/><line class="cls-13" x1="716" y1="43" x2="758.18" y2="91.74"/><line class="cls-14" x1="716" y1="341" x2="756.77" y2="293.66"/><line class="cls-15" x1="988" y1="341" x2="945.37" y2="296.46"/><rect class="cls-2" x="1058.6" y="12.87" width="356.86" height="356.86" rx="134.38"/><path class="cls-3" d="M1281.09,23.73A123.53,123.53,0,0,1,1404.6,147.24v88.12a123.51,123.51,0,0,1-123.51,123.5H1193a123.49,123.49,0,0,1-123.51-123.5V147.24A123.51,123.51,0,0,1,1193,23.73h88.11m0-21.73H1193a145.25,145.25,0,0,0-145.25,145.24v88.12A145.25,145.25,0,0,0,1193,380.6h88.11a145.24,145.24,0,0,0,145.24-145.24V147.24A145.24,145.24,0,0,0,1281.09,2Z"/><rect class="cls-1" x="1121" y="75.27" width="232.77" height="232.77" rx="73.25"/><path class="cls-3" d="M1280.52,86.13a62.45,62.45,0,0,1,62.38,62.39v86.26a62.45,62.45,0,0,1-62.38,62.39h-86.27a62.45,62.45,0,0,1-62.38-62.39V148.52a62.45,62.45,0,0,1,62.38-62.39h86.27m0-21.73h-86.27a84.12,84.12,0,0,0-84.12,84.12v86.26a84.12,84.12,0,0,0,84.12,84.12h86.27a84.12,84.12,0,0,0,84.11-84.12V148.52a84.12,84.12,0,0,0-84.11-84.12Z"/><line class="cls-16" x1="1375" y1="40" x2="1330.98" y2="91.04"/><line class="cls-17" x1="1102" y1="43" x2="1143.79" y2="91.04"/><line class="cls-18" x1="1101" y1="341" x2="1142.38" y2="292.96"/><line class="cls-19" x1="1375" y1="343" x2="1330.98" y2="295.76"/><path class="cls-2" d="M1578.59,12.87h88.11a134.37,134.37,0,0,1,134.37,134.37v88.11A134.37,134.37,0,0,1,1666.7,369.73h-88.11a134.37,134.37,0,0,1-134.37-134.37V147.24A134.38,134.38,0,0,1,1578.59,12.87Z"/><path class="cls-3" d="M1666.7,23.73a123.53,123.53,0,0,1,123.51,123.51v88.12a123.51,123.51,0,0,1-123.51,123.5h-88.11a123.49,123.49,0,0,1-123.51-123.5V147.24A123.51,123.51,0,0,1,1578.59,23.73h88.11m0-21.73h-88.11a145.25,145.25,0,0,0-145.25,145.24v88.12A145.25,145.25,0,0,0,1578.59,380.6h88.11a145.24,145.24,0,0,0,145.24-145.24V147.24A145.24,145.24,0,0,0,1666.7,2Z"/><rect class="cls-1" x="1506.61" y="75.27" width="232.77" height="232.77" rx="73.25"/><path class="cls-3" d="M1666.13,86.13a62.46,62.46,0,0,1,62.38,62.39v86.26a62.46,62.46,0,0,1-62.38,62.39h-86.27a62.45,62.45,0,0,1-62.38-62.39V148.52a62.45,62.45,0,0,1,62.38-62.39h86.27m0-21.73h-86.27a84.12,84.12,0,0,0-84.12,84.12v86.26a84.12,84.12,0,0,0,84.12,84.12h86.27a84.12,84.12,0,0,0,84.11-84.12V148.52a84.12,84.12,0,0,0-84.11-84.12Z"/><line class="cls-20" x1="1758" y1="43" x2="1716.59" y2="91.04"/><line class="cls-21" x1="1485" y1="40" x2="1529.39" y2="91.04"/><line class="cls-22" x1="1487" y1="341" x2="1527.99" y2="292.96"/><line class="cls-23" x1="1761" y1="343" x2="1716.59" y2="295.76"/><rect class="cls-2" x="1829.82" y="12.87" width="356.86" height="356.86" rx="134.38"/><path class="cls-3" d="M2052.31,23.73a123.53,123.53,0,0,1,123.51,123.51v88.12a123.51,123.51,0,0,1-123.51,123.5h-88.12a123.49,123.49,0,0,1-123.5-123.5V147.24a123.51,123.51,0,0,1,123.5-123.51h88.12m0-21.73h-88.12A145.24,145.24,0,0,0,1819,147.24v88.12A145.24,145.24,0,0,0,1964.19,380.6h88.12a145.24,145.24,0,0,0,145.24-145.24V147.24A145.24,145.24,0,0,0,2052.31,2Z"/><rect class="cls-1" x="1892.22" y="75.27" width="232.77" height="232.77" rx="73.25"/><path class="cls-3" d="M2051.73,86.13a62.46,62.46,0,0,1,62.39,62.39v86.26a62.46,62.46,0,0,1-62.39,62.39h-86.26a62.46,62.46,0,0,1-62.39-62.39V148.52a62.46,62.46,0,0,1,62.39-62.39h86.26m0-21.73h-86.26a84.12,84.12,0,0,0-84.12,84.12v86.26a84.12,84.12,0,0,0,84.12,84.12h86.26a84.12,84.12,0,0,0,84.12-84.12V148.52a84.12,84.12,0,0,0-84.12-84.12Z"/><line class="cls-24" x1="2144" y1="43" x2="2102.2" y2="91.04"/><line class="cls-25" x1="1873" y1="43" x2="1915" y2="91.04"/><line class="cls-26" x1="1873" y1="340" x2="1913.6" y2="292.96"/><line class="cls-27" x1="2144" y1="341" x2="2102.2" y2="295.76"/><rect class="cls-2" x="2215.43" y="12.87" width="356.86" height="356.86" rx="134.38"/><path class="cls-3" d="M2437.92,23.73a123.51,123.51,0,0,1,123.5,123.51v88.12a123.49,123.49,0,0,1-123.5,123.5H2349.8a123.49,123.49,0,0,1-123.5-123.5V147.24A123.51,123.51,0,0,1,2349.8,23.73h88.12m0-21.73H2349.8a145.24,145.24,0,0,0-145.24,145.24v88.12A145.24,145.24,0,0,0,2349.8,380.6h88.12a145.24,145.24,0,0,0,145.24-145.24V147.24A145.24,145.24,0,0,0,2437.92,2Z"/><rect class="cls-1" x="2277.83" y="75.27" width="232.77" height="232.77" rx="73.25"/><path class="cls-3" d="M2437.34,86.13a62.46,62.46,0,0,1,62.39,62.39v86.26a62.46,62.46,0,0,1-62.39,62.39h-86.26a62.46,62.46,0,0,1-62.39-62.39V148.52a62.46,62.46,0,0,1,62.39-62.39h86.26m0-21.73h-86.26A84.12,84.12,0,0,0,2267,148.52v86.26a84.12,84.12,0,0,0,84.12,84.12h86.26a84.12,84.12,0,0,0,84.12-84.12V148.52a84.12,84.12,0,0,0-84.12-84.12Z"/><line class="cls-28" x1="2530" y1="43" x2="2487.81" y2="91.04"/><line class="cls-29" x1="2256" y1="40" x2="2300.61" y2="91.04"/><line class="cls-30" x1="2256" y1="340" x2="2299.21" y2="292.96"/><line class="cls-31" x1="2531" y1="342" x2="2487.81" y2="295.76"/><text class="cls-32" transform="translate(-4.51 211.61)">P</text><text class="cls-33" transform="translate(382.38 211.42)">R</text><text class="cls-34" transform="translate(756.77 211.61)">O</text><text class="cls-35" transform="translate(1136.77 211.67)">G</text><text class="cls-36" transform="translate(1522.38 211.45)">R</text><text class="cls-37" transform="translate(1909.39 217.76)">A</text><text class="cls-38" transform="translate(2293.59 218.04)">M</text><path class="cls-2" d="M2735.8,12.87h88.11a134.38,134.38,0,0,1,134.38,134.38v88.11a134.37,134.37,0,0,1-134.37,134.37H2735.8a134.38,134.38,0,0,1-134.38-134.38V147.24A134.38,134.38,0,0,1,2735.8,12.87Z"/><path class="cls-3" d="M2823.92,23.73a123.51,123.51,0,0,1,123.5,123.51v88.12a123.49,123.49,0,0,1-123.5,123.5H2735.8a123.49,123.49,0,0,1-123.5-123.5V147.24A123.51,123.51,0,0,1,2735.8,23.73h88.12m0-21.73H2735.8a145.24,145.24,0,0,0-145.24,145.24v88.12A145.24,145.24,0,0,0,2735.8,380.6h88.12a145.24,145.24,0,0,0,145.24-145.24V147.24A145.24,145.24,0,0,0,2823.92,2Z"/><rect class="cls-1" x="2663.83" y="75.27" width="232.77" height="232.77" rx="73.25"/><path class="cls-3" d="M2823.34,86.13a62.46,62.46,0,0,1,62.39,62.39v86.26a62.46,62.46,0,0,1-62.39,62.39h-86.26a62.46,62.46,0,0,1-62.39-62.39V148.52a62.46,62.46,0,0,1,62.39-62.39h86.26m0-21.73h-86.26A84.12,84.12,0,0,0,2653,148.52v86.26a84.12,84.12,0,0,0,84.12,84.12h86.26a84.12,84.12,0,0,0,84.12-84.12V148.52a84.12,84.12,0,0,0-84.12-84.12Z"/><line class="cls-39" x1="2919" y1="38" x2="2873.81" y2="91.04"/><line class="cls-40" x1="2640" y1="38" x2="2686.61" y2="91.04"/><line class="cls-41" x1="2643" y1="340" x2="2685.21" y2="292.96"/><line class="cls-31" x1="2917" y1="342" x2="2873.81" y2="295.76"/><text class="cls-38" transform="translate(2679.59 218.04)">M</text><path class="cls-2" d="M3120.8,12.87h88.11a134.37,134.37,0,0,1,134.37,134.37v88.11a134.38,134.38,0,0,1-134.38,134.38H3120.8a134.38,134.38,0,0,1-134.38-134.38V147.24A134.37,134.37,0,0,1,3120.8,12.87Z"/><path class="cls-3" d="M3208.92,23.73a123.51,123.51,0,0,1,123.5,123.51v88.12a123.49,123.49,0,0,1-123.5,123.5H3120.8a123.49,123.49,0,0,1-123.5-123.5V147.24A123.51,123.51,0,0,1,3120.8,23.73h88.12m0-21.73H3120.8a145.24,145.24,0,0,0-145.24,145.24v88.12A145.24,145.24,0,0,0,3120.8,380.6h88.12a145.24,145.24,0,0,0,145.24-145.24V147.24A145.24,145.24,0,0,0,3208.92,2Z"/><rect class="cls-1" x="3048.83" y="75.27" width="232.77" height="232.77" rx="73.25"/><path class="cls-3" d="M3208.34,86.13a62.46,62.46,0,0,1,62.39,62.39v86.26a62.46,62.46,0,0,1-62.39,62.39h-86.26a62.46,62.46,0,0,1-62.39-62.39V148.52a62.46,62.46,0,0,1,62.39-62.39h86.26m0-21.73h-86.26A84.12,84.12,0,0,0,3038,148.52v86.26a84.12,84.12,0,0,0,84.12,84.12h86.26a84.12,84.12,0,0,0,84.12-84.12V148.52a84.12,84.12,0,0,0-84.12-84.12Z"/><line class="cls-39" x1="3304" y1="38" x2="3258.81" y2="91.04"/><line class="cls-40" x1="3025" y1="38" x2="3071.61" y2="91.04"/><line class="cls-41" x1="3028" y1="340" x2="3070.21" y2="292.96"/><line class="cls-31" x1="3302" y1="342" x2="3258.81" y2="295.76"/><text class="cls-38" transform="translate(3082.59 227.04)">I</text><path class="cls-2" d="M3506.8,13.87h88.11a134.37,134.37,0,0,1,134.37,134.37v88.11a134.38,134.38,0,0,1-134.37,134.38H3506.8a134.38,134.38,0,0,1-134.38-134.38V148.24A134.38,134.38,0,0,1,3506.8,13.87Z"/><path class="cls-3" d="M3594.92,24.73a123.51,123.51,0,0,1,123.5,123.51v88.12a123.49,123.49,0,0,1-123.5,123.5H3506.8a123.49,123.49,0,0,1-123.5-123.5V148.24A123.51,123.51,0,0,1,3506.8,24.73h88.12m0-21.73H3506.8a145.24,145.24,0,0,0-145.24,145.24v88.12A145.24,145.24,0,0,0,3506.8,381.6h88.12a145.24,145.24,0,0,0,145.24-145.24V148.24A145.24,145.24,0,0,0,3594.92,3Z"/><rect class="cls-1" x="3434.83" y="76.27" width="232.77" height="232.77" rx="73.25"/><path class="cls-3" d="M3594.34,87.13a62.46,62.46,0,0,1,62.39,62.39v86.26a62.46,62.46,0,0,1-62.39,62.39h-86.26a62.46,62.46,0,0,1-62.39-62.39V149.52a62.46,62.46,0,0,1,62.39-62.39h86.26m0-21.73h-86.26A84.12,84.12,0,0,0,3424,149.52v86.26a84.12,84.12,0,0,0,84.12,84.12h86.26a84.12,84.12,0,0,0,84.12-84.12V149.52a84.12,84.12,0,0,0-84.12-84.12Z"/><line class="cls-39" x1="3690" y1="39" x2="3644.81" y2="92.04"/><line class="cls-40" x1="3411" y1="39" x2="3457.61" y2="92.04"/><line class="cls-41" x1="3414" y1="341" x2="3456.21" y2="293.96"/><line class="cls-31" x1="3688" y1="343" x2="3644.81" y2="296.76"/><text class="cls-38" transform="translate(3465.59 216.04)">N</text><rect class="cls-2" x="3760.43" y="12.87" width="356.86" height="356.86" rx="134.38"/><path class="cls-3" d="M3982.92,23.73a123.51,123.51,0,0,1,123.5,123.51v88.12a123.49,123.49,0,0,1-123.5,123.5H3894.8a123.49,123.49,0,0,1-123.5-123.5V147.24A123.51,123.51,0,0,1,3894.8,23.73h88.12m0-21.73H3894.8a145.24,145.24,0,0,0-145.24,145.24v88.12A145.24,145.24,0,0,0,3894.8,380.6h88.12a145.24,145.24,0,0,0,145.24-145.24V147.24A145.24,145.24,0,0,0,3982.92,2Z"/><rect class="cls-1" x="3822.83" y="75.27" width="232.77" height="232.77" rx="73.25"/><path class="cls-3" d="M3982.34,86.13a62.46,62.46,0,0,1,62.39,62.39v86.26a62.46,62.46,0,0,1-62.39,62.39h-86.26a62.46,62.46,0,0,1-62.39-62.39V148.52a62.46,62.46,0,0,1,62.39-62.39h86.26m0-21.73h-86.26A84.12,84.12,0,0,0,3812,148.52v86.26a84.12,84.12,0,0,0,84.12,84.12h86.26a84.12,84.12,0,0,0,84.12-84.12V148.52a84.12,84.12,0,0,0-84.12-84.12Z"/><line class="cls-39" x1="4078" y1="38" x2="4032.81" y2="91.04"/><line class="cls-40" x1="3799" y1="38" x2="3845.61" y2="91.04"/><line class="cls-41" x1="3802" y1="340" x2="3844.21" y2="292.96"/><line class="cls-31" x1="4076" y1="342" x2="4032.81" y2="295.76"/><text class="cls-38" transform="translate(3853.59 215.04)">G</text><path class="cls-2" d="M4281.8,10.87h88.11a134.38,134.38,0,0,1,134.38,134.38v88.11a134.37,134.37,0,0,1-134.37,134.37H4281.8a134.37,134.37,0,0,1-134.37-134.37V145.24A134.38,134.38,0,0,1,4281.8,10.87Z"/><path class="cls-3" d="M4369.92,21.73a123.51,123.51,0,0,1,123.5,123.51v88.12a123.49,123.49,0,0,1-123.5,123.5H4281.8a123.49,123.49,0,0,1-123.5-123.5V145.24A123.51,123.51,0,0,1,4281.8,21.73h88.12m0-21.73H4281.8a145.24,145.24,0,0,0-145.24,145.24v88.12A145.24,145.24,0,0,0,4281.8,378.6h88.12a145.24,145.24,0,0,0,145.24-145.24V145.24A145.24,145.24,0,0,0,4369.92,0Z"/><rect class="cls-1" x="4209.83" y="73.27" width="232.77" height="232.77" rx="73.25"/><path class="cls-3" d="M4369.34,84.13a62.46,62.46,0,0,1,62.39,62.39v86.26a62.46,62.46,0,0,1-62.39,62.39h-86.26a62.46,62.46,0,0,1-62.39-62.39V146.52a62.46,62.46,0,0,1,62.39-62.39h86.26m0-21.73h-86.26A84.12,84.12,0,0,0,4199,146.52v86.26a84.12,84.12,0,0,0,84.12,84.12h86.26a84.12,84.12,0,0,0,84.12-84.12V146.52a84.12,84.12,0,0,0-84.12-84.12Z"/><line class="cls-40" x1="4186" y1="36" x2="4232.61" y2="89.04"/><line class="cls-41" x1="4189" y1="338" x2="4231.21" y2="290.96"/><text class="cls-38" transform="translate(4240.59 213.04)">*</text></g><g id="texto"><rect class="cls-42" x="664" y="90" width="969" height="944" rx="218.62"/><rect class="cls-43" x="753.61" y="177.29" width="789.79" height="769.41" rx="218.62"/><line class="cls-44" x1="741.53" y1="141.61" x2="822.63" y2="236.5"/><line class="cls-44" x1="1547.47" y1="141.61" x2="1466.37" y2="236.5"/><line class="cls-44" x1="706.11" y1="966.97" x2="801" y2="885.87"/><line class="cls-44" x1="1590.89" y1="966.97" x2="1496" y2="885.87"/><rect class="cls-42" x="1718" y="90" width="969" height="944" rx="218.62"/><rect class="cls-43" x="1807.61" y="177.29" width="789.79" height="769.41" rx="218.62"/><line class="cls-44" x1="1795.53" y1="141.61" x2="1876.63" y2="236.5"/><line class="cls-44" x1="2601.47" y1="141.61" x2="2520.37" y2="236.5"/><line class="cls-44" x1="1760.11" y1="966.97" x2="1855" y2="885.87"/><line class="cls-44" x1="2644.89" y1="966.97" x2="2550" y2="885.87"/><rect class="cls-42" x="2772" y="79" width="969" height="944" rx="218.62"/><rect class="cls-43" x="2861.61" y="166.29" width="789.79" height="769.41" rx="218.62"/><line class="cls-44" x1="2849.53" y1="130.61" x2="2930.63" y2="225.5"/><line class="cls-44" x1="3655.47" y1="130.61" x2="3574.37" y2="225.5"/><line class="cls-44" x1="2814.11" y1="955.97" x2="2909" y2="874.87"/><line class="cls-44" x1="3698.89" y1="955.97" x2="3604" y2="874.87"/><text class="cls-45" transform="translate(822.72 567.82) scale(0.99 1)">W</text><text class="cls-45" transform="translate(1876.72 567.82) scale(0.99 1)">E</text><text class="cls-45" transform="translate(2930.72 556.82) scale(0.99 1)">B</text></g></svg>