<svg xmlns="http://www.w3.org/2000/svg" viewBox="0 0 287.39 454.69"><defs><style>.cls-1{fill:#070707;}.cls-2,.cls-4{fill:#fcfcfc;}.cls-2,.cls-5{stroke:#0c0101;}.cls-2,.cls-3,.cls-5{stroke-miterlimit:10;}.cls-3,.cls-5{fill:none;}.cls-3{stroke:#110202;}.cls-6{fill:#0c0101;}</style></defs><title>risas</title><g id="Capa_2" data-name="Capa 2"><g id="risas"><path class="cls-1" d="M195.69,146l-58-43-58,43-44,62,22,23,6,70-4,73,29,28,23,37,15.86,12.19a16.61,16.61,0,0,0,20.29,0L163.69,439l23-37,29-28-4-73,6-70,22-23Z"/><polygon class="cls-2" points="138.19 440.04 204.69 316.19 143.18 364.4 71.69 316.19 138.19 440.04"/><polyline class="cls-3" points="72.19 317.54 139.19 401.54 203.19 317.54"/><polygon class="cls-4" points="144.39 268.59 191.72 230.63 209.1 255.63 144.39 268.59"/><polyline class="cls-4" points="136.39 268.59 89.07 230.63 71.69 255.63"/><path class="cls-5" d="M94.19,331v27"/><line class="cls-5" x1="104.19" y1="338.04" x2="104.19" y2="377.04"/><line class="cls-5" x1="116.19" y1="345.54" x2="113.19" y2="394.54"/><line class="cls-5" x1="129.19" y1="353.54" x2="127.19" y2="420.54"/><line class="cls-5" x1="157.19" y1="353.04" x2="157.19" y2="407.04"/><line class="cls-5" x1="169.19" y1="343.04" x2="169.19" y2="383.04"/><line class="cls-5" x1="181.88" y1="334.06" x2="182.19" y2="360.04"/><polyline class="cls-5" points="143.19 364.54 139.19 401.54 138.19 439.54"/><path class="cls-6" d="M188.55,123.78,227.15,0,171.28,149.56c3.87-47.4,9.91-126,9.91-126l-61,109-13-129,6.29,139L60.24,0l38.6,123.78L0,47.4s72.17,138.82,75.05,143c1.89,2.76,24.89.26,40.52-1.79l.62,13.9s35.54-9.06,47.87-15c14.1,2,46,6.12,48.28,2.85,2.88-4.21,75-143,75-143Z"/></g></g></svg>