<svg xmlns="http://www.w3.org/2000/svg" viewBox="0 0 511 502.69"><defs><style>.cls-1{fill:#00acff;}.cls-1,.cls-2,.cls-5{stroke:#000;stroke-miterlimit:10;}.cls-1,.cls-5{stroke-width:11px;}.cls-2{fill:#94ffb5;stroke-width:8px;}.cls-3{fill:#fff;}.cls-4{fill:#eeff7f;}.cls-5{fill:none;}.cls-6{fill:#4300b9;}</style></defs><title>fondo-inicio3</title><g id="Capa_2" data-name="Capa 2"><g id="Layer_1" data-name="Layer 1"><path d="M74.81,478.27h40.84c7.73,0,7.74-12,0-12H74.81c-7.72,0-7.74,12,0,12Z"/><rect class="cls-1" x="5.5" y="5.5" width="500" height="491.69" rx="47.46"/><ellipse class="cls-2" cx="258.96" cy="419.37" rx="163.38" ry="49.15"/><path d="M372.85,390.92c0,32.75-24.61-20.81-44.43,2.2-24.09,28-33.12,37.38-72.92,37.38-44.19,0-51.42-6.45-75.23-39.91-15.28-21.47-44.89,29-44.89.68,0-72.55,47.57-257.44,120.12-257.44S372.85,318.37,372.85,390.92Z"/><circle class="cls-3" cx="219.67" cy="236.02" r="18.17"/><ellipse class="cls-4" cx="219.67" cy="236.02" rx="11.54" ry="18.17"/><ellipse cx="219.67" cy="234.17" rx="6.85" ry="10.79"/><circle class="cls-3" cx="284.52" cy="236.02" r="18.17"/><path class="cls-3" d="M194.23,331c0-6.5,41.63-10.4,61.12-10.56s65.86,10.12,65.92,16.62-46.22,6.75-65.72,6.92S194.29,337.54,194.23,331Z"/><path class="cls-3" d="M321.22,336.74c.13,6.5-44.84,50.33-64.33,50.73S194.36,337.54,194.23,331s42.68,33.29,62.18,32.9S321.09,330.24,321.22,336.74Z"/><path class="cls-3" d="M193.1,201.1c0-2.58,17.34-19.44,25.08-19.46s24.43,20.27,24.44,22.85S225.93,191,218.2,191,193.1,203.68,193.1,201.1Z"/><path class="cls-3" d="M265,201.1c0-2.58,17.35-19.44,25.08-19.46s24.44,20.27,24.44,22.85S297.81,191,290.08,191,265,203.68,265,201.1Z"/><ellipse class="cls-4" cx="284.52" cy="236.02" rx="11.54" ry="18.17"/><polygon class="cls-4" points="246.41 297.43 230.1 297.07 222.25 282.76 230.72 268.81 247.03 269.17 254.88 283.48 246.41 297.43"/><polygon class="cls-4" points="279.07 298.2 262.75 297.85 254.91 283.54 263.38 269.59 279.69 269.95 287.54 284.25 279.07 298.2"/><ellipse cx="284.52" cy="236.02" rx="6.85" ry="10.79"/><line class="cls-5" x1="193.1" y1="396.25" x2="150.17" y2="426.02"/><line class="cls-5" x1="356.81" y1="430.5" x2="314.5" y2="399.86"/><line class="cls-5" x1="132.85" y1="390.63" x2="13.77" y2="479.77"/><line class="cls-5" x1="496.37" y1="474.53" x2="421.75" y2="416.94"/><path class="cls-6" d="M82.51,106.94C69,112.16,52.62,119,43.06,130.46c-9.13,10.91-9.46,26.8-5.79,40,3.56,12.81,11.82,23.92,24.4,28.88,6.9,2.72,14.47,3.41,21.83,3.61A115.17,115.17,0,0,0,107,201.69c13.27-2.39,26.88-10.57,30.6-24.32,3.17-11.73-1.3-25.13-11.06-32.4-5.76-4.29-12.93-6-19.84-7.39a176.57,176.57,0,0,0-24.45-3.35c-6.51-.41-13.45.44-18.28,5.29-3.92,3.93-5.66,9.72-5.38,15.19.78,15.49,14.69,23.36,28.76,24.54,6.28.52,17.4.76,17.25-8.19-.12-7.52-9.34-12.74-15.79-14-7.54-1.47-10.77,10.09-3.19,11.57a13.28,13.28,0,0,1,4.5,1.54c.84.5,2.59,2.77,2.52,1.54l1.76-4.24c.71-.91,1,.2-.29-.13a19.65,19.65,0,0,0-3.75.05,34.77,34.77,0,0,1-6.59-.69c-4-.86-8.41-2.55-11-5.93-3.49-4.63-3.46-13.17,3.29-14.46,4.56-.87,9.77.14,14.33.67a160.47,160.47,0,0,1,16.71,2.94c8.49,1.95,15.94,5.09,18.63,14,2.35,7.82-.5,15.41-7,20.25-8.57,6.39-19.88,6.84-30.14,6.81-9.38,0-19.82-.05-27.88-5.55C54,180.82,50.11,173,48.3,165.17c-2.4-10.36-1.82-22.12,6.53-29.62,8.53-7.66,20.28-13,30.87-17,7.13-2.75,4-14.35-3.19-11.58Z"/><path class="cls-6" d="M414,83.82c-21,.34-43.33,4.7-61.69,15.28-7.77,4.48-15,10.58-19.45,18.45-4.83,8.49-6.22,18.73-5.85,28.36.64,16.77,7.45,35.1,23.92,42.1,9.5,4,20.4,3.85,30.53,3.46a138.53,138.53,0,0,0,31.24-4.53c18.83-5.17,35.83-15.6,47.35-31.54,8.42-11.64,20.43-38.91,2.08-47.43-8.81-4.08-20.47-3.17-29.94-3.54q-18-.72-36.13-.4c-10.62.19-22.33-.42-32.12,4.38-8,3.91-13.83,12-13,21.12.91,10.1,8.79,18.21,18,21.65,5.61,2.09,11.71,2.67,17.66,2.68,5.55,0,11.78.19,17.15-1.4,9.41-2.8,16.06-14.74,7.74-22.59-3.83-3.61-9.56-4.63-14.53-5.59a124.53,124.53,0,0,0-20.29-2.17c-7.73-.21-7.72,11.79,0,12,8,.21,17,.72,24.66,3.54,3.79,1.41.13,3.11-2.27,3.61-3.7.78-7.83.59-11.59.61-7.21,0-15.44-.54-20.78-6-4.54-4.65-5.25-11.17.3-15.32,6.63-5,16.38-4.21,24.22-4.41q13.19-.33,26.37-.11t26.35,1c5.14.3,15.52-.76,15.72,6.49.35,13-8.86,26.28-17.95,34.74-11,10.25-25.24,16-39.86,19A134.84,134.84,0,0,1,378,179.57c-7.37.14-15.44.4-22.35-2.58-11.82-5.08-16.12-19.22-16.56-31.08-.31-8.09.57-16.6,5-23.58,4-6.41,10.46-10.89,17.07-14.34,16.06-8.38,35-11.88,52.94-12.17,7.71-.13,7.73-12.13,0-12Z"/><path class="cls-6" d="M118.84,357.2c-3.59-18.86-7.48-38.85-19.16-54.62C89.52,288.88,74.26,278.74,56.75,279c-7.72.1-7.74,12.1,0,12,14.72-.18,27.46,9.36,35.13,21.4,9.15,14.35,12.25,31.57,15.38,48,1.45,7.58,13,4.37,11.58-3.19Z"/><path class="cls-6" d="M408.56,359.2c-2.69-20.21-5.88-40.43-7.75-60.73-1-11.38-4.49-49.35,17.81-40.63,14.35,5.61,29.31,20.09,33.13,35.3,1.31,5.23-.82,17.78-9.18,14.84-3.51-1.23-5.55-5.74-7.24-8.72-1.17-2.06-2.31-4.14-3.47-6.21l-1.73-3.1q-1-3.82-5-.34c6.64,4,12.68-6.39,6.06-10.36a9.08,9.08,0,0,0-11.13,1.27c-3.77,3.56-3.43,8.9-1.43,13.27,3.64,7.94,8.62,18.49,16.09,23.51s17.31,3,23.43-3.41c6.78-7.1,7.44-17.49,4.38-26.46-6.08-17.84-22-33.5-39.31-40.6-9.2-3.77-18.8-2.4-26,4.7-7.37,7.31-9.32,17.79-9.44,27.78-.15,12.94,1.56,25.89,3.24,38.69q2.7,20.61,5.47,41.2c.43,3.23,2.45,6,6,6,2.91,0,6.42-2.79,6-6Z"/><path class="cls-6" d="M90.07,375.26c6.53-6.8-1.72-16.48-5.37-22.75Q77.46,340.08,69.58,328c-4.63-7.08-10-12.09-18.87-12.71-8.11-.57-16.51,2.47-23,7.25C14.55,332.26,7.4,350.79,12.19,366.8,16.71,381.9,35.85,389.88,49,380c6.76-5.12,9.83-14.91,5.68-22.67s-13.46-10.24-21.23-6.57c-7,3.29-.89,13.64,6.06,10.36,5.56-2.62,5.67,6.39,2.68,9-3.74,3.32-9.65,2.75-13.52.05C18.18,362.9,23,344.64,30,336.63a27.42,27.42,0,0,1,14.66-8.91c6.88-1.53,10.88.7,14.58,6.35q5.85,8.94,11.33,18.1,2.88,4.79,5.65,9.62,1.15,2,2.29,4c.46.81.91,1.62,1.36,2.43q1.44,3.93,1.74-1.48c-5.35,5.57,3.12,14.07,8.48,8.49Z"/><path class="cls-6" d="M373.82,277c-1.38-16.41,2.22-33.4,14.83-44.85,12-10.91,29.15-13.75,44.77-14.42,7.69-.33,7.74-12.33,0-12-19,.81-38.76,4.76-53.25,17.93-14.78,13.44-20,34-18.35,53.34.64,7.64,12.65,7.71,12,0Z"/></g></g></svg>