<svg xmlns="http://www.w3.org/2000/svg" viewBox="0 0 453.72 393.26"><defs><style>.cls-1,.cls-5,.cls-9{fill:#ff9fb7;}.cls-1,.cls-2,.cls-3,.cls-5{stroke:#583700;stroke-miterlimit:10;}.cls-1,.cls-2,.cls-3{stroke-width:6px;}.cls-2{fill:#c79fb7;}.cls-3{fill:#3c2046;}.cls-4{fill:#e4f40f;}.cls-5{stroke-width:7px;}.cls-6{fill:#c28aff;}.cls-7{fill:#fff;}.cls-8{fill:#ff749f;}</style></defs><title>monkey-welcome</title><g id="Capa_2" data-name="Capa 2"><g id="Layer_1" data-name="Layer 1"><circle class="cls-1" cx="49.52" cy="153.95" r="46.52"/><circle class="cls-1" cx="404.2" cy="149.38" r="46.52"/><ellipse class="cls-2" cx="62.76" cy="151.4" rx="43.73" ry="30.53"/><ellipse class="cls-2" cx="396.22" cy="147.06" rx="43.73" ry="29.61"/><ellipse class="cls-3" cx="226.84" cy="260.79" rx="158.76" ry="129.47"/><ellipse class="cls-1" cx="227.96" cy="299.46" rx="120.79" ry="66"/><circle class="cls-4" cx="194.67" cy="195.66" r="23.84"/><ellipse class="cls-5" cx="227.96" cy="131.33" rx="165.99" ry="127.83"/><ellipse cx="204.3" cy="212.48" rx="14.05" ry="7.02"/><ellipse cx="243.15" cy="212.48" rx="14.05" ry="7.02"/><path d="M170.82,297.74c0-13.17,25.08-23.84,56-23.84s74.65-2,74.65,11.18-43.71,36.51-74.65,36.51S170.82,310.91,170.82,297.74Z"/><path class="cls-6" d="M212.22,305.72c0-14.3,8.42-25.89,18.79-25.89s34.07,5.95,34.07,20.25S239.87,314.5,229.5,314.5,212.22,320,212.22,305.72Z"/><circle cx="157.42" cy="112.67" r="36.71"/><circle class="cls-7" cx="161.3" cy="112.67" r="20.3"/><circle cx="283.94" cy="112.67" r="36.71"/><circle class="cls-7" cx="280.22" cy="111.03" r="20.3"/><ellipse class="cls-8" cx="320.87" cy="190.07" rx="33.49" ry="16.09"/><ellipse class="cls-8" cx="126.73" cy="191.42" rx="30.69" ry="14.75"/><path d="M173.41,257.39c7.72,0,7.73-12,0-12s-7.73,12,0,12Z"/><path class="cls-9" d="M168.17,246.08l-.13,7,6-6c-3.68.49-5.18-4.08-6.88-6.65-2.1-3.2-4.48-6-8-7.67-6.9-3.28-12.7,6.22-6,10.36,1.43.9,2.18,6.08,3.27,7.68a12.06,12.06,0,0,0,8,5c4,.78,7.8.21,11.79,1.52,3.69,1.21,7.15,2.61,11,3.19,9.07,1.36,18.63.58,27.78.57h29.08c7.74,0,7.71-11.74,0-12-17.85-.6-35.45,3.62-53.3,2.76v12c17.75,0,35.53.19,53.28-.08a220.62,220.62,0,0,0,25.79-2.33c7.74-1,15.37-1.71,22.38-5.41,6.84-3.61.78-14-6.05-10.36-6.39,3.37-14.43,3.53-21.48,4.46a195.85,195.85,0,0,1-24.56,1.67c-16.45.07-32.91,0-49.36.05-7.76,0-7.69,11.63,0,12,17.85.86,35.45-3.36,53.3-2.76v-12H217c-8.7,0-17.74.73-26.39-.18-4-.41-7.43-1.92-11.17-3.15a36.86,36.86,0,0,0-10.59-1.63c-3.48-.12-2.89-1.36-4.12-4.52a13.17,13.17,0,0,0-5.51-6.87l-6,10.36c4.14,2,5.56,7.15,8.47,10.47,3.13,3.57,7.6,6.14,12.45,5.49,3.27-.43,5.93-2.39,6-6l.13-7c.15-7.73-11.85-7.73-12,0Z"/><path class="cls-9" d="M291.51,255.89c2.67-.77,5.39-2.14,6.91-4.58a9.21,9.21,0,0,0,1.35-4.26c.13-1.1,0-.94-.48.5a2.24,2.24,0,0,1-.94,1.59l-.51.21c.32-.11.64-.21,1-.29L293,239c-2.17,2.74-3.79,5.54-4,9.13a11.41,11.41,0,0,0,3.34,8.72,6,6,0,0,0,8.48-8.48c-.85-.86,0,.19.19.48-.16-.69-.17-.67,0,.06,0-.61,0-.7,0-.27s0,.34.12-.3c-.24.45-.26.48-.06.1.1-.21,1.13-1.75.5-.95,1.61-2,2.48-4.87.93-7.27a6.16,6.16,0,0,0-6.77-2.76c-2.69.75-5.44,2.14-6.79,4.71a8,8,0,0,0-.86,2.68,14.55,14.55,0,0,0-.16,1.48l.5-1.48a1.8,1.8,0,0,1,.62-.69c.37-.28.3-.26-.19.05l.52-.22c-.31.11-.62.21-.93.29-3,.87-5.2,4.28-4.19,7.38a6.11,6.11,0,0,0,7.38,4.2Z"/></g></g></svg>