<svg xmlns="http://www.w3.org/2000/svg" viewBox="0 0 641.95 270.48"><title>prueba-titulo2</title><g id="Capa_2" data-name="Capa 2"><g id="Layer_1" data-name="Layer 1"><path d="M506.75,171.65a275.59,275.59,0,0,0,22.4,34.17c4.63,6.05,15.06.08,10.36-6a277.59,277.59,0,0,1-22.4-34.18c-3.74-6.76-14.11-.71-10.36,6.06Z"/><path d="M505.46,254.08a286.09,286.09,0,0,0,34.7-24.36c6-4.88-2.55-13.32-8.49-8.48a267.37,267.37,0,0,1-32.27,22.48c-6.63,3.94-.6,14.32,6.06,10.36Z"/><path d="M465.27,196.62a396.71,396.71,0,0,0,67.05,50.7c6.63,4,12.67-6.39,6-10.36a381.5,381.5,0,0,1-64.61-48.82c-5.63-5.28-14.14,3.18-8.49,8.48Z"/><path d="M484.34,217.36c4.71-6.74,13.54-10.92,20.28-15.31q12-7.85,24.1-15.63c6.47-4.18.46-14.57-6.05-10.36Q509,184.9,495.36,193.77c-7.81,5.09-15.94,9.76-21.38,17.53-4.44,6.34,6,12.35,10.36,6.06Z"/><path d="M354.09,159.59q1.56,31.4,1,62.82c-.14,7.72,11.86,7.72,12,0q.58-31.42-1-62.82c-.38-7.68-12.39-7.73-12,0Z"/><path d="M303.6,173.06c24.54,4.64,47.35,15.62,72,19.89,7.56,1.31,10.8-10.26,3.19-11.58-24.62-4.26-47.43-15.25-72-19.88-7.54-1.43-10.78,10.14-3.19,11.57Z"/><path d="M308.34,164.27q4.82,10.62,9.26,21.41c1.24,3,4,5.09,7.38,4.19,2.84-.75,5.42-4.39,4.19-7.38q-5-12.23-10.46-24.28c-3.18-7-13.52-.93-10.37,6.06Z"/><path d="M321,248.46q27.89-19.5,55.5-39.38c6.21-4.47.23-14.88-6.06-10.36q-27.6,19.89-55.49,39.37c-6.29,4.4-.3,14.8,6,10.37Z"/><path d="M300.46,228.5a270.24,270.24,0,0,0,30.93,22.81c6.54,4.13,12.57-6.25,6.05-10.36A248.36,248.36,0,0,1,309,220c-5.85-5-14.38,3.47-8.49,8.49Z"/><path d="M233,162.5c12.16,21,26.87,40.41,43,58.58,5.12,5.8,13.58-2.71,8.48-8.48a347,347,0,0,1-41.06-56.16c-3.87-6.68-14.24-.65-10.37,6.06Z"/><path d="M224.41,213.29c-.11-.92,3.33-4.09,4.1-5q2.27-2.73,4.58-5.41c3.48-4,7-8,10.54-12a242.47,242.47,0,0,0,19.08-24c4.34-6.41-6-12.42-10.36-6-6.51,9.6-14.22,18.24-21.9,26.91-3.72,4.2-7.43,8.41-11,12.75-2.89,3.53-7.65,7.85-7.06,12.83.92,7.57,12.93,7.66,12,0Z"/><path d="M249.74,252.84A262.94,262.94,0,0,0,283.55,207c3.92-6.67-6.45-12.71-10.36-6a248.65,248.65,0,0,1-31.94,43.4c-5.25,5.65,3.22,14.16,8.49,8.48Z"/><path d="M211.61,202.21q23.74,24.54,49.47,47c5.79,5.07,14.32-3.39,8.49-8.48q-25.71-22.49-49.48-47.05c-5.38-5.56-13.86,2.93-8.48,8.49Z"/><path d="M376.24,9.17c8.9,19.72,20.85,37.86,31.83,56.44,3.93,6.64,14.3.61,10.36-6.06-11-18.58-22.92-36.72-31.82-56.43-3.18-7-13.52-.94-10.37,6.05Z"/><path d="M25,26c12.58,14.83,25.33,29.6,40.8,41.52,7.61,5.86,16.08,10.63,23.3,17a98.91,98.91,0,0,1,18.32,22.19c4.08,6.54,14.46.52,10.37-6.06a114.5,114.5,0,0,0-17.69-22.31c-7.31-7-15.94-12.2-24.1-18.08C59.65,48.45,46.49,32.79,33.52,17.51c-5-5.9-13.46,2.63-8.49,8.48Z"/><path d="M5.79,40.44,107,38.32l-3-11.18C79.81,45.42,49,52.39,26.12,72.69c-5.78,5.13,2.73,13.6,8.49,8.48C56.6,61.67,86.74,55.12,110,37.5c4.39-3.32,3.49-11.32-3-11.18L5.79,28.44c-7.71.16-7.73,12.16,0,12Z"/><path d="M50.61,157.81c12.21,15.13,24.59,30.38,39.86,42.57,7.48,6,15.75,11,22.78,17.49A98.66,98.66,0,0,1,131,240.52c3.92,6.65,14.3.62,10.36-6.06a113.78,113.78,0,0,0-17.17-22.71c-7.16-7.19-15.74-12.56-23.76-18.71-16-12.26-28.76-28.14-41.34-43.72-4.85-6-13.29,2.53-8.48,8.49Z"/><path d="M31.07,171.67l101.24.36-3-11.18c-24.62,17.69-55.56,23.93-78.93,43.66C44.44,209.5,53,218,58.84,213c22.45-19,52.78-24.74,76.5-41.79,4.61-3.31,3.32-11.16-3-11.18l-101.24-.36c-7.73,0-7.74,12,0,12Z"/><path d="M168.8,22.69a236,236,0,0,0-1.31,62c.86,7.58,12.87,7.67,12,0a224.21,224.21,0,0,1,.89-58.84c1.13-7.55-10.43-10.81-11.58-3.19Z"/><path d="M159.6,104.91a516.62,516.62,0,0,1,60.33-38.73c6.77-3.71.72-14.08-6.06-10.36a517.46,517.46,0,0,0-60.33,38.73c-6.12,4.56-.15,15,6.06,10.36Z"/><path d="M147,22.44A169.7,169.7,0,0,0,190.8,40.81c7.47,2,10.66-9.6,3.19-11.58A157.69,157.69,0,0,1,153.1,12.08c-6.65-4-12.69,6.4-6.06,10.36Z"/><path d="M158.32,63.87a101.32,101.32,0,0,0,29.85-2.63c7.51-1.78,4.33-13.35-3.19-11.57a90.2,90.2,0,0,1-26.66,2.2c-7.72-.48-7.69,11.52,0,12Z"/><path d="M426,187.63a236.15,236.15,0,0,0-2.79,62c.68,7.64,12.68,7.71,12,0a224.34,224.34,0,0,1,2.36-58.78c1.33-7.56-10.24-10.8-11.57-3.19Z"/><path d="M415,269.38a516.61,516.61,0,0,1,61.26-37.24c6.87-3.55.8-13.91-6.05-10.36A516.73,516.73,0,0,0,408.93,259c-6.25,4.43-.26,14.84,6.06,10.36Z"/><path d="M404.46,186.78a169.53,169.53,0,0,0,43.31,19.39c7.43,2.16,10.6-9.42,3.19-11.57a157.76,157.76,0,0,1-40.45-18.18c-6.55-4.14-12.57,6.24-6.05,10.36Z"/><path d="M414.73,228.39a101.2,101.2,0,0,0,29.91-1.93c7.55-1.59,4.35-13.16-3.19-11.57a90.09,90.09,0,0,1-26.72,1.5c-7.69-.66-7.64,11.34,0,12Z"/><path d="M330.62,23.15a236,236,0,0,0-1.32,62c.87,7.58,12.88,7.67,12,0a224.64,224.64,0,0,1,.89-58.84c1.14-7.55-10.43-10.81-11.57-3.19Z"/><path d="M321.41,105.37a517.46,517.46,0,0,1,60.33-38.73c6.78-3.71.73-14.08-6.05-10.36A517.58,517.58,0,0,0,315.35,95c-6.12,4.56-.14,15,6.06,10.36Z"/><path d="M308.86,22.9a169.11,169.11,0,0,0,43.75,18.36c7.48,2,10.66-9.59,3.19-11.57a157.83,157.83,0,0,1-40.89-17.15c-6.64-4-12.68,6.4-6.05,10.36Z"/><path d="M320.13,64.33A101.63,101.63,0,0,0,350,61.7c7.51-1.78,4.33-13.35-3.19-11.57a90.17,90.17,0,0,1-26.66,2.2c-7.71-.48-7.69,11.52,0,12Z"/><path d="M223.65,9.12c-2.52,5.17-1.54,9.62.66,14.73,2.5,5.8,5.11,11.56,7.67,17.35l15.74,35.6c3.11,7,13.45,1,10.36-6L245.57,42.44l-6.06-13.69c-1.07-2.44-2.15-4.87-3.22-7.31-.51-1.14-2.93-4.93-2.28-6.27,3.36-6.92-7-13-10.36-6.05Z"/><path d="M218.73,25.69A525.48,525.48,0,0,0,277.55,39c7.55,1.26,10.8-10.3,3.19-11.57a523.32,523.32,0,0,1-58.82-13.34c-7.44-2.14-10.61,9.44-3.19,11.58Z"/><path d="M270,14.16a325.46,325.46,0,0,1-33.7,38.23c-5.54,5.4,2.95,13.88,8.48,8.49a344.73,344.73,0,0,0,35.58-40.67C284.94,14,274.53,8,270,14.16Z"/><path d="M230.37,50.05l50.05,23.8c6.93,3.29,13-7,6.05-10.37L236.42,39.69c-6.94-3.3-13,7.05-6,10.36Z"/><path d="M141.47,169.92c-2.53,4.88-1.77,9.31.23,14.23,2.37,5.86,4.82,11.69,7.24,17.53q7.23,17.53,14.48,35.06c2.9,7,14.52,3.95,11.57-3.19L162.79,204l-6.09-14.76c-1-2.47-2-4.92-3-7.39-.48-1.16-2.51-4.57-1.82-5.91,3.54-6.85-6.81-12.92-10.36-6.05Z"/><path d="M136.36,186.28A522.86,522.86,0,0,0,194.84,201c7.54,1.45,10.78-10.11,3.19-11.57a520.73,520.73,0,0,1-58.48-14.77c-7.38-2.32-10.54,9.26-3.19,11.58Z"/><path d="M188.57,174.88A335.79,335.79,0,0,1,153,213.46c-5.68,5.27,2.83,13.74,8.48,8.49a335.14,335.14,0,0,0,35.6-38.59c4.72-6-3.71-14.55-8.49-8.48Z"/><path d="M147.39,211l49.45,25c6.87,3.47,12.95-6.88,6-10.37l-49.45-25c-6.87-3.48-13,6.87-6.05,10.36Z"/><path d="M433.06,10.17c-2.51,5.17-1.53,9.62.67,14.73,2.5,5.81,5.11,11.57,7.67,17.35q7.86,17.8,15.73,35.6c3.12,7.05,13.46,1,10.37-6L455,43.49,448.93,29.8q-1.6-3.66-3.23-7.3c-.5-1.15-2.92-4.94-2.27-6.28,3.36-6.91-7-13-10.37-6Z"/><path d="M429.56,27.91a522.08,522.08,0,0,0,58.82,13.33c7.56,1.27,10.8-10.3,3.19-11.57a522.08,522.08,0,0,1-58.82-13.33c-7.43-2.14-10.6,9.43-3.19,11.57Z"/><path d="M479.37,15.21a326.38,326.38,0,0,1-33.7,38.23c-5.54,5.4,2.95,13.88,8.48,8.49a345.44,345.44,0,0,0,35.58-40.66c4.63-6.19-5.78-12.18-10.36-6.06Z"/><path d="M439.78,51.11,489.83,74.9c6.94,3.3,13-7.05,6.06-10.36l-50.05-23.8c-6.94-3.29-13,7-6.06,10.37Z"/><path d="M433.06,10.17c-2.51,5.17-1.53,9.62.67,14.73,2.5,5.81,5.11,11.57,7.67,17.35q7.86,17.8,15.73,35.6c3.12,7.05,13.46,1,10.37-6L455,43.49,448.93,29.8q-1.6-3.66-3.23-7.3c-.5-1.15-2.92-4.94-2.27-6.28,3.36-6.91-7-13-10.37-6Z"/><path d="M429.56,27.91a522.08,522.08,0,0,0,58.82,13.33c7.56,1.27,10.8-10.3,3.19-11.57a522.08,522.08,0,0,1-58.82-13.33c-7.43-2.14-10.6,9.43-3.19,11.57Z"/><path d="M479.37,15.21a326.38,326.38,0,0,1-33.7,38.23c-5.54,5.4,2.95,13.88,8.48,8.49a345.44,345.44,0,0,0,35.58-40.66c4.63-6.19-5.78-12.18-10.36-6.06Z"/><path d="M439.78,51.11,489.83,74.9c6.94,3.3,13-7.05,6.06-10.36l-50.05-23.8c-6.94-3.29-13,7-6.06,10.37Z"/><path d="M396.22,89.2c2-4.68,5.11-8.79,7.73-13.09a98,98,0,0,0,6.83-13.68,99.3,99.3,0,0,0,4.5-13.87c1.3-5.15,3.22-7.65,7.6-10.64,6.33-4.34.34-14.75-6.06-10.37-4.19,2.88-8.34,5.95-10.68,10.6-2.53,5-3.22,10.94-5.08,16.25C397.08,65.81,389.27,75,384.65,86c-1.26,3,1.36,6.57,4.19,7.38,3.44,1,6.13-1.22,7.38-4.19Z"/><path d="M512.25,98.6,544,55.14c9.45-12.93,20.58-26,23.5-42.26,1.36-7.55-10.2-10.79-11.57-3.19-2.83,15.7-14.31,28.46-23.45,41L501.89,92.55c-4.56,6.24,5.85,12.23,10.36,6Z"/><path d="M528.61,10.37l61.12,112.86c3.68,6.79,14,.74,10.36-6.06L539,4.31c-3.68-6.79-14-.74-10.36,6.06Z"/><path d="M515,66.91c5.06,2.1,10.53,1.91,15.92,1.75L551.54,68l40.2-1.22c7.7-.24,7.74-12.24,0-12L553.5,56l-18.62.56c-5.57.17-11.39,1-16.65-1.2C511.1,52.38,508,64,515,66.91Z"/><path d="M562.39,256.46c.32-6.48,2.76-13.18,4.72-19.35,2.37-7.46,5-14.87,8-22.11,8.88-21.58,19.38-42.62,29.08-63.85,3.18-7-7.16-13.08-10.36-6.06-10.13,22.17-21.09,44.15-30.29,66.72-3,7.45-5.74,15.06-8.16,22.73-2.23,7.07-4.58,14.47-5,21.92-.38,7.72,11.62,7.7,12,0Z"/><path d="M540.05,167.59c32.62,3.87,63.5,16.32,96.18,20,7.66.86,7.6-11.14,0-12-32.64-3.69-63.54-16.14-96.18-20-7.65-.91-7.59,11.1,0,12Z"/></g></g></svg>