<svg xmlns="http://www.w3.org/2000/svg" viewBox="0 0 636.64 308"><title>titulo-prueba1</title><g id="Capa_2" data-name="Capa 2"><g id="Layer_1" data-name="Layer 1"><path d="M92.35,29.83C103.62,45,115,60.5,129.25,73.09c7.15,6.33,15.2,11.59,21.93,18.41a98.19,98.19,0,0,1,16.15,22.61c3.68,6.79,14,.74,10.36-6.06A113.73,113.73,0,0,0,162,85.52c-6.44-7.09-14.29-12.47-21.6-18.58-14.75-12.35-26.34-27.8-37.73-43.17-4.55-6.14-15-.16-10.36,6.06Z"/><path d="M75.47,44.8l93.72.8-3-11.18C143.45,51.87,114.3,58.36,92.85,77.74c-5.75,5.19,2.76,13.66,8.48,8.49,20.57-18.59,49-24.66,70.89-41.45,4.44-3.41,3.45-11.12-3-11.18l-93.72-.8c-7.73-.07-7.73,11.93,0,12Z"/><path d="M203.35,17.55a255.19,255.19,0,0,0-2.82,62c.6,7.64,12.61,7.71,12,0a242,242,0,0,1,2.39-58.78c1.26-7.55-10.3-10.8-11.57-3.19Z"/><path d="M193.5,99.22a473,473,0,0,1,56.85-37c6.76-3.73.72-14.1-6-10.36a473,473,0,0,0-56.85,37c-6.08,4.6-.11,15,6.05,10.36Z"/><path d="M183.6,16.6a152.43,152.43,0,0,0,40.13,19.57c7.38,2.35,10.54-9.23,3.19-11.57A141.19,141.19,0,0,1,189.66,6.23c-6.38-4.38-12.38,6-6.06,10.37Z"/><path d="M193.19,58.24A87.55,87.55,0,0,0,221,56.43c7.54-1.67,4.35-13.24-3.19-11.57a77.42,77.42,0,0,1-24.62,1.38c-7.68-.75-7.62,11.26,0,12Z"/><path d="M266.37,15.05c-2.37,4.91-1.71,9.27.13,14.24,2.18,5.87,4.43,11.71,6.64,17.56L286.42,82c2.7,7.15,14.31,4,11.57-3.19L286.81,49.21l-5.59-14.79c-.93-2.46-1.88-4.92-2.8-7.39-.44-1.19-2.33-4.59-1.69-5.92,3.35-6.92-7-13-10.36-6.06Z"/><path d="M263.16,32.59a454.64,454.64,0,0,0,54.08,15c7.53,1.6,10.75-10,3.19-11.57a456.54,456.54,0,0,1-54.08-15c-7.31-2.53-10.45,9.06-3.19,11.57Z"/><path d="M309.09,21.43a318.24,318.24,0,0,1-32.16,37.22c-5.48,5.45,3,13.94,8.49,8.48a338.18,338.18,0,0,0,34-39.64c4.58-6.23-5.83-12.23-10.36-6.06Z"/><path d="M271.89,56.11l45.69,25.23c6.76,3.73,12.82-6.63,6.05-10.37L278,45.75c-6.77-3.74-12.83,6.62-6.06,10.36Z"/><path d="M353.63,13.57c-6.79-1.48-9.62,3.61-11.84,9.09q-4,9.92-7.09,20.18a245.17,245.17,0,0,0-8.46,41.64c-.91,7.65,11.1,7.59,12,0a226.42,226.42,0,0,1,6-31.29q1.9-7.19,4.27-14.25,1.34-4,2.81-7.89c.48-1.27,1.54-6.11,2.74-6.73l-4.62.61,1,.21c7.53,1.64,10.75-9.92,3.19-11.57Z"/><path d="M325.38,99.55a267.38,267.38,0,0,0,53.21-36.83c5.79-5.13-2.72-13.59-8.49-8.48a254.42,254.42,0,0,1-50.77,34.95c-6.85,3.59-.79,14,6.05,10.36Z"/><path d="M335.34,10.45c5.84,6.75,14,10.22,22.37,12.86,8.1,2.55,17.14,4.3,23.81,9.92,5.86,5,14.4-3.5,8.48-8.48-7-5.88-15.23-8.83-23.85-11.42C358,10.88,349.6,8.65,343.83,2c-5.06-5.86-13.52,2.66-8.49,8.48Z"/><path d="M325.06,33.25c-.86,6.7,5.66,10.06,10.88,12.12a79.86,79.86,0,0,0,21.24,4.93c7.67.8,7.62-11.2,0-12a66.76,66.76,0,0,1-11.38-2.23c-1.7-.48-3.37-1-5-1.64-1-.37-3.62-1.85-3.71-1.18,1-7.64-11-7.57-12,0Z"/><path d="M400,24.35a292.27,292.27,0,0,1,23.08,60c2,7.46,13.54,4.3,11.57-3.19a306.68,306.68,0,0,0-24.29-62.86c-3.55-6.86-13.91-.8-10.36,6.06Z"/><path d="M396.88,39.8a298.44,298.44,0,0,0,47.84,4.31c7.72.06,7.73-11.94,0-12a279.52,279.52,0,0,1-44.65-3.88c-7.55-1.28-10.8,10.28-3.19,11.57Z"/><path d="M441.74,17.13c-7.63,19.75-27.95,31.39-37.73,50-3.59,6.83,6.76,12.9,10.36,6.05,10.36-19.7,30.75-31.66,38.94-52.86,2.78-7.21-8.82-10.33-11.57-3.19Z"/><path d="M403.19,51.44c11,12.25,28.2,11.36,41.74,19,6.75,3.79,12.8-6.57,6.06-10.36C438.8,53.19,421.36,53.72,411.68,43c-5.18-5.75-13.64,2.76-8.49,8.49Z"/><path d="M478,77.45l23.38-32.34c6.79-9.4,14.3-18.78,16.66-30.43,1.52-7.54-10-10.76-11.57-3.19-2.26,11.15-10.1,20.15-16.6,29.14L467.62,71.39c-4.54,6.27,5.87,12.27,10.36,6.06Z"/><path d="M481.3,11.36l53.59,114.58c3.27,7,13.61.9,10.36-6.06L491.66,5.31c-3.27-7-13.62-.91-10.36,6.05Z"/><path d="M465.75,59.68c10.29,4.9,23.66,2.76,34.76,2.75l37.77-.06c7.73,0,7.74-12,0-12l-33.89.05-16.47,0c-5,0-11.45,1.1-16.12-1.12-6.93-3.3-13,7-6.05,10.36Z"/><path d="M6.74,207.71c8.86,4.17,16.85,10.2,25.11,15.43s16.44,10.24,24.78,15.18q25.56,15.12,52,28.68c6.85,3.52,12.93-6.83,6-10.37q-26.41-13.56-52-28.67-12.49-7.41-24.77-15.18c-8.26-5.23-16.25-11.26-25.12-15.44-6.94-3.27-13,7.07-6,10.37Z"/><path d="M5.8,216.86c30.33-.29,60.67-.54,91,.61l-1.6-11.79-79,19.79c-7.48,1.87-4.31,13.45,3.19,11.57l79-19.79c6.72-1.68,5.05-11.53-1.59-11.78-30.32-1.15-60.66-.9-91-.61-7.72.07-7.74,12.07,0,12Z"/><path d="M136.89,192.84v53.68c0,7.72,12,7.73,12,0V192.84c0-7.72-12-7.73-12,0Z"/><path d="M117.37,196.59c1.34-.84,9.33,7.31,10.65,8.35a131.65,131.65,0,0,0,14,9.75,140.2,140.2,0,0,0,31.33,13.68L175,216.59l-39.42,2.24c-7.68.43-7.73,12.43,0,12L175,228.59c6.68-.38,8.25-9.77,1.6-11.79a126.47,126.47,0,0,1-35.38-16.93c-5.08-3.51-9.39-7.82-14.28-11.53-4.57-3.48-10.39-5.41-15.6-2.11-6.51,4.12-.5,14.5,6.05,10.36Z"/><path d="M128.38,222.83l44.92,38.91c5.81,5,14.34-3.42,8.49-8.49l-44.93-38.91c-5.81-5-14.33,3.42-8.48,8.49Z"/><path d="M220.58,234.45,275.35,186l-10.24-4.24a345.32,345.32,0,0,1,1.43,52.15c-.37,7.72,11.64,7.7,12,0a345.32,345.32,0,0,0-1.43-52.15c-.54-5.2-6.15-7.87-10.25-4.24L212.09,226c-5.79,5.13,2.72,13.59,8.49,8.48Z"/><path d="M216.88,203.71A604.21,604.21,0,0,1,264,284.22c3.37,6.95,13.73.87,10.36-6.06a604.09,604.09,0,0,0-47.14-80.5c-4.37-6.31-14.78-.32-10.36,6.05Z"/><path d="M286.46,205.15c-10.67,4.9-17.37,17.12-24.24,26.09l-25.35,33.11c-4.69,6.13,5.73,12.11,10.37,6.06l23-30c3.74-4.88,7.45-9.76,11.2-14.63,3.2-4.15,6.24-8,11.1-10.24,7-3.22.92-13.57-6.06-10.36Z"/><path d="M303.46,201.4l23.14,29.42c4.78,6.06,13.21-2.48,8.49-8.49L312,192.92c-4.77-6.07-13.21,2.48-8.49,8.48Z"/><path d="M303.52,202.48c4.81,4.54,10.87,6.26,17.21,7.49,7.81,1.5,15.7,2.65,23.6,3.5a282.26,282.26,0,0,0,48.47,1c7.66-.5,7.72-12.5,0-12a284.15,284.15,0,0,1-42.68-.4q-10.77-.94-21.44-2.78c-5.35-.92-12.54-1.36-16.67-5.26-5.61-5.31-14.11,3.16-8.49,8.48Z"/><path d="M389.12,185.73a392.65,392.65,0,0,0-28.56,57.19c-6.82,17-10.34,37.85-24.49,50.63-5.75,5.19,2.76,13.66,8.48,8.49,14.62-13.21,18.79-33.08,25.56-50.77a371.4,371.4,0,0,1,29.38-59.48c4-6.62-6.37-12.66-10.37-6.06Z"/><path d="M351.08,297.94c-11.85-10.47-21.23-23.3-26.5-38.28-2.54-7.24-14.14-4.13-11.57,3.19a104.21,104.21,0,0,0,29.58,43.57c5.77,5.1,14.29-3.36,8.49-8.48Z"/><path d="M404.07,228.29c-1.13,10.13,7.69,18.74,12.52,26.83A160.34,160.34,0,0,1,430.1,284c2.55,7.23,14.15,4.12,11.58-3.19a178.65,178.65,0,0,0-12-27q-3.56-6.42-7.64-12.5c-2.65-3.95-6.53-8-6-13,.85-7.66-11.15-7.6-12,0Z"/><path d="M420.38,302.81a222.33,222.33,0,0,1,37.21-36.5c2.58-2,3.9-5.14,2.15-8.21-1.44-2.54-5.65-4.13-8.21-2.15a234.13,234.13,0,0,0-39.64,38.38c-4.8,5.95,3.64,14.49,8.49,8.48Z"/><path d="M392.54,229.68l42.19,6.59c7.55,1.18,10.8-10.38,3.19-11.57l-42.19-6.59c-7.56-1.18-10.81,10.38-3.19,11.57Z"/><path d="M411.44,268.29a161.1,161.1,0,0,0,41.41-13.45c7-3.35.88-13.7-6.06-10.36a150.17,150.17,0,0,1-38.54,12.24c-7.59,1.36-4.38,12.93,3.19,11.57Z"/><path d="M516.08,188.86a163.5,163.5,0,0,0-51.83,50.51c-4.17,6.52,6.21,12.55,10.36,6,12.08-18.88,28.53-34.39,47.53-46.2,6.54-4.06.52-14.45-6.06-10.36Z"/><path d="M454.76,228.09c-1.83,11.24,7.81,19.73,15.3,26.8a150.87,150.87,0,0,0,27.14,20.19c6.67,3.92,12.72-6.45,6.05-10.36a137.88,137.88,0,0,1-21-14.93q-4.41-3.85-8.47-8.09c-2.08-2.17-8-7-7.47-10.42,1.23-7.55-10.33-10.8-11.57-3.19Z"/><path d="M499.1,286.61a86.8,86.8,0,0,1,22.65-8.16c7.55-1.63,4.35-13.2-3.19-11.57A98.55,98.55,0,0,0,493,276.25c-6.82,3.63-.76,14,6.06,10.36Z"/><path d="M481.38,214.63h32.75c7.73,0,7.74-12,0-12H481.38c-7.72,0-7.74,12,0,12Z"/><path d="M560,276c.88-18.3,11.36-36,18.61-52.39L602,170.68c3.09-7-7.25-13.12-10.36-6.06q-12.46,28.24-24.92,56.5C559,238.6,549,256.52,548,276c-.37,7.72,11.63,7.7,12,0Z"/><path d="M534.74,194c32.61,3.87,63.49,16.32,96.17,20,7.66.87,7.6-11.14,0-12-32.64-3.69-63.53-16.14-96.17-20-7.65-.91-7.59,11.1,0,12Z"/></g></g></svg>