<svg xmlns="http://www.w3.org/2000/svg" viewBox="0 0 642.75 253.59"><defs><style>.cls-1{fill:#fff;}</style></defs><title>titulo1</title><g id="Capa_2" data-name="Capa 2"><g id="Layer_1" data-name="Layer 1"><path class="cls-1" d="M1,47.28,69.86,152.37c4.22,6.44,14.62.43,10.37-6.05L11.36,41.23C7.15,34.79-3.25,40.8,1,47.28Z"/><path d="M12.32,29.71a398.41,398.41,0,0,0,57.09,77.16c5.32,5.62,13.79-2.87,8.49-8.48A385.08,385.08,0,0,1,22.68,23.65C18.87,16.93,8.5,23,12.32,29.71Z"/><path d="M10,36c28.69,7.6,58.75,13.59,85.79,26.14V51.82c-20,8.52-42.75,8.85-61,21.65-6.28,4.4-.29,14.81,6.05,10.36,17.94-12.59,41.18-13.21,61-21.65,4-1.72,3.83-8.58,0-10.36C73.76,38.79,43,32.36,13.17,24.47,5.69,22.49,2.51,34.06,10,36Z"/><path d="M103.14,30.16l1.18-.23-4.63-.6c2.74,1.49,4.78,6,6.56,8.48s3.54,5,5.27,7.54q6,8.73,11.59,17.7,11,17.55,20.48,36c3.55,6.86,13.91.8,10.36-6q-11.22-21.66-24.42-42.19Q123,40.73,116.08,31C112,25.27,108.14,17,100,18.59c-7.58,1.46-4.37,13,3.19,11.57Z"/><path d="M141.82,103.56A406.16,406.16,0,0,0,181.5,68.28c5.43-5.5-3.05-14-8.48-8.48a407.37,407.37,0,0,1-39.68,35.27c-6.09,4.74,2.46,13.18,8.48,8.49Z"/><path d="M91.24,25a168.4,168.4,0,0,0,54.94,25.23c7.49,1.92,10.68-9.65,3.19-11.57a158.93,158.93,0,0,1-52.07-24C91,10.18,85,20.58,91.24,25Z"/><path d="M126.69,81.52l30.08-13.83c7-3.22.92-13.57-6.06-10.36L120.63,71.15c-7,3.22-.92,13.57,6.06,10.37Z"/><path d="M189.66,19.68c-1.19,4.89.53,8.86,2.3,13.36q3,7.73,6.36,15.35c4.37,10.07,9.14,20,14.23,29.68,3.59,6.85,13.95.79,10.36-6Q216.58,59.93,211,47.49q-2.76-6.15-5.32-12.4-1.24-3-2.45-6.11c-.6-1.53-2.38-4.4-2-6.11,1.82-7.5-9.75-10.7-11.57-3.19Z"/><path d="M184.3,35.53c19.37,4.3,38,13.2,56.43,20.35l1.6-11.79a147.3,147.3,0,0,0-23.18,4.37c-6.08,1.71-13.62,5.49-10.08,13.16,1.25,2.7,3.66,4.31,6,6,3.57,2.64,7.2,5.2,10.85,7.74q10.15,7,20.64,13.64c6.55,4.13,12.58-6.25,6.06-10.36Q238.5,69.77,225,60.08c-1-.74-2.06-1.48-3.08-2.23-1.94-1.44-1.86-2.47-2.55.84-.75,3.59.32,2.1,3,1.34,1.18-.33,2.36-.64,3.55-.94a125.69,125.69,0,0,1,16.44-3c6.77-.77,8.09-9.27,1.59-11.78-18.45-7.15-37.06-16-56.43-20.35-7.52-1.67-10.74,9.89-3.19,11.57Z"/><path d="M297.91,27a268.41,268.41,0,0,1-14.59,37.87q-4.15,8.7-8.93,17.07c-2.63,4.61-5,10.37.43,14.12,4.58,3.16,12.35,1.22,17.55,1,6.37-.32,13-.17,19.25-1.36,6.44-1.22,12.74-3.87,19-5.89l20.92-6.79c7.31-2.37,4.18-14-3.19-11.57C336.67,75.15,325.05,79,313.38,82.7c-4.73,1.5-9.27,1.69-14.21,1.94l-8.75.44c-.95,0-9.4-.14-9.72.49l2.68,4.77.92-1.59c1-.84,1.63-2.89,2.24-4,1.33-2.41,2.63-4.84,3.88-7.28q3.76-7.35,7.08-14.92a293.23,293.23,0,0,0,12-32.4c2.24-7.41-9.34-10.57-11.57-3.19Z"/><path d="M293.23,15.72A150.23,150.23,0,0,0,321,56.3c5.34,5.6,13.81-2.89,8.48-8.48A140.5,140.5,0,0,1,303.59,9.66c-3.24-7-13.58-.91-10.36,6.06Z"/><path d="M282.25,62a113,113,0,0,0,26.49,4.71c7.71.46,7.69-11.54,0-12a99.38,99.38,0,0,1-23.3-4.28c-7.4-2.27-10.56,9.31-3.19,11.57Z"/><path d="M360.53,16.31c-5.32,5.79-1.42,12.08,1.82,17.86Q368,44.36,374.08,54.34q12.32,20.37,26,39.86c4.4,6.28,14.81.29,10.36-6.06q-11.24-16-21.61-32.7-4.92-7.92-9.64-16-2.58-4.44-5.11-8.91l-2.28-4.07-.91-1.63q-.86-3.24-1.87-.06c5.22-5.67-3.25-14.18-8.49-8.48Z"/><path d="M359.75,47.66q36-.9,72,.66c7.72.33,7.71-11.67,0-12q-36-1.56-72-.66c-7.7.19-7.73,12.2,0,12Z"/><path d="M420.08,24.81q-23.59,20.91-46.4,42.66c-5.6,5.34,2.89,13.82,8.48,8.49Q405,54.2,428.57,33.3c5.79-5.13-2.72-13.59-8.49-8.49Z"/><path d="M378.73,65.73a111,111,0,0,1,49.83,10.34c6.95,3.26,13.05-7.09,6.05-10.36a124.47,124.47,0,0,0-55.88-12c-7.71.17-7.74,12.17,0,12Z"/><path d="M463.14,93.19C476.49,64.88,489.35,36.31,504.7,9c3.78-6.74-6.58-12.8-10.36-6.06C479,30.25,466.13,58.82,452.78,87.14c-3.27,6.94,7.07,13,10.36,6Z"/><path d="M464.15,9.89q28.67,37.8,55.12,77.21c4.28,6.38,14.68.38,10.36-6.06Q503.19,41.65,474.51,3.83c-4.61-6.08-15-.1-10.36,6.06Z"/><path d="M450.74,66.89l86-1.21c7.72-.11,7.74-12.11,0-12l-86,1.21c-7.71.1-7.74,12.1,0,12Z"/><path d="M56.74,154.44a715.29,715.29,0,0,1,42.35,67.84c3.72,6.77,14.09.72,10.36-6.06A716.41,716.41,0,0,0,67.1,148.39c-4.41-6.27-14.82-.28-10.36,6.05Z"/><path d="M42.76,159c16,1.3,31.78,8.2,46.95,13.16L137,187.65c7.35,2.41,10.51-9.18,3.19-11.57L91,160c-15.75-5.15-31.61-11.62-48.25-13-7.7-.62-7.66,11.38,0,12Z"/><path d="M134.29,158c-28,9.27-46.23,35.67-74.3,44.43-7.34,2.29-4.21,13.88,3.19,11.57,28.3-8.83,46.4-35.2,74.3-44.43,7.29-2.41,4.17-14-3.19-11.57Z"/><path d="M153.21,154.89c2.11,13.3,4.1,26.09,9.78,38.42,5.4,11.75,12.8,22.53,17,34.8,2.51,7.26,14.1,4.14,11.57-3.19-4.23-12.23-11.12-23.09-16.81-34.64-6.05-12.25-7.9-25.22-10-38.58-1.21-7.61-12.77-4.38-11.57,3.19Z"/><path d="M156.15,175.08c3.45-1,9.23,2.19,12.65,3.27l13.07,4.13L208,190.73c7.38,2.33,10.54-9.25,3.19-11.57l-29.88-9.43L166.39,165c-4.55-1.43-8.7-2.92-13.43-1.5-7.38,2.21-4.23,13.8,3.19,11.57Z"/><path d="M208.59,164.14a428,428,0,0,0-59.73,44.43c-5.79,5.13,2.72,13.59,8.48,8.48a411.19,411.19,0,0,1,57.31-42.55c6.56-4,.54-14.42-6.06-10.36Z"/><path d="M158.12,203.92c2.55-.41,6.53,1.65,8.88,2.36l9.55,2.88,19.08,5.77,38.17,11.53c7.41,2.24,10.58-9.34,3.19-11.57l-42-12.68-21-6.35c-6.3-1.9-12.43-4.57-19.08-3.51-7.61,1.21-4.38,12.77,3.19,11.57Z"/><path d="M259.57,196.37a699.7,699.7,0,0,1,40.71-64.56c4.48-6.31-5.92-12.31-10.36-6a698.21,698.21,0,0,0-40.71,64.55c-3.76,6.75,6.6,12.81,10.36,6.06Z"/><path d="M267.88,138.29q25.08,31.07,49.27,62.84c4.61,6.06,15,.09,10.36-6.06q-25.11-33-51.15-65.26c-4.85-6-13.29,2.52-8.48,8.48Z"/><path d="M240.82,183.44c4.82,2.23,8.11,6.12,11.81,9.79a141.75,141.75,0,0,0,12.26,10.84,151.13,151.13,0,0,0,28.29,17.67c6.93,3.32,13-7,6.06-10.36a138.43,138.43,0,0,1-28.55-18c-7.84-6.48-14.45-16-23.81-20.34-7-3.22-13.06,7.12-6.06,10.36Z"/><path d="M320.7,162.7a235.5,235.5,0,0,0-15.39,19.79c-4.44,6.43-7.95,13.45-12.33,19.88-4.23,6.21-11.51,8.09-17.43,12.23A40.42,40.42,0,0,0,262,230.7c-3.24,7,7.1,13.06,10.36,6.06a30.46,30.46,0,0,1,13.26-14.3C292,218.92,298,216,302.35,209.88c4.49-6.32,7.93-13.4,12.3-19.83a204.42,204.42,0,0,1,14.54-18.87c5-5.82-3.43-14.34-8.49-8.48Z"/><path d="M347.07,220.1l29.68,16.56c6.76,3.77,12.81-6.59,6.06-10.36l-29.69-16.56c-6.75-3.77-12.8,6.59-6.05,10.36Z"/><path d="M375.92,250.5c11.27-23.84,21.44-48.49,37.49-69.62,4.67-6.14-5.74-12.13-10.36-6C387,196,376.83,220.61,365.56,244.45c-3.28,6.94,7.06,13,10.36,6.05Z"/><path d="M362.91,157.53a50.64,50.64,0,0,0-4.12-17c-1.28-3-5.67-3.64-8.21-2.15-3.09,1.8-3.43,5.22-2.16,8.21a33.33,33.33,0,0,1,2.49,10.9,6.14,6.14,0,0,0,6,6c3.09,0,6.21-2.75,6-6Z"/><path d="M325.37,140c29.84,13.22,62.43,13.73,94.52,13.62,7.72,0,7.74-12,0-12-29.7.1-60.77.28-88.46-12-7-3.1-13.11,7.24-6.06,10.36Z"/><path d="M387.2,133.5c1,12.18,1.78,24.43,3.32,36.56a148.67,148.67,0,0,0,3.06,17c1.51,6.17,3.56,12.38,2.12,18.76-1.7,7.52,9.86,10.73,11.57,3.19,2.84-12.54-2.64-24.63-4.46-36.92-1.89-12.77-2.52-25.77-3.61-38.63-.65-7.64-12.65-7.71-12,0Z"/><path d="M442.29,141.54c2.61,31.15-4.25,63.51,6.94,93.56,2.67,7.17,14.28,4.07,11.57-3.19-10.78-29-4-60.32-6.51-90.37-.64-7.64-12.64-7.71-12,0Z"/><path d="M442.76,243.58q20.36-23.21,40.22-46.82c4.94-5.87-3.51-14.4-8.49-8.48q-19.86,23.61-40.21,46.81c-5.08,5.79,3.38,14.31,8.48,8.49Z"/><path d="M424.37,141.18A131.4,131.4,0,0,0,476.23,165c7.53,1.62,10.75-9.95,3.19-11.57a123.35,123.35,0,0,1-49-22.58c-6.15-4.68-12.14,5.74-6.06,10.36Z"/><path d="M434.75,185.54h34c7.72,0,7.74-12,0-12h-34c-7.72,0-7.73,12,0,12Z"/><path d="M529.75,139.39,496.46,165c-2.59,2-3.9,5.14-2.16,8.21,1.45,2.54,5.65,4.12,8.21,2.15l33.29-25.62c2.59-2,3.9-5.14,2.16-8.21-1.45-2.54-5.65-4.13-8.21-2.15Z"/><path d="M488.83,156.43l18.86,33.88c5.65,10.15,10.72,21.07,18.36,29.92,5.05,5.86,13.51-2.66,8.48-8.49-7.29-8.45-12-19.52-17.45-29.23l-17.89-32.13c-3.75-6.75-14.12-.71-10.36,6.05Z"/><path d="M514,223.62c6.74,1.85,12.42-.56,18.53-3.26A66.1,66.1,0,0,1,552.76,215c7.62-.75,7.7-12.76,0-12a78.88,78.88,0,0,0-18.23,3.75c-5.06,1.75-11.88,6.82-17.34,5.32-7.46-2-10.64,9.53-3.19,11.58Z"/><path d="M591.61,219.53c-2.31-31.21-4.6-63,3.57-93.63,2-7.46-9.57-10.65-11.57-3.19-8.46,31.67-6.39,64.5-4,96.82.57,7.65,12.57,7.71,12,0Z"/><path d="M536.15,136.13c11.68,13.43,27.29,22.19,43.62,28.77,9.27,3.74,18.82,6.75,28.33,9.81,4.69,1.52,9.38,3,14,4.68,3.61,1.3,7.35,2.81,9.38,6.24,3.94,6.64,14.32.61,10.37-6-4.38-7.39-12.15-10.28-19.89-12.92-10.06-3.42-20.25-6.45-30.26-10-17.59-6.28-34.65-14.69-47.09-29-5.08-5.84-13.53,2.68-8.48,8.48Z"/></g></g></svg>