<svg xmlns="http://www.w3.org/2000/svg" viewBox="0 0 656.87 571.75"><defs><style>.cls-1{fill:#fefefe;}.cls-2{fill:#080309;}.cls-3{fill:#fde901;}.cls-4{fill:#09030a;}</style></defs><title>voltaje2</title><g id="Capa_2" data-name="Capa 2"><g id="Layer_1" data-name="Layer 1"><path class="cls-1" d="M0,571.75V0H656.87V571.75ZM321.89,548q132,0,264,0a47.42,47.42,0,0,0,11.85-1.2,35,35,0,0,0,26.44-34.93c-.25-7.09-2.81-13.23-6.33-19.16Q583.06,434,548.32,375.22,473.13,248.1,397.91,121q-22.32-37.72-44.68-75.42A36.11,36.11,0,0,0,306.4,31c-7.68,3.59-13,9.59-17.2,16.8q-43.62,74-87.38,148Q148.21,286.52,94.54,377.19c-23.09,39-46,78.1-69.34,117-10.47,17.45-5.29,40.45,14.8,50.35,5.64,2.78,11.65,3.54,17.91,3.54Q189.9,548,321.89,548Z"/><path class="cls-2" d="M321.89,548q-132,0-264,0c-6.26,0-12.27-.76-17.91-3.54-20.09-9.9-25.27-32.9-14.8-50.35,23.3-38.89,46.25-78,69.34-117q53.65-90.68,107.28-181.36,43.74-74,87.38-148c4.24-7.21,9.52-13.21,17.2-16.8a36.11,36.11,0,0,1,46.83,14.53Q375.66,83.24,397.91,121,473.12,248.1,548.32,375.22q34.75,58.72,69.51,117.47c3.52,5.93,6.08,12.07,6.33,19.16a35,35,0,0,1-26.44,34.93,47.42,47.42,0,0,1-11.85,1.2Q453.89,548.07,321.89,548ZM322,63.42,56.11,512.83H587.85Z"/><path class="cls-3" d="M322,63.42,587.85,512.83H56.11ZM354.52,309H337.27l20,26.32c-4.55,1.48-5.74,1.65-10.54.12-9-2.87-17.91-6-26.86-9-10.25-3.44-19.31-.94-27.43,5.68a9.88,9.88,0,0,0-3.08,4.4,6.2,6.2,0,0,0,.5,4.61,4.17,4.17,0,0,0,5.29,1.65c5-2,10.32-2.34,15.55-3.22a9.73,9.73,0,0,1,8.31,2.12A80,80,0,0,0,342.82,355c2.58.93,5,2.3,7.41,3.43-1.78,5.74-2,5.84-6.56,7.91a32.25,32.25,0,0,1-16.89,3c-5-.52-10.06,0-15-.76a142.28,142.28,0,0,0-19.33-1.65,29.11,29.11,0,0,0-17.72,5.5c-8.72,6-16.31,13.15-23.61,20.71A175.69,175.69,0,0,1,225,414.83c-.84-1.45-1.49-2.58-2.15-3.69a30.77,30.77,0,0,0-2.59-4.24c-1.64-2-3.68-3.71-6.45-2.67-2.5.94-4.45,2.37-5.05,5.56-.83,4.42.08,8.58.66,12.84.88,6.44,4.85,11.57,7.37,17.31,2.36,5.39,5,6.13,10.32,3.45,3.41-1.71,6.72-3.65,10.25-5.05a46.56,46.56,0,0,0,14.41-8.72c7.27-6.61,14.29-13.49,21.44-20.23,3.26-3.08,6.41-6.32,9.92-9.1a24.87,24.87,0,0,1,23.73-3.71c-5.56,2.8-11.05,5.51-16.46,8.33a10.58,10.58,0,0,0-3.93,2.86c-2.79,4.12-5.4,8.34-5.59,13.63a108.14,108.14,0,0,1-1.17,10.89c-1.22,9-2.6,18.07-3.74,27.13-1.23,9.89-4.9,13.3-14.93,13.47-.33,0-.67,0-1,0a10.25,10.25,0,0,0-7.21,2.36c.83,1.92,1.15,4.45,2.58,5.69,4,3.45,8.58,6.52,14,7,7.29.68,14.62.82,21.94,1.07a18.24,18.24,0,0,0,4.9-.7,4.61,4.61,0,0,0,3.75-4.65c.2-3.65.9-7.31.72-10.93-.7-14.5,2.59-28.37,6.2-42.21a11,11,0,0,1,4.83-6.75,33.69,33.69,0,0,1,8-3.83c5.22-1.58,10.61-2.6,15.89-4,9.29-2.48,18.53-5.15,26.65-10.56a10.16,10.16,0,0,1,8.17-1.19c4.92,1.1,9.54.14,14.22-1.13,8.52-2.32,16.42-6.13,24.39-9.82a41.35,41.35,0,0,1,8-2.44,4.08,4.08,0,0,1,4.88,2.52c3.74,7.94,7.52,15.86,11.13,23.85a6.77,6.77,0,0,1,.45,4.33c-1.86,6.29-2.09,12.75-2.62,19.21a13.27,13.27,0,0,1-2.32,6.9c-3.79,4.76-8.11,9.11-12.34,13.75,3,7.55,8.56,8,14.69,5.5a50.12,50.12,0,0,0,5.28-2.77,6.91,6.91,0,0,0,3.83-5.44c.55-3.82,2.32-7.14,4.49-10.39a54.36,54.36,0,0,0,5.19-10.68,106,106,0,0,0,4-12.81c2-8.11,2.29-16-2.75-23.45-3.26-4.8-6.11-9.89-9.06-14.89a23.79,23.79,0,0,1-3.71-13.32c3.42,0,6.55,0,9.68,0,8.83.07,17.17-8.27,17.39-17.13a14.06,14.06,0,0,0-4.54-11.13c-3.69-3.57-7.21-7.34-10.57-11.23-1.51-1.75-3.46-2-5.32-2.33-4.87-.93-9.8-1.59-14.71-2.3-4-.57-5.2.07-7.3,3.66-1.16,2-2.34,3.94-3.67,6.18-5.07-1.22-9.88-2.29-14.65-3.56-7-1.86-13.86-3-20.88.21a6.86,6.86,0,0,1-7.35-.72l17.31-25.62H375.69V189.91L310.1,251.85c0-13.31,0-26.12,0-38.93s1.33-25.81.53-38.73H273.19c.26,2.79.54,5.24.71,7.7q1,15.2,2,30.38c1,16.1,2.08,32.2,3.06,48.31.82,13.45,1.51,26.91,2.33,40.36.29,4.79.76,9.57,1.2,15l72.08-63.56Z"/><path class="cls-4" d="M354.52,309V252.34L282.44,315.9c-.44-5.39-.91-10.17-1.2-15-.82-13.45-1.51-26.91-2.33-40.36-1-16.11-2-32.21-3.06-48.31q-1-15.2-2-30.38c-.17-2.46-.45-4.91-.71-7.7h37.44c.8,12.92-.54,25.83-.53,38.73s0,25.62,0,38.93l65.59-61.94V309.13h17.93l-17.31,25.62a6.86,6.86,0,0,0,7.35.72c7-3.17,13.89-2.07,20.88-.21,4.77,1.27,9.58,2.34,14.65,3.56,1.33-2.24,2.51-4.21,3.67-6.18,2.1-3.59,3.31-4.23,7.3-3.66,4.91.71,9.84,1.37,14.71,2.3,1.86.35,3.81.58,5.32,2.33,3.36,3.89,6.88,7.66,10.57,11.23A14.06,14.06,0,0,1,465.3,356c-.22,8.86-8.56,17.2-17.39,17.13-3.13,0-6.26,0-9.68,0a23.79,23.79,0,0,0,3.71,13.32c2.95,5,5.8,10.09,9.06,14.89,5,7.41,4.75,15.34,2.75,23.45a106,106,0,0,1-4,12.81,54.36,54.36,0,0,1-5.19,10.68c-2.17,3.25-3.94,6.57-4.49,10.39a6.91,6.91,0,0,1-3.83,5.44,50.12,50.12,0,0,1-5.28,2.77c-6.13,2.46-11.66,2-14.69-5.5,4.23-4.64,8.55-9,12.34-13.75a13.27,13.27,0,0,0,2.32-6.9c.53-6.46.76-12.92,2.62-19.21a6.77,6.77,0,0,0-.45-4.33c-3.61-8-7.39-15.91-11.13-23.85a4.08,4.08,0,0,0-4.88-2.52,41.35,41.35,0,0,0-8,2.44c-8,3.69-15.87,7.5-24.39,9.82-4.68,1.27-9.3,2.23-14.22,1.13a10.16,10.16,0,0,0-8.17,1.19c-8.12,5.41-17.36,8.08-26.65,10.56-5.28,1.41-10.67,2.43-15.89,4a33.69,33.69,0,0,0-8,3.83,11,11,0,0,0-4.83,6.75c-3.61,13.84-6.9,27.71-6.2,42.21.18,3.62-.52,7.28-.72,10.93a4.61,4.61,0,0,1-3.75,4.65,18.24,18.24,0,0,1-4.9.7c-7.32-.25-14.65-.39-21.94-1.07-5.44-.51-10-3.58-14-7-1.43-1.24-1.75-3.77-2.58-5.69a10.25,10.25,0,0,1,7.21-2.36c.33,0,.67,0,1,0,10-.17,13.7-3.58,14.93-13.47,1.14-9.06,2.52-18.08,3.74-27.13a108.14,108.14,0,0,0,1.17-10.89c.19-5.29,2.8-9.51,5.59-13.63a10.58,10.58,0,0,1,3.93-2.86c5.41-2.82,10.9-5.53,16.46-8.33a24.87,24.87,0,0,0-23.73,3.71c-3.51,2.78-6.66,6-9.92,9.1-7.15,6.74-14.17,13.62-21.44,20.23a46.56,46.56,0,0,1-14.41,8.72c-3.53,1.4-6.84,3.34-10.25,5.05-5.32,2.68-8,1.94-10.32-3.45-2.52-5.74-6.49-10.87-7.37-17.31-.58-4.26-1.49-8.42-.66-12.84.6-3.19,2.55-4.62,5.05-5.56,2.77-1,4.81.7,6.45,2.67a30.77,30.77,0,0,1,2.59,4.24c.66,1.11,1.31,2.24,2.15,3.69a175.69,175.69,0,0,0,26.13-21.72c7.3-7.56,14.89-14.76,23.61-20.71a29.11,29.11,0,0,1,17.72-5.5,142.28,142.28,0,0,1,19.33,1.65c4.9.79,10,.24,15,.76a32.25,32.25,0,0,0,16.89-3c4.61-2.07,4.78-2.17,6.56-7.91-2.41-1.13-4.83-2.5-7.41-3.43A80,80,0,0,1,319,341.75a9.73,9.73,0,0,0-8.31-2.12c-5.23.88-10.54,1.25-15.55,3.22a4.17,4.17,0,0,1-5.29-1.65,6.2,6.2,0,0,1-.5-4.61,9.88,9.88,0,0,1,3.08-4.4c8.12-6.62,17.18-9.12,27.43-5.68,8.95,3,17.87,6.09,26.86,9,4.8,1.53,6,1.36,10.54-.12l-20-26.32Z"/></g></g></svg>