<svg xmlns="http://www.w3.org/2000/svg" viewBox="0 0 604.26 520.54"><defs><style>.cls-1{fill:#fefefe;}.cls-2{fill:#080309;}.cls-3{fill:#fde901;}.cls-4{fill:#09030a;}</style></defs><title>voltaje</title><g id="Capa_2" data-name="Capa 2"><g id="Layer_1" data-name="Layer 1"><path class="cls-1" d="M302,520.5q132,0,264,0a47.42,47.42,0,0,0,11.85-1.2,35,35,0,0,0,26.44-34.93c-.25-7.08-2.81-13.23-6.33-19.16q-34.77-58.73-69.51-117.47L378,93.46Q355.67,55.74,333.31,18A36.12,36.12,0,0,0,286.48,3.52c-7.68,3.58-13,9.59-17.2,16.79q-43.62,74-87.38,148Q128.29,259,74.62,349.66c-23.09,39-46,78.11-69.35,117C-5.19,484.11,0,507.11,20.08,517c5.64,2.78,11.65,3.55,17.91,3.54Q170,520.45,302,520.5Z"/><path class="cls-2" d="M302,520.5q-132,0-264,0c-6.26,0-12.27-.76-17.91-3.54C0,507.11-5.19,484.11,5.27,466.65c23.31-38.88,46.26-78,69.35-117Q128.28,259,181.9,168.3q43.74-74,87.38-148c4.24-7.2,9.52-13.21,17.2-16.79A36.12,36.12,0,0,1,333.31,18Q355.74,55.71,378,93.46L528.4,347.69q34.76,58.74,69.51,117.47c3.52,5.93,6.08,12.08,6.33,19.16a35,35,0,0,1-26.44,34.93,47.42,47.42,0,0,1-11.85,1.2Q434,520.55,302,520.5Zm.09-484.6L36.19,485.31H567.93Z"/><path class="cls-3" d="M302.06,35.9,567.93,485.31H36.19ZM334.6,281.5H317.35l20,26.32c-4.55,1.49-5.74,1.66-10.54.12-9-2.87-17.91-6-26.86-9-10.25-3.44-19.31-.94-27.43,5.69a9.82,9.82,0,0,0-3.08,4.4,6.18,6.18,0,0,0,.5,4.6,4.17,4.17,0,0,0,5.29,1.65c5-2,10.32-2.34,15.55-3.22a9.76,9.76,0,0,1,8.31,2.12,80,80,0,0,0,23.8,13.23c2.58.94,5,2.3,7.41,3.43-1.78,5.75-1.95,5.85-6.56,7.91a32.16,32.16,0,0,1-16.89,3c-5-.52-10.06,0-15-.76a140.69,140.69,0,0,0-19.33-1.64,29,29,0,0,0-17.72,5.49c-8.72,6-16.31,13.15-23.61,20.72a175.63,175.63,0,0,1-26.13,21.71c-.84-1.45-1.49-2.57-2.15-3.69a32,32,0,0,0-2.59-4.24c-1.64-2-3.68-3.7-6.45-2.66-2.5.93-4.45,2.37-5,5.55-.83,4.42.08,8.58.66,12.84.88,6.44,4.85,11.57,7.37,17.31,2.36,5.39,5,6.13,10.32,3.45,3.41-1.71,6.72-3.65,10.25-5.05a46.72,46.72,0,0,0,14.41-8.71c7.27-6.62,14.29-13.49,21.44-20.24,3.26-3.08,6.41-6.32,9.92-9.1A24.92,24.92,0,0,1,287,369.05c-5.56,2.8-11.05,5.51-16.46,8.34a10.37,10.37,0,0,0-3.93,2.86c-2.79,4.11-5.4,8.33-5.59,13.62a108.33,108.33,0,0,1-1.17,10.9c-1.22,9-2.6,18.07-3.74,27.12-1.23,9.89-4.9,13.3-14.93,13.47-.33,0-.67,0-1,0a10.3,10.3,0,0,0-7.21,2.36c.83,1.92,1.15,4.46,2.58,5.69,4,3.45,8.58,6.53,14,7,7.29.68,14.62.82,21.94,1.07a18.64,18.64,0,0,0,4.9-.69,4.63,4.63,0,0,0,3.75-4.66c.2-3.65.9-7.31.72-10.93-.7-14.5,2.59-28.37,6.2-42.21a11,11,0,0,1,4.83-6.75,33.69,33.69,0,0,1,8-3.83c5.22-1.57,10.61-2.59,15.89-4,9.29-2.49,18.53-5.16,26.65-10.57a10.2,10.2,0,0,1,8.17-1.19c4.92,1.1,9.54.14,14.22-1.13,8.52-2.32,16.42-6.12,24.39-9.82a41.33,41.33,0,0,1,8-2.43,4.06,4.06,0,0,1,4.88,2.52c3.74,7.94,7.52,15.85,11.13,23.85a6.67,6.67,0,0,1,.44,4.32c-1.85,6.3-2.08,12.76-2.61,19.22a13.23,13.23,0,0,1-2.32,6.89c-3.79,4.77-8.11,9.11-12.34,13.76,3,7.54,8.56,7.95,14.69,5.5a52.16,52.16,0,0,0,5.28-2.78,6.89,6.89,0,0,0,3.83-5.44c.55-3.82,2.32-7.13,4.49-10.39A54.36,54.36,0,0,0,429.87,410a105.81,105.81,0,0,0,4-12.8c2-8.12,2.29-16.05-2.75-23.46-3.26-4.8-6.11-9.88-9.06-14.89a23.75,23.75,0,0,1-3.71-13.32c3.42,0,6.55,0,9.68,0,8.83.08,17.17-8.26,17.39-17.13a14.06,14.06,0,0,0-4.54-11.13c-3.69-3.57-7.21-7.34-10.57-11.23-1.51-1.75-3.46-2-5.32-2.33-4.87-.93-9.8-1.58-14.71-2.29-4-.58-5.2.07-7.3,3.65-1.16,2-2.34,3.94-3.67,6.18-5.07-1.22-9.88-2.28-14.65-3.55-7-1.86-13.86-3-20.88.21a6.88,6.88,0,0,1-7.35-.73c5.69-8.42,11.24-16.64,17.31-25.61H355.77V162.39l-65.59,61.93c0-13.3,0-26.11,0-38.92s1.33-25.81.53-38.73H253.27c.26,2.78.54,5.23.71,7.7q1,15.18,2,30.37c1,16.1,2.08,32.21,3.06,48.31.82,13.45,1.51,26.91,2.33,40.37.29,4.79.76,9.57,1.2,15,24-21.2,47.8-42.16,72.08-63.56Z"/><path class="cls-4" d="M334.6,281.5V224.82c-24.28,21.4-48,42.36-72.08,63.56-.44-5.39-.91-10.17-1.2-15-.82-13.46-1.51-26.92-2.33-40.37-1-16.1-2-32.21-3.06-48.31q-1-15.18-2-30.37c-.17-2.47-.45-4.92-.71-7.7h37.44c.8,12.92-.54,25.82-.53,38.73s0,25.62,0,38.92l65.59-61.93V281.61H373.7c-6.07,9-11.62,17.19-17.31,25.61a6.88,6.88,0,0,0,7.35.73c7-3.17,13.89-2.07,20.88-.21,4.77,1.27,9.58,2.33,14.65,3.55,1.33-2.24,2.51-4.2,3.67-6.18,2.1-3.58,3.31-4.23,7.3-3.65,4.91.71,9.84,1.36,14.71,2.29,1.86.35,3.81.58,5.32,2.33,3.36,3.89,6.88,7.66,10.57,11.23a14.06,14.06,0,0,1,4.54,11.13c-.22,8.87-8.56,17.21-17.39,17.13-3.13,0-6.26,0-9.68,0A23.75,23.75,0,0,0,422,358.89c3,5,5.8,10.09,9.06,14.89,5,7.41,4.75,15.34,2.75,23.46a105.81,105.81,0,0,1-4,12.8,54.36,54.36,0,0,1-5.19,10.68c-2.17,3.26-3.94,6.57-4.49,10.39a6.89,6.89,0,0,1-3.83,5.44,52.16,52.16,0,0,1-5.28,2.78c-6.13,2.45-11.66,2-14.69-5.5,4.23-4.65,8.55-9,12.34-13.76a13.23,13.23,0,0,0,2.32-6.89c.53-6.46.76-12.92,2.61-19.22a6.67,6.67,0,0,0-.44-4.32c-3.61-8-7.39-15.91-11.13-23.85a4.06,4.06,0,0,0-4.88-2.52,41.33,41.33,0,0,0-8,2.43c-8,3.7-15.87,7.5-24.39,9.82-4.68,1.27-9.3,2.23-14.22,1.13a10.2,10.2,0,0,0-8.17,1.19c-8.12,5.41-17.36,8.08-26.65,10.57-5.28,1.41-10.67,2.43-15.89,4a33.69,33.69,0,0,0-8,3.83,11,11,0,0,0-4.83,6.75c-3.61,13.84-6.9,27.71-6.2,42.21.18,3.62-.52,7.28-.72,10.93a4.63,4.63,0,0,1-3.75,4.66,18.64,18.64,0,0,1-4.9.69c-7.32-.25-14.65-.39-21.94-1.07-5.44-.5-10-3.58-14-7-1.43-1.23-1.75-3.77-2.58-5.69a10.3,10.3,0,0,1,7.21-2.36c.33,0,.67,0,1,0,10-.17,13.7-3.58,14.93-13.47,1.14-9.05,2.52-18.08,3.74-27.12a108.33,108.33,0,0,0,1.17-10.9c.19-5.29,2.8-9.51,5.59-13.62a10.37,10.37,0,0,1,3.93-2.86c5.41-2.83,10.9-5.54,16.46-8.34a24.92,24.92,0,0,0-23.73,3.71c-3.51,2.78-6.66,6-9.92,9.1-7.15,6.75-14.17,13.62-21.44,20.24a46.72,46.72,0,0,1-14.41,8.71c-3.53,1.4-6.84,3.34-10.25,5.05-5.33,2.68-8,1.94-10.32-3.45-2.52-5.74-6.49-10.87-7.37-17.31-.58-4.26-1.49-8.42-.66-12.84.6-3.18,2.55-4.62,5-5.55,2.77-1,4.81.69,6.45,2.66a32,32,0,0,1,2.59,4.24c.66,1.12,1.31,2.24,2.15,3.69a175.63,175.63,0,0,0,26.13-21.71c7.3-7.57,14.89-14.76,23.61-20.72a29,29,0,0,1,17.72-5.49A140.69,140.69,0,0,1,291.9,341c4.9.8,10,.24,15,.76a32.16,32.16,0,0,0,16.89-3c4.61-2.06,4.78-2.16,6.56-7.91-2.41-1.13-4.83-2.49-7.41-3.43a80,80,0,0,1-23.8-13.23,9.76,9.76,0,0,0-8.31-2.12c-5.23.88-10.54,1.26-15.55,3.22a4.17,4.17,0,0,1-5.29-1.65,6.18,6.18,0,0,1-.5-4.6,9.82,9.82,0,0,1,3.08-4.4c8.12-6.63,17.18-9.13,27.43-5.69,9,3,17.87,6.09,26.86,9,4.8,1.54,6,1.37,10.54-.12l-20-26.32Z"/></g></g></svg>